<?xml version="1.0" encoding="UTF-8"?>
<svg id="Layer_1" data-name="Layer 1" xmlns="http://www.w3.org/2000/svg" xmlns:xlink="http://www.w3.org/1999/xlink" viewBox="0 0 2206 2557">
  <defs>
    <style>
      .cls-1 {
        stroke: #51c1e2;
        stroke-miterlimit: 10;
        stroke-width: 3px;
      }

      .cls-2 {
        fill: #51c1e2;
      }

      .cls-2, .cls-3, .cls-4 {
        fill-rule: evenodd;
      }

      .cls-5 {
        fill: #0f0d28;
      }

      .cls-6 {
        opacity: .5;
      }

      .cls-4 {
        fill: url(#linear-gradient);
      }

      .cls-7 {
        fill: #13244d;
      }
    </style>
    <linearGradient id="linear-gradient" x1="1102.5" y1="2477" x2="1102.5" y2="64" gradientUnits="userSpaceOnUse">
      <stop offset="0" stop-color="#ff0075"/>
      <stop offset="1" stop-color="#ff8200"/>
    </linearGradient>
  </defs>
  <path id="Background-color" class="cls-4" d="M1102.5,64L52.44,667.25v1206.5l1050.06,603.25,1050.06-603.25V667.25L1102.5,64Z"/>
  <polygon class="cls-5" points="1102 2477 590 2182 1615 2182 1103 2477 1102 2477"/>
  <rect class="cls-5" x="52" y="1820" width="2100" height="45"/>
  <rect class="cls-5" x="52" y="1647" width="2100" height="40"/>
  <rect class="cls-5" x="52" y="1475" width="2100" height="35"/>
  <rect class="cls-5" x="52" y="1302" width="2100" height="30"/>
  <rect class="cls-5" x="52" y="1130" width="2100" height="25"/>
  <polygon class="cls-5" points="2152 957 2151.42 977.02 52 977 52 957 2152 957"/>
  <path class="cls-5" d="M1947,1991l-2.98,2.52c-28.69,15.32-56.05,34.1-85.47,47.53l-1513.07-.03-87.48-50.02h1689Z"/>
  <g class="cls-6">
    <path id="Shape" class="cls-3" d="M650.2,808.95c-5.13,7.47-10.21,14.7-15.23,21.7-5.02,7-10.44,14.12-16.27,21.35-8.17,9.8-15.81,18.49-22.92,26.07-7.12,7.58-15.11,13.71-23.98,18.38-11.43,6.53-20.42,10.15-26.95,10.85-9.8,8.87-19.66,15.75-29.57,20.65-9.92,4.9-19.31,7.12-28.17,6.65-6.07-.47-11.43-2.45-16.1-5.95s-9.1-7.7-13.3-12.6c-.47-.47-.82-.93-1.05-1.4s-.47-.93-.7-1.4l-45.5,84.7.35.35c-4.67,8.17-8.98,15.92-12.95,23.27-3.97,7.35-7.52,13.88-10.68,19.6-3.15,5.72-5.77,10.56-7.88,14.52-2.1,3.97-3.62,6.42-4.55,7.35-1.4,2.57-3.62,2.57-6.65,0-3.03-2.57-6.01-6.3-8.93-11.2-2.92-4.9-5.37-10.27-7.35-16.1s-2.74-10.85-2.28-15.05c.23-2.1,2.39-7.23,6.48-15.4,4.08-8.17,9.04-17.85,14.88-29.05,5.83-11.2,12.25-23.22,19.25-36.05,7-12.83,13.77-25.08,20.3-36.75,6.53-11.67,12.31-22.11,17.32-31.32s8.46-15.69,10.33-19.43c2.57-5.13,6.3-12.13,11.2-21s10.21-18.43,15.93-28.7,11.55-20.71,17.5-31.32c5.95-10.62,11.32-20.18,16.1-28.7,4.78-8.52,8.75-15.46,11.9-20.82,3.15-5.37,4.73-8.05,4.73-8.05,1.4-2.1,3.32-2.33,5.77-.7,2.45,1.63,5.02,4.38,7.7,8.22s5.19,8.28,7.53,13.3c2.33,5.02,3.97,9.74,4.9,14.17.7-.47,1.34-1.11,1.93-1.92.58-.82,1.34-1.58,2.27-2.28l1.05-1.4.7-.7c3.03-3.03,6.3-6.36,9.8-9.98,3.5-3.62,7.06-7,10.68-10.15,3.62-3.15,7.06-5.78,10.32-7.88,3.27-2.1,6.18-3.38,8.75-3.85,3.27-.47,6.59-.12,9.98,1.05s6.36,2.68,8.92,4.55c6.3,5.37,11.78,12.07,16.45,20.12s6.42,17.32,5.25,27.82c-.93,8.17-2.97,16.86-6.12,26.07-3.15,9.22-7.06,18.72-11.73,28.53-4.67,9.8-10.03,19.54-16.1,29.22-6.07,9.68-12.6,18.84-19.6,27.48,6.3-4.67,12.77-10.62,19.42-17.85,6.65-7.23,13.01-15.28,19.08-24.15,4.67-6.77,9.39-13.3,14.17-19.6,4.78-6.3,9.74-12.83,14.88-19.6,4.67-6.53,9.1-12.77,13.3-18.72s7.93-11.26,11.2-15.93c2.1-1.87,4.08-2.86,5.95-2.97,1.87-.12,3.32.41,4.38,1.58,1.05,1.17,1.63,2.8,1.75,4.9.12,2.1-.41,4.55-1.58,7.35-3.27,5.13-7.23,11.02-11.9,17.67s-9.45,13.47-14.35,20.47ZM581.25,743.5c-1.63.47-4.72,2.45-9.28,5.95-4.55,3.5-9.97,8.17-16.27,14-10.03,15.17-17.21,29.69-21.53,43.58-4.32,13.88-6.71,29.22-7.17,46.03,4.67-5.6,9.27-11.32,13.83-17.15,4.55-5.83,8.81-11.55,12.77-17.15s7.53-11.02,10.68-16.28c3.15-5.25,5.77-9.97,7.88-14.17,1.87-3.97,3.97-8.63,6.3-14,2.33-5.37,4.2-10.38,5.6-15.05,1.4-4.67,2.04-8.52,1.92-11.55-.12-3.03-1.69-4.43-4.72-4.2ZM497.6,836.6c2.8-.23,4.84.12,6.12,1.05,1.28.93.99,2.33-.88,4.2-2.57,2.57-6.12,6.71-10.68,12.43-4.55,5.72-8.75,11.61-12.6,17.67-3.85,6.07-6.65,11.49-8.4,16.28-1.75,4.78-1.11,7.53,1.93,8.22,3.27.7,7.64-.82,13.12-4.55,5.48-3.73,11.61-8.87,18.38-15.4-1.17-9.33-.58-20.59,1.75-33.78,2.33-13.18,5.72-26.42,10.15-39.72l-9.8,17.5-9.1,16.1Z"/>
    <path id="path1" class="cls-3" d="M703.75,889.1c.47-1.87.99-3.85,1.58-5.95s1.22-4.2,1.92-6.3c-2.8,3.5-5.66,6.88-8.58,10.15s-6.01,6.42-9.27,9.45c-2.57,2.33-5.89,5.66-9.98,9.98-4.08,4.32-8.4,8.63-12.95,12.95-4.55,4.32-9.04,8.11-13.47,11.38s-8.17,5.13-11.2,5.6c-3.27.7-6.59.41-9.97-.88s-6.36-2.97-8.92-5.07c-3.27-2.33-6.3-5.19-9.1-8.58-2.8-3.38-5.25-7.06-7.35-11.02-2.1-3.97-3.67-8.28-4.73-12.95-1.05-4.67-1.34-9.57-.88-14.7,1.17-10.5,4.26-22.05,9.28-34.65s11.2-25.32,18.55-38.15,15.63-25.2,24.85-37.1c9.22-11.9,18.84-22.4,28.88-31.5,10.03-9.1,20.12-16.27,30.27-21.53,10.15-5.25,19.77-7.64,28.88-7.17,6.07.23,11.38,2.16,15.92,5.77,4.55,3.62,9.04,7.88,13.48,12.78,3.03,5.37,5.02,9.92,5.95,13.65,1.87-3.27,3.56-5.89,5.07-7.88,1.52-1.98,2.62-3.44,3.33-4.38,1.63-2.33,4.02-2.16,7.17.53s6.24,6.53,9.28,11.55c3.03,5.02,5.6,10.56,7.7,16.62,2.1,6.07,2.92,11.2,2.45,15.4-.47,1.87-2.39,5.37-5.78,10.5-3.38,5.13-7.47,11.32-12.25,18.55-4.78,7.23-9.97,14.93-15.58,23.1s-10.85,16.1-15.75,23.8c-2.57,4.2-5.31,8.69-8.22,13.47s-5.48,9.16-7.7,13.12-3.73,7.23-4.55,9.8c-.82,2.57-.29,3.85,1.58,3.85,7-6.77,14.99-15.4,23.97-25.9,8.98-10.5,18.26-21.82,27.83-33.95,9.57-12.13,19.19-24.62,28.88-37.45s18.84-24.85,27.47-36.05c2.1-1.87,4.02-2.86,5.78-2.97,1.75-.12,3.15.41,4.2,1.58,1.05,1.17,1.63,2.8,1.75,4.9.12,2.1-.41,4.55-1.58,7.35-5.37,8.17-11.96,18.14-19.78,29.92-7.82,11.78-16.27,23.97-25.38,36.58-9.1,12.6-18.49,25.14-28.17,37.62s-19.02,23.62-28,33.42-17.32,17.67-25.03,23.62c-7.7,5.95-14,8.81-18.9,8.58-5.13-.23-9.04-1.81-11.73-4.73-2.68-2.92-4.43-6.71-5.25-11.38-.82-4.67-.82-10.03,0-16.1.82-6.07,2.16-12.48,4.03-19.25ZM647.05,903.8c2.1-.23,6.12-2.8,12.08-7.7s12.89-11.02,20.83-18.38c7.93-7.35,16.27-15.46,25.02-24.32,8.75-8.87,16.86-17.27,24.33-25.2l9.45-18.9c-2.33.7-4.61,1.17-6.83,1.4-2.22.23-4.02.23-5.42,0-1.4-.23-2.22-.76-2.45-1.57s.35-1.93,1.75-3.32c1.63-1.63,3.85-4.08,6.65-7.35,2.8-3.27,5.6-6.82,8.4-10.67,2.8-3.85,5.54-7.88,8.23-12.08,2.68-4.2,4.84-8.05,6.47-11.55s2.51-6.47,2.62-8.93c.12-2.45-.76-3.91-2.62-4.38-3.03-.47-7.17.99-12.42,4.38-5.25,3.38-11.08,8.11-17.5,14.18-6.42,6.07-13.07,13.01-19.95,20.82-6.88,7.82-13.47,15.87-19.77,24.15s-12.08,16.39-17.33,24.32c-5.25,7.93-9.27,14.93-12.08,21-1.87,3.97-3.97,8.52-6.3,13.65-2.33,5.13-4.2,10.03-5.6,14.7-1.4,4.67-2.1,8.57-2.1,11.72s1.52,4.49,4.55,4.03Z"/>
    <path id="path2" class="cls-3" d="M944.9,587.4c1.63-2.33,4.02-2.16,7.17.53s6.24,6.59,9.27,11.72c3.03,5.13,5.6,10.67,7.7,16.62,2.1,5.95,2.92,11.03,2.45,15.22,0,0-1.69,3.09-5.08,9.28-3.38,6.18-7.7,14-12.95,23.45-5.25,9.45-11.02,19.72-17.32,30.8-6.3,11.08-12.25,21.58-17.85,31.5-5.6,9.92-10.44,18.55-14.52,25.9-4.08,7.35-6.59,11.96-7.53,13.82-2.8,5.37-6.42,12.02-10.85,19.95s-9.1,16.33-14,25.2-9.86,17.85-14.88,26.95c-5.02,9.1-9.39,17.5-13.12,25.2-3.73,7.7-6.71,14.23-8.93,19.6s-3.09,8.75-2.62,10.15c.7,1.63,3.03.47,7-3.5,3.97-3.97,8.98-9.62,15.05-16.98,6.07-7.35,12.89-15.92,20.47-25.72s15.28-19.89,23.1-30.28c7.82-10.38,15.4-20.59,22.75-30.62,7.35-10.03,13.94-18.78,19.78-26.25,2.1-1.87,4.08-2.86,5.95-2.97,1.87-.12,3.33.41,4.38,1.58,1.05,1.17,1.63,2.8,1.75,4.9.12,2.1-.53,4.55-1.92,7.35-5.37,8.17-11.9,18.08-19.6,29.75-7.7,11.67-15.98,23.68-24.85,36.05-8.87,12.37-18.02,24.62-27.48,36.75-9.45,12.13-18.49,22.92-27.12,32.38-8.63,9.45-16.68,16.86-24.15,22.22s-13.53,7.58-18.2,6.65c-2.8-.47-5.78-1.63-8.92-3.5-3.15-1.87-5.95-4.2-8.4-7-2.45-2.8-4.37-6.01-5.77-9.62s-1.75-7.53-1.05-11.72c.93-6.53,2.8-13.82,5.6-21.88s6.12-16.57,9.97-25.55,8.17-18.2,12.95-27.65c4.78-9.45,9.74-18.84,14.88-28.18,4.9-9.1,10.67-19.77,17.33-32.03,6.65-12.25,13.65-25.14,21-38.67,7.35-13.53,14.87-27.3,22.58-41.3,7.7-14,15.05-27.36,22.05-40.07,7-12.72,13.47-24.27,19.42-34.65,5.95-10.38,10.79-18.84,14.53-25.38Z"/>
    <path id="path3" class="cls-3" d="M1009.3,891.55c-6.53,11.9-11.96,21.93-16.27,30.1-4.32,8.17-7.17,13.07-8.58,14.7-1.63,2.57-3.97,2.62-7,.18-3.03-2.45-5.95-6.12-8.75-11.03-2.8-4.9-5.19-10.32-7.17-16.28s-2.74-11.03-2.28-15.22c.23-1.87,1.92-6.07,5.08-12.6s8.11-16.57,14.88-30.1c7-12.83,14.23-24.68,21.7-35.53,7.47-10.85,14.47-22.22,21-34.12,3.5-6.3,6.24-11.67,8.22-16.1s2.74-7.23,2.28-8.4c-.7-1.4-3.09-.35-7.18,3.15-4.08,3.5-9.33,8.75-15.75,15.75-6.42,7-13.59,15.17-21.52,24.5-7.93,9.33-15.92,19.02-23.98,29.05-8.05,10.03-15.92,19.95-23.62,29.75-7.7,9.8-14.47,18.55-20.3,26.25-7.47,13.3-13.65,24.67-18.55,34.12s-8.05,14.99-9.45,16.62c-1.63,2.57-3.97,2.62-7,.18-3.03-2.45-5.95-6.12-8.75-11.03s-5.19-10.32-7.17-16.28-2.74-11.03-2.28-15.22c.23-2.1,2.1-6.77,5.6-14,3.5-7.23,7.82-15.81,12.95-25.72,5.13-9.92,10.79-20.59,16.97-32.03s12.19-22.34,18.03-32.72c5.83-10.38,11.02-19.72,15.57-28,4.55-8.28,7.76-14.29,9.62-18.03,3.97-7.7,7-13.53,9.1-17.5,2.1-3.97,3.56-6.71,4.38-8.22.82-1.52,1.22-2.28,1.22-2.28v.35c1.63-2.57,4.03-2.57,7.17,0,3.15,2.57,6.24,6.36,9.28,11.38s5.48,10.5,7.35,16.45c1.87,5.95,2.45,11.02,1.75,15.22-.23,1.17-.99,2.68-2.27,4.55s-2.74,3.85-4.38,5.95c-1.63,2.1-3.21,4.03-4.73,5.78-1.52,1.75-2.39,2.86-2.62,3.32-3.03,4.9-5.54,9.28-7.52,13.12s-3.91,7.76-5.78,11.72c8.4-11.67,16.97-23.04,25.73-34.12,8.75-11.08,17.15-20.82,25.2-29.22,8.05-8.4,15.46-14.99,22.23-19.78,6.77-4.78,12.48-6.71,17.15-5.78,2.8.47,6.24,1.87,10.33,4.2,4.08,2.33,7.99,5.25,11.72,8.75,3.73,3.5,6.82,7.41,9.28,11.72,2.45,4.32,3.32,8.57,2.62,12.78-.23,1.4-1.05,3.21-2.45,5.42-1.4,2.22-2.97,4.61-4.72,7.18s-3.38,4.96-4.9,7.18c-1.52,2.22-2.39,4.02-2.62,5.42l-1.75,5.6c7.23-9.57,14.53-18.67,21.88-27.3s14.29-16.1,20.83-22.4c6.53-6.3,12.54-11.14,18.02-14.53,5.48-3.38,10.09-4.72,13.83-4.03,2.8.47,6.3,1.87,10.5,4.2s8.17,5.25,11.9,8.75c3.73,3.5,6.82,7.41,9.27,11.72,2.45,4.32,3.33,8.57,2.62,12.78-1.87,11.9-5.31,23.51-10.32,34.82s-10.85,22.4-17.5,33.25c-6.65,10.85-13.59,21.47-20.82,31.85-7.23,10.38-14,20.59-20.3,30.62-1.4,2.33-2.57,4.55-3.5,6.65s-1.28,3.5-1.05,4.2c.47,1.63,2.74.47,6.83-3.5,4.08-3.97,9.16-9.62,15.22-16.98,6.07-7.35,12.89-15.92,20.47-25.72s15.28-19.89,23.1-30.28c7.82-10.38,15.4-20.59,22.75-30.62,7.35-10.03,13.94-18.78,19.78-26.25,2.1-1.87,4.08-2.86,5.95-2.97,1.87-.12,3.32.41,4.38,1.58,1.05,1.17,1.63,2.8,1.75,4.9.12,2.1-.41,4.55-1.58,7.35-5.37,8.17-11.96,18.08-19.78,29.75-7.82,11.67-16.16,23.68-25.02,36.05-8.87,12.37-18.03,24.62-27.48,36.75-9.45,12.13-18.49,22.92-27.12,32.38-8.63,9.45-16.68,16.86-24.15,22.22-7.47,5.37-13.53,7.58-18.2,6.65-2.8-.47-5.89-1.75-9.28-3.85-3.38-2.1-6.47-4.72-9.27-7.88s-5.02-6.65-6.65-10.5c-1.63-3.85-2.22-7.76-1.75-11.72,1.17-7.23,3.5-14.99,7-23.28,3.5-8.28,7.82-16.97,12.95-26.07,7-12.83,14.23-24.68,21.7-35.53,7.47-10.85,14.47-22.22,21-34.12,3.5-6.3,6.24-11.67,8.22-16.1s2.74-7.23,2.28-8.4c-.7-1.4-3.15-.29-7.35,3.32-4.2,3.62-9.51,8.92-15.92,15.93-6.42,7-13.59,15.22-21.53,24.67-7.93,9.45-15.98,19.19-24.15,29.23-8.17,10.03-16.16,19.95-23.97,29.75-7.82,9.8-14.64,18.55-20.47,26.25-1.17,2.1-1.87,3.85-2.1,5.25Z"/>
    <path id="path4" class="cls-3" d="M1218.95,707.1c-2.57-.23-3.44-1.87-2.62-4.9.82-3.03,2.39-6.3,4.73-9.8,2.33-3.5,5.13-6.65,8.4-9.45,3.27-2.8,6.18-4.32,8.75-4.55,2.33.47,4.55.76,6.65.88,2.1.12,4.2.29,6.3.53,5.83-10.5,11.78-21.18,17.85-32.03,6.07-10.85,11.67-20.77,16.8-29.75,5.13-8.98,9.33-16.33,12.6-22.05s4.9-8.57,4.9-8.57c1.63-2.33,4.02-2.16,7.17.53s6.24,6.59,9.28,11.72,5.6,10.67,7.7,16.62c2.1,5.95,2.92,11.03,2.45,15.22-1.87,3.73-5.31,10.09-10.33,19.07-5.02,8.98-11.49,20.47-19.42,34.48.93.23,1.81.41,2.62.52.82.12,1.81.18,2.97.18,2.1.93,2.97,2.39,2.62,4.38s-1.28,4.08-2.8,6.3c-1.52,2.22-3.56,4.26-6.12,6.12s-5.02,3.15-7.35,3.85h-3.85c-11.67,20.77-25.02,44.8-40.07,72.1s-31.32,57.52-48.83,90.65c-3.27,6.07-5.72,11.26-7.35,15.57-1.63,4.32-2.22,7.18-1.75,8.58.7,1.63,3.03.47,7-3.5,3.97-3.97,8.98-9.62,15.05-16.98,6.07-7.35,12.89-15.92,20.47-25.72s15.28-19.89,23.1-30.28c7.82-10.38,15.4-20.59,22.75-30.62,7.35-10.03,13.94-18.78,19.78-26.25,2.1-1.87,4.08-2.86,5.95-2.97,1.87-.12,3.33.41,4.38,1.58,1.05,1.17,1.63,2.8,1.75,4.9.12,2.1-.53,4.55-1.92,7.35-5.37,8.17-11.9,18.08-19.6,29.75-7.7,11.67-15.98,23.68-24.85,36.05-8.87,12.37-18.02,24.62-27.47,36.75s-18.49,22.92-27.12,32.38-16.68,16.86-24.15,22.22-13.53,7.58-18.2,6.65c-2.8-.47-5.78-1.63-8.93-3.5s-5.95-4.2-8.4-7c-2.45-2.8-4.38-6.01-5.77-9.62-1.4-3.62-1.75-7.53-1.05-11.72,1.17-7.7,3.56-16.51,7.18-26.43,3.62-9.92,7.93-20.3,12.95-31.15,5.02-10.85,10.5-21.88,16.45-33.08,5.95-11.2,11.78-22.05,17.5-32.55,5.72-10.5,11.14-20.36,16.28-29.58s9.45-17.09,12.95-23.62l10.15-19.25h-17.5Z"/>
    <path id="path5" class="cls-3" d="M1389.75,591.6c1.17.47,2.92,2.1,5.25,4.9s4.32,6.3,5.95,10.5,2.39,8.69,2.28,13.47c-.12,4.78-1.92,9.28-5.42,13.47-4.67,5.37-9.92,12.02-15.75,19.95-5.83,7.93-11.32,15.87-16.45,23.8s-9.39,15.05-12.78,21.35c-3.38,6.3-4.96,10.38-4.72,12.25.23,1.17.64,2.45,1.22,3.85.58,1.4,1.57,2.33,2.98,2.8,3.03,1.17,6.82,1.69,11.38,1.58,4.55-.12,9.1-.35,13.65-.7,4.55-.35,8.52-.58,11.9-.7,3.38-.12,5.43.18,6.12.88,1.4,1.87,2.45,4.14,3.15,6.82s1.17,5.37,1.4,8.05.29,5.31.17,7.88-.29,4.55-.52,5.95c.23.93-.99,3.62-3.68,8.05s-6.36,10.03-11.03,16.8c-4.67,6.77-10.03,14.41-16.1,22.92s-12.19,17.15-18.38,25.9-12.19,17.32-18.03,25.72-10.97,15.87-15.4,22.4c-7.23,11.2-11.67,19.6-13.3,25.2-1.63,5.6-.47,7.82,3.5,6.65,1.17.23,4.2-2.04,9.1-6.82s10.79-11.14,17.68-19.08c6.88-7.93,14.47-17.03,22.75-27.3,8.28-10.27,16.68-20.65,25.2-31.15s16.62-20.77,24.32-30.8c7.7-10.03,14.47-18.78,20.3-26.25,2.1-1.87,4.02-2.86,5.78-2.97,1.75-.12,3.15.41,4.2,1.58,1.05,1.17,1.63,2.8,1.75,4.9.12,2.1-.41,4.55-1.57,7.35-5.37,8.17-11.9,18.08-19.6,29.75-7.7,11.67-16.04,23.8-25.03,36.4-8.98,12.6-18.2,25.03-27.65,37.28-9.45,12.25-18.49,23.1-27.12,32.55s-16.68,16.92-24.15,22.4c-7.47,5.48-13.53,7.76-18.2,6.82-2.8-.47-6.24-1.69-10.33-3.68-4.08-1.98-7.93-4.49-11.55-7.52-3.62-3.03-6.65-6.42-9.1-10.15-2.45-3.73-3.33-7.7-2.62-11.9.7-5.13,2.57-12.19,5.6-21.18s7.64-19.72,13.82-32.2c6.18-12.48,14.06-26.72,23.62-42.7s21.35-33.66,35.35-53.03c1.63-2.1,2.51-3.68,2.62-4.72.12-1.05-.17-2.04-.88-2.98-.7-.93-1.81-1.87-3.32-2.8s-3.09-2.45-4.72-4.55c-2.57,3.27-5.25,6.65-8.05,10.15-2.8,3.5-5.54,6.94-8.22,10.32-2.68,3.38-5.19,6.65-7.53,9.8s-4.32,5.89-5.95,8.22c-2.1,1.87-4.03,2.86-5.78,2.97-1.75.12-3.15-.35-4.2-1.4s-1.63-2.68-1.75-4.9.41-4.61,1.57-7.18c1.87-2.8,4.02-6.12,6.47-9.97s5.08-7.88,7.88-12.07c2.8-4.2,5.72-8.46,8.75-12.78,3.03-4.32,5.95-8.58,8.75-12.78-1.63-7.93-1.92-16.68-.88-26.25,1.05-9.57,3.09-19.13,6.12-28.7,3.03-9.57,6.88-18.72,11.55-27.48,4.67-8.75,9.92-16.27,15.75-22.57,6.3-6.77,11.32-11.84,15.05-15.22,3.73-3.38,6.77-5.72,9.1-7,2.33-1.28,4.02-1.81,5.07-1.58,1.05.23,1.93.7,2.62,1.4Z"/>
    <path id="path6" class="cls-3" d="M1533.95,824.7c-4.67,6.53-9.97,13.71-15.92,21.53-5.95,7.82-12.07,15.63-18.38,23.45-6.3,7.82-12.72,15.4-19.25,22.75-6.53,7.35-12.72,13.82-18.55,19.42-2.57,2.57-5.48,5.25-8.75,8.05-3.27,2.8-6.71,5.42-10.32,7.88-3.62,2.45-7.23,4.61-10.85,6.47s-6.94,3.03-9.98,3.5c-3.27.47-7.41.23-12.42-.7s-8.81-1.98-11.38-3.15c-3.5-1.63-7.41-4.26-11.72-7.88s-8.34-7.76-12.08-12.43c-3.73-4.67-6.71-9.62-8.92-14.88-2.22-5.25-3.09-10.56-2.62-15.92,1.17-10.5,4.08-22.11,8.75-34.83,4.67-12.72,10.38-25.43,17.15-38.15,6.77-12.72,14.47-25.02,23.1-36.92,8.63-11.9,17.73-22.34,27.3-31.33s19.25-16.1,29.05-21.35c9.8-5.25,19.25-7.64,28.35-7.17,6.07.23,11.38,2.16,15.93,5.77,4.55,3.62,9.04,7.88,13.47,12.78,3.97,6.77,6.3,12.78,7,18.03.7,5.25.23,10.32-1.4,15.22s-4.14,9.68-7.53,14.35c-3.38,4.67-7.17,9.8-11.38,15.4-7.93,10.5-16.22,19.48-24.85,26.95-8.63,7.47-17.03,13.65-25.2,18.55-8.17,4.9-15.69,8.63-22.58,11.2-6.88,2.57-12.54,4.08-16.97,4.55-2.57,4.43-4.78,8.75-6.65,12.95-1.87,3.97-3.67,8.05-5.42,12.25-1.75,4.2-3.09,8.11-4.03,11.72-.93,3.62-1.17,6.71-.7,9.28.47,2.57,2.1,4.2,4.9,4.9,4.9.7,11.38-1.22,19.43-5.77s17.09-11.08,27.12-19.6c10.03-8.52,20.53-18.78,31.5-30.8,10.97-12.02,21.7-25.14,32.2-39.38l38.85-51.45c2.1-1.87,4.03-2.86,5.78-2.97,1.75-.12,3.15.41,4.2,1.58,1.05,1.17,1.63,2.8,1.75,4.9.12,2.1-.41,4.55-1.58,7.35-4.67,7-10.09,15.11-16.28,24.32-6.18,9.22-12.89,19.07-20.12,29.57ZM1510.5,750.85c-3.03-.47-7,1.17-11.9,4.9s-10.32,8.87-16.28,15.4c-5.95,6.53-12.13,14-18.55,22.4-6.42,8.4-12.54,17.03-18.38,25.9,4.43-2.33,9.92-5.89,16.45-10.67,6.53-4.78,14.35-11.61,23.45-20.47,3.5-3.5,7.23-7.29,11.2-11.38,3.97-4.08,7.35-7.99,10.15-11.73,2.8-3.73,4.67-6.94,5.6-9.62s.35-4.26-1.75-4.72Z"/>
    <path id="path7" class="cls-3" d="M1665.2,824.7c-4.67,6.53-9.97,13.71-15.92,21.53-5.95,7.82-12.07,15.63-18.38,23.45-6.3,7.82-12.72,15.4-19.25,22.75-6.53,7.35-12.72,13.82-18.55,19.42-2.57,2.57-5.48,5.25-8.75,8.05-3.27,2.8-6.71,5.42-10.32,7.88-3.62,2.45-7.23,4.61-10.85,6.47-3.62,1.87-6.94,3.03-9.98,3.5-3.27.47-7.41.23-12.42-.7s-8.81-1.98-11.38-3.15c-3.5-1.63-7.41-4.26-11.72-7.88-4.32-3.62-8.34-7.76-12.08-12.43-3.73-4.67-6.71-9.62-8.92-14.88-2.22-5.25-3.09-10.56-2.62-15.92,1.17-10.5,4.08-22.11,8.75-34.83,4.67-12.72,10.38-25.43,17.15-38.15,6.77-12.72,14.47-25.02,23.1-36.92,8.63-11.9,17.73-22.34,27.3-31.33,9.57-8.98,19.25-16.1,29.05-21.35,9.8-5.25,19.25-7.64,28.35-7.17,6.07.23,11.38,2.16,15.93,5.77,4.55,3.62,9.04,7.88,13.47,12.78,3.97,6.77,6.3,12.78,7,18.03.7,5.25.23,10.32-1.4,15.22s-4.14,9.68-7.53,14.35c-3.38,4.67-7.17,9.8-11.38,15.4-7.93,10.5-16.22,19.48-24.85,26.95-8.63,7.47-17.03,13.65-25.2,18.55-8.17,4.9-15.69,8.63-22.58,11.2-6.88,2.57-12.54,4.08-16.97,4.55-2.57,4.43-4.78,8.75-6.65,12.95-1.87,3.97-3.67,8.05-5.42,12.25-1.75,4.2-3.09,8.11-4.03,11.72s-1.17,6.71-.7,9.28c.47,2.57,2.1,4.2,4.9,4.9,4.9.7,11.38-1.22,19.43-5.77s17.09-11.08,27.12-19.6c10.03-8.52,20.53-18.78,31.5-30.8,10.97-12.02,21.7-25.14,32.2-39.38l38.85-51.45c2.1-1.87,4.03-2.86,5.78-2.97,1.75-.12,3.15.41,4.2,1.58,1.05,1.17,1.63,2.8,1.75,4.9.12,2.1-.41,4.55-1.58,7.35-4.67,7-10.09,15.11-16.28,24.32-6.18,9.22-12.89,19.07-20.12,29.57ZM1641.75,750.85c-3.03-.47-7,1.17-11.9,4.9s-10.32,8.87-16.28,15.4c-5.95,6.53-12.13,14-18.55,22.4-6.42,8.4-12.54,17.03-18.38,25.9,4.43-2.33,9.92-5.89,16.45-10.67,6.53-4.78,14.35-11.61,23.45-20.47,3.5-3.5,7.23-7.29,11.2-11.38,3.97-4.08,7.35-7.99,10.15-11.73,2.8-3.73,4.67-6.94,5.6-9.62s.35-4.26-1.75-4.72Z"/>
    <path id="path8" class="cls-3" d="M1763.55,828.2c-3.73,4.2-8.75,8.75-15.05,13.65s-13.18,9.68-20.65,14.35c-1.17,6.77-2.92,13.71-5.25,20.83s-5.48,14.76-9.45,22.92c-4.2,8.4-8.93,15.4-14.18,21-5.25,5.6-10.67,10.03-16.28,13.3-5.6,3.27-11.2,5.54-16.8,6.82-5.6,1.28-10.79,1.93-15.58,1.93s-9.1-.53-12.95-1.57c-3.85-1.05-6.71-2.28-8.57-3.68-4.67-3.03-7.93-6.82-9.8-11.38s-2.57-9.39-2.1-14.53c.47-5.13,2.04-10.38,4.72-15.75s6.36-10.62,11.03-15.75c3.97-4.67,9.97-8.87,18.03-12.6s17.32-8.05,27.82-12.95c3.97-13.53,7.7-27.53,11.2-42,3.5-14.47,6.65-27.18,9.45-38.15l1.05-4.55-7,9.45c-2.1,1.87-4.02,2.86-5.77,2.97-1.75.12-3.15-.41-4.2-1.58-1.05-1.17-1.63-2.8-1.75-4.9-.12-2.1.53-4.55,1.93-7.35,2.8-4.67,6.71-10.73,11.72-18.2s9.86-14.93,14.53-22.4c1.17-6.53,2.8-13.42,4.9-20.65,2.1-7.23,4.78-14.82,8.05-22.75,4.67-13.07,10.15-25.61,16.45-37.62,6.3-12.02,12.6-21.41,18.9-28.17,6.3-6.77,11.38-11.84,15.23-15.22,3.85-3.38,6.94-5.72,9.27-7,2.33-1.28,4.03-1.81,5.08-1.58,1.05.23,1.92.58,2.62,1.05,1.17.47,2.92,2.16,5.25,5.07s4.32,6.42,5.95,10.5c1.63,4.08,2.33,8.52,2.1,13.3-.23,4.78-2.22,9.28-5.95,13.47-3.5,4.2-8.46,10.44-14.88,18.72s-12.95,18.03-19.6,29.22c-6.65,11.2-12.72,23.57-18.2,37.1-5.48,13.53-9.04,27.65-10.67,42.35-1.4,12.6-2.28,23.8-2.62,33.6s-.76,18.78-1.22,26.95c4.2-3.03,8.46-6.12,12.77-9.27,4.32-3.15,8.58-6.71,12.78-10.68,5.37-5.13,10.5-10.32,15.4-15.57s9.8-11.03,14.7-17.33l6.65-8.75c2.1-1.87,4.08-2.86,5.95-2.97,1.87-.12,3.32.41,4.38,1.57,1.05,1.17,1.63,2.8,1.75,4.9.12,2.1-.53,4.55-1.93,7.35-6.07,9.1-12.25,17.97-18.55,26.6-6.3,8.63-13.18,17.27-20.65,25.9ZM1636.15,908.35c-.7,1.87-.53,3.5.53,4.9,1.05,1.4,2.74,2.1,5.07,2.1s5.07-.99,8.22-2.97,6.47-5.66,9.97-11.03c.93-1.4,1.87-2.97,2.8-4.72s1.87-3.68,2.8-5.78c-5.6,2.8-10.09,4.84-13.48,6.12-3.38,1.28-6.12,2.33-8.22,3.15s-3.67,1.81-4.72,2.97-2.04,2.92-2.97,5.25Z"/>
  </g>
  <g>
    <path id="Shape-2" data-name="Shape" class="cls-2" d="M639.2,803.95c-5.13,7.47-10.21,14.7-15.23,21.7-5.02,7-10.44,14.12-16.27,21.35-8.17,9.8-15.81,18.49-22.92,26.07-7.12,7.58-15.11,13.71-23.98,18.38-11.43,6.53-20.42,10.15-26.95,10.85-9.8,8.87-19.66,15.75-29.57,20.65-9.92,4.9-19.31,7.12-28.17,6.65-6.07-.47-11.43-2.45-16.1-5.95s-9.1-7.7-13.3-12.6c-.47-.47-.82-.93-1.05-1.4s-.47-.93-.7-1.4l-45.5,84.7.35.35c-4.67,8.17-8.98,15.92-12.95,23.27-3.97,7.35-7.52,13.88-10.68,19.6-3.15,5.72-5.77,10.56-7.88,14.52-2.1,3.97-3.62,6.42-4.55,7.35-1.4,2.57-3.62,2.57-6.65,0-3.03-2.57-6.01-6.3-8.93-11.2-2.92-4.9-5.37-10.27-7.35-16.1s-2.74-10.85-2.28-15.05c.23-2.1,2.39-7.23,6.48-15.4,4.08-8.17,9.04-17.85,14.88-29.05,5.83-11.2,12.25-23.22,19.25-36.05,7-12.83,13.77-25.08,20.3-36.75,6.53-11.67,12.31-22.11,17.32-31.32s8.46-15.69,10.33-19.43c2.57-5.13,6.3-12.13,11.2-21s10.21-18.43,15.93-28.7,11.55-20.71,17.5-31.32c5.95-10.62,11.32-20.18,16.1-28.7,4.78-8.52,8.75-15.46,11.9-20.82,3.15-5.37,4.73-8.05,4.73-8.05,1.4-2.1,3.32-2.33,5.77-.7,2.45,1.63,5.02,4.38,7.7,8.22s5.19,8.28,7.53,13.3c2.33,5.02,3.97,9.74,4.9,14.17.7-.47,1.34-1.11,1.93-1.92.58-.82,1.34-1.58,2.27-2.28l1.05-1.4.7-.7c3.03-3.03,6.3-6.36,9.8-9.98,3.5-3.62,7.06-7,10.68-10.15,3.62-3.15,7.06-5.78,10.32-7.88,3.27-2.1,6.18-3.38,8.75-3.85,3.27-.47,6.59-.12,9.98,1.05s6.36,2.68,8.92,4.55c6.3,5.37,11.78,12.07,16.45,20.12s6.42,17.32,5.25,27.82c-.93,8.17-2.97,16.86-6.12,26.07-3.15,9.22-7.06,18.72-11.73,28.53-4.67,9.8-10.03,19.54-16.1,29.22-6.07,9.68-12.6,18.84-19.6,27.48,6.3-4.67,12.77-10.62,19.42-17.85,6.65-7.23,13.01-15.28,19.08-24.15,4.67-6.77,9.39-13.3,14.17-19.6,4.78-6.3,9.74-12.83,14.88-19.6,4.67-6.53,9.1-12.77,13.3-18.72s7.93-11.26,11.2-15.93c2.1-1.87,4.08-2.86,5.95-2.97,1.87-.12,3.32.41,4.38,1.58,1.05,1.17,1.63,2.8,1.75,4.9.12,2.1-.41,4.55-1.58,7.35-3.27,5.13-7.23,11.02-11.9,17.67s-9.45,13.47-14.35,20.47ZM570.25,738.5c-1.63.47-4.72,2.45-9.28,5.95-4.55,3.5-9.97,8.17-16.27,14-10.03,15.17-17.21,29.69-21.53,43.58-4.32,13.88-6.71,29.22-7.17,46.03,4.67-5.6,9.27-11.32,13.83-17.15,4.55-5.83,8.81-11.55,12.77-17.15s7.53-11.02,10.68-16.28c3.15-5.25,5.77-9.97,7.88-14.17,1.87-3.97,3.97-8.63,6.3-14,2.33-5.37,4.2-10.38,5.6-15.05,1.4-4.67,2.04-8.52,1.92-11.55-.12-3.03-1.69-4.43-4.72-4.2ZM486.6,831.6c2.8-.23,4.84.12,6.12,1.05,1.28.93.99,2.33-.88,4.2-2.57,2.57-6.12,6.71-10.68,12.43-4.55,5.72-8.75,11.61-12.6,17.67-3.85,6.07-6.65,11.49-8.4,16.28-1.75,4.78-1.11,7.53,1.93,8.22,3.27.7,7.64-.82,13.12-4.55,5.48-3.73,11.61-8.87,18.38-15.4-1.17-9.33-.58-20.59,1.75-33.78,2.33-13.18,5.72-26.42,10.15-39.72l-9.8,17.5-9.1,16.1Z"/>
    <path id="path1-2" data-name="path1" class="cls-2" d="M692.75,884.1c.47-1.87.99-3.85,1.58-5.95s1.22-4.2,1.92-6.3c-2.8,3.5-5.66,6.88-8.58,10.15s-6.01,6.42-9.27,9.45c-2.57,2.33-5.89,5.66-9.98,9.98-4.08,4.32-8.4,8.63-12.95,12.95-4.55,4.32-9.04,8.11-13.47,11.38s-8.17,5.13-11.2,5.6c-3.27.7-6.59.41-9.97-.88s-6.36-2.97-8.92-5.07c-3.27-2.33-6.3-5.19-9.1-8.58-2.8-3.38-5.25-7.06-7.35-11.02-2.1-3.97-3.67-8.28-4.73-12.95-1.05-4.67-1.34-9.57-.88-14.7,1.17-10.5,4.26-22.05,9.28-34.65s11.2-25.32,18.55-38.15,15.63-25.2,24.85-37.1c9.22-11.9,18.84-22.4,28.88-31.5,10.03-9.1,20.12-16.27,30.27-21.53,10.15-5.25,19.77-7.64,28.88-7.17,6.07.23,11.38,2.16,15.92,5.77,4.55,3.62,9.04,7.88,13.48,12.78,3.03,5.37,5.02,9.92,5.95,13.65,1.87-3.27,3.56-5.89,5.07-7.88,1.52-1.98,2.62-3.44,3.33-4.38,1.63-2.33,4.02-2.16,7.17.53s6.24,6.53,9.28,11.55c3.03,5.02,5.6,10.56,7.7,16.62,2.1,6.07,2.92,11.2,2.45,15.4-.47,1.87-2.39,5.37-5.78,10.5-3.38,5.13-7.47,11.32-12.25,18.55-4.78,7.23-9.97,14.93-15.58,23.1s-10.85,16.1-15.75,23.8c-2.57,4.2-5.31,8.69-8.22,13.47s-5.48,9.16-7.7,13.12-3.73,7.23-4.55,9.8c-.82,2.57-.29,3.85,1.58,3.85,7-6.77,14.99-15.4,23.97-25.9,8.98-10.5,18.26-21.82,27.83-33.95,9.57-12.13,19.19-24.62,28.88-37.45s18.84-24.85,27.47-36.05c2.1-1.87,4.02-2.86,5.78-2.97,1.75-.12,3.15.41,4.2,1.58,1.05,1.17,1.63,2.8,1.75,4.9.12,2.1-.41,4.55-1.58,7.35-5.37,8.17-11.96,18.14-19.78,29.92-7.82,11.78-16.27,23.97-25.38,36.58-9.1,12.6-18.49,25.14-28.17,37.62s-19.02,23.62-28,33.42-17.32,17.67-25.03,23.62c-7.7,5.95-14,8.81-18.9,8.58-5.13-.23-9.04-1.81-11.73-4.73-2.68-2.92-4.43-6.71-5.25-11.38-.82-4.67-.82-10.03,0-16.1.82-6.07,2.16-12.48,4.03-19.25ZM636.05,898.8c2.1-.23,6.12-2.8,12.08-7.7s12.89-11.02,20.83-18.38c7.93-7.35,16.27-15.46,25.02-24.32,8.75-8.87,16.86-17.27,24.33-25.2l9.45-18.9c-2.33.7-4.61,1.17-6.83,1.4-2.22.23-4.02.23-5.42,0-1.4-.23-2.22-.76-2.45-1.57s.35-1.93,1.75-3.32c1.63-1.63,3.85-4.08,6.65-7.35,2.8-3.27,5.6-6.82,8.4-10.67,2.8-3.85,5.54-7.88,8.23-12.08,2.68-4.2,4.84-8.05,6.47-11.55s2.51-6.47,2.62-8.93c.12-2.45-.76-3.91-2.62-4.38-3.03-.47-7.17.99-12.42,4.38-5.25,3.38-11.08,8.11-17.5,14.18-6.42,6.07-13.07,13.01-19.95,20.82-6.88,7.82-13.47,15.87-19.77,24.15s-12.08,16.39-17.33,24.32c-5.25,7.93-9.27,14.93-12.08,21-1.87,3.97-3.97,8.52-6.3,13.65-2.33,5.13-4.2,10.03-5.6,14.7-1.4,4.67-2.1,8.57-2.1,11.72s1.52,4.49,4.55,4.03Z"/>
    <path id="path2-2" data-name="path2" class="cls-2" d="M933.9,582.4c1.63-2.33,4.02-2.16,7.17.53s6.24,6.59,9.27,11.72c3.03,5.13,5.6,10.67,7.7,16.62,2.1,5.95,2.92,11.03,2.45,15.22,0,0-1.69,3.09-5.08,9.28-3.38,6.18-7.7,14-12.95,23.45-5.25,9.45-11.02,19.72-17.32,30.8-6.3,11.08-12.25,21.58-17.85,31.5-5.6,9.92-10.44,18.55-14.52,25.9-4.08,7.35-6.59,11.96-7.53,13.82-2.8,5.37-6.42,12.02-10.85,19.95s-9.1,16.33-14,25.2-9.86,17.85-14.88,26.95c-5.02,9.1-9.39,17.5-13.12,25.2-3.73,7.7-6.71,14.23-8.93,19.6s-3.09,8.75-2.62,10.15c.7,1.63,3.03.47,7-3.5,3.97-3.97,8.98-9.62,15.05-16.98,6.07-7.35,12.89-15.92,20.47-25.72s15.28-19.89,23.1-30.28c7.82-10.38,15.4-20.59,22.75-30.62,7.35-10.03,13.94-18.78,19.78-26.25,2.1-1.87,4.08-2.86,5.95-2.97,1.87-.12,3.33.41,4.38,1.58,1.05,1.17,1.63,2.8,1.75,4.9.12,2.1-.53,4.55-1.92,7.35-5.37,8.17-11.9,18.08-19.6,29.75-7.7,11.67-15.98,23.68-24.85,36.05-8.87,12.37-18.02,24.62-27.48,36.75-9.45,12.13-18.49,22.92-27.12,32.38-8.63,9.45-16.68,16.86-24.15,22.22s-13.53,7.58-18.2,6.65c-2.8-.47-5.78-1.63-8.92-3.5-3.15-1.87-5.95-4.2-8.4-7-2.45-2.8-4.37-6.01-5.77-9.62s-1.75-7.53-1.05-11.72c.93-6.53,2.8-13.82,5.6-21.88s6.12-16.57,9.97-25.55,8.17-18.2,12.95-27.65c4.78-9.45,9.74-18.84,14.88-28.18,4.9-9.1,10.67-19.77,17.33-32.03,6.65-12.25,13.65-25.14,21-38.67,7.35-13.53,14.87-27.3,22.58-41.3,7.7-14,15.05-27.36,22.05-40.07,7-12.72,13.47-24.27,19.42-34.65,5.95-10.38,10.79-18.84,14.53-25.38Z"/>
    <path id="path3-2" data-name="path3" class="cls-2" d="M998.3,886.55c-6.53,11.9-11.96,21.93-16.27,30.1-4.32,8.17-7.17,13.07-8.58,14.7-1.63,2.57-3.97,2.62-7,.18-3.03-2.45-5.95-6.12-8.75-11.03-2.8-4.9-5.19-10.32-7.17-16.28s-2.74-11.03-2.28-15.22c.23-1.87,1.92-6.07,5.08-12.6s8.11-16.57,14.88-30.1c7-12.83,14.23-24.68,21.7-35.53,7.47-10.85,14.47-22.22,21-34.12,3.5-6.3,6.24-11.67,8.22-16.1s2.74-7.23,2.28-8.4c-.7-1.4-3.09-.35-7.18,3.15-4.08,3.5-9.33,8.75-15.75,15.75-6.42,7-13.59,15.17-21.52,24.5-7.93,9.33-15.92,19.02-23.98,29.05-8.05,10.03-15.92,19.95-23.62,29.75-7.7,9.8-14.47,18.55-20.3,26.25-7.47,13.3-13.65,24.67-18.55,34.12s-8.05,14.99-9.45,16.62c-1.63,2.57-3.97,2.62-7,.18-3.03-2.45-5.95-6.12-8.75-11.03s-5.19-10.32-7.17-16.28-2.74-11.03-2.28-15.22c.23-2.1,2.1-6.77,5.6-14,3.5-7.23,7.82-15.81,12.95-25.72,5.13-9.92,10.79-20.59,16.97-32.03s12.19-22.34,18.03-32.72c5.83-10.38,11.02-19.72,15.57-28,4.55-8.28,7.76-14.29,9.62-18.03,3.97-7.7,7-13.53,9.1-17.5,2.1-3.97,3.56-6.71,4.38-8.22.82-1.52,1.22-2.28,1.22-2.28v.35c1.63-2.57,4.03-2.57,7.17,0,3.15,2.57,6.24,6.36,9.28,11.38s5.48,10.5,7.35,16.45c1.87,5.95,2.45,11.02,1.75,15.22-.23,1.17-.99,2.68-2.27,4.55s-2.74,3.85-4.38,5.95c-1.63,2.1-3.21,4.03-4.73,5.78-1.52,1.75-2.39,2.86-2.62,3.32-3.03,4.9-5.54,9.28-7.52,13.12s-3.91,7.76-5.78,11.72c8.4-11.67,16.97-23.04,25.73-34.12,8.75-11.08,17.15-20.82,25.2-29.22,8.05-8.4,15.46-14.99,22.23-19.78,6.77-4.78,12.48-6.71,17.15-5.78,2.8.47,6.24,1.87,10.33,4.2,4.08,2.33,7.99,5.25,11.72,8.75,3.73,3.5,6.82,7.41,9.28,11.72,2.45,4.32,3.32,8.57,2.62,12.78-.23,1.4-1.05,3.21-2.45,5.42-1.4,2.22-2.97,4.61-4.72,7.18s-3.38,4.96-4.9,7.18c-1.52,2.22-2.39,4.02-2.62,5.42l-1.75,5.6c7.23-9.57,14.53-18.67,21.88-27.3s14.29-16.1,20.83-22.4c6.53-6.3,12.54-11.14,18.02-14.53,5.48-3.38,10.09-4.72,13.83-4.03,2.8.47,6.3,1.87,10.5,4.2s8.17,5.25,11.9,8.75c3.73,3.5,6.82,7.41,9.27,11.72,2.45,4.32,3.33,8.57,2.62,12.78-1.87,11.9-5.31,23.51-10.32,34.82s-10.85,22.4-17.5,33.25c-6.65,10.85-13.59,21.47-20.82,31.85-7.23,10.38-14,20.59-20.3,30.62-1.4,2.33-2.57,4.55-3.5,6.65s-1.28,3.5-1.05,4.2c.47,1.63,2.74.47,6.83-3.5,4.08-3.97,9.16-9.62,15.22-16.98,6.07-7.35,12.89-15.92,20.47-25.72s15.28-19.89,23.1-30.28c7.82-10.38,15.4-20.59,22.75-30.62,7.35-10.03,13.94-18.78,19.78-26.25,2.1-1.87,4.08-2.86,5.95-2.97,1.87-.12,3.32.41,4.38,1.58,1.05,1.17,1.63,2.8,1.75,4.9.12,2.1-.41,4.55-1.58,7.35-5.37,8.17-11.96,18.08-19.78,29.75-7.82,11.67-16.16,23.68-25.02,36.05-8.87,12.37-18.03,24.62-27.48,36.75-9.45,12.13-18.49,22.92-27.12,32.38-8.63,9.45-16.68,16.86-24.15,22.22-7.47,5.37-13.53,7.58-18.2,6.65-2.8-.47-5.89-1.75-9.28-3.85-3.38-2.1-6.47-4.72-9.27-7.88s-5.02-6.65-6.65-10.5c-1.63-3.85-2.22-7.76-1.75-11.72,1.17-7.23,3.5-14.99,7-23.28,3.5-8.28,7.82-16.97,12.95-26.07,7-12.83,14.23-24.68,21.7-35.53,7.47-10.85,14.47-22.22,21-34.12,3.5-6.3,6.24-11.67,8.22-16.1s2.74-7.23,2.28-8.4c-.7-1.4-3.15-.29-7.35,3.32-4.2,3.62-9.51,8.92-15.92,15.93-6.42,7-13.59,15.22-21.53,24.67-7.93,9.45-15.98,19.19-24.15,29.23-8.17,10.03-16.16,19.95-23.97,29.75-7.82,9.8-14.64,18.55-20.47,26.25-1.17,2.1-1.87,3.85-2.1,5.25Z"/>
    <path id="path4-2" data-name="path4" class="cls-2" d="M1207.95,702.1c-2.57-.23-3.44-1.87-2.62-4.9.82-3.03,2.39-6.3,4.73-9.8,2.33-3.5,5.13-6.65,8.4-9.45,3.27-2.8,6.18-4.32,8.75-4.55,2.33.47,4.55.76,6.65.88,2.1.12,4.2.29,6.3.53,5.83-10.5,11.78-21.18,17.85-32.03,6.07-10.85,11.67-20.77,16.8-29.75,5.13-8.98,9.33-16.33,12.6-22.05s4.9-8.57,4.9-8.57c1.63-2.33,4.02-2.16,7.17.53s6.24,6.59,9.28,11.72,5.6,10.67,7.7,16.62c2.1,5.95,2.92,11.03,2.45,15.22-1.87,3.73-5.31,10.09-10.33,19.07-5.02,8.98-11.49,20.47-19.42,34.48.93.23,1.81.41,2.62.52.82.12,1.81.18,2.97.18,2.1.93,2.97,2.39,2.62,4.38s-1.28,4.08-2.8,6.3c-1.52,2.22-3.56,4.26-6.12,6.12s-5.02,3.15-7.35,3.85h-3.85c-11.67,20.77-25.02,44.8-40.07,72.1s-31.32,57.52-48.83,90.65c-3.27,6.07-5.72,11.26-7.35,15.57-1.63,4.32-2.22,7.18-1.75,8.58.7,1.63,3.03.47,7-3.5,3.97-3.97,8.98-9.62,15.05-16.98,6.07-7.35,12.89-15.92,20.47-25.72s15.28-19.89,23.1-30.28c7.82-10.38,15.4-20.59,22.75-30.62,7.35-10.03,13.94-18.78,19.78-26.25,2.1-1.87,4.08-2.86,5.95-2.97,1.87-.12,3.33.41,4.38,1.58,1.05,1.17,1.63,2.8,1.75,4.9.12,2.1-.53,4.55-1.92,7.35-5.37,8.17-11.9,18.08-19.6,29.75-7.7,11.67-15.98,23.68-24.85,36.05-8.87,12.37-18.02,24.62-27.47,36.75s-18.49,22.92-27.12,32.38-16.68,16.86-24.15,22.22-13.53,7.58-18.2,6.65c-2.8-.47-5.78-1.63-8.93-3.5s-5.95-4.2-8.4-7c-2.45-2.8-4.38-6.01-5.77-9.62-1.4-3.62-1.75-7.53-1.05-11.72,1.17-7.7,3.56-16.51,7.18-26.43,3.62-9.92,7.93-20.3,12.95-31.15,5.02-10.85,10.5-21.88,16.45-33.08,5.95-11.2,11.78-22.05,17.5-32.55,5.72-10.5,11.14-20.36,16.28-29.58s9.45-17.09,12.95-23.62l10.15-19.25h-17.5Z"/>
    <path id="path5-2" data-name="path5" class="cls-2" d="M1378.75,586.6c1.17.47,2.92,2.1,5.25,4.9s4.32,6.3,5.95,10.5,2.39,8.69,2.28,13.47c-.12,4.78-1.92,9.28-5.42,13.47-4.67,5.37-9.92,12.02-15.75,19.95-5.83,7.93-11.32,15.87-16.45,23.8s-9.39,15.05-12.78,21.35c-3.38,6.3-4.96,10.38-4.72,12.25.23,1.17.64,2.45,1.22,3.85.58,1.4,1.57,2.33,2.98,2.8,3.03,1.17,6.82,1.69,11.38,1.58,4.55-.12,9.1-.35,13.65-.7,4.55-.35,8.52-.58,11.9-.7,3.38-.12,5.43.18,6.12.88,1.4,1.87,2.45,4.14,3.15,6.82s1.17,5.37,1.4,8.05.29,5.31.17,7.88-.29,4.55-.52,5.95c.23.93-.99,3.62-3.68,8.05s-6.36,10.03-11.03,16.8c-4.67,6.77-10.03,14.41-16.1,22.92s-12.19,17.15-18.38,25.9-12.19,17.32-18.03,25.72-10.97,15.87-15.4,22.4c-7.23,11.2-11.67,19.6-13.3,25.2-1.63,5.6-.47,7.82,3.5,6.65,1.17.23,4.2-2.04,9.1-6.82s10.79-11.14,17.68-19.08c6.88-7.93,14.47-17.03,22.75-27.3,8.28-10.27,16.68-20.65,25.2-31.15s16.62-20.77,24.32-30.8c7.7-10.03,14.47-18.78,20.3-26.25,2.1-1.87,4.02-2.86,5.78-2.97,1.75-.12,3.15.41,4.2,1.58,1.05,1.17,1.63,2.8,1.75,4.9.12,2.1-.41,4.55-1.57,7.35-5.37,8.17-11.9,18.08-19.6,29.75-7.7,11.67-16.04,23.8-25.03,36.4-8.98,12.6-18.2,25.03-27.65,37.28-9.45,12.25-18.49,23.1-27.12,32.55s-16.68,16.92-24.15,22.4c-7.47,5.48-13.53,7.76-18.2,6.82-2.8-.47-6.24-1.69-10.33-3.68-4.08-1.98-7.93-4.49-11.55-7.52-3.62-3.03-6.65-6.42-9.1-10.15-2.45-3.73-3.33-7.7-2.62-11.9.7-5.13,2.57-12.19,5.6-21.18s7.64-19.72,13.82-32.2c6.18-12.48,14.06-26.72,23.62-42.7s21.35-33.66,35.35-53.03c1.63-2.1,2.51-3.68,2.62-4.72.12-1.05-.17-2.04-.88-2.98-.7-.93-1.81-1.87-3.32-2.8s-3.09-2.45-4.72-4.55c-2.57,3.27-5.25,6.65-8.05,10.15-2.8,3.5-5.54,6.94-8.22,10.32-2.68,3.38-5.19,6.65-7.53,9.8s-4.32,5.89-5.95,8.22c-2.1,1.87-4.03,2.86-5.78,2.97-1.75.12-3.15-.35-4.2-1.4s-1.63-2.68-1.75-4.9.41-4.61,1.57-7.18c1.87-2.8,4.02-6.12,6.47-9.97s5.08-7.88,7.88-12.07c2.8-4.2,5.72-8.46,8.75-12.78,3.03-4.32,5.95-8.58,8.75-12.78-1.63-7.93-1.92-16.68-.88-26.25,1.05-9.57,3.09-19.13,6.12-28.7,3.03-9.57,6.88-18.72,11.55-27.48,4.67-8.75,9.92-16.27,15.75-22.57,6.3-6.77,11.32-11.84,15.05-15.22,3.73-3.38,6.77-5.72,9.1-7,2.33-1.28,4.02-1.81,5.07-1.58,1.05.23,1.93.7,2.62,1.4Z"/>
    <path id="path6-2" data-name="path6" class="cls-2" d="M1522.95,819.7c-4.67,6.53-9.97,13.71-15.92,21.53-5.95,7.82-12.07,15.63-18.38,23.45-6.3,7.82-12.72,15.4-19.25,22.75-6.53,7.35-12.72,13.82-18.55,19.42-2.57,2.57-5.48,5.25-8.75,8.05-3.27,2.8-6.71,5.42-10.32,7.88-3.62,2.45-7.23,4.61-10.85,6.47s-6.94,3.03-9.98,3.5c-3.27.47-7.41.23-12.42-.7s-8.81-1.98-11.38-3.15c-3.5-1.63-7.41-4.26-11.72-7.88s-8.34-7.76-12.08-12.43c-3.73-4.67-6.71-9.62-8.92-14.88-2.22-5.25-3.09-10.56-2.62-15.92,1.17-10.5,4.08-22.11,8.75-34.83,4.67-12.72,10.38-25.43,17.15-38.15,6.77-12.72,14.47-25.02,23.1-36.92,8.63-11.9,17.73-22.34,27.3-31.33s19.25-16.1,29.05-21.35c9.8-5.25,19.25-7.64,28.35-7.17,6.07.23,11.38,2.16,15.93,5.77,4.55,3.62,9.04,7.88,13.47,12.78,3.97,6.77,6.3,12.78,7,18.03.7,5.25.23,10.32-1.4,15.22s-4.14,9.68-7.53,14.35c-3.38,4.67-7.17,9.8-11.38,15.4-7.93,10.5-16.22,19.48-24.85,26.95-8.63,7.47-17.03,13.65-25.2,18.55-8.17,4.9-15.69,8.63-22.58,11.2-6.88,2.57-12.54,4.08-16.97,4.55-2.57,4.43-4.78,8.75-6.65,12.95-1.87,3.97-3.67,8.05-5.42,12.25-1.75,4.2-3.09,8.11-4.03,11.72-.93,3.62-1.17,6.71-.7,9.28.47,2.57,2.1,4.2,4.9,4.9,4.9.7,11.38-1.22,19.43-5.77s17.09-11.08,27.12-19.6c10.03-8.52,20.53-18.78,31.5-30.8,10.97-12.02,21.7-25.14,32.2-39.38l38.85-51.45c2.1-1.87,4.03-2.86,5.78-2.97,1.75-.12,3.15.41,4.2,1.58,1.05,1.17,1.63,2.8,1.75,4.9.12,2.1-.41,4.55-1.58,7.35-4.67,7-10.09,15.11-16.28,24.32-6.18,9.22-12.89,19.07-20.12,29.57ZM1499.5,745.85c-3.03-.47-7,1.17-11.9,4.9s-10.32,8.87-16.28,15.4c-5.95,6.53-12.13,14-18.55,22.4-6.42,8.4-12.54,17.03-18.38,25.9,4.43-2.33,9.92-5.89,16.45-10.67,6.53-4.78,14.35-11.61,23.45-20.47,3.5-3.5,7.23-7.29,11.2-11.38,3.97-4.08,7.35-7.99,10.15-11.73,2.8-3.73,4.67-6.94,5.6-9.62s.35-4.26-1.75-4.72Z"/>
    <path id="path7-2" data-name="path7" class="cls-2" d="M1654.2,819.7c-4.67,6.53-9.97,13.71-15.92,21.53-5.95,7.82-12.07,15.63-18.38,23.45-6.3,7.82-12.72,15.4-19.25,22.75-6.53,7.35-12.72,13.82-18.55,19.42-2.57,2.57-5.48,5.25-8.75,8.05-3.27,2.8-6.71,5.42-10.32,7.88-3.62,2.45-7.23,4.61-10.85,6.47-3.62,1.87-6.94,3.03-9.98,3.5-3.27.47-7.41.23-12.42-.7s-8.81-1.98-11.38-3.15c-3.5-1.63-7.41-4.26-11.72-7.88-4.32-3.62-8.34-7.76-12.08-12.43-3.73-4.67-6.71-9.62-8.92-14.88-2.22-5.25-3.09-10.56-2.62-15.92,1.17-10.5,4.08-22.11,8.75-34.83,4.67-12.72,10.38-25.43,17.15-38.15,6.77-12.72,14.47-25.02,23.1-36.92,8.63-11.9,17.73-22.34,27.3-31.33,9.57-8.98,19.25-16.1,29.05-21.35,9.8-5.25,19.25-7.64,28.35-7.17,6.07.23,11.38,2.16,15.93,5.77,4.55,3.62,9.04,7.88,13.47,12.78,3.97,6.77,6.3,12.78,7,18.03.7,5.25.23,10.32-1.4,15.22s-4.14,9.68-7.53,14.35c-3.38,4.67-7.17,9.8-11.38,15.4-7.93,10.5-16.22,19.48-24.85,26.95-8.63,7.47-17.03,13.65-25.2,18.55-8.17,4.9-15.69,8.63-22.58,11.2-6.88,2.57-12.54,4.08-16.97,4.55-2.57,4.43-4.78,8.75-6.65,12.95-1.87,3.97-3.67,8.05-5.42,12.25-1.75,4.2-3.09,8.11-4.03,11.72s-1.17,6.71-.7,9.28c.47,2.57,2.1,4.2,4.9,4.9,4.9.7,11.38-1.22,19.43-5.77s17.09-11.08,27.12-19.6c10.03-8.52,20.53-18.78,31.5-30.8,10.97-12.02,21.7-25.14,32.2-39.38l38.85-51.45c2.1-1.87,4.03-2.86,5.78-2.97,1.75-.12,3.15.41,4.2,1.58,1.05,1.17,1.63,2.8,1.75,4.9.12,2.1-.41,4.55-1.58,7.35-4.67,7-10.09,15.11-16.28,24.32-6.18,9.22-12.89,19.07-20.12,29.57ZM1630.75,745.85c-3.03-.47-7,1.17-11.9,4.9s-10.32,8.87-16.28,15.4c-5.95,6.53-12.13,14-18.55,22.4-6.42,8.4-12.54,17.03-18.38,25.9,4.43-2.33,9.92-5.89,16.45-10.67,6.53-4.78,14.35-11.61,23.45-20.47,3.5-3.5,7.23-7.29,11.2-11.38,3.97-4.08,7.35-7.99,10.15-11.73,2.8-3.73,4.67-6.94,5.6-9.62s.35-4.26-1.75-4.72Z"/>
    <path id="path8-2" data-name="path8" class="cls-2" d="M1752.55,823.2c-3.73,4.2-8.75,8.75-15.05,13.65s-13.18,9.68-20.65,14.35c-1.17,6.77-2.92,13.71-5.25,20.83s-5.48,14.76-9.45,22.92c-4.2,8.4-8.93,15.4-14.18,21-5.25,5.6-10.67,10.03-16.28,13.3-5.6,3.27-11.2,5.54-16.8,6.82-5.6,1.28-10.79,1.93-15.58,1.93s-9.1-.53-12.95-1.57c-3.85-1.05-6.71-2.28-8.57-3.68-4.67-3.03-7.93-6.82-9.8-11.38s-2.57-9.39-2.1-14.53c.47-5.13,2.04-10.38,4.72-15.75s6.36-10.62,11.03-15.75c3.97-4.67,9.97-8.87,18.03-12.6s17.32-8.05,27.82-12.95c3.97-13.53,7.7-27.53,11.2-42,3.5-14.47,6.65-27.18,9.45-38.15l1.05-4.55-7,9.45c-2.1,1.87-4.02,2.86-5.77,2.97-1.75.12-3.15-.41-4.2-1.58-1.05-1.17-1.63-2.8-1.75-4.9-.12-2.1.53-4.55,1.93-7.35,2.8-4.67,6.71-10.73,11.72-18.2s9.86-14.93,14.53-22.4c1.17-6.53,2.8-13.42,4.9-20.65,2.1-7.23,4.78-14.82,8.05-22.75,4.67-13.07,10.15-25.61,16.45-37.62,6.3-12.02,12.6-21.41,18.9-28.17,6.3-6.77,11.38-11.84,15.23-15.22,3.85-3.38,6.94-5.72,9.27-7,2.33-1.28,4.03-1.81,5.08-1.58,1.05.23,1.92.58,2.62,1.05,1.17.47,2.92,2.16,5.25,5.07s4.32,6.42,5.95,10.5c1.63,4.08,2.33,8.52,2.1,13.3-.23,4.78-2.22,9.28-5.95,13.47-3.5,4.2-8.46,10.44-14.88,18.72s-12.95,18.03-19.6,29.22c-6.65,11.2-12.72,23.57-18.2,37.1-5.48,13.53-9.04,27.65-10.67,42.35-1.4,12.6-2.28,23.8-2.62,33.6s-.76,18.78-1.22,26.95c4.2-3.03,8.46-6.12,12.77-9.27,4.32-3.15,8.58-6.71,12.78-10.68,5.37-5.13,10.5-10.32,15.4-15.57s9.8-11.03,14.7-17.33l6.65-8.75c2.1-1.87,4.08-2.86,5.95-2.97,1.87-.12,3.32.41,4.38,1.57,1.05,1.17,1.63,2.8,1.75,4.9.12,2.1-.53,4.55-1.93,7.35-6.07,9.1-12.25,17.97-18.55,26.6-6.3,8.63-13.18,17.27-20.65,25.9ZM1625.15,903.35c-.7,1.87-.53,3.5.53,4.9,1.05,1.4,2.74,2.1,5.07,2.1s5.07-.99,8.22-2.97,6.47-5.66,9.97-11.03c.93-1.4,1.87-2.97,2.8-4.72s1.87-3.68,2.8-5.78c-5.6,2.8-10.09,4.84-13.48,6.12-3.38,1.28-6.12,2.33-8.22,3.15s-3.67,1.81-4.72,2.97-2.04,2.92-2.97,5.25Z"/>
  </g>
  <path class="cls-1" d="M892,1055c-29.45,24.95-60.53,49.39-84.98,79.52-3.71,4.57-14.09,17.36-16.01,21.99-.19.46-.26,1.64.48,1.48,27.52-16.91,66.1-40.14,98.97-42.03,1.09-.06,3.79-.64,3.52,1.03-64.92,25.31-116.65,83.58-131.98,152.01l31.98-20.51c-25.63,32.08-45.61,69.42-51.99,110.5,3.71-2.31,18.04-1.2,19.51-2.98,18.65-66.75,60.55-123.95,121.46-157.54,8.63-4.76,23.48-12.59,32.54-15.46.51-.16,1.63-.27,1.48.48l-52.99,59.5,24.69-18.8c51.37-36.11,112.68-54.11,175.31-39.18.25,1.53-1.87,1.18-3,1.47-12.65,3.23-25.57,5.41-38.21,8.8-20.88,5.61-44.25,12.05-61.78,24.71,87.07-13.39,172.04,28.65,218.99,101.53.4,2.11-.79,1.63-2.29,1.29-13.47-3.06-28.43-9.09-42.28-12.73-37.79-9.92-77.15-17.84-116.42-17.07.24,1.43,1.84,1.93,2.95,2.54,9.48,5.17,20.79,9.08,30.72,14.28,25.52,13.37,52.67,30.29,70.33,53.16l-32.32-17.17c-61.95-28.21-132.73-32.63-196.67-7.81l41.99,16.98c-47.97-3.03-99.28,1.01-141.87,24.49l5.45,11.44c73.08-24.65,155.41-16.59,219.94,26.06l12.47,9.01-81.63-12.86-3.36.86c61.19,13.82,121.62,52.79,151.52,108.99,3.17,5.96,10.44,20.45,11.49,26.52.1.58.26,1.65-.51,1.5-25.22-24.52-49.99-52.17-82.5-66.99,12.66,16.4,24.59,33.34,33.18,52.31,24.99,55.21,25.99,114.5,4.84,171.19-2,5.35-4.14,12.48-8.01,16.48-13.15-52.73-30.87-106.76-61.51-152,1.11,16.15,4.69,32.29,5.49,48.51,1.11,22.29.45,45.92-4.28,67.7l-3.7,9.79c-.36-73.46-30.64-146.09-86.54-193.97l-16.47-12.02,8.01,43.99c-11.71-23.38-26.78-45.75-44.5-65.01-3.36-3.65-16.55-17.45-20.03-18.98-1.84-.81-2.18,5.1-3.01,6.97-7.12,16.18-22.09,23.65-39.48,20.03,80.36,123.88,131.7,265.44,165.51,408.98,33.82,143.56,50.64,291.16,56.53,438.47l-.04,72.54h-126c42.55-217.18,19.68-443.31-43.73-653.77-23.24-77.11-52.34-152.55-86.75-225.25-4.99-1.57-10.13-1.12-15.31-2.69-11.84-3.58-22.48-14.97-24.21-27.3-.59-.55-8.73,5.39-10.32,6.17-7.27,3.58-14.6,4.57-22.44,6.06-7.43,39.48-1.98,80.24,7.76,118.77l-23.5-36.99c-2.41-.44-1.2,1.11-1.45,2.51-12.08,67.63,6.13,136.82,46.15,191.8,6.5,8.93,14.07,16.97,20.81,25.68-1.49,1.23-16.61-9.85-18.9-11.59-27.53-21.01-47.54-50.03-68.09-77.4,4.63,37.41,19.96,74.62,35.81,108.68,6.97,14.96,15.25,29.35,22.17,44.32-80.84-32.25-139.82-109.6-141-197.99-1.42.02-1.96,2.84-2.45,4.03-4.41,10.8-6.74,24.03-8.4,35.6-3.21,22.39-4.12,45.76-4.15,68.35-1.48-.04-1.89-2.81-2.43-4.05-23.14-52.7-18.25-111.54,2.96-163.93l20.48-41.01-49.5,62.99c.3-11.19,4.27-23.55,7.79-34.21,17.92-54.26,54.45-99.95,102.26-130.8l-2.56-18.98c-33.3,15.87-61.65,40.15-86.49,66.99l18.01-40.99c-74.74,30.68-130.99,98.2-148.52,176.99l-1.98-7.51c-.05-26.47,6.83-52.24,14.72-77.26l14.78-39.22c-28.39,24.09-49.46,55.3-69.92,86.08-10.01,12.01-16.94,33.49-26.12,44.88-.37.46-1.02,1.36-1.45,1.03-8.59-45.03-4.35-92.33,14.13-134.36,16.01-36.42,42.38-66.79,73.86-90.63-34.48,6.72-66.01,26.73-95.52,44.98l-1.48-.48c41.02-64.29,118.54-94.34,192.99-93.52l-11.5-1.98-64.99-5.01-10.5-1.98c74.6-31.05,159.18-22.65,228,18.57,2.61,1.21,6.68-1.58,8.5-1.58h16c.57,0,2.68,2.16,3.5.5-27.21-26.05-63.34-41.11-99.81-49.19-4.83-1.07-19.38-2.47-22.21-3.79-.46-.22-1.26-1.32-.98-1.51l38-5.51c-57.57-39.94-134.87-45.63-199.99-21.51,16.46-15.24,40.87-23.84,62.23-30.26,12.05-3.62,24.63-5.34,36.32-8.68,1.36-.39,3.1-.12,3.45-2.04-35.98-8.3-72.85-8.07-109.54-7.05l-33.45,2.55c52.88-54.91,135.3-74.32,206.99-46.51-12.06-12.74-28.57-22.25-43.98-30.51-11.39-6.1-24.03-12.17-36.01-17.01-.71-.29-3.09-.42-1.51-1.48,65.6-2.24,121.47,36.91,159.49,87l-32.99-59.99c.94-.91,14.8,9.69,16.47,11.02,6.37,5.05,12.02,11.07,18.52,15.97.46-13.74,1.18-30.33,4.96-43.55.39-1.36.12-3.1,2.04-3.45l17,68.99c-8.31-63.44,6.78-131.2,55.52-174.99,1.39.67-.18,2.53-.5,3.5-8.76,26.26-22.4,51.95-24.88,80.12-.14,1.62-1.09,6.69.86,7.37,28.15-61.84,92.69-104.21,160.6-106.95l2.42-1.05h19Z"/>
  <path class="cls-1" d="M1244,2399l-.04-46.54c.05-2.36,1.02-4.55,1.08-6.92,5.62-205.79,41.79-416.1,132.58-601.42l42.37-74.12c-11.91,3.7-25.31-2.92-30.49-14.01-.88-1.89-1.1-7.82-2.99-6.99-2.83,1.24-11.4,10.19-14.03,12.98-14.6,15.48-27.28,33.83-36.5,53.01-1.83.23-.87-2.13-.72-3.22,1.41-10.46,4.89-21.34,6.72-31.77-52.49,36.86-80.93,99.3-82,162.99-1.54-.88-2.26-5.03-2.7-6.79-7.23-29.04-2.46-62.91,1.21-92.2-16.29,22.58-27.53,50.12-36.52,76.48-4.91,14.37-8.33,29.23-13.49,43.51-29.64-62.49-20.27-138.05,25.5-189.99-26.39,11.62-46.19,34.22-66.5,53.99-.75.16-.64-.96-.48-1.48,2.19-6.94,7.82-17.99,11.46-24.54,23.17-41.68,68.01-70.39,113.52-81.99.25-1.72-2.36-1.06-3.47-.97-18.97,1.45-39.22,8.19-58.52,8.97,51.03-39.62,121.62-47.58,182.49-27.95,3.39-.29,3.4-6.2,5.38-8.56-33.73-18.56-73.91-21.59-111.86-19.49l29.69-11.79,2.3-2.18c-60.12-22.13-127.51-13.47-180.99,20.99-.44-1.88,1.05-2.38,1.99-3.5,12.99-15.5,32.17-26.42,49.33-36.67l31.67-15.82c-33.53-.75-67.03,6.61-99.21,15.27-8.93,2.4-18.77,6.63-27.35,8.66-1.31.31-1.94-.11-1.42-1.43,1.24-3.15,13.46-18.11,16.47-21.53,39.34-44.67,96.83-67.71,156.51-59-7.68-6.51-18.53-10.23-28.04-13.45-16.16-5.47-32.86-8.77-49.47-12.55-1.55-.35-1.74.67-1.5-1.98,41.05-9.37,82.5-.51,118.68,19.82l36.33,25.16-38.99-44.49c-.15-.77.92-.61,1.5-.51,4.98.87,19.41,8.65,24.52,11.49,47.39,26.33,81.35,72.34,95.45,124.55l15.52,1.97c-5.36-32.45-20.72-62.72-41.99-87.5.89-1.57,2.26.34,3.11.89,7.71,5.03,14.96,10.9,22.88,15.61-11.6-53.89-52.48-99.44-102.98-120.01-.27-1.67,2.42-1.09,3.52-1.02,24.81,1.43,55.45,20.65,76.46,33.03.69-.73-5.62-9.51-6.6-10.89-19.11-26.85-47.22-48.7-72.39-69.61,55.49-4.36,109.75,25.95,137.8,73.2,2.02,3.4,4.73,7.45,5.21,11.29,1.94-.66,1.02-5.77.86-7.37-2.28-23.39-14.76-41.68-19.85-62.15-.14-.55-.29-1.63.48-1.47,19.06,16.6,32.27,39.6,39,64s6.78,48.52,4.51,72.99l14.49-53.99c2.53,12.12,4.56,24.53,4.51,36.99l26.98-21-23.5,44.99c20.35-25.31,45.09-47.75,76.26-58.74,15.81-5.58,31.48-7.84,48.24-8.24l-44.29,23.2c-6.45,4.55-13.96,8.29-18.71,14.78,56.99-19.91,119.87-5.31,161.99,37.51-8.1,1.01-17.32-1.24-25.45-1.55-28.82-1.09-59.6-.92-87.53,6.05l47.24,13.24c11.87,4.89,24.32,9.65,33.75,18.74-51.53-18.7-112.19-14.71-157.98,16.51.95,1.62,2.11,1.21,3.48,1.5,7.14,1.53,14.82,1.62,21.99,3.01,1.46.28,3.1-.01,3.51,1.98-35.15,3.98-71.49,16.93-97,42,3.98-.39,7.41-1.23,11.54-1.02,3.24.16,7.85,2.14,10.49,1.58,3.23-.69,13.29-7.42,17.62-9.4,47.86-21.99,111.12-29.22,160.17-6.41,1.41.65,2.73-.6,2.18,2.26l-56.49,4.01-10.5,1.98c57.8-.54,119.61,23.05,151,73.5l-43.33-23.67c-10.93-4.67-21.83-9.77-33.68-11.81,56.43,39.94,84.99,110.76,70.5,178.99-21.83-37.59-44.58-75.52-77.01-104.99l13.77,38.23c5.12,16.86,8.59,33.61,9.82,51.27l-2.07,8.49c-11.38-51.78-45.55-99.28-91.09-126.41-5.05-3.01-20.47-11.76-25.41-12.59-.72-.12-1.72-.2-1.5.5l9.17,17.83,5.33,13.67c-18.93-21.71-42.17-41.05-68.5-52.99l-1.55,14.98c38.28,24.9,67.68,61.74,81.57,105.5,2.12,6.69,4.78,15.43,5.71,22.3.15,1.08,1.11,3.45-.72,3.22l-37-47.99c4.68,10.37,10.53,20.12,14.76,30.73,14.72,36.96,19.6,78.13,6.94,116.48l-6.7,15.78c-.15-24.84-1.66-49.97-7.3-74.21l-4.7-10.78c-1.11,59.16-34.51,112.72-84.7,142.8-5.92,3.55-19.74,11.64-25.83,13.17-.55.14-1.63.29-1.47-.48,20.93-37.99,39.96-78.27,46.99-121.5-15.99,21.36-31.35,44.23-52.52,60.97-5.25,4.15-11.31,8.39-17.47,11.02,42.73-46.15,66.02-112.24,52.5-174.99l-18.49,29c7.61-30.52,10.9-62.66,5.89-93.9-9.58.42-18-4.28-25.89-9.1-3.11,14.5-15.63,23.5-30.35,23.17-2.23.78-16.64,34.08-18.85,39.15-88.39,203.47-127.71,437.79-85.82,657.68h-100Z"/>
  <path class="cls-7" d="M2207,638.75v1273.5l-1100,637.75h-4L-1,1910.25V642.75L1103,3h2l1102,635.75ZM1102.44,111.26L93.2,693.93l-2.29,9.71-.03,1151.76,1.98,8.02,1011.13,584.5,1012.02-583.63,1.1-1162.67-1.98-8.02L1106.99,111.79c-1.48-.71-2.95-.79-4.55-.53Z"/>
</svg>