<?xml version="1.0" encoding="UTF-8"?>
<svg id="Layer_1" data-name="Layer 1" xmlns="http://www.w3.org/2000/svg" xmlns:xlink="http://www.w3.org/1999/xlink" viewBox="0 0 2206 2557">
  <defs>
    <style>
      .cls-1 {
        fill: #0033db;
      }

      .cls-1, .cls-2, .cls-3, .cls-4, .cls-5, .cls-6, .cls-7, .cls-8, .cls-9, .cls-10, .cls-11, .cls-12, .cls-13, .cls-14 {
        stroke-miterlimit: 10;
      }

      .cls-1, .cls-6, .cls-7 {
        stroke: #646464;
        stroke-width: 7.17px;
      }

      .cls-2 {
        fill: #869f26;
      }

      .cls-2, .cls-3, .cls-4, .cls-5, .cls-8, .cls-11, .cls-12, .cls-14 {
        stroke-width: 5px;
      }

      .cls-2, .cls-3, .cls-4, .cls-8, .cls-9, .cls-10, .cls-11, .cls-12, .cls-13, .cls-14 {
        stroke: #000;
      }

      .cls-3, .cls-15 {
        fill: #df6128;
      }

      .cls-4 {
        fill: #f9c12b;
      }

      .cls-16 {
        fill: #66bbcd;
      }

      .cls-17 {
        fill: #fdf3d7;
      }

      .cls-18 {
        fill: url(#linear-gradient);
      }

      .cls-19, .cls-13, .cls-14 {
        fill: #e4ac1a;
      }

      .cls-20 {
        fill: #18597a;
      }

      .cls-21 {
        fill: #115b7a;
      }

      .cls-22 {
        fill: #2c80a3;
      }

      .cls-23 {
        fill: #298fa8;
      }

      .cls-24 {
        fill: #00566d;
      }

      .cls-5 {
        fill: #669239;
        stroke: #49651b;
      }

      .cls-25 {
        fill: #b23f18;
      }

      .cls-26 {
        fill: #487e30;
      }

      .cls-6 {
        fill: #fff;
      }

      .cls-7 {
        fill: #db1e00;
      }

      .cls-8, .cls-11 {
        fill: none;
      }

      .cls-9 {
        stroke-width: 4.81px;
      }

      .cls-9, .cls-10 {
        fill: #e8b72e;
      }

      .cls-10 {
        stroke-width: 4.85px;
      }

      .cls-27 {
        fill: #eebf8e;
      }

      .cls-11 {
        stroke-linecap: round;
      }

      .cls-12 {
        fill: #e9b637;
      }

      .cls-13 {
        stroke-width: 10px;
      }
    </style>
    <linearGradient id="linear-gradient" x1="1108.6" y1="2483" x2="1108.6" y2="70" gradientUnits="userSpaceOnUse">
      <stop offset="0" stop-color="#8bd2d5"/>
      <stop offset="1" stop-color="#2c96b7"/>
    </linearGradient>
  </defs>
  <polygon class="cls-18" points="2159.1 673.75 2159.1 1877.25 1826.38 2069.65 1668.05 2161.21 1282.71 2384.05 1111.6 2483 1107.6 2483 554.28 2164.69 377.57 2063.03 116.18 1912.66 58.1 1879.25 58.1 673.75 703.72 302.34 1004.83 129.12 1107.6 70 1111.6 70 1743.68 434.31 2121.78 652.24 2159.1 673.75"/>
  <g>
    <path class="cls-5" d="M1714.07,2051.62c7.97-12.48,9.38-40.65-5.3-51.91-12.83-9.84-32.83-2.85-38.66-.5-.43.17-.82-.28-.62-.69,6.21-12.83,5.47-26-.6-31.09-6.89-5.78-23.55-3.57-35.76,10.62-.38.44-1.07-.02-.82-.54,11.59-24.09,8.54-46.57-21.03-52.49-31.07-6.21-47.14,14.86-44.81,42.54.05.57-.74.75-.95.22-4.11-10.03-11.28-17.47-18.8-18.08-11.56-.94-26.89,13.97-26.6,37.51,0,.38-.39.64-.73.45-3.02-1.68-12.86-6.48-21.41-2.51-10.84,5.03-16.77,22.85-8.23,40.51,169.06,57.51,212.72,44.13,224.32,25.95Z"/>
    <path class="cls-5" d="M1329.59,1990.85c9.92-9.22,9.35-24.9,0-32.92-8.55-7.32-22.38-6.5-30.54,2.48-.32.36-.91.09-.86-.38,1.42-11.96-5.06-23.65-16.08-28.68-11.28-5.15-24.7-2.13-32.75,7.25-.3.34-.85.17-.88-.29-1.46-22.72-6.74-41.19-32.84-43.68-21.8-2.08-49.19,16.53-50.88,49.1-.03.52-.72.65-.94.18-5.57-11.69-17.63-18.51-29.24-17-14.34,1.86-25.8,16.15-24.24,32.52.05.48-.55.73-.87.37-2.95-3.38-10.99-11.38-21.07-10.73-13.47.87-26.88,16.95-25.27,38.61,88.81,1.05,177.63,2.11,266.44,3.17Z"/>
    <path class="cls-5" d="M651.64,2026.93c8.2-13.16,2.64-29.98-9.5-35.45-10.32-4.65-23.84-.38-30.37,10.58-.27.46-.97.21-.92-.32,1.8-18.51-10.45-32.14-20.63-32.42-8.91-.24-19.92,9.67-22.36,24.79-.09.55-.88.57-.98.02-4.13-24.25-21.52-37.67-32.37-35.57-10.11,1.96-19.89,18.42-18.44,39.49.03.41-.42.68-.76.46-4.03-2.64-16.96-10.24-28.91-5.87-15.71,5.74-26.15,30.87-15.83,58.34,60.35-8.02,120.69-16.04,181.04-24.05Z"/>
  </g>
  <g>
    <polygon class="cls-14" points="1395.35 1863.26 1155.95 1198.69 1124.95 1211.74 1326.74 1871.33 1395.35 1863.26"/>
    <polygon class="cls-4" points="1339.42 1960.06 1338.31 1992.44 1444.29 1992.44 1445.68 1964.49 1413.3 1934.05 1391.29 1889.22 1352.98 1891.44 1339.42 1960.06"/>
    <path class="cls-14" d="M1401.32,1878.63c7.1,17.29,22,65.72,46.31,72.59.75.21,1.35-.65.86-1.26-15.61-19.17,28.67-27.54,32.33-1.51,1.15,8.36-4.52,14.71-7.19,17.71-13.19,15.81-34.99,9.92-49.47-1.34-.04-.03-.08-.05-.12-.08-9.62-4.55-24.23-22.56-27.33-36.5-3.98-14.35-11.92-39.77-29.61-27.67-4.36,2.93-.25,22.76,1.62,26.48.03.06.05.11.06.17,6.36,27.2-20,44.33-32.62,45.29-.04,0-.08,0-.12.02-7.8,2.17-24.22,1.78-27.87-11.02-.01-.04-.02-.08-.03-.12-1.02-5.64,2.5-11.99,6.93-13.5,1.62-1.42,11.26,1.03,16.31.06.19-.04.37-.15.49-.3,12.97-16.71-.21-52.88-7.22-70.86-.21-.53.2-1.1.77-1.08l75.2,2.43c.31.01.59.2.71.49Z"/>
    <path class="cls-4" d="M1400.57,1861.55h-79.97s-7.19.55-6.92,12.18,7.19,10.79,7.19,10.79h81.35s6.92.55,8.02-9.96c1.11-10.52-9.69-13.01-9.69-13.01Z"/>
    <path class="cls-11" d="M1399.43,1936.13s.04,17.29-16.29,21.17"/>
    <polygon class="cls-14" points="804.46 1863.26 1043.86 1198.69 1074.86 1211.74 873.07 1871.33 804.46 1863.26"/>
    <polygon class="cls-4" points="860.39 1960.06 861.5 1992.44 755.52 1992.44 754.13 1964.49 786.51 1934.05 808.53 1889.22 846.83 1891.44 860.39 1960.06"/>
    <path class="cls-14" d="M798.49,1878.63c-7.1,17.29-22,65.72-46.31,72.59-.75.21-1.35-.65-.86-1.26,15.61-19.17-28.67-27.54-32.33-1.51-1.15,8.36,4.52,14.71,7.19,17.71,13.19,15.81,34.99,9.92,49.47-1.34.04-.03.08-.05.12-.08,9.62-4.55,24.23-22.56,27.33-36.5,3.98-14.35,11.92-39.77,29.61-27.67,4.36,2.93.25,22.76-1.62,26.48-.03.06-.05.11-.06.17-6.36,27.2,20,44.33,32.62,45.29.04,0,.08,0,.12.02,7.8,2.17,24.22,1.78,27.87-11.02.01-.04.02-.08.03-.12,1.02-5.64-2.5-11.99-6.93-13.5-1.62-1.42-11.26,1.03-16.31.06-.19-.04-.37-.15-.49-.3-12.97-16.71.21-52.88,7.22-70.86.21-.53-.2-1.1-.77-1.08l-75.2,2.43c-.31.01-.59.2-.71.49Z"/>
    <path class="cls-4" d="M799.24,1861.55h79.97s7.19.55,6.92,12.18c-.28,11.62-7.19,10.79-7.19,10.79h-81.35s-6.92.55-8.02-9.96c-1.11-10.52,9.69-13.01,9.69-13.01Z"/>
    <path class="cls-11" d="M800.38,1936.13s-.04,17.29,16.29,21.17"/>
    <path class="cls-14" d="M1495.47,2017.36s4.54-11.35,3.18-21.35-4.93-19.51-17.68-20.2-763.94,0-763.94,0c0,0-18.62.34-17.71,16.63s-.03,34.45-.03,34.45h794.82l1.36-9.54Z"/>
  </g>
  <g>
    <line class="cls-13" x1="1100.9" y1="1693.44" x2="1100.9" y2="619.94"/>
    <line class="cls-13" x1="1630.71" y1="1151.73" x2="575.91" y2="1151.73"/>
    <line class="cls-13" x1="1481.14" y1="1537.93" x2="722.07" y2="778.86"/>
    <line class="cls-13" x1="1472.73" y1="780.25" x2="726.87" y2="1526.12"/>
    <line class="cls-13" x1="1306.49" y1="1653.5" x2="895.68" y2="661.72"/>
    <line class="cls-13" x1="1588.67" y1="950.28" x2="614.15" y2="1353.94"/>
    <line class="cls-13" x1="1598.28" y1="1364.32" x2="606.5" y2="953.51"/>
    <line class="cls-13" x1="1300.55" y1="667.54" x2="896.9" y2="1642.05"/>
  </g>
  <g>
    <path class="cls-14" d="M1066.26,590.94c-.67-2.42-5.56-20.17,4.2-26.72,5.29-3.55,17.88,1.31,25.22,5.4.18.1-4.26-4.13-4.37-4.3-5.39-7.65-6.06-16.95-1.93-22.72,6.88-9.63,23.75-9.18,29.33,1.5,3.47,6.66,0,19.51-7.4,24.52-.05.04.07.11.12.07,2.06-1.7,17.34-6.88,24.29-5.54,8.99,1.73,7.79,14.29,6.5,24.79-2.03,16.41-18.37,33.91-39.24,33.4-19.66-.48-32.93-16.67-36.72-30.4Z"/>
    <path class="cls-4" d="M1099.19,629.57c.63-3.88,1.38-11.84-2.11-20.72-2.59-6.61-6.36-10.72-8.4-12.91-3.3-3.54-13.21-14.17-28.82-15.01-2.6-.14-21.7-1.17-30.32,12.91-4.46,7.28-6.39,19.04,0,27.62.91,1.22,4.98,6.59,12.31,8.11,8.87,1.83,18.79-2.72,22.79-10.81.61-1.24,4.74-9.59,0-15.91-3.58-4.77-10.81-6.54-17.68-3.9"/>
    <path class="cls-4" d="M1108.98,629.57c-.63-3.88-1.38-11.84,2.11-20.72,2.59-6.61,6.36-10.72,8.4-12.91,3.3-3.54,13.21-14.17,28.82-15.01,2.6-.14,21.7-1.17,30.32,12.91,4.46,7.28,6.39,19.04,0,27.62-.91,1.22-4.98,6.59-12.31,8.11-8.87,1.83-18.79-2.72-22.79-10.81-.61-1.24-4.74-9.59,0-15.91,3.58-4.77,10.81-6.54,17.68-3.9"/>
  </g>
  <g>
    <g>
      <path class="cls-19" d="M1101.08,758.75c-217.32,0-393.49,176.17-393.49,393.5s176.17,393.49,393.49,393.49,393.5-176.17,393.5-393.49-176.18-393.5-393.5-393.5ZM1101.08,1529.29c-208.23,0-377.04-168.81-377.04-377.04s168.81-377.05,377.04-377.05,377.05,168.81,377.05,377.05-168.81,377.04-377.05,377.04Z"/>
      <path class="cls-8" d="M1101.08,758.75c-217.32,0-393.49,176.17-393.49,393.5s176.17,393.49,393.49,393.49,393.5-176.17,393.5-393.49-176.18-393.5-393.5-393.5ZM1101.08,1529.29c-208.23,0-377.04-168.81-377.04-377.04s168.81-377.05,377.04-377.05,377.05,168.81,377.05,377.05-168.81,377.04-377.05,377.04Z"/>
    </g>
    <g>
      <path class="cls-19" d="M1101.09,608.65c-299.62,0-542.5,242.88-542.5,542.5s242.88,542.49,542.5,542.49,542.49-242.88,542.49-542.49-242.88-542.5-542.49-542.5ZM1101.09,1655.84c-278.74,0-504.7-225.96-504.7-504.69s225.96-504.7,504.7-504.7,504.69,225.96,504.69,504.7-225.96,504.69-504.69,504.69Z"/>
      <path class="cls-8" d="M1101.09,608.65c-299.62,0-542.5,242.88-542.5,542.5s242.88,542.49,542.5,542.49,542.49-242.88,542.49-542.49-242.88-542.5-542.49-542.5ZM1101.09,1655.84c-278.74,0-504.7-225.96-504.7-504.69s225.96-504.7,504.7-504.7,504.69,225.96,504.69,504.7-225.96,504.69-504.69,504.69Z"/>
    </g>
  </g>
  <g>
    <path class="cls-10" d="M1101.95,1259.31c-.17.33-.66.33-.79-.02-2.79-7.08-9.4-11.7-16.41-11.55-7.92.17-15.93,6.42-16.06,13.98-.09,5.02,3.27,11.65,9.22,12.49,1.67.24,3.22-.03,4.58-.53,2.02-.74,4.19.65,4.19,2.79,0,1.5.2,3.15.76,4.87,1.64,5.07,6.22,10.34,12.79,11.01,7.42.76,14-4.83,15.43-11.81.75-3.67.79-5.67.08-7.09-.3-.61.12-1.32.79-1.35,1.53-.07,3.34,2.13,6.71,2.1,6.38-.05,11.27-5.83,10.9-11.9-.46-7.69-9.02-13.16-16.66-13.09-6.37.06-12.33,3.97-15.52,10.09Z"/>
    <path class="cls-10" d="M996.32,1154.34c-.33-.17-.33-.65.01-.79,7.05-2.86,11.61-9.51,11.4-16.51-.24-7.92-6.57-15.87-14.13-15.93-5.02-.04-11.62,3.38-12.41,9.34-.22,1.67.06,3.22.57,4.57.76,2.01-.61,4.2-2.75,4.21-1.5.01-3.15.23-4.87.8-5.06,1.69-10.28,6.31-10.89,12.89-.69,7.43,4.96,13.95,11.95,15.32,3.67.72,5.68.73,7.09.01.6-.31,1.32.1,1.36.78.08,1.53-2.1,3.36-2.04,6.73.11,6.38,5.93,11.21,12,10.79,7.68-.53,13.08-9.14,12.93-16.78-.12-6.37-4.09-12.3-10.23-15.43Z"/>
    <path class="cls-10" d="M1205.65,1153.39c.34.16.34.65,0,.79-7.01,2.96-11.47,9.69-11.15,16.68.36,7.91,6.81,15.77,14.37,15.72,5.02-.04,11.57-3.56,12.26-9.53.2-1.68-.11-3.22-.64-4.56-.79-2,.54-4.2,2.69-4.25,1.5-.03,3.15-.28,4.85-.88,5.03-1.76,10.18-6.47,10.69-13.06.58-7.44-5.17-13.88-12.19-15.13-3.68-.66-5.69-.65-7.09.09-.6.32-1.32-.08-1.37-.76-.11-1.53,2.05-3.39,1.94-6.76-.21-6.38-6.1-11.12-12.17-10.61-7.68.65-12.94,9.34-12.68,16.98.22,6.36,4.27,12.23,10.47,15.27Z"/>
    <path class="cls-10" d="M1102.47,1046.76c.17-.33.66-.33.79.02,2.79,7.08,9.4,11.7,16.41,11.55,7.92-.17,15.93-6.42,16.06-13.98.09-5.02-3.27-11.65-9.22-12.49-1.67-.24-3.22.03-4.58.53-2.02.74-4.19-.65-4.19-2.79,0-1.5-.2-3.15-.76-4.87-1.64-5.07-6.22-10.34-12.79-11.01-7.42-.76-14,4.83-15.43,11.81-.75,3.67-.79,5.67-.08,7.09.3.61-.12,1.32-.79,1.35-1.53.07-3.34-2.13-6.71-2.1-6.38.05-11.27,5.83-10.9,11.9.46,7.69,9.02,13.16,16.66,13.09,6.37-.06,12.33-3.97,15.52-10.09Z"/>
    <path class="cls-4" d="M1103,1241.15c-48.49.27-88.13-39.93-89.49-87.31-1.43-49.97,40.15-93.38,90.49-92.56,47.54.78,86.54,40.73,87.51,88.06.99,48.85-38.81,91.53-88.51,91.81Z"/>
    <path class="cls-14" d="M1103,1241.15c-48.49.27-88.13-39.93-89.49-87.31-1.43-49.97,40.15-93.38,90.49-92.56,47.54.78,86.54,40.73,87.51,88.06.99,48.85-38.81,91.53-88.51,91.81Z"/>
    <circle class="cls-14" cx="1104" cy="1085.72" r="27.73"/>
    <circle class="cls-14" cx="1166.76" cy="1152.06" r="27.73"/>
    <circle class="cls-14" cx="1102.34" cy="1217.74" r="27.73"/>
    <circle class="cls-14" cx="1035.47" cy="1151.92" r="27.73"/>
    <circle class="cls-4" cx="1150.39" cy="1107.72" r="27.73"/>
    <circle class="cls-4" cx="1146.7" cy="1198.97" r="27.73"/>
    <circle class="cls-4" cx="1054.7" cy="1198.69" r="27.73"/>
    <circle class="cls-4" cx="1055.15" cy="1104.86" r="27.73"/>
    <path class="cls-14" d="M1185.89,1081.52c-41.6-48.08-119.78-49.96-163.38-3.75-38.11,40.39-39.11,106.19-1.88,148.02,41.24,46.32,116.52,48.82,160.38,4.49,39.84-40.25,41.36-106.59,4.88-148.76ZM1103,1241.15c-48.49.27-88.13-39.93-89.49-87.31-1.43-49.97,40.15-93.38,90.49-92.56,47.54.78,86.54,40.73,87.51,88.06.99,48.85-38.81,91.53-88.51,91.81Z"/>
    <path class="cls-4" d="M1103,1107.02c23.87.36,43.5,20.17,43.46,44.19-.04,24.1-19.86,43.97-43.96,44.06-24.26.09-44.29-19.89-44.29-44.12,0-24.48,20.43-44.49,44.79-44.12Z"/>
    <path class="cls-14" d="M1101.42,1123.82c14.55.27,26.51,12.72,26.82,27.33.31,14.55-11.01,27.7-25.9,28.47-15.27.79-28-11.75-28.75-26.45-.8-15.61,12.12-29.63,27.83-29.35Z"/>
  </g>
  <g>
    <circle class="cls-4" cx="951.91" cy="797.55" r="12.44"/>
    <circle class="cls-4" cx="825.71" cy="882.61" r="12.44"/>
    <circle class="cls-4" cx="741.99" cy="1009.49" r="12.44"/>
    <circle class="cls-4" cx="715.94" cy="1150.45" r="12.44"/>
    <circle class="cls-4" cx="746.04" cy="1299.77" r="12.44"/>
    <circle class="cls-4" cx="828.79" cy="1425.16" r="12.44"/>
    <circle class="cls-4" cx="951.9" cy="1508.26" r="12.44"/>
    <circle class="cls-4" cx="1101.42" cy="1535.98" r="12.44"/>
    <circle class="cls-4" cx="1245.67" cy="1508.26" r="12.44"/>
    <circle class="cls-4" cx="1371.33" cy="1427.33" r="12.44"/>
    <circle class="cls-4" cx="1454.48" cy="1304.86" r="12.44"/>
    <circle class="cls-4" cx="1485.56" cy="1152.11" r="12.44"/>
    <circle class="cls-4" cx="1458.26" cy="1004.45" r="12.44"/>
    <circle class="cls-4" cx="1373.77" cy="879.92" r="12.44"/>
    <circle class="cls-4" cx="1247.2" cy="795.28" r="12.44"/>
    <circle class="cls-4" cx="843.85" cy="686.95" r="12.44"/>
    <circle class="cls-4" cx="1350.84" cy="1612.67" r="12.44"/>
    <circle class="cls-4" cx="1247.83" cy="649.26" r="12.44"/>
    <circle class="cls-4" cx="1430.36" cy="738.94" r="12.44"/>
    <circle class="cls-4" cx="1601.49" cy="1305.12" r="12.44"/>
    <circle class="cls-4" cx="1156.69" cy="1674.47" r="12.44"/>
    <circle class="cls-4" cx="952.33" cy="1652.48" r="12.44"/>
    <circle class="cls-4" cx="769.08" cy="1561.81" r="12.44"/>
    <circle class="cls-4" cx="640.57" cy="1404.97" r="12.44"/>
    <circle class="cls-4" cx="596.84" cy="1008.68" r="12.44"/>
    <circle class="cls-4" cx="1035.47" cy="631.03" r="12.44"/>
    <circle class="cls-4" cx="1627.11" cy="1094.85" r="12.44"/>
    <circle class="cls-4" cx="759.94" cy="745.13" r="12.44"/>
    <circle class="cls-4" cx="1434.29" cy="1557.08" r="12.44"/>
    <circle class="cls-4" cx="1345.6" cy="684.23" r="12.44"/>
    <circle class="cls-4" cx="1561.16" cy="1399.76" r="12.44"/>
    <circle class="cls-4" cx="1255.5" cy="1654.79" r="12.44"/>
    <circle class="cls-4" cx="1050.71" cy="1672.22" r="12.44"/>
    <circle class="cls-4" cx="853.52" cy="1618.18" r="12.44"/>
    <circle class="cls-4" cx="601.22" cy="1307.14" r="12.44"/>
    <circle class="cls-4" cx="578.87" cy="1108.09" r="12.44"/>
    <circle class="cls-4" cx="947.56" cy="650.01" r="12.44"/>
    <circle class="cls-4" cx="1606.65" cy="996.05" r="12.44"/>
  </g>
  <g>
    <g>
      <path class="cls-25" d="M729.83,1577.84c0,47.82-34.06,61.17-67.71,63.18-5.16.31-10.39.26-15.56-.19,47.71-11.28,63.86-62.99,63.86-62.99h19.41Z"/>
      <path class="cls-15" d="M710.42,1577.84s-16.15,51.71-63.86,62.99c-31.55-2.74-60.95-20.38-60.95-62.99h124.81Z"/>
      <path class="cls-23" d="M729.83,1539.36c-.04,11.39-.97,21.64-2.24,30.52h-136.46c-1.35-7.24-2.47-15.92-2.74-25.76v-.02c.26-.75,8.86-24.86,34.61-37.01v41.48s3.42-7.87,11.66-16.76c10.25-11.08,27.98-23.74,55.86-24.72v32.9c-.13,1.9,0,3.05,0,3.05v-3.05c.46-6.68,4.18-22.61,28.32-30.57l8.75-2.33c1.34,9.31,2.29,20.17,2.24,32.27Z"/>
      <path class="cls-21" d="M623,1507.09c-25.75,12.15-34.42,44.13-34.68,44.88-.06-1.83,0-11.57,0-13.48.07-12.2,1.46-22.82,3.16-31.4h31.52Z"/>
      <path class="cls-23" d="M690.52,1539.99v3.05s-.13-1.15,0-3.05Z"/>
      <path class="cls-23" d="M727.59,1507.09l-8.75,2.33c2.66-.89,5.57-1.67,8.75-2.33Z"/>
      <path class="cls-23" d="M588.38,1544.12s0-.01.01-.02v.02h-.01Z"/>
      <path class="cls-21" d="M690.52,1507.09c-27.88.98-39.04,7.33-49.29,18.41-8.24,8.89-18.23,36.38-18.23,36.38v-54.79h67.52Z"/>
      <path class="cls-23" d="M690.52,1539.99v3.05s-.13-1.15,0-3.05Z"/>
      <path class="cls-21" d="M727.59,1511.38c-3.18.66-5.99,1.81-8.75,2.33-13.8,2.6-27.86,37.53-28.32,44.21v-46.54h37.07Z"/>
      <path class="cls-23" d="M727.59,1507.09l-8.75,2.33c2.66-.89,5.57-1.67,8.75-2.33Z"/>
      <path class="cls-8" d="M727.59,1507.09c1.34,9.31,2.29,20.17,2.24,32.27-.05,11.38-.97,21.64-2.24,30.52h-136.46c-1.6-8.59-2.87-19.22-2.81-31.4.07-12.19,1.46-22.81,3.16-31.4h136.11Z"/>
      <rect class="cls-9" x="685.36" y="1503.3" width="14.86" height="70.01"/>
      <rect class="cls-10" x="615.57" y="1503.3" width="14.86" height="71.09"/>
      <path class="cls-3" d="M733.61,1502.08c-1.19-2.17-24.28-42.56-70.98-44.55-5.44-.23-10.84.07-16.12.88-25.87,3.95-49.07,19.92-62.16,43.67h149.26Z"/>
      <path class="cls-27" d="M641.05,1459.43c-.81.63-30.58,23.47-30.38,42.65h-26.32c12.16-22.07,33.04-37.42,56.7-42.65Z"/>
      <path class="cls-8" d="M618.19,1577.84s-2.61,45.5,22.87,49.2"/>
      <path class="cls-8" d="M697.39,1577.84s2.61,44.58-19.19,49.2"/>
      <line class="cls-8" x1="607.61" y1="1627.04" x2="708.9" y2="1627.04"/>
      <path class="cls-25" d="M673.45,1459.43c.81.63,30.58,23.47,30.38,42.65h26.32c-12.16-22.07-33.04-37.42-56.7-42.65Z"/>
      <path class="cls-8" d="M733.61,1502.08c-1.19-2.17-24.28-42.56-70.98-44.55-5.44-.23-10.84.07-16.12.88-25.87,3.95-49.07,19.92-62.16,43.67h149.26Z"/>
      <path class="cls-12" d="M738.79,1503.31c0,4.72-3.83,8.55-8.56,8.55h-144.61c-4.72,0-8.55-3.83-8.55-8.55s3.83-8.56,8.55-8.56h144.61c4.73,0,8.56,3.83,8.56,8.56Z"/>
      <path class="cls-8" d="M729.83,1577.84c0,47.82-34.06,61.17-67.71,63.18-5.16.31-10.39.26-15.56-.19-31.55-2.74-60.95-20.38-60.95-62.99h144.22Z"/>
      <path class="cls-12" d="M738.97,1574.39c0,4.73-3.83,8.56-8.55,8.56h-144.98c-4.73,0-8.56-3.83-8.56-8.56s3.83-8.55,8.56-8.55h144.98c4.72,0,8.55,3.83,8.55,8.55Z"/>
    </g>
    <g>
      <path class="cls-20" d="M1166.94,1791.51c0,47.82-34.06,61.17-67.71,63.18-5.16.31-10.39.26-15.56-.19,47.71-11.28,63.86-62.99,63.86-62.99h19.41Z"/>
      <path class="cls-22" d="M1147.53,1791.51s-16.15,51.71-63.86,62.99c-31.55-2.74-60.95-20.38-60.95-62.99h124.81Z"/>
      <path class="cls-23" d="M1166.94,1753.03c-.04,11.39-.97,21.64-2.24,30.52h-136.46c-1.35-7.24-2.47-15.92-2.74-25.76v-.02c.26-.75,8.86-24.86,34.61-37.01v41.48s3.42-7.87,11.66-16.76c10.25-11.08,27.98-23.74,55.86-24.72v32.9c-.13,1.9,0,3.05,0,3.05v-3.05c.46-6.68,4.18-22.61,28.32-30.57l8.75-2.33c1.34,9.31,2.29,20.17,2.24,32.27Z"/>
      <path class="cls-21" d="M1060.11,1720.76c-25.75,12.15-34.42,44.13-34.68,44.88-.06-1.83,0-11.57,0-13.48.07-12.2,1.46-22.82,3.16-31.4h31.52Z"/>
      <path class="cls-23" d="M1127.63,1753.66v3.05s-.13-1.15,0-3.05Z"/>
      <path class="cls-23" d="M1164.7,1720.76l-8.75,2.33c2.66-.89,5.57-1.67,8.75-2.33Z"/>
      <path class="cls-23" d="M1025.49,1757.79s0-.01.01-.02v.02h-.01Z"/>
      <path class="cls-21" d="M1127.63,1720.76c-27.88.98-39.04,7.33-49.29,18.41-8.24,8.89-18.23,36.38-18.23,36.38v-54.79h67.52Z"/>
      <path class="cls-23" d="M1127.63,1753.66v3.05s-.13-1.15,0-3.05Z"/>
      <path class="cls-21" d="M1164.7,1725.05c-3.18.66-5.99,1.81-8.75,2.33-13.8,2.6-27.86,37.53-28.32,44.21v-46.54h37.07Z"/>
      <path class="cls-23" d="M1164.7,1720.76l-8.75,2.33c2.66-.89,5.57-1.67,8.75-2.33Z"/>
      <path class="cls-8" d="M1164.7,1720.76c1.34,9.31,2.29,20.17,2.24,32.27-.05,11.38-.97,21.64-2.24,30.52h-136.46c-1.6-8.59-2.87-19.22-2.81-31.4.07-12.19,1.46-22.81,3.16-31.4h136.11Z"/>
      <rect class="cls-9" x="1122.47" y="1716.98" width="14.86" height="70.01"/>
      <rect class="cls-10" x="1052.68" y="1716.98" width="14.86" height="71.09"/>
      <path class="cls-22" d="M1170.71,1715.75c-1.19-2.17-24.28-42.56-70.98-44.55-5.44-.23-10.84.07-16.12.88-25.87,3.95-49.07,19.92-62.16,43.67h149.26Z"/>
      <path class="cls-16" d="M1078.16,1673.1c-.81.63-30.58,23.47-30.38,42.65h-26.32c12.16-22.07,33.04-37.42,56.7-42.65Z"/>
      <path class="cls-8" d="M1055.3,1791.51s-2.61,45.5,22.87,49.2"/>
      <path class="cls-8" d="M1134.5,1791.51s2.61,44.58-19.19,49.2"/>
      <line class="cls-8" x1="1044.72" y1="1840.72" x2="1146.01" y2="1840.72"/>
      <path class="cls-20" d="M1110.56,1673.1c.81.63,30.58,23.47,30.38,42.65h26.32c-12.16-22.07-33.04-37.42-56.7-42.65Z"/>
      <path class="cls-8" d="M1170.71,1715.75c-1.19-2.17-24.28-42.56-70.98-44.55-5.44-.23-10.84.07-16.12.88-25.87,3.95-49.07,19.92-62.16,43.67h149.26Z"/>
      <path class="cls-12" d="M1175.9,1716.98c0,4.72-3.83,8.55-8.56,8.55h-144.61c-4.72,0-8.55-3.83-8.55-8.55s3.83-8.56,8.55-8.56h144.61c4.73,0,8.56,3.83,8.56,8.56Z"/>
      <path class="cls-8" d="M1166.94,1791.51c0,47.82-34.06,61.17-67.71,63.18-5.16.31-10.39.26-15.56-.19-31.55-2.74-60.95-20.38-60.95-62.99h144.22Z"/>
      <path class="cls-12" d="M1176.08,1788.06c0,4.73-3.83,8.56-8.55,8.56h-144.98c-4.73,0-8.56-3.83-8.56-8.56s3.83-8.55,8.56-8.55h144.98c4.72,0,8.55,3.83,8.55,8.55Z"/>
    </g>
    <g>
      <path class="cls-25" d="M765.41,911.01c0,47.82-34.06,61.17-67.71,63.18-5.16.31-10.39.26-15.56-.19,47.71-11.28,63.86-62.99,63.86-62.99h19.41Z"/>
      <path class="cls-15" d="M746,911.01s-16.15,51.71-63.86,62.99c-31.55-2.74-60.95-20.38-60.95-62.99h124.81Z"/>
      <path class="cls-23" d="M765.41,872.53c-.04,11.39-.97,21.64-2.24,30.52h-136.46c-1.35-7.24-2.47-15.92-2.74-25.76v-.02c.26-.75,8.86-24.86,34.61-37.01v41.48s3.42-7.87,11.66-16.76c10.25-11.08,27.98-23.74,55.86-24.72v32.9c-.13,1.9,0,3.05,0,3.05v-3.05c.46-6.68,4.18-22.61,28.32-30.57l8.75-2.33c1.34,9.31,2.29,20.17,2.24,32.27Z"/>
      <path class="cls-21" d="M658.58,840.26c-25.75,12.15-34.42,44.13-34.68,44.88-.06-1.83,0-11.57,0-13.48.07-12.2,1.46-22.82,3.16-31.4h31.52Z"/>
      <path class="cls-23" d="M726.1,873.16v3.05s-.13-1.15,0-3.05Z"/>
      <path class="cls-23" d="M763.17,840.26l-8.75,2.33c2.66-.89,5.57-1.67,8.75-2.33Z"/>
      <path class="cls-23" d="M623.96,877.29s0-.01.01-.02v.02h-.01Z"/>
      <path class="cls-21" d="M726.1,840.26c-27.88.98-39.04,7.33-49.29,18.41-8.24,8.89-18.23,36.38-18.23,36.38v-54.79h67.52Z"/>
      <path class="cls-23" d="M726.1,873.16v3.05s-.13-1.15,0-3.05Z"/>
      <path class="cls-21" d="M763.17,844.55c-3.18.66-5.99,1.81-8.75,2.33-13.8,2.6-27.86,37.53-28.32,44.21v-46.54h37.07Z"/>
      <path class="cls-23" d="M763.17,840.26l-8.75,2.33c2.66-.89,5.57-1.67,8.75-2.33Z"/>
      <path class="cls-8" d="M763.17,840.26c1.34,9.31,2.29,20.17,2.24,32.27-.05,11.38-.97,21.64-2.24,30.52h-136.46c-1.6-8.59-2.87-19.22-2.81-31.4.07-12.19,1.46-22.81,3.16-31.4h136.11Z"/>
      <rect class="cls-9" x="720.94" y="836.47" width="14.86" height="70.01"/>
      <rect class="cls-10" x="651.15" y="836.47" width="14.86" height="71.09"/>
      <path class="cls-3" d="M769.19,835.25c-1.19-2.17-24.28-42.56-70.98-44.55-5.44-.23-10.84.07-16.12.88-25.87,3.95-49.07,19.92-62.16,43.67h149.26Z"/>
      <path class="cls-27" d="M676.63,792.6c-.81.63-30.58,23.47-30.38,42.65h-26.32c12.16-22.07,33.04-37.42,56.7-42.65Z"/>
      <path class="cls-8" d="M653.77,911.01s-2.61,45.5,22.87,49.2"/>
      <path class="cls-8" d="M732.97,911.01s2.61,44.58-19.19,49.2"/>
      <line class="cls-8" x1="643.19" y1="960.21" x2="744.48" y2="960.21"/>
      <path class="cls-25" d="M709.03,792.6c.81.63,30.58,23.47,30.38,42.65h26.32c-12.16-22.07-33.04-37.42-56.7-42.65Z"/>
      <path class="cls-8" d="M769.19,835.25c-1.19-2.17-24.28-42.56-70.98-44.55-5.44-.23-10.84.07-16.12.88-25.87,3.95-49.07,19.92-62.16,43.67h149.26Z"/>
      <path class="cls-12" d="M774.37,836.48c0,4.72-3.83,8.55-8.56,8.55h-144.61c-4.72,0-8.55-3.83-8.55-8.55s3.83-8.56,8.55-8.56h144.61c4.73,0,8.56,3.83,8.56,8.56Z"/>
      <path class="cls-8" d="M765.41,911.01c0,47.82-34.06,61.17-67.71,63.18-5.16.31-10.39.26-15.56-.19-31.55-2.74-60.95-20.38-60.95-62.99h144.22Z"/>
      <path class="cls-12" d="M774.55,907.56c0,4.73-3.83,8.56-8.55,8.56h-144.98c-4.73,0-8.56-3.83-8.56-8.56s3.83-8.55,8.56-8.55h144.98c4.72,0,8.55,3.83,8.55,8.55Z"/>
    </g>
    <g>
      <path class="cls-25" d="M1584.96,905.79c0,47.82-34.06,61.17-67.71,63.18-5.16.31-10.39.26-15.56-.19,47.71-11.28,63.86-62.99,63.86-62.99h19.41Z"/>
      <path class="cls-15" d="M1565.55,905.79s-16.15,51.71-63.86,62.99c-31.55-2.74-60.95-20.38-60.95-62.99h124.81Z"/>
      <path class="cls-23" d="M1584.96,867.31c-.04,11.39-.97,21.64-2.24,30.52h-136.46c-1.35-7.24-2.47-15.92-2.74-25.76v-.02c.26-.75,8.86-24.86,34.61-37.01v41.48s3.42-7.87,11.66-16.76c10.25-11.08,27.98-23.74,55.86-24.72v32.9c-.13,1.9,0,3.05,0,3.05v-3.05c.46-6.68,4.18-22.61,28.32-30.57l8.75-2.33c1.34,9.31,2.29,20.17,2.24,32.27Z"/>
      <path class="cls-21" d="M1478.13,835.04c-25.75,12.15-34.42,44.13-34.68,44.88-.06-1.83,0-11.57,0-13.48.07-12.2,1.46-22.82,3.16-31.4h31.52Z"/>
      <path class="cls-23" d="M1545.65,867.94v3.05s-.13-1.15,0-3.05Z"/>
      <path class="cls-23" d="M1582.72,835.04l-8.75,2.33c2.66-.89,5.57-1.67,8.75-2.33Z"/>
      <path class="cls-23" d="M1443.51,872.07s0-.01.01-.02v.02h-.01Z"/>
      <path class="cls-21" d="M1545.65,835.04c-27.88.98-39.04,7.33-49.29,18.41-8.24,8.89-18.23,36.38-18.23,36.38v-54.79h67.52Z"/>
      <path class="cls-23" d="M1545.65,867.94v3.05s-.13-1.15,0-3.05Z"/>
      <path class="cls-21" d="M1582.72,839.33c-3.18.66-5.99,1.81-8.75,2.33-13.8,2.6-27.86,37.53-28.32,44.21v-46.54h37.07Z"/>
      <path class="cls-23" d="M1582.72,835.04l-8.75,2.33c2.66-.89,5.57-1.67,8.75-2.33Z"/>
      <path class="cls-8" d="M1582.72,835.04c1.34,9.31,2.29,20.17,2.24,32.27-.05,11.38-.97,21.64-2.24,30.52h-136.46c-1.6-8.59-2.87-19.22-2.81-31.4.07-12.19,1.46-22.81,3.16-31.4h136.11Z"/>
      <rect class="cls-9" x="1540.49" y="831.25" width="14.86" height="70.01"/>
      <rect class="cls-10" x="1470.7" y="831.25" width="14.86" height="71.09"/>
      <path class="cls-3" d="M1588.73,830.03c-1.19-2.17-24.28-42.56-70.98-44.55-5.44-.23-10.84.07-16.12.88-25.87,3.95-49.07,19.92-62.16,43.67h149.26Z"/>
      <path class="cls-27" d="M1496.18,787.38c-.81.63-30.58,23.47-30.38,42.65h-26.32c12.16-22.07,33.04-37.42,56.7-42.65Z"/>
      <path class="cls-8" d="M1473.31,905.79s-2.61,45.5,22.87,49.2"/>
      <path class="cls-8" d="M1552.51,905.79s2.61,44.58-19.19,49.2"/>
      <line class="cls-8" x1="1462.74" y1="954.99" x2="1564.03" y2="954.99"/>
      <path class="cls-25" d="M1528.57,787.38c.81.63,30.58,23.47,30.38,42.65h26.32c-12.16-22.07-33.04-37.42-56.7-42.65Z"/>
      <path class="cls-8" d="M1588.73,830.03c-1.19-2.17-24.28-42.56-70.98-44.55-5.44-.23-10.84.07-16.12.88-25.87,3.95-49.07,19.92-62.16,43.67h149.26Z"/>
      <path class="cls-12" d="M1593.92,831.26c0,4.72-3.83,8.55-8.56,8.55h-144.61c-4.72,0-8.55-3.83-8.55-8.55s3.83-8.56,8.55-8.56h144.61c4.73,0,8.56,3.83,8.56,8.56Z"/>
      <path class="cls-8" d="M1584.96,905.79c0,47.82-34.06,61.17-67.71,63.18-5.16.31-10.39.26-15.56-.19-31.55-2.74-60.95-20.38-60.95-62.99h144.22Z"/>
      <path class="cls-12" d="M1594.1,902.34c0,4.73-3.83,8.56-8.55,8.56h-144.98c-4.73,0-8.56-3.83-8.56-8.56s3.83-8.55,8.56-8.55h144.98c4.72,0,8.55,3.83,8.55,8.55Z"/>
    </g>
    <g>
      <path class="cls-25" d="M1612.39,1580.48c0,47.82-34.06,61.17-67.71,63.18-5.16.31-10.39.26-15.56-.19,47.71-11.28,63.86-62.99,63.86-62.99h19.41Z"/>
      <path class="cls-15" d="M1592.98,1580.48s-16.15,51.71-63.86,62.99c-31.55-2.74-60.95-20.38-60.95-62.99h124.81Z"/>
      <path class="cls-23" d="M1612.39,1542c-.04,11.39-.97,21.64-2.24,30.52h-136.46c-1.35-7.24-2.47-15.92-2.74-25.76v-.02c.26-.75,8.86-24.86,34.61-37.01v41.48s3.42-7.87,11.66-16.76c10.25-11.08,27.98-23.74,55.86-24.72v32.9c-.13,1.9,0,3.05,0,3.05v-3.05c.46-6.68,4.18-22.61,28.32-30.57l8.75-2.33c1.34,9.31,2.29,20.17,2.24,32.27Z"/>
      <path class="cls-21" d="M1505.56,1509.73c-25.75,12.15-34.42,44.13-34.68,44.88-.06-1.83,0-11.57,0-13.48.07-12.2,1.46-22.82,3.16-31.4h31.52Z"/>
      <path class="cls-23" d="M1573.08,1542.63v3.05s-.13-1.15,0-3.05Z"/>
      <path class="cls-23" d="M1610.15,1509.73l-8.75,2.33c2.66-.89,5.57-1.67,8.75-2.33Z"/>
      <path class="cls-23" d="M1470.94,1546.76s0-.01.01-.02v.02h-.01Z"/>
      <path class="cls-21" d="M1573.08,1509.73c-27.88.98-39.04,7.33-49.29,18.41-8.24,8.89-18.23,36.38-18.23,36.38v-54.79h67.52Z"/>
      <path class="cls-23" d="M1573.08,1542.63v3.05s-.13-1.15,0-3.05Z"/>
      <path class="cls-21" d="M1610.15,1514.02c-3.18.66-5.99,1.81-8.75,2.33-13.8,2.6-27.86,37.53-28.32,44.21v-46.54h37.07Z"/>
      <path class="cls-23" d="M1610.15,1509.73l-8.75,2.33c2.66-.89,5.57-1.67,8.75-2.33Z"/>
      <path class="cls-8" d="M1610.15,1509.73c1.34,9.31,2.29,20.17,2.24,32.27-.05,11.38-.97,21.64-2.24,30.52h-136.46c-1.6-8.59-2.87-19.22-2.81-31.4.07-12.19,1.46-22.81,3.16-31.4h136.11Z"/>
      <rect class="cls-9" x="1567.93" y="1505.94" width="14.86" height="70.01"/>
      <rect class="cls-10" x="1498.13" y="1505.94" width="14.86" height="71.09"/>
      <path class="cls-3" d="M1616.17,1504.72c-1.19-2.17-24.28-42.56-70.98-44.55-5.44-.23-10.84.07-16.12.88-25.87,3.95-49.07,19.92-62.16,43.67h149.26Z"/>
      <path class="cls-27" d="M1523.61,1462.07c-.81.63-30.58,23.47-30.38,42.65h-26.32c12.16-22.07,33.04-37.42,56.7-42.65Z"/>
      <path class="cls-8" d="M1500.75,1580.48s-2.61,45.5,22.87,49.2"/>
      <path class="cls-8" d="M1579.95,1580.48s2.61,44.58-19.19,49.2"/>
      <line class="cls-8" x1="1490.18" y1="1629.68" x2="1591.46" y2="1629.68"/>
      <path class="cls-25" d="M1556.01,1462.07c.81.63,30.58,23.47,30.38,42.65h26.32c-12.16-22.07-33.04-37.42-56.7-42.65Z"/>
      <path class="cls-8" d="M1616.17,1504.72c-1.19-2.17-24.28-42.56-70.98-44.55-5.44-.23-10.84.07-16.12.88-25.87,3.95-49.07,19.92-62.16,43.67h149.26Z"/>
      <path class="cls-12" d="M1621.35,1505.95c0,4.72-3.83,8.55-8.56,8.55h-144.61c-4.72,0-8.55-3.83-8.55-8.55s3.83-8.56,8.55-8.56h144.61c4.73,0,8.56,3.83,8.56,8.56Z"/>
      <path class="cls-8" d="M1612.39,1580.48c0,47.82-34.06,61.17-67.71,63.18-5.16.31-10.39.26-15.56-.19-31.55-2.74-60.95-20.38-60.95-62.99h144.22Z"/>
      <path class="cls-12" d="M1621.53,1577.03c0,4.73-3.83,8.56-8.55,8.56h-144.98c-4.73,0-8.56-3.83-8.56-8.56s3.83-8.55,8.56-8.55h144.98c4.72,0,8.55,3.83,8.55,8.55Z"/>
    </g>
    <g>
      <path class="cls-20" d="M648.98,1228.86c0,47.82-34.06,61.17-67.71,63.18-5.16.31-10.39.26-15.56-.19,47.71-11.28,63.86-62.99,63.86-62.99h19.41Z"/>
      <path class="cls-22" d="M629.57,1228.86s-16.15,51.71-63.86,62.99c-31.55-2.74-60.95-20.38-60.95-62.99h124.81Z"/>
      <path class="cls-23" d="M648.98,1190.38c-.04,11.39-.97,21.64-2.24,30.52h-136.46c-1.35-7.24-2.47-15.92-2.74-25.76v-.02c.26-.75,8.86-24.86,34.61-37.01v41.48s3.42-7.87,11.66-16.76c10.25-11.08,27.98-23.74,55.86-24.72v32.9c-.13,1.9,0,3.05,0,3.05v-3.05c.46-6.68,4.18-22.61,28.32-30.57l8.75-2.33c1.34,9.31,2.29,20.17,2.24,32.27Z"/>
      <path class="cls-21" d="M542.15,1158.11c-25.75,12.15-34.42,44.13-34.68,44.88-.06-1.83,0-11.57,0-13.48.07-12.2,1.46-22.82,3.16-31.4h31.52Z"/>
      <path class="cls-23" d="M609.67,1191.01v3.05s-.13-1.15,0-3.05Z"/>
      <path class="cls-23" d="M646.74,1158.11l-8.75,2.33c2.66-.89,5.57-1.67,8.75-2.33Z"/>
      <path class="cls-23" d="M507.53,1195.14s0-.01.01-.02v.02h-.01Z"/>
      <path class="cls-21" d="M609.67,1158.11c-27.88.98-39.04,7.33-49.29,18.41-8.24,8.89-18.23,36.38-18.23,36.38v-54.79h67.52Z"/>
      <path class="cls-23" d="M609.67,1191.01v3.05s-.13-1.15,0-3.05Z"/>
      <path class="cls-21" d="M646.74,1162.4c-3.18.66-5.99,1.81-8.75,2.33-13.8,2.6-27.86,37.53-28.32,44.21v-46.54h37.07Z"/>
      <path class="cls-23" d="M646.74,1158.11l-8.75,2.33c2.66-.89,5.57-1.67,8.75-2.33Z"/>
      <path class="cls-8" d="M646.73,1158.11c1.34,9.31,2.29,20.17,2.24,32.27-.05,11.38-.97,21.64-2.24,30.52h-136.46c-1.6-8.59-2.87-19.22-2.81-31.4.07-12.19,1.46-22.81,3.16-31.4h136.11Z"/>
      <rect class="cls-9" x="604.51" y="1154.33" width="14.86" height="70.01"/>
      <rect class="cls-10" x="534.71" y="1154.33" width="14.86" height="71.09"/>
      <path class="cls-22" d="M652.75,1153.1c-1.19-2.17-24.28-42.56-70.98-44.55-5.44-.23-10.84.07-16.12.88-25.87,3.95-49.07,19.92-62.16,43.67h149.26Z"/>
      <path class="cls-16" d="M560.2,1110.45c-.81.63-30.58,23.47-30.38,42.65h-26.32c12.16-22.07,33.04-37.42,56.7-42.65Z"/>
      <path class="cls-8" d="M537.33,1228.86s-2.61,45.5,22.87,49.2"/>
      <path class="cls-8" d="M616.53,1228.86s2.61,44.58-19.19,49.2"/>
      <line class="cls-8" x1="526.76" y1="1278.07" x2="628.04" y2="1278.07"/>
      <path class="cls-20" d="M592.59,1110.45c.81.63,30.58,23.47,30.38,42.65h26.32c-12.16-22.07-33.04-37.42-56.7-42.65Z"/>
      <path class="cls-8" d="M652.75,1153.1c-1.19-2.17-24.28-42.56-70.98-44.55-5.44-.23-10.84.07-16.12.88-25.87,3.95-49.07,19.92-62.16,43.67h149.26Z"/>
      <path class="cls-12" d="M657.93,1154.33c0,4.72-3.83,8.55-8.56,8.55h-144.61c-4.72,0-8.55-3.83-8.55-8.55s3.83-8.56,8.55-8.56h144.61c4.73,0,8.56,3.83,8.56,8.56Z"/>
      <path class="cls-8" d="M648.98,1228.86c0,47.82-34.06,61.17-67.71,63.18-5.16.31-10.39.26-15.56-.19-31.55-2.74-60.95-20.38-60.95-62.99h144.22Z"/>
      <path class="cls-12" d="M658.11,1225.41c0,4.73-3.83,8.56-8.55,8.56h-144.98c-4.73,0-8.56-3.83-8.56-8.56s3.83-8.55,8.56-8.55h144.98c4.72,0,8.55,3.83,8.55,8.55Z"/>
    </g>
    <g>
      <path class="cls-20" d="M1693.44,1227.7c0,47.82-34.06,61.17-67.71,63.18-5.16.31-10.39.26-15.56-.19,47.71-11.28,63.86-62.99,63.86-62.99h19.41Z"/>
      <path class="cls-22" d="M1674.03,1227.7s-16.15,51.71-63.86,62.99c-31.55-2.74-60.95-20.38-60.95-62.99h124.81Z"/>
      <path class="cls-23" d="M1693.44,1189.22c-.04,11.39-.97,21.64-2.24,30.52h-136.46c-1.35-7.24-2.47-15.92-2.74-25.76v-.02c.26-.75,8.86-24.86,34.61-37.01v41.48s3.42-7.87,11.66-16.76c10.25-11.08,27.98-23.74,55.86-24.72v32.9c-.13,1.9,0,3.05,0,3.05v-3.05c.46-6.68,4.18-22.61,28.32-30.57l8.75-2.33c1.34,9.31,2.29,20.17,2.24,32.27Z"/>
      <path class="cls-21" d="M1586.61,1156.95c-25.75,12.15-34.42,44.13-34.68,44.88-.06-1.83,0-11.57,0-13.48.07-12.2,1.46-22.82,3.16-31.4h31.52Z"/>
      <path class="cls-23" d="M1654.13,1189.85v3.05s-.13-1.15,0-3.05Z"/>
      <path class="cls-23" d="M1691.2,1156.95l-8.75,2.33c2.66-.89,5.57-1.67,8.75-2.33Z"/>
      <path class="cls-23" d="M1551.99,1193.98s0-.01.01-.02v.02h-.01Z"/>
      <path class="cls-21" d="M1654.13,1156.95c-27.88.98-39.04,7.33-49.29,18.41-8.24,8.89-18.23,36.38-18.23,36.38v-54.79h67.52Z"/>
      <path class="cls-23" d="M1654.13,1189.85v3.05s-.13-1.15,0-3.05Z"/>
      <path class="cls-21" d="M1691.2,1161.24c-3.18.66-5.99,1.81-8.75,2.33-13.8,2.6-27.86,37.53-28.32,44.21v-46.54h37.07Z"/>
      <path class="cls-23" d="M1691.2,1156.95l-8.75,2.33c2.66-.89,5.57-1.67,8.75-2.33Z"/>
      <path class="cls-8" d="M1691.2,1156.95c1.34,9.31,2.29,20.17,2.24,32.27-.05,11.38-.97,21.64-2.24,30.52h-136.46c-1.6-8.59-2.87-19.22-2.81-31.4.07-12.19,1.46-22.81,3.16-31.4h136.11Z"/>
      <rect class="cls-9" x="1648.97" y="1153.16" width="14.86" height="70.01"/>
      <rect class="cls-10" x="1579.18" y="1153.16" width="14.86" height="71.09"/>
      <path class="cls-22" d="M1697.22,1151.94c-1.19-2.17-24.28-42.56-70.98-44.55-5.44-.23-10.84.07-16.12.88-25.87,3.95-49.07,19.92-62.16,43.67h149.26Z"/>
      <path class="cls-16" d="M1604.66,1109.29c-.81.63-30.58,23.47-30.38,42.65h-26.32c12.16-22.07,33.04-37.42,56.7-42.65Z"/>
      <path class="cls-8" d="M1581.8,1227.7s-2.61,45.5,22.87,49.2"/>
      <path class="cls-8" d="M1661,1227.7s2.61,44.58-19.19,49.2"/>
      <line class="cls-8" x1="1571.22" y1="1276.9" x2="1672.51" y2="1276.9"/>
      <path class="cls-20" d="M1637.06,1109.29c.81.63,30.58,23.47,30.38,42.65h26.32c-12.16-22.07-33.04-37.42-56.7-42.65Z"/>
      <path class="cls-8" d="M1697.22,1151.94c-1.19-2.17-24.28-42.56-70.98-44.55-5.44-.23-10.84.07-16.12.88-25.87,3.95-49.07,19.92-62.16,43.67h149.26Z"/>
      <path class="cls-12" d="M1702.4,1153.17c0,4.72-3.83,8.55-8.56,8.55h-144.61c-4.72,0-8.55-3.83-8.55-8.55s3.83-8.56,8.55-8.56h144.61c4.73,0,8.56,3.83,8.56,8.56Z"/>
      <path class="cls-8" d="M1693.44,1227.7c0,47.82-34.06,61.17-67.71,63.18-5.16.31-10.39.26-15.56-.19-31.55-2.74-60.95-20.38-60.95-62.99h144.22Z"/>
      <path class="cls-12" d="M1702.58,1224.25c0,4.73-3.83,8.56-8.55,8.56h-144.98c-4.73,0-8.56-3.83-8.56-8.56s3.83-8.55,8.56-8.55h144.98c4.72,0,8.55,3.83,8.55,8.55Z"/>
    </g>
    <g>
      <path class="cls-20" d="M1176.85,727.06c0,47.82-34.06,61.17-67.71,63.18-5.16.31-10.39.26-15.56-.19,47.71-11.28,63.86-62.99,63.86-62.99h19.41Z"/>
      <path class="cls-22" d="M1157.44,727.06s-16.15,51.71-63.86,62.99c-31.55-2.74-60.95-20.38-60.95-62.99h124.81Z"/>
      <path class="cls-23" d="M1176.85,688.58c-.04,11.39-.97,21.64-2.24,30.52h-136.46c-1.35-7.24-2.47-15.92-2.74-25.76v-.02c.26-.75,8.86-24.86,34.61-37.01v41.48s3.42-7.87,11.66-16.76c10.25-11.08,27.98-23.74,55.86-24.72v32.9c-.13,1.9,0,3.05,0,3.05v-3.05c.46-6.68,4.18-22.61,28.32-30.57l8.75-2.33c1.34,9.31,2.29,20.17,2.24,32.27Z"/>
      <path class="cls-21" d="M1070.02,656.31c-25.75,12.15-34.42,44.13-34.68,44.88-.06-1.83,0-11.57,0-13.48.07-12.2,1.46-22.82,3.16-31.4h31.52Z"/>
      <path class="cls-23" d="M1137.54,689.21v3.05s-.13-1.15,0-3.05Z"/>
      <path class="cls-23" d="M1174.61,656.31l-8.75,2.33c2.66-.89,5.57-1.67,8.75-2.33Z"/>
      <path class="cls-23" d="M1035.4,693.34s0-.01.01-.02v.02h-.01Z"/>
      <path class="cls-21" d="M1137.54,656.31c-27.88.98-39.04,7.33-49.29,18.41-8.24,8.89-18.23,36.38-18.23,36.38v-54.79h67.52Z"/>
      <path class="cls-23" d="M1137.54,689.21v3.05s-.13-1.15,0-3.05Z"/>
      <path class="cls-21" d="M1174.61,660.6c-3.18.66-5.99,1.81-8.75,2.33-13.8,2.6-27.86,37.53-28.32,44.21v-46.54h37.07Z"/>
      <path class="cls-23" d="M1174.61,656.31l-8.75,2.33c2.66-.89,5.57-1.67,8.75-2.33Z"/>
      <path class="cls-8" d="M1174.61,656.31c1.34,9.31,2.29,20.17,2.24,32.27-.05,11.38-.97,21.64-2.24,30.52h-136.46c-1.6-8.59-2.87-19.22-2.81-31.4.07-12.19,1.46-22.81,3.16-31.4h136.11Z"/>
      <rect class="cls-9" x="1132.38" y="652.53" width="14.86" height="70.01"/>
      <rect class="cls-10" x="1062.59" y="652.53" width="14.86" height="71.09"/>
      <path class="cls-22" d="M1180.62,651.3c-1.19-2.17-24.28-42.56-70.98-44.55-5.44-.23-10.84.07-16.12.88-25.87,3.95-49.07,19.92-62.16,43.67h149.26Z"/>
      <path class="cls-16" d="M1088.07,608.65c-.81.63-30.58,23.47-30.38,42.65h-26.32c12.16-22.07,33.04-37.42,56.7-42.65Z"/>
      <path class="cls-8" d="M1065.21,727.06s-2.61,45.5,22.87,49.2"/>
      <path class="cls-8" d="M1144.41,727.06s2.61,44.58-19.19,49.2"/>
      <line class="cls-8" x1="1054.63" y1="776.27" x2="1155.92" y2="776.27"/>
      <path class="cls-20" d="M1120.47,608.65c.81.63,30.58,23.47,30.38,42.65h26.32c-12.16-22.07-33.04-37.42-56.7-42.65Z"/>
      <path class="cls-8" d="M1180.62,651.3c-1.19-2.17-24.28-42.56-70.98-44.55-5.44-.23-10.84.07-16.12.88-25.87,3.95-49.07,19.92-62.16,43.67h149.26Z"/>
      <path class="cls-12" d="M1185.81,652.53c0,4.72-3.83,8.55-8.56,8.55h-144.61c-4.72,0-8.55-3.83-8.55-8.55s3.83-8.56,8.55-8.56h144.61c4.73,0,8.56,3.83,8.56,8.56Z"/>
      <path class="cls-8" d="M1176.85,727.06c0,47.82-34.06,61.17-67.71,63.18-5.16.31-10.39.26-15.56-.19-31.55-2.74-60.95-20.38-60.95-62.99h144.22Z"/>
      <path class="cls-12" d="M1185.99,723.61c0,4.73-3.83,8.56-8.55,8.56h-144.98c-4.73,0-8.56-3.83-8.56-8.56s3.83-8.55,8.56-8.55h144.98c4.72,0,8.55,3.83,8.55,8.55Z"/>
    </g>
  </g>
  <path class="cls-2" d="M1826.38,2069.65l-158.33,91.56-385.34,222.84-171.11,98.95h-4l-553.32-318.31-176.71-101.66c68.9-16.42,154.42-33.4,252.86-45.44,112.38-13.75,236.49-13.61,480.13-12.76,300.28,1.05,407.74,10.99,473.8,18.42,94.21,10.6,172.15,23.74,226.75,34.02,5.17,3.94,10.28,8.07,15.27,12.38Z"/>
  <g>
    <path class="cls-17" d="M419.41,1037.61c-.4.4-1.08,0-.92-.55,2.5-8.83,8.91-38.84-10.29-66.91-1.95-2.86-22.15-31.34-59.06-33.88-32.75-2.26-61.22,17.1-75.09,41.67-11.73,20.78-10.81,41.39-9.76,50.52.05.48-.47.77-.87.5-15.78-10.89-36.27-10.36-49.81.72-15.14,12.4-14.28,32.03-13.84,36.62.04.42-.37.72-.76.56-4.98-2.06-13.48-4.72-23.86-3.75-13.73,1.28-32.46,9.07-33.42,19.69-1.12,12.33,22.08,24.78,39.83,28.39,18.67,3.79,34.47-1.56,42.29-4.91.18-.08.38-.06.54.07,3.99,3.02,14.03,9.75,28.6,10.8,13.54.97,23.81-3.48,28.3-5.78.21-.11.44-.07.62.08,5.77,5.23,28.85,24.76,63.57,24.47,29.15-.24,49.33-14.31,56.07-19.49.16-.12.36-.15.54-.07,5.31,2.33,15.27,5.84,28.1,5.37,11.53-.42,20.39-3.88,25.43-6.31.14-.07.28-.07.43-.02,7.25,2.8,20.04,6.55,35.5,4.49,14.33-1.9,39.43-9.9,40.29-23.35.73-11.37-16.09-23.06-31.13-25.64-11.42-1.96-21,1.47-26.18,3.92-.52.25-1.02-.36-.68-.83,3.04-4.16,8.86-13.92,6.26-25.07-3.62-15.52-21.13-23.22-34.8-22.89-12.95.31-22.05,7.82-25.87,11.6Z"/>
    <path class="cls-17" d="M1943.14,1744.82c-.4.4-1.08,0-.92-.55,2.5-8.83,8.91-38.84-10.29-66.91-1.95-2.86-22.15-31.34-59.06-33.88-32.75-2.26-61.22,17.1-75.09,41.67-11.73,20.78-10.81,41.39-9.76,50.52.05.48-.47.77-.87.5-15.78-10.89-36.27-10.36-49.81.72-15.14,12.4-14.28,32.03-13.84,36.62.04.42-.37.72-.76.56-4.98-2.06-13.48-4.72-23.86-3.75-13.73,1.28-32.46,9.07-33.42,19.69-1.12,12.33,22.08,24.78,39.83,28.39,18.67,3.79,34.47-1.56,42.29-4.91.18-.08.38-.06.54.07,3.99,3.02,14.03,9.75,28.6,10.8,13.54.97,23.81-3.48,28.3-5.78.21-.11.44-.07.62.08,5.77,5.23,28.85,24.76,63.57,24.47,29.15-.24,49.33-14.31,56.07-19.49.16-.12.36-.15.54-.07,5.31,2.33,15.27,5.84,28.1,5.37,11.53-.42,20.39-3.88,25.43-6.31.14-.07.28-.07.43-.02,7.25,2.8,20.04,6.55,35.5,4.49,14.33-1.9,39.43-9.9,40.29-23.35.73-11.37-16.09-23.06-31.13-25.64-11.42-1.96-21,1.47-26.18,3.92-.52.25-1.02-.36-.68-.83,3.04-4.16,8.86-13.92,6.26-25.07-3.62-15.52-21.13-23.22-34.8-22.89-12.95.31-22.05,7.82-25.87,11.6Z"/>
    <path class="cls-17" d="M640.48,1791.97c-.4.22-.87-.05-.9-.5-.27-4.45-1.55-13.2-8.13-20.16-11.63-12.32-34.78-13.72-44.7-2.4-4.33,4.94-5.17,11.19-5.28,15.09-.01.39-.38.67-.76.57-3.11-.81-10.26-2.1-18,1.17-6.19,2.61-15.27,9.19-14.9,16.34.54,10.66,21.8,17.52,34.61,19.23,15.16,2.02,27.62-1.95,34.39-4.72.14-.06.29-.06.43,0,6.24,2.34,16.9,5.27,29.58,3.28,13.17-2.06,31.06-9.83,30.76-18.27-.23-6.38-10.82-11.71-18.75-12.98-8.48-1.36-15.33,1.7-18.37,3.36Z"/>
    <path class="cls-17" d="M2030.07,1248.18c-.4.22-.87-.05-.9-.5-.27-4.45-1.55-13.2-8.13-20.16-11.63-12.32-34.78-13.72-44.7-2.4-4.33,4.94-5.17,11.19-5.28,15.09-.01.39-.38.67-.76.57-3.11-.81-10.26-2.1-18,1.17-6.19,2.61-15.27,9.19-14.9,16.34.54,10.66,21.8,17.52,34.61,19.23,15.16,2.02,27.62-1.95,34.39-4.72.14-.06.29-.06.43,0,6.24,2.34,16.9,5.27,29.58,3.28,13.17-2.06,31.06-9.83,30.76-18.27-.23-6.38-10.82-11.71-18.75-12.98-8.48-1.36-15.33,1.7-18.37,3.36Z"/>
    <path class="cls-17" d="M1766.92,883.06c-.4.22-.87-.05-.9-.5-.27-4.45-1.55-13.2-8.13-20.16-11.63-12.32-34.78-13.72-44.7-2.4-4.33,4.94-5.17,11.19-5.28,15.09-.01.39-.38.67-.76.57-3.11-.81-10.26-2.1-18,1.17-6.19,2.61-15.27,9.19-14.9,16.34.54,10.66,21.8,17.52,34.61,19.23,15.16,2.02,27.62-1.95,34.39-4.72.14-.06.29-.06.43,0,6.24,2.34,16.9,5.27,29.58,3.28,13.17-2.06,31.06-9.83,30.76-18.27-.23-6.38-10.82-11.71-18.75-12.98-8.48-1.36-15.33,1.7-18.37,3.36Z"/>
    <path class="cls-17" d="M255.25,1678.9c.21.23.56.22.76,0,2.3-2.61,12.25-12.9,27.02-12.06,12.04.69,25.66,8.67,25.96,17.3.38,10.85-20.37,20.5-36.05,22.59-17.37,2.31-31.33-4.28-37.33-7.6-.11-.06-.22-.08-.34-.05-7.05,1.47-17.43,2.76-29.62.92-4.14-.62-27.92-4.2-28.84-13-.54-5.19,6.97-11.18,13.94-12.95,5.71-1.46,10.57.03,12.71.86.17.07.36.04.5-.08,2.49-1.97,12.7-9.47,27.17-8.04,13.41,1.32,21.68,9.44,24.13,12.12Z"/>
    <path class="cls-17" d="M321.36,1296.86c.21.23.56.22.76,0,2.3-2.61,12.25-12.9,27.02-12.06,12.04.69,25.66,8.67,25.96,17.3.38,10.85-20.37,20.5-36.05,22.59-17.37,2.31-31.33-4.28-37.33-7.6-.11-.06-.22-.08-.34-.05-7.05,1.47-17.43,2.76-29.62.92-4.14-.62-27.92-4.2-28.84-13-.54-5.19,6.97-11.18,13.94-12.95,5.71-1.46,10.57.03,12.71.86.17.07.36.04.5-.08,2.49-1.97,12.7-9.47,27.17-8.04,13.41,1.32,21.68,9.44,24.13,12.12Z"/>
  </g>
  <g>
    <path class="cls-6" d="M362.14,867.03l-43.02,48.53-75.59-67.01-14.28,16.1-35.44-31.41,14.28-16.1c-46.39-37.04-20.94-99.16,27.31-120.78l23.43,41.48c-14,4.92-24.21,20.93-9.04,32.26l22.66-25.56,35.43,31.42-21.32,24.05,75.59,67.01Z"/>
    <path class="cls-7" d="M443.94,711.8c-3.28,22.99-28.74,49.59-52.7,37.18l81.76-71.93c-51.99-84.02-171.24-22.48-160.19,64.49,6.8,44.72,55.39,76.95,99.69,62.9,37.33-10.51,78.81-48.46,79.44-89.38l-47.98-3.26ZM366.64,705.83c5.15-16.62,27.09-24.7,40.92-12.89l-38.05,33.48c-3.75-6.3-5.06-13.75-2.87-20.59Z"/>
    <path class="cls-1" d="M582.06,681.47l-54,35.93-86.98-130.68,51.37-34.19,9.4,14.12c2.83-19.13,14.1-32.91,31.3-44.65l31.8,47.78c-22.66,9.68-39.5,29.55-21.52,53.64,0,0,38.64,58.06,38.64,58.06Z"/>
    <path class="cls-6" d="M690.82,619.89l-57.88,29.24-70.78-140.12,55.07-27.82,7.65,15.15c5.11-18.69,17.9-31,36.4-40.62l25.87,51.24c-23.65,6.89-42.74,24.64-27.76,50.68,0,0,31.44,62.25,31.44,62.25Z"/>
    <rect class="cls-7" x="716.34" y="431.18" width="64.85" height="156.98" transform="translate(-131.28 295.36) rotate(-20.56)"/>
    <path class="cls-7" d="M686.84,425.46c-46.96-23.92-4.59-77.6,36.48-64.57,17.71,5.56,25.4,28.79,16.67,44.48-7.66,16.54-36.5,27.35-53.15,20.09Z"/>
    <path class="cls-1" d="M952.37,509.31c-21.48,43.67-93.19,53.81-137.15,43.69l7.59-45.69c20.54,6.38,53.18,5.93,71.63-4.36,10-10.68-7.64-11.31-16.21-9.47-23.45,2.36-54.21,8.35-72.25-11.55-19.37-22.68-11.74-57.61,14.71-73.88,26.65-18.21,74.08-27.07,106.76-19.2l-7.59,45.69c-15.02-5.25-62.38-5.73-65.75,11.23,5.14,10.31,43.25-2.09,56.41,1.11,32.12-1.33,55.34,32.26,41.86,62.43Z"/>
    <polygon class="cls-6" points="1238.92 365.31 1185.69 522.74 1122.55 523.25 1098.22 450.8 1074.05 523.65 1010.92 524.17 955.11 367.64 1016.53 367.13 1044.09 449.84 1071.63 366.69 1126.71 366.23 1154.62 449.94 1182.1 365.79 1238.92 365.31"/>
    <path class="cls-7" d="M1430.77,481.57l-20.59,87.14-63.11-14.91,17.99-76.25c3.6-15.61,1.98-26.64-12.51-30.66-16.72-4.13-27.69,8.32-30.99,25.11,0,0-16.95,71.79-16.95,71.79l-63.12-14.91,48.94-207.24,63.12,14.91-15.76,66.74c53.11-24.11,111.42,17.34,92.97,78.29Z"/>
    <path class="cls-1" d="M1622.95,529.11c-11.76-77.05-134.76-104.5-167.22-27.42-35.49,71.25,59.05,145.1,125.25,119.3l-16.54-45.16c-22.32,6.38-57.01-6.05-55.42-32.97l98.98,45.37c10.87-17.6,18.36-40.91,14.95-59.12ZM1525.99,508.17c17.85-15.43,47.89,4.01,40.84,26.76l-46.06-21.12c1.59-2.21,3.33-4.09,5.22-5.64Z"/>
    <path class="cls-6" d="M1779.84,599.63c-42.54-72.64-154.78-66.69-163.51,25.17-2.54,55.44,62.4,109.14,116.54,98.35l-8.39-47.37c-23.09,2.4-55.07-15.93-48.79-42.16l89.51,61.99c25.13-27.04,33.71-64.69,14.64-95.98ZM1698.48,602.44c20.3-12.06,46.41,12.32,35.53,33.51l-41.67-28.86c1.95-1.91,4-3.46,6.14-4.65Z"/>
    <polygon class="cls-7" points="1929.16 644.01 1787.6 803.09 1739.15 759.98 1880.7 600.9 1929.16 644.01"/>
    <path class="cls-1" d="M1921.04,784.49c-8.07,8.36,32.56,46.11,32.51,68.19,5.66,37.81-40.36,61.28-72.78,41.74-30.98-15.28-63.81-57.52-72.33-91.7l43.61-15.61c4.42,21.06,20.69,49.35,38.67,60.45,14.18,3.55,6.15-12.19.39-18.77-13.49-19.33-33.7-43.3-25.08-68.75,10.38-27.95,44.61-38.3,71.7-23.1,28.89,14.41,59.68,51.56,68.73,83.91l-43.61,15.61c-2.71-15.62-25.36-57.29-41.81-51.97Z"/>
  </g>
  <path class="cls-24" d="M1107,3l1100,635.75v1273.5l-1100,637.75h-4L-1,1912.25V640.75L1101,3h6ZM93.58,693.29l-2.67,12.35-.02,1151.73,2.94,7.06,995.82,575.95,16.01,7.2,1010.32-583.33,1.11-1164.63-1.94-6.06c-337-194.2-672.94-390.43-1011.17-582.48L93.58,693.29Z"/>
  <g>
    <g>
      <path class="cls-26" d="M954.15,2242.56c-7.41,0-7.95,8.62-7.29,15.91.77,8.5,2.91,18.38,6.41,18.45,3.43.07,5.86-9.35,7.18-17.18,1.33-7.83.38-17.18-6.3-17.18Z"/>
      <path class="cls-26" d="M983.53,2257.58c4.31,2.15,1.74,7.97,1.55,8.4-3.35,7.36-8.59,13.96-11.71,12.59-3.08-1.35-1.33-8.4,1.22-16.68,1.04-3.38,4.53-6.52,8.95-4.31Z"/>
      <path class="cls-26" d="M932.94,2259.13c-1.33-3.65-4.7-8.4-9.39-6.96-4.31,1.33-2.55,8.06-.99,11.82,3.34,8.03,11.11,15.48,12.7,14.76,1.88-.84.71-11.29-2.32-19.62Z"/>
    </g>
    <g>
      <path class="cls-26" d="M905.82,2124.89c-7.41,0-7.95,8.62-7.29,15.91.77,8.5,2.91,18.38,6.41,18.45,3.43.07,5.86-9.35,7.18-17.18,1.33-7.83.38-17.18-6.3-17.18Z"/>
      <path class="cls-26" d="M935.21,2139.91c4.31,2.15,1.74,7.97,1.55,8.4-3.35,7.36-8.59,13.96-11.71,12.59-3.08-1.35-1.33-8.4,1.22-16.68,1.04-3.38,4.53-6.52,8.95-4.31Z"/>
      <path class="cls-26" d="M884.61,2141.46c-1.33-3.65-4.7-8.4-9.39-6.96-4.31,1.33-2.55,8.06-.99,11.82,3.34,8.03,11.11,15.48,12.7,14.76,1.88-.84.71-11.29-2.32-19.62Z"/>
    </g>
    <g>
      <path class="cls-26" d="M1172,2071.1c-7.41,0-7.95,8.62-7.29,15.91.77,8.5,2.91,18.38,6.41,18.45,3.43.07,5.86-9.35,7.18-17.18,1.33-7.83.38-17.18-6.3-17.18Z"/>
      <path class="cls-26" d="M1201.38,2086.12c4.31,2.15,1.74,7.97,1.55,8.4-3.35,7.36-8.59,13.96-11.71,12.59-3.08-1.35-1.33-8.4,1.22-16.68,1.04-3.38,4.53-6.52,8.95-4.31Z"/>
      <path class="cls-26" d="M1150.79,2087.67c-1.33-3.65-4.7-8.4-9.39-6.96-4.31,1.33-2.55,8.06-.99,11.82,3.34,8.03,11.11,15.48,12.7,14.76,1.88-.84.71-11.29-2.32-19.62Z"/>
    </g>
    <g>
      <path class="cls-26" d="M1406.45,2165.57c-7.41,0-7.95,8.62-7.29,15.91.77,8.5,2.91,18.38,6.41,18.45,3.43.07,5.86-9.35,7.18-17.18,1.33-7.83.38-17.18-6.3-17.18Z"/>
      <path class="cls-26" d="M1435.83,2180.59c4.31,2.15,1.74,7.97,1.55,8.4-3.35,7.36-8.59,13.96-11.71,12.59-3.08-1.35-1.33-8.4,1.22-16.68,1.04-3.38,4.53-6.52,8.95-4.31Z"/>
      <path class="cls-26" d="M1385.24,2182.14c-1.33-3.65-4.7-8.4-9.39-6.96-4.31,1.33-2.55,8.06-.99,11.82,3.34,8.03,11.11,15.48,12.7,14.76,1.88-.84.71-11.29-2.32-19.62Z"/>
    </g>
    <g>
      <path class="cls-26" d="M1189.92,2254.52c-7.41,0-7.95,8.62-7.29,15.91.77,8.5,2.91,18.38,6.41,18.45,3.43.07,5.86-9.35,7.18-17.18,1.33-7.83.38-17.18-6.3-17.18Z"/>
      <path class="cls-26" d="M1219.31,2269.55c4.31,2.15,1.74,7.97,1.55,8.4-3.35,7.36-8.59,13.96-11.71,12.59-3.08-1.35-1.33-8.4,1.22-16.68,1.04-3.38,4.53-6.52,8.95-4.31Z"/>
      <path class="cls-26" d="M1168.71,2271.09c-1.33-3.65-4.7-8.4-9.39-6.96-4.31,1.33-2.55,8.06-.99,11.82,3.34,8.03,11.11,15.48,12.7,14.76,1.88-.84.71-11.29-2.32-19.62Z"/>
    </g>
    <g>
      <path class="cls-26" d="M1531.3,2031.64c-7.41,0-7.95,8.62-7.29,15.91.77,8.5,2.91,18.38,6.41,18.45,3.43.07,5.86-9.35,7.18-17.18,1.33-7.83.38-17.18-6.3-17.18Z"/>
      <path class="cls-26" d="M1560.68,2046.67c4.31,2.15,1.74,7.97,1.55,8.4-3.35,7.36-8.59,13.96-11.71,12.59-3.08-1.35-1.33-8.4,1.22-16.68,1.04-3.38,4.53-6.52,8.95-4.31Z"/>
      <path class="cls-26" d="M1510.09,2048.21c-1.33-3.65-4.7-8.4-9.39-6.96-4.31,1.33-2.55,8.06-.99,11.82,3.34,8.03,11.11,15.48,12.7,14.76,1.88-.84.71-11.29-2.32-19.62Z"/>
    </g>
    <g>
      <path class="cls-26" d="M608.33,2067.27c-7.41,0-7.95,8.62-7.29,15.91.77,8.5,2.91,18.38,6.41,18.45,3.43.07,5.86-9.35,7.18-17.18,1.33-7.83.38-17.18-6.3-17.18Z"/>
      <path class="cls-26" d="M637.71,2082.29c4.31,2.15,1.74,7.97,1.55,8.4-3.35,7.36-8.59,13.96-11.71,12.59-3.08-1.35-1.33-8.4,1.22-16.68,1.04-3.38,4.53-6.52,8.95-4.31Z"/>
      <path class="cls-26" d="M587.12,2083.84c-1.33-3.65-4.7-8.4-9.39-6.96-4.31,1.33-2.55,8.06-.99,11.82,3.34,8.03,11.11,15.48,12.7,14.76,1.88-.84.71-11.29-2.32-19.62Z"/>
    </g>
  </g>
</svg>