<?xml version="1.0" encoding="UTF-8"?>
<svg id="Layer_1" data-name="Layer 1" xmlns="http://www.w3.org/2000/svg" viewBox="0 0 2206 2557">
  <defs>
    <style>
      .cls-1 {
        fill: #fd0202;
      }

      .cls-2 {
        fill-rule: evenodd;
      }

      .cls-3 {
        fill: #020202;
      }

      .cls-4 {
        fill: #fff;
      }
    </style>
  </defs>
  <g>
    <path class="cls-3" d="M48,1762l634.6-1.6,4.41,3.59.87,192.79c33.73,13.34,67.36,13.02,102.15,4.24,18.42-4.65,36.28-14.28,55.53-16.47,47.55-5.41,79.32,19.6,123.7,23.19,48.37,3.92,88-26.86,135.83-23.83,32.52,2.06,65.08,21.48,100.16,23.83,47.65,3.19,86.54-26.84,133.84-23.83,34.43,2.19,66.47,22.26,101.93,24.06,46.98,2.37,86.43-26.97,132.07-24.06,34.44,2.2,66.47,22.26,101.93,24.06,48.07,2.43,88.71-28.13,136.05-24.04,20.38,1.76,42.34,12.67,62.51,17.49,31.9,7.62,56.84,7.33,89.01.47l17.27,28.91c-14.45,8.43-38.81,27.74-54.76,29.3-59.09,5.78-93.76-33.66-156.75-18.75-41.26,9.77-60.38,22.87-107.11,18.41-31.23-2.98-65.08-23.91-96.24-23.91-31.99,0-66.94,21.68-99.93,24.23-45.78,3.53-64.63-9.7-105.06-19.08-56.72-13.15-80.26,15.3-130.93,19.08-44.81,3.35-63.6-9.49-103.06-19.09-55.7-13.57-81.54,15.26-130.95,19.09-43.51,3.37-63.17-8.84-101.81-18.33-49.15-12.06-62.96,2.92-106.83,13.68-33.41,8.19-65.58,5.54-98.42-3.43.86,5.45-2.15,20.04,1.94,23.06,3.31,2.45,35.01,8.56,40.98,9.02,61.26,4.69,99.4-34.4,161.48-19.48,37.13,8.92,58.72,22.66,100.56,19.38,34.22-2.68,66.09-23.12,99.94-24.06,35.91-1,71.34,21.67,108.02,24.17,60.91,4.16,99.15-34.45,161.49-19.49,36.91,8.86,56.68,22.68,98.56,19.38,34.51-2.72,65.65-22.6,99.93-24.05,36.63-1.55,72.38,21.66,110.01,24.17,39.95,2.66,61.14-10.97,96.68-19.5,47.57-11.42,77.83,6.19,122.4,18.4l-59.46,34.7c-56.99-15.37-101.7,24.42-159.5,20.28-41.52-2.98-77.03-28.2-119.48-23.41-32.26,3.64-62.03,21.87-96.47,23.52-36.35,1.75-59.84-11.35-92.65-19.51-63.02-15.67-99.19,23.12-159.4,19.41-34.55-2.13-65.65-21.46-97.96-24.05-40.9-3.28-77.37,22.08-117.99,24.15-50.3,2.57-92.31-29.11-139.57-23.57-20.9,2.45-42.82,13.92-63.45,18.55-32.79,7.36-64.29,5.96-96.04-5.05.82,4.24-1.27,22.11.19,23.8,1.05,1.22,27.51,7.09,31.31,7.69,62.07,9.75,103.01-28.27,160.98-20.98,32.4,4.07,61.59,23.62,98.51,23.62,37.61,0,70.1-21.27,103.93-24.2,47.22-4.09,84.05,23.9,130.04,24.23,37.7.27,70.09-21.3,103.96-24.23,50.03-4.33,90.06,27.54,139.82,23.81,44.69-3.35,75.56-28.37,124.01-23.5,32.96,3.31,63.77,23.62,100.21,23.92,39.52.32,72.93-22.74,111.02-23.17l-123.23,70.41c-32.57-.91-64.08-21-95.69-23.47-39.89-3.13-77.44,22.06-117.99,24.15-49.8,2.57-91.29-28.75-137.53-23.53-32.28,3.65-61.88,21.67-96.47,23.53-49.92,2.69-91.02-28.8-137.53-23.53-32.28,3.66-61.95,21.76-96.47,23.53-50.3,2.57-92.31-29.11-139.57-23.57-19.95,2.34-40.7,13.03-60.25,17.75-35.56,8.58-64.05,5.5-99.26-2.26.78,4.03-1.21,20.19.2,21.81,2.54,2.91,49.91,10.32,56.76,10.36,37.43.18,71.2-21.57,105.96-24.23,46.7-3.57,84.62,25.19,130.17,24.17,36.67-.82,68.8-21.32,101.83-24.17,46.4-4,84.65,24.2,130.07,24.2,37.91,0,69.81-21.02,104.03-24.1,46.69-4.2,82.78,23.05,127.87,24.07,47.33,1.07,84.69-28.66,134.06-24.06,11.55,1.08,43.93,10.56,54.19,15.79,2.1,1.07,3.77-1.04,2.83,4.15l-59.94,33.14c-38.15-4.8-72.1,19.36-109.31,22.63-45.48,4-63.31-8.25-103.49-18-60.88-14.78-80.73,14.34-134.18,18.33-43.36,3.24-61.49-8.53-99.78-18.37-63.25-16.27-102.39,23.36-166.37,18.37-33.71-2.63-69.23-24.65-101.92-24.24-32.28.41-65.8,21.37-98.05,24.14-26.08,2.24-49.96-1.61-74.96-7.97-1.61,1.6,3.29,15.25-3.02,14.04L48,1886v-124Z"/>
    <path class="cls-3" d="M1558.22,1861.8c5.51-36.96-.19-71.3-25.19-99.82-55.14-62.91-158.99-37.6-181.26,41.79l-4.61.29-371.12-98.13c23.07-94.17-76.26-168.77-160.68-117.56-23.58,14.3-35.32,37.23-46.61,61.51-18.97-4.53-42.79-7.85-42.6-32.55l41.47-154.69c5.97-13.11,26.7-23.44,39.04-30.96,46.6-28.41,95.71-52.99,141.98-82.02l20.34-5.78c116.21,26.8,231.4,59.74,346.38,91.79,10.69,5.38,17.11,16.66,23.49,26.51,29.85,46.05,53.32,101.28,83.51,146.49,20.89,31.28,63.82,33.07,97.66,42.34,21.62,5.92,91.01,21.06,104.97,31.03,17.84,12.75,21.65,27.19,18.53,48.51l-35.1,124.9c-13,19.37-31.74,11.59-50.21,6.38ZM854.59,1454.56c-4.63,7.73-4.27,17.39,5.42,20.43l218.94,57.09c4.22-.37,5.59-3.98,6.52-7.62l24.61-97.4c-1.13-6.8-15.25-8.53-21.64-10.49-27.58-8.48-75.28-23.89-102.32-27.66-5.02-.7-9.87-1.69-14.98-.77l-116.54,66.43ZM1157.42,1436.27c-2.77.83-3.8,2.83-4.9,5.25-12.18,26.72-14.64,67.85-26.13,96.06-.91,3.34-.33,6.42,2.47,8.57l218.73,59.45c12.99,1.11,18.16-9.26,12.21-20.41l-65.9-112.08c-44.6-14.94-90.86-25.23-136.46-36.84Z"/>
    <circle class="cls-3" cx="873.04" cy="1678.13" r="78.42"/>
    <circle class="cls-3" cx="1454.1" cy="1832.91" r="78.37"/>
    <path class="cls-4" d="M1157.42,1436.27c45.6,11.61,91.86,21.9,136.46,36.84l65.9,112.08c5.95,11.15.78,21.52-12.21,20.41l-218.73-59.45c-2.8-2.15-3.38-5.23-2.47-8.57,11.49-28.21,13.95-69.34,26.13-96.06,1.1-2.42,2.14-4.42,4.9-5.25Z"/>
    <path class="cls-4" d="M854.59,1454.56l116.54-66.43c5.11-.92,9.96.07,14.98.77,27.05,3.77,74.74,19.18,102.32,27.66,6.4,1.97,20.51,3.69,21.64,10.49l-24.61,97.4c-.93,3.65-2.3,7.25-6.52,7.62l-218.94-57.09c-9.69-3.04-10.05-12.7-5.42-20.43Z"/>
    <path class="cls-3" d="M1508,2260.02c-.56,2.56-3.29,4.25-5.33,5.65-26.49,18.18-60.71,31.81-87.89,49.77-23.4-3.73-44.63-16.21-68.33-18.89-49.59-5.61-84.65,22.8-131.37,23.57-39.39.65-72.28-21.46-108-24.19-48-3.67-87.38,26.71-135.82,23.81-45.08-2.7-77.6-28.66-125.7-23.18-19.49,2.22-37.26,12.01-56.45,15.36l-75.1-42.92c20.58-.19,37.41,1.84,58.41-1.57,27.09-4.4,53.73-19.34,80.51-21.49,40.9-3.28,77.37,22.08,117.99,24.15,50.63,2.58,91.76-29.23,139.57-23.57,31.3,3.7,60.06,21.81,94.43,23.57,50.53,2.58,91.92-29.16,139.57-23.57,20.82,2.44,42.85,13.84,63.5,18.5,35.69,8.05,65.14,4.97,100.01-4.99Z"/>
    <path class="cls-3" d="M1383.99,2333.96c-23.14,8.83-46.33,29.54-68.58,38.44-30.77,12.31-83.46,26-116.15,23.34s-61.95-20.63-92.5-23.5c-46.27-4.34-86.92,26.81-137.84,23.84-44.27-2.58-109.89-38.13-146.27-63.73-2.03-1.43-5.19-1.94-4.67-5.33-.01-1.18,8.05-3.5,9.99-4.05,60.85-17.23,99.72,21.97,159.11,19.12,40.83-1.96,77.56-27.49,117.99-24.16,31.62,2.61,63.59,21.93,97.95,24.05,61.98,3.82,114.61-44.02,176.1-14.1,2.91,1.41,5.7,1.87,4.87,6.09Z"/>
    <path class="cls-3" d="M1236,2416c-3.22,4.47-9.85,7.48-14.65,10.35-7.29,4.35-45.82,27.26-50.45,27.57-9.44.62-28.04-9.11-38.01-11.79-39.23-10.58-66.29-3.95-103.61,9.4-19.41-12.24-41.09-21.87-59.27-35.52h41c20.06,0,56.36-21.95,84.01-22.17,28.84-.24,64.85,22.17,85.99,22.17h55Z"/>
    <path class="cls-3" d="M1144,2468.02c.99,4.68-.63,3.2-2.58,4.46-4.41,2.85-36.57,21.03-38.78,21.15-3.35.19-39.14-22.62-44.61-26.64,27.39-14.37,57.78-7.68,85.96,1.02Z"/>
  </g>
  <g>
    <path class="cls-2" d="M257.53,1111.31c-22.47,15.2-64.34,12.84-82.37-4.48-24.84-18.38-13.38-85.72-15.82-113.29h-25.04v-35.93h25.04v-35.81h46.8v35.81h40.11v35.93h-40.11c1.86,12.08-4.98,76.78,5.31,85.09,7.92,8.76,25.28,6.38,33.68-.3l12.4,32.98Z"/>
    <path class="cls-2" d="M399.45,955.34v43.16c-30.12-5.05-54.86,10.95-53.43,44.34,0,0,0,76.16,0,76.16h-46.8v-161.39h44.59v21.39c13.1-17.56,32.23-23.38,55.64-23.66Z"/>
    <path class="cls-2" d="M554.28,972.7c-30.06-25.81-93.86-21.34-127.04,2.15l16.71,32.56c23.85-19.08,84.58-26.19,83.89,16.8-32.2.75-80.29-5.71-99.39,23.14-14.94,22.96-5.34,56.82,20.83,67.57,24.57,10.97,66.69,9.55,81.37-15.82v19.9h43.99c-3.37-34.96,12.07-123.73-20.36-146.3ZM514.31,1084.42c-10.77,6.76-30.6,7.77-40.35.18-9.08-6.33-9.24-20.88-.85-27.76,8.09-8.29,42.32-4.57,54.73-5.35.45,15.72.91,23.61-13.53,32.93Z"/>
    <path class="cls-2" d="M683,961.19h41.5v35.92h-40.12v121.89h-46.8v-121.89h-25.03v-35.92h25.03c-2.92-39.54,20.77-68.22,62.34-67.07,12.03.07,26.03,2.02,35.67,8.47l-12.21,33.88c-23.22-13.12-43.29-4.24-40.38,24.72Z"/>
    <path class="cls-2" d="M816.42,961.19h41.49v35.92h-40.11v121.89h-46.8v-121.89h-25.04v-35.92h25.04c-2.92-39.54,20.76-68.22,62.34-67.07,12.03.07,26.03,2.03,35.67,8.47l-12.22,33.88c-9.39-6.61-26.74-8.6-34.78.15-5.29,4.63-5.99,16.27-5.59,24.57Z"/>
    <rect x="897.43" y="957.6" width="46.8" height="161.4"/>
    <path class="cls-2" d="M891.73,909c-.74-33.95,58.42-35.07,58.2-.9,1.14,35.39-58.37,35.94-58.2.9Z"/>
    <path class="cls-2" d="M1116.78,1060.81l36.02,19.65c-18.48,43.37-80.53,50.16-118.58,30.2-27.47-14.24-43.69-41.04-43.45-72.41-.25-31.58,15.91-57.97,43.45-72.29,38.04-19.88,100.2-13.35,118.58,30.19l-36.02,19.65c-21.22-39.43-81.3-22.59-78.67,22.45-2.74,45,57.58,62.2,78.67,22.56Z"/>
    <path class="cls-2" d="M1325.44,1070.12c-3.79,64.61-105.44,58.79-146.08,33.87l15.7-33.48c20.09,12.69,57.6,20.94,79.11,11.52,15.64-11.16,2.54-22.27-12.44-23.73-24.6-4.87-58.11-4.3-73.06-28.41-8.02-13.28-7.04-36.78,3.62-49.55,27.83-33.81,91.34-29.83,127.88-11.14l-15.71,33.48c-14.43-8.76-30.41-11.87-46.31-12-29.67-2.41-45.12,22.41-10.93,28.66,30.91,5.25,79.89,8.02,78.22,50.78Z"/>
    <rect x="1369.25" y="957.6" width="46.8" height="161.4"/>
    <path class="cls-2" d="M1363.55,909c-.75-33.95,58.42-35.07,58.2-.9,1.14,35.39-58.37,35.94-58.2.9Z"/>
    <path class="cls-2" d="M2051.84,1070.12c-3.8,64.61-105.44,58.79-146.08,33.87l15.7-33.48c20.09,12.69,57.6,20.94,79.11,11.52,15.64-11.16,2.54-22.27-12.44-23.73-24.6-4.87-58.11-4.3-73.06-28.41-8.02-13.28-7.04-36.78,3.62-49.55,27.83-33.81,91.34-29.83,127.88-11.14l-15.71,33.48c-14.43-8.76-30.41-11.87-46.31-12-29.67-2.41-45.12,22.41-10.93,28.66,30.91,5.25,79.89,8.02,78.22,50.78Z"/>
    <path class="cls-2" d="M1596.42,957.61v20.47c-13.12-16.4-31.54-22.53-53.3-22.74-43.8-1.01-81.9,32.68-80.53,77.81-3.19,67.42,85.91,104.35,131.62,57.75.84,15.01-2.11,32.07-11.26,40.1-21.54,19.81-70.93,10.98-93.27-7.26l-18.64,33.71c20.84,16.02,52.03,21.96,79.3,22.03,58.04-.21,90.98-27.55,90.67-87.39,0,0,0-134.48,0-134.48h-44.59ZM1589.4,1053.92c-11.1,19.4-39.79,23.88-58.82,14.01-20.14-9.36-26.39-37.38-15.18-55.61,11.24-19.18,40.26-23.29,59.03-13.79,20.05,9.22,25.97,37.25,14.97,55.39Z"/>
    <path class="cls-2" d="M1864.31,1026.67v92.33h-46.8v-85.34c.11-23.52-9.71-37.72-32.59-37.97-14.45.02-27.22,5.83-33.81,18.92-9.26,14.6-3.3,86.85-4.9,104.39h-46.8v-161.39h44.59v19.18c20.4-23.33,60.67-27.25,87.68-13.89,23.64,12.37,32.68,35.18,32.63,63.77Z"/>
  </g>
  <path class="cls-1" d="M1104.36,3.93L-.02,640.55l-.86,1274.73,1103.52,638.11,1104.38-636.62.86-1274.73L1104.36,3.93ZM2116.49,1864.42l-1013.78,584.39L89.73,1863.06l.78-1170.16L1104.29,108.51l1012.98,585.76-.78,1170.15Z"/>
</svg>