<?xml version="1.0" encoding="UTF-8"?>
<svg id="Layer_1" data-name="Layer 1" xmlns="http://www.w3.org/2000/svg" viewBox="0 0 2206 2557">
  <defs>
    <style>
      .cls-1 {
        fill: #518076;
      }

      .cls-1, .cls-2 {
        fill-rule: evenodd;
      }

      .cls-2 {
        fill: #e6ffff;
      }
    </style>
  </defs>
  <path id="Background-color" class="cls-2" d="M1102.5,64L52.44,667.25v1206.5l1050.06,603.25,1050.06-603.25V667.25L1102.5,64Z"/>
  <path d="M1107,3l1100,635.75v1273.5l-1102,637.75h-2L-1,1912.25V642.75L1103,3h4ZM1100.51,111.36L91.99,694.71l.03,1169.54c308.4,177.02,614.89,357.69,923.64,534.15,23.99,13.71,57.41,36.35,81.25,46.71,2.92,1.27,5.49,3.38,8.98,2.94l1010.13-583.78.61-1168.18c-1.36-4.45-29.88-19.91-36.28-23.71-303.16-180.27-611.09-355.93-918-529.79-14.01-7.94-40.28-25.76-53.45-30.56-3.27-1.19-4.82-1.65-8.38-.68Z"/>
  <path d="M1514.34,1210.65c26.73,25.77,57.09,46.87,84.67,71.83,14.56,13.18,43.76,40.44,47.55,59.45,3.52,17.65-.97,40.62-19.36,47.76-18.92,7.35-36.59,1.04-55.45,4.55-7.25,1.35-17.16,4.69-19.32,12.74-.73,2.72,2.08,9.7,3.36,12.71,5.89,13.91,19.8,26.21,17.14,42.73-1.4,8.72-14.17,16.69-18.75,24.21-.51,2.36,8.67,9.28,10.84,11.82,4.95,5.81,6.22,8.84,4.91,16.97-1.83,11.4-22.65,30.04-29.92,40.08-10.75,14.86-1.42,23.58-.04,38.99,1.98,22-2.36,49.21-23.43,60.54-23.88,12.84-55.17,8.74-81.02,6.91-26.13-1.85-26.01,6.16-45.98,14.09-19.93,7.92-38.66,2.43-52.99,22.01-1.82,2.48-9.45,16.31-9.59,18.52-.07,1.15.15,2.13.97,2.97l36.52,35.46c15.43,21.13,28.05,42.77,36.25,67.77,5.64,17.21,7.25,35.08,11.53,52.47,4.27,17.34,34.87,60.27,46.76,76.24,20.69,27.78,42.08,40.58,50.07,76.93,1.22,5.54,4.37,9.1,2.47,15.61-1.2,4.09-9.45,9.42-13.46,10.53-16.62,4.61-33.5,6.36-50.49,8.51-17.84,2.25-35.98,3.16-53.97,5.03-18.66,1.94-37.4,2.89-56.02,4.98-21.54,2.41-43.43,4.81-65,8-7.76,1.15-21.02,8.09-28.15,2.95-26.61-27.55-51.51-57.14-79.9-83.06-59.52-54.32-125.14-84.55-203.73-100.27-15.99-3.2-38.26-8.47-54.26-9.74-15.1-1.2-34.66-.07-50,0-27.94.12-51.56,2.2-78.99,6.1-10.8,1.54-27.03,8.4-37.89,7.87-21.56-1.06-52.29-26.94-63.08-45.01-2.36-3.94-4.11-7.96-2.61-12.45,3.67-11,15.6-24.93,21.87-35.13,33.8-54.98,64.83-110.52,91.36-169.64,5.52-12.3,6.6-21.39,17.9-31.1,11.16-9.6,23.84-8.37,37.32-9.68,2.34-.23,4.43-1.76,7.07-1.93,11.05-.71,34.7,2.18,43.55-.45,3.16-.94,10.34-8.26,11.84-11.16.65-1.27,5.78-17.61,5.79-18.69.03-2.81-1.4-8.41-4.39-9.47-7.06-2.5-17.88-.46-25.54-1.46-15.71-2.05-41.82-12.64-49.57-27.43-3-5.72-3.53-16.15-6.12-22.88-1.88-4.88-7.74-9.22-12.77-10.23-3.94-.79-8.19.67-12.02-.98-3.59-1.54-13.85-10.44-16.05-13.92-7.63-12.08-9.51-27.06-.22-38.83,7.03-8.9,18.42-2.95,27.71-8.29,10.79-6.21,16.77-18.29,9.32-29.72-1.42-.86-13.16-.77-15.46-.42-3.52.54-8.62,3.64-12.3,4.7-21.38,6.15-42.65,10.23-64.68,13.32-6.03.84-8.73,2.58-15.97,1.82-18.17-1.92-30.74-10.89-29.64-30.44,2.47-44,66.96-102,99.57-128.42,3.76-3.04,15.74-9.54,15.48-14.43-7.96-20.15-19.49-38.62-29.19-57.92-55.7-110.84-108.64-222.64-164.63-333.37-13.79-27.27-29.16-54.19-40.69-82.31-2.96-7.22-8.64-13.12-3.04-21.04,6.12-8.66,33.48-25.51,43.48-32.52,110.77-77.65,239.63-142.31,361.76-199.24,53.15-24.78,117.68-56,174.07-69.93,8.04-1.99,21.03-3.33,26.08,4.38,6.22,9.5,11.53,23.67,16.95,34.05,44.23,84.68,87.93,170.95,131.38,256.62,25.39,50.06,51.72,100.29,76.23,150.77,8.83,18.19,15.62,38.31,28.59,54.41,2.1,2.6,9.02,9.56,12.33,9.26,8.21-2.72,17.01-6.28,25.23-8.7,30.68-9.04,66.9-18.45,98.9-21.1,10.4-.86,31.83,2.4,40.01,9.06s7.03,12.39,1.04,19.99c-25.45,32.29-81.56,54.07-116.89,74.11-2.7,1.53-6.16,5.91-9.52,7.54-1.04,3.28,7.12,17.87,9.46,21.27,15.81,23.07,35.82,40.03,29.22,72.33-1.6,7.84-10.6,16.58-13.67,23.33-.87,1.92-4.19,13.27-4.08,14.83s3.5,10.75,4.53,12.51c4.12,7.06,12.98,14.1,18.8,19.7Z"/>
  <g>
    <path class="cls-1" d="M1956.31,1536.77v42.62c-2.08-.28-3.93-.49-5.56-.63-1.62-.14-3.28-.21-4.96-.21-9.65,0-17.46,2.63-23.42,7.91-5.96,5.27-8.94,13.82-8.94,25.64v61.9h-47.31v-135.04h45.03v16.21c3.45-4.36,7.67-7.95,12.64-10.77,8.95-5.09,19.79-7.63,32.52-7.63Z"/>
    <path class="cls-1" d="M1831.25,1596.85v77.15h-47.31v-69.44c0-9.66-1.95-16.66-5.84-21.03-3.89-4.37-9.28-6.55-16.18-6.55-5.05,0-9.62,1.09-13.71,3.27-4.08,2.18-7.29,5.6-9.61,10.25s-3.48,10.77-3.48,18.35v65.15h-47.31v-135.04h45.03v14.72c3.57-3.79,7.68-6.96,12.3-9.5,9-4.94,19.13-7.41,30.41-7.41,10.56,0,20.05,2.11,28.46,6.31,8.42,4.21,15.06,10.73,19.93,19.57,4.87,8.83,7.31,20.24,7.31,34.2Z"/>
    <path class="cls-1" d="M1651.07,1568.71c-6.5-10.41-15.22-18.33-26.16-23.77-10.93-5.45-23.04-8.17-36.33-8.17-14.1,0-26.76,2.97-38,8.89-11.24,5.93-20.08,14.14-26.52,24.63-6.44,10.5-9.66,22.53-9.66,36.1s3.27,25.29,9.82,35.84c6.55,10.56,15.78,18.85,27.68,24.89s25.82,9.06,41.75,9.06c12.89,0,24.08-1.85,33.56-5.56,9.47-3.71,17.43-9.11,23.87-16.2l-24.9-25.92c-4.54,3.89-9.17,6.79-13.91,8.71-4.73,1.92-10.46,2.88-17.18,2.88-7.07,0-13.18-1.27-18.32-3.81-5.14-2.54-9.1-6.23-11.89-11.08-1.21-2.09-2.15-4.35-2.83-6.77h98.1c.17-1.79.32-3.75.46-5.9.14-2.15.21-4.09.21-5.83,0-14.92-3.25-27.59-9.75-37.99ZM1561.28,1593.61c.56-3.27,1.52-6.24,2.89-8.9,2.31-4.51,5.6-8.02,9.85-10.53,4.26-2.52,9.22-3.77,14.9-3.77s10.6,1.25,14.77,3.77c4.17,2.51,7.46,6.01,9.86,10.49,1.43,2.68,2.43,5.66,2.98,8.94h-55.25Z"/>
    <path class="cls-1" d="M1430.71,1676.18c-11.47,0-22.65-1.31-33.55-3.93-10.9-2.62-19.66-5.95-26.27-9.98l14.2-32.31c6.27,3.82,13.64,6.86,22.11,9.12,8.47,2.26,16.8,3.39,24.99,3.39s13.38-.84,16.49-2.52c3.1-1.68,4.66-3.98,4.66-6.9,0-2.56-1.44-4.47-4.31-5.75-2.87-1.27-6.67-2.25-11.4-2.93-4.73-.68-9.92-1.4-15.58-2.18s-11.36-1.89-17.08-3.36c-5.72-1.47-10.94-3.64-15.67-6.53-4.72-2.89-8.52-6.8-11.4-11.73-2.87-4.93-4.31-11.28-4.31-19.03,0-8.53,2.54-16.15,7.61-22.87,5.07-6.71,12.5-12.05,22.29-16,9.78-3.95,21.72-5.93,35.8-5.93,9.6,0,19.24.95,28.92,2.86,9.68,1.9,17.88,4.74,24.6,8.5l-14.2,32.31c-6.72-3.82-13.38-6.43-20-7.84-6.62-1.41-12.91-2.12-18.88-2.12-7.96,0-13.59.92-16.89,2.76-3.29,1.84-4.94,4.08-4.94,6.72s1.44,4.67,4.31,6.03c2.87,1.36,6.67,2.4,11.4,3.13,4.72.73,9.92,1.48,15.58,2.25s11.33,1.92,16.99,3.45c5.66,1.53,10.86,3.72,15.58,6.58s8.53,6.74,11.4,11.65,4.31,11.21,4.31,18.91c0,8.19-2.52,15.64-7.56,22.36-5.04,6.72-12.52,12.04-22.44,15.97-9.92,3.92-22.17,5.89-36.75,5.89Z"/>
    <path class="cls-1" d="M1356.58,1536.77v42.62c-2.07-.28-3.92-.49-5.55-.63-1.62-.14-3.28-.21-4.96-.21-9.65,0-17.46,2.63-23.42,7.91-5.96,5.27-8.94,13.82-8.94,25.64v61.9h-47.31v-135.04h45.03v16.21c3.45-4.36,7.66-7.95,12.63-10.77,8.95-5.09,19.79-7.63,32.52-7.63Z"/>
    <path class="cls-1" d="M1229.66,1568.71c-6.51-10.41-15.22-18.33-26.16-23.77-10.93-5.45-23.04-8.17-36.33-8.17-14.1,0-26.77,2.97-38,8.89-11.24,5.93-20.08,14.14-26.52,24.63-6.44,10.5-9.66,22.53-9.66,36.1s3.27,25.29,9.82,35.84c6.55,10.56,15.78,18.85,27.68,24.89,11.9,6.04,25.82,9.06,41.75,9.06,12.89,0,24.07-1.85,33.55-5.56s17.44-9.11,23.87-16.2l-24.9-25.92c-4.53,3.89-9.16,6.79-13.9,8.71-4.74,1.92-10.46,2.88-17.19,2.88-7.07,0-13.17-1.27-18.31-3.81-5.14-2.54-9.1-6.23-11.89-11.08-1.2-2.09-2.15-4.35-2.83-6.77h98.1c.17-1.79.32-3.75.46-5.9.14-2.15.21-4.09.21-5.83,0-14.92-3.25-27.59-9.75-37.99ZM1139.88,1593.61c.55-3.27,1.51-6.24,2.88-8.9,2.31-4.51,5.6-8.02,9.85-10.53,4.25-2.52,9.22-3.77,14.9-3.77s10.6,1.25,14.77,3.77c4.17,2.51,7.46,6.01,9.85,10.49,1.44,2.68,2.43,5.66,2.99,8.94h-55.24Z"/>
    <path class="cls-1" d="M1018.69,1489.24v61.48c-2.39-2.48-5.04-4.62-7.93-6.43-8.05-5.01-17.9-7.52-29.54-7.52s-23.27,2.83-33.36,8.47c-10.1,5.64-18.11,13.67-24.03,24.08-5.92,10.42-8.89,22.77-8.89,37.07s2.97,26.66,8.89,37.07c5.92,10.41,13.93,18.47,24.03,24.17,10.09,5.7,21.21,8.55,33.36,8.55s22.3-2.48,30.29-7.43c3.55-2.2,6.7-4.94,9.46-8.2v13.45h45.03v-184.76h-47.31ZM1015.73,1623.8c-2.53,4.86-5.92,8.53-10.17,11.02-4.24,2.48-9.04,3.72-14.37,3.72s-10.12-1.24-14.37-3.72c-4.25-2.49-7.64-6.16-10.17-11.02-2.53-4.87-3.8-10.67-3.8-17.41s1.27-12.72,3.8-17.44c2.53-4.73,5.92-8.33,10.17-10.81,4.25-2.48,9.04-3.72,14.37-3.72s10.13,1.24,14.37,3.72c4.25,2.48,7.64,6.08,10.17,10.81,2.54,4.72,3.8,10.54,3.8,17.44s-1.26,12.54-3.8,17.41Z"/>
    <path class="cls-1" d="M886.11,1596.85v77.15h-47.31v-69.44c0-9.66-1.94-16.66-5.83-21.03-3.89-4.37-9.29-6.55-16.18-6.55-5.06,0-9.63,1.09-13.72,3.27-4.08,2.18-7.29,5.6-9.61,10.25s-3.48,10.77-3.48,18.35v65.15h-47.31v-135.04h45.03v14.72c3.58-3.79,7.68-6.96,12.31-9.5,8.99-4.94,19.13-7.41,30.4-7.41,10.56,0,20.05,2.11,28.47,6.31,8.41,4.21,15.05,10.73,19.92,19.57,4.87,8.83,7.31,20.24,7.31,34.2Z"/>
    <path class="cls-1" d="M663.62,1674v-25.16l-3.13-6.17v-46.28c0-7.52-2.29-13.3-6.87-17.35s-11.8-6.08-21.65-6.08c-6.6,0-13.21,1.03-19.83,3.09-6.62,2.06-12.27,4.88-16.96,8.46l-15.84-31.92c7.66-5.14,16.83-9.06,27.51-11.77,10.68-2.71,21.34-4.06,31.96-4.06,21.91,0,38.89,5.01,50.93,15.03s18.06,25.78,18.06,47.29v74.91h-44.18Z"/>
    <path class="cls-1" d="M623.95,1676.18c-10.76,0-19.88-1.83-27.35-5.5-7.47-3.66-13.15-8.63-17.05-14.89-3.89-6.26-5.84-13.27-5.84-21.02,0-8.33,2.09-15.53,6.26-21.6,4.17-6.07,10.67-10.74,19.5-14.02,8.83-3.28,20.17-4.92,34.02-4.92h32.02v24.82h-25.45c-7.62,0-12.97,1.22-16.04,3.67s-4.61,5.79-4.61,10.02,1.58,7.3,4.73,9.81c3.15,2.51,7.48,3.77,12.96,3.77s9.93-1.28,14.18-3.85c4.24-2.56,7.32-6.5,9.22-11.81l6.52,17.38c-2.47,9.3-7.31,16.31-14.55,21.04-7.23,4.72-16.74,7.08-28.52,7.08Z"/>
    <path class="cls-1" d="M495.14,1676.18c-14.99,0-28.32-2.96-40-8.89-11.68-5.93-20.84-14.16-27.47-24.72s-9.95-22.61-9.95-36.18,3.32-25.67,9.95-36.14,15.79-18.67,27.47-24.59c11.68-5.93,25.01-8.89,40-8.89s28.52,3.23,39.64,9.7c11.12,6.47,19.02,15.57,23.71,27.31l-36.54,18.79c-3.23-6.31-7.18-10.91-11.84-13.81s-9.73-4.35-15.21-4.35-10.32,1.24-14.79,3.72-8,6.08-10.59,10.81c-2.59,4.72-3.88,10.54-3.88,17.44s1.29,12.74,3.88,17.53c2.59,4.78,6.12,8.41,10.59,10.9,4.47,2.48,9.4,3.72,14.79,3.72s10.55-1.44,15.21-4.31c4.66-2.87,8.61-7.49,11.84-13.85l36.54,18.79c-4.69,11.69-12.59,20.78-23.71,27.27-11.12,6.49-24.33,9.74-39.64,9.74Z"/>
    <path class="cls-1" d="M389.75,1596.85v77.15h-47.31v-69.44c0-9.66-1.95-16.66-5.83-21.03-3.89-4.37-9.29-6.55-16.18-6.55-5.06,0-9.63,1.09-13.72,3.27-4.08,2.18-7.29,5.6-9.61,10.25-2.32,4.65-3.48,10.77-3.48,18.35v65.15h-47.31v-184.76h47.31v62.18c3.01-2.82,6.35-5.22,10.02-7.24,9-4.94,19.14-7.41,30.41-7.41,10.56,0,20.05,2.11,28.46,6.31,8.42,4.21,15.06,10.73,19.93,19.57,4.87,8.83,7.31,20.24,7.31,34.2Z"/>
  </g>
</svg>