<?xml version="1.0" encoding="UTF-8"?>
<svg id="Layer_1" data-name="Layer 1" xmlns="http://www.w3.org/2000/svg" viewBox="0 0 2206 2557">
  <defs>
    <style>
      .cls-1 {
        fill: #46717b;
      }

      .cls-2, .cls-3 {
        fill: #213d73;
      }

      .cls-4 {
        fill: #678f87;
      }

      .cls-3 {
        fill-rule: evenodd;
      }
    </style>
  </defs>
  <path class="cls-4" d="M2153,667.75v1205.5l-1048.64,601.75-6.29-1.53L52,1873.25V667.75C380.7,482.05,705.84,289.95,1034.19,103.64c10.17-5.77,63.88-38.03,70.16-37.62,6.25.4,58.29,31.85,68.46,37.62,327.84,186.02,652.91,377.13,980.19,564.11Z"/>
  <path class="cls-1" d="M-1,642.75c79.82-48.94,161.49-95.42,242.66-142.29C526.92,335.76,812.79,172.12,1097.55,6.55c1.99-1.13,4.15-1.67,6.45-1.67,7.01,0,55.98,29.86,66.35,35.76,341.7,194.44,682.34,391.77,1022,589.76,5,2.91,11.2,5.72,14.66,10.35v1271.5c-364.33,213.34-731.32,422.36-1096.55,634.24-1.98,1.04-4.03,1.63-6.3,1.49-6.19-.4-36.48-19.15-44.5-23.62-342.97-191.41-682.69-391.82-1022-589.77-13.11-7.65-26.54-15.15-38.66-24.34V642.75ZM93.59,693.29l-2.67,12.35-.04,1149.75c-.99,8.99,7.28,12.23,13.51,16.48,333.8,191.05,665.44,385.89,999.95,575.67l12-5.17,999.67-578.09,1.09-1164.65c.11-3.07-.83-4.92-2.99-7.01-5.31-5.15-29.35-17.26-37.77-22.22-303.95-179.26-610.88-356.03-918-529.79-17.9-10.13-35.63-20.94-54.36-29.51L93.59,693.29Z"/>
  <path id="sherlock-holmes" d="M227.8,1603.76c9.31,40.96,37.4,7.56,55.44,30.7,23.42,30.01,29.54,62.47,46.91,95.56,19.58,37.28,38.51,75.07,61.58,109.71,36.1,54.18,101.49,79.48,161.73,71.78,34.49-4.41,67.32-19.63,92.02-46.49,82.36-89.54,102.21-290.75,234.17-311.69,89.34-14.18,13.65,71.99,10.53,110.49-5.53,68.14,67.52,92.65,89.39,90.95,21.86-1.69,64.87-19.32,100.57-32.39,12.9-4.7,124.28-46.26,136.44-32.2s-17.68,34.99-34.09,48.27c-17.07,13.86-36.72,22.37-56.2,31.15-17.71,7.96-51.84,6.64-65.79,18.84-53.45,46.76,80.47,66.58,83.43,90.54,2.95,23.96-37.02,38.15-58.19,53.39-33.11,23.86-62.48,41.51-91.38,69.54-27.56,26.71-41.54,53.18-64.7,84.97,24.8,5.3,46.48,9.21,73.15,9.04,47.5-.31,93.99-5.7,142.02-7.5,86.7-3.3,189.73-57.97,255.38-121.44,90.81-87.77,208.39-189.12,332.26-183.96,63.52,2.66,117.43,48.86,180.37,44.76,23.15-1.51,68.33-6.72,58.9-43.37-7.7-29.93-60.58-30.39-77.2-35.92s-32.51-20.7-39.89-38.85c-7.4-18.15-17.83-89.15-50.29-119.56-22.83-21.38-57.26-14-77.87-30.8-9.9-8.1-18.54-31.55-23.47-43.6-26.74-65.43-71.14-44-99.55-71.42-28.4-27.42,6.3-118.81,45.51-119.7,19.28,8.19,35.86,21.92,54.79,49.77,10.84-32.29,8.7-65.66,2.81-95.95-42.21-120.23-80.42-178.27-63.33-283.29,15.93-97.98,27.54-204.68-13.22-297.05-36.53-82.83-108.42-133.41-184.24-158.53,1.93-2.04,3.75-3.77,4.8-4.97,4.12-4.62,9.01-11.96,14.23-14.93,6.13-3.49,14.35-2.08,20.79-4.72,6.08-2.51,7.74-11.09,13.15-14.94,8.08-5.74,19.46-7.6,25.71-16.87,1.24-1.85-7.68-10.71-8.37-9.69-5.62,8.34-13.29,16.04-21.45,18.36-6.52,1.85-13.36-1.32-19.63,1.27-9.52,3.93-16.52,14.39-24.21,22.49-5.93,6.27-12.48,12.73-17.72,20.01-1.64-.47-3.3-.95-4.96-1.4,3.46-10.92,3.54-22.73-2.24-32.03-4.75-7.63-6.83-13.73-14.45-17.58-5.91-2.99-14.28,1.29-16.61-7.59s-12.26-4.14-14.71-7.03c-2.69-3.18-4.69-7.01-5.68-11.89-.7-3.42-.52-10.34-3.19-12.62-1.68-1.43-9.3,8.9-8.47,9.61,5,4.22,2.93,17.83,8.02,23.77,7.92,9.26,13.44,10.27,23.35,15.88,3.97,2.23,7.68,15.33,11.21,18.47,3.84,3.42,13.41-.32,14.58,5.55.62,3.28,1.15,8.3,1.07,13.6-78.52-19.63-178.68-14.86-241.35,45.19-65.78,63.03-70.96,163.34-111.15,245.94-40.83,84-108.9,130.52-176.13,182.99,29.05,9.42,61.74,5.41,89.62,20.61,2.1,37.43-35.16,111.01-52.92,141.46-24.39,41.83-62.17,60.95-90.18,101.05-15.28,21.88-33.29,49.81-19.48,77.61,22.61,14.08,44.73,12.69,66.89,22.95,27.58,12.76,24.43,38.44,26.27,69.31,2.46,41.42.55,48.03-34.84,54.98-56.73,11.09-100.87,40.74-148.67,77.03-35.55,27.02-56.61,75.11-90.79,100.05-44.6,32.57-59.76-44.23-55.05-83.49-7.71-67,37.14-73.19,16.63-105.89-21.52-34.35-104.24-9.33-104.24-9.33l-134.62,42.34s-142.47,47.74-133.16,88.7Z"/>
  <g>
    <path class="cls-3" d="M1688.04,1574.86l58.7,30.18c-45.56,103.82-230.89,64.71-226.13-52.65-5.04-116.93,181.04-156.17,226.13-52.37l-58.7,30.18c-22.93-49.11-93.18-32.38-90.47,22.19-2.82,54.65,67.5,71.83,90.47,22.47Z"/>
    <path class="cls-3" d="M1483.44,1494.3c-43.51-71.94-169.89-71.9-213.45.03-47.44,80,14.37,173.69,106.63,170.18,92.7,3.49,153.77-89.82,106.82-170.21ZM1416.1,1580.35c-14.61,31.54-64.24,31.48-78.91,0-15.98-31.57-1.21-80.52,39.49-79.32,40.75-1.21,55.22,47.77,39.42,79.32Z"/>
    <rect class="cls-2" x="1142.78" y="1364.2" width="76" height="296.8"/>
    <path class="cls-3" d="M1111.09,1440.56v68.45c-37.09-6.79-71.01,9.38-68.88,52.56,0,0,0,99.43,0,99.43h-76v-216.94h72.35v26.02c17.89-21.66,42.39-29.15,72.53-29.52Z"/>
    <path class="cls-3" d="M915.19,1491.86c-57.63-91.77-223.25-54.14-219.55,60.53-3.26,109.24,151.49,147.85,219.57,77.16l-40-41.64c-28.33,27.48-91.02,27.09-103.02-16.18h157.6c3.37-27.48-.96-59.26-14.6-79.87ZM770.96,1531.86c7.18-49.8,81.35-49.56,88.76,0h-88.76Z"/>
    <path class="cls-3" d="M395.24,1593.48c-5.84,89.13-145.72,81.3-203.33,48.68l22.81-51.9c26.33,15.95,73.65,26.59,102.14,16.05,4.99-2.69,7.48-6.39,7.48-11.08-1.13-11.25-14.4-11.57-25.24-13.93-42.72-5.32-105-11.16-102.87-68.79,4.23-85.41,133.77-83.34,191.51-53.7l-22.81,51.9c-25.27-14.73-64.62-21.41-89.58-11.56-20.26,13.57,1.13,24.12,17.3,25.51,42.16,5.38,104.93,11.93,102.59,68.82Z"/>
    <polygon class="cls-3" points="2025.93 1661 1933.98 1661 1873.39 1585.03 1850.86 1607.91 1850.86 1661 1774.86 1661 1774.86 1364.2 1850.86 1364.2 1850.86 1519.26 1928.19 1444.06 2018.35 1444.06 1928.3 1536.92 2025.93 1661"/>
    <path class="cls-3" d="M658.71,1537.07v123.93h-76s0-111.56,0-111.56c.03-26.98-9.46-43.76-35.37-44.3-16.12.06-30.19,6.75-37.47,21.72-10.74,17.44-3.66,113.06-5.59,134.14h-76v-296.8h76v99.87c27.96-26.45,76.96-30.23,110.68-13.38,31.91,16.77,43.78,47.66,43.75,86.38Z"/>
  </g>
</svg>