<?xml version="1.0" encoding="UTF-8"?>
<svg id="Layer_1" data-name="Layer 1" xmlns="http://www.w3.org/2000/svg" viewBox="0 0 2206 2557">
  <defs>
    <style>
      .cls-1 {
        fill: #55ac97;
      }

      .cls-2 {
        fill: #ded9e2;
      }

      .cls-3 {
        fill: #64b9a3;
      }

      .cls-4 {
        fill: #fefeff;
      }

      .cls-5 {
        fill: #4b4a50;
      }

      .cls-6 {
        fill: #ddd9e2;
      }

      .cls-7 {
        fill-rule: evenodd;
      }

      .cls-7, .cls-8 {
        fill: #449281;
      }

      .cls-9 {
        fill: #faf9f9;
      }

      .cls-10 {
        fill: #b4afbc;
      }

      .cls-11 {
        fill: #efebf4;
      }

      .cls-12 {
        fill: #807f88;
      }

      .cls-13 {
        fill: #81d0b7;
      }

      .cls-14 {
        fill: #e2cc27;
      }

      .cls-15 {
        fill: #6b6b72;
      }

      .cls-16 {
        fill: #fefefe;
      }

      .cls-17 {
        fill: #a9a4b2;
      }

      .cls-18 {
        fill: #bcb8c2;
      }

      .cls-19 {
        fill: #ded9e1;
      }

      .cls-20 {
        fill: #55ad98;
      }

      .cls-21 {
        fill: #7f7e87;
      }

      .cls-22 {
        fill: #64646b;
      }
    </style>
  </defs>
  <g>
    <path class="cls-2" d="M46,677L1112.5,63.3l1031.2,594c6.6,229.1,8.5,458.4,12.4,687.7h-370v-80h-138v80h-36v-542h-1016v542H58c-3-190-5.8-380.1-10-570-.5-22.5,2-45.7-2-68v-30Z"/>
    <g>
      <polygon class="cls-18" points="1758 1393 1717 1439 1676 1393 1758 1393"/>
      <polygon class="cls-18" points="1758 1351 1676 1351 1717 1305 1758 1351"/>
    </g>
    <path class="cls-4" d="M58,1345h538v-542h1016v542h36v-80h138v80h370c.3,17.9,1.7,35.9,2,54h-372v80h-138v-80h-36v436h552c0,11.5-1.7,25.1,2,36v16h-572c-.1-73.3.2-146.7,0-220-.2-64,0-128,0-192-.1-84,0-168,0-252v-100c-.2-100.6.1-201.4,0-302h-980c-.1,100.6.2,201.4,0,302v100c0,84,.1,168,0,252,0,64,.2,128,0,192-.2,73.3.1,146.7,0,220l-518,2h-4c-4-2.7-23.6-11.2-25-14-.7-13.3-2.3-26.7-3-40h532v-436H58c-.3-18,.3-36,0-54ZM1758,1351l-41-46-41,46h82ZM1758,1393h-82l41,46,41-46Z"/>
    <path class="cls-18" d="M2164,1835h-552v-436h36v80h138v-80h372c2.3,138.6,5.9,277.4,6,416v20Z"/>
    <path class="cls-18" d="M58,1399h538v436H64c-7.8-141.6-3.7-293.2-6-436Z"/>
    <polygon class="cls-3" points="1612 1891 1612 1889 1614 1889 1612 1891"/>
    <g>
      <path class="cls-8" d="M898,2373l2-462h408l2,478c-47.3,28-94.7,56-142,84h-106c-54.6-33.3-109.4-66.6-164-100Z"/>
      <path class="cls-1" d="M2166,1889v2c-12.4,7.7-25.4,14.7-38,22l-516-2v-20l2-2h552Z"/>
      <path class="cls-3" d="M596,1911v280c-155.6-91.8-312.7-182.5-466-278l466-2Z"/>
      <path class="cls-20" d="M752,1889h726v390c-7.3.5-14.7-.2-22,0v-368h-119l-1,462c-8.7,5.2-17.2,10.8-26,16l-2-478h-408l-2,462c-8.7-5.3-17.3-10.6-26-16l-1-446h-119v368c-16.6-2.1-11.2-2.2-24-8l2-382h22Z"/>
      <path class="cls-3" d="M874,2357c-12.4-7.6-82.4-44.2-86.5-49.9-5.9-8-1.8-19.2-2.9-28.1-1.2-1.1-27.1.7-32.5,0v-368h122v446h-.1Z"/>
      <path class="cls-3" d="M712,1911v350c-33.5-18-65.3-38.8-98-58v-292h98Z"/>
      <path class="cls-1" d="M96,1889h498l2,2v20l-466,2c-12.8-8-25.4-15.5-38-24h4Z"/>
      <path class="cls-13" d="M716.4,1889h15.6l-2.2,382c-7.3-2.9-12.1-7.2-17.8-10v-372h4.4Z"/>
      <path class="cls-13" d="M614,1889v314c-6.3-3.7-12.5-8.7-18-12v-302h18Z"/>
      <path class="cls-3" d="M2128,1913c-172,99.8-343.1,201.7-516,300v-302l516,2Z"/>
      <path class="cls-3" d="M1333.3,2373l1-462h121.7v368c-10.2.3-20.5-.2-30.7,0v44c-30.3,16.9-62.1,32.5-92,50Z"/>
      <path class="cls-3" d="M1594,1911v312c-20.6,11.6-79.4,52.8-98,56v-368h98Z"/>
      <path class="cls-13" d="M1491.6,1889h4.4v390c-5.7.9-13.7-.4-20,0v-390h15.6Z"/>
      <path class="cls-13" d="M1612,1889v324c-6,3.4-12,6.6-18,10v-334h18Z"/>
      <rect class="cls-1" x="1496" y="1889" width="98" height="22"/>
      <rect class="cls-1" x="614" y="1889" width="98" height="22"/>
    </g>
    <polygon class="cls-3" points="596 1891 594 1889 596 1889 596 1891"/>
    <g>
      <path class="cls-19" d="M1594,1667c.2,73.3-.1,148.7,0,222h572-670v-222h98Z"/>
      <path class="cls-2" d="M614,1123c.2-100.6-.1-201.4,0-302h980c.1,100.6-.2,201.4,0,302h-98c-.2-68,.2-136,0-204h-784c-.2,68,.2,136,0,204h-98ZM1218,827h-228v86h228v-86Z"/>
      <path class="cls-2" d="M712,1223c-.2,84,0,168,0,252h-98c.1-84,0-168,0-252h98Z"/>
      <path class="cls-2" d="M1594,1223c0,84-.1,168,0,252h-98c0-84,.2-168,0-252h98Z"/>
      <path class="cls-19" d="M712,1667v222H96h518v-222h98Z"/>
      <path class="cls-11" d="M712,1475v192h-98c.2-64,0-128,0-192h98Z"/>
      <path class="cls-11" d="M1594,1475c0,64-.2,128,0,192h-98v-192h98Z"/>
      <path class="cls-11" d="M1594,1123v100h-98c0-33.3.1-66.7,0-100h98Z"/>
      <path class="cls-11" d="M712,1123c-.1,33.3,0,66.7,0,100h-98v-100h98Z"/>
      <g>
        <path class="cls-16" d="M712,1123c.2-68-.2-136,0-204h784c.2,68-.2,136,0,204,.1,33.3,0,66.7,0,100,.2,84,0,168,0,252v414h-20v-950c-47.1-3.9-94.7-1.7-142-2-153.1-.9-306.9-2.1-460,0l-142,2v950h-20v-414c0-84-.2-168,0-252,0-33.3-.1-66.7,0-100Z"/>
        <path class="cls-17" d="M1456,957h-122c-.2,8,0,16,0,24,0,92.5.2,177.1,0,264v644h-26v-478c-.2-151,2.6-304.1-3-454h-402c-5.6,149.9-2.8,303-3,454v478h-26v-908c0-8,.2-16,0-24h-122c-.2,8,0,16,0,24,0,86.4.2,177.1,0,264v644h-20v-950l142-2h460l142,2v950h-20v-644"/>
        <rect class="cls-5" x="900" y="1787" width="408" height="102"/>
        <rect class="cls-2" x="1334" y="1789" width="122" height="100"/>
        <rect class="cls-2" x="752" y="1789" width="122" height="100"/>
        <path class="cls-19" d="M1476,939l-142-2c47.3.3,94.8,2,142,2Z"/>
        <path class="cls-19" d="M874,937l-142,2,142-2Z"/>
        <rect class="cls-21" x="900" y="1501" width="408" height="286"/>
        <path class="cls-12" d="M1308,1411h-408c.2-151-2.6-304.1,3-454h402c5.6,149.9,2.8,303,3,454ZM962,1355h284.1v-342.1h-284.1v342.1Z"/>
        <path class="cls-2" d="M874.1,980.9v264h-122v-264h122Z"/>
        <path class="cls-2" d="M1456,981c.1,88.4-.2,176.8,0,264h-122c.2-86.9,0-175.6,0-264h122Z"/>
        <path class="cls-2" d="M1456,1345v252h-122v-252h122Z"/>
        <path class="cls-2" d="M874,1345v252h-122v-252h122Z"/>
        <path class="cls-6" d="M1308,1411v64h-408v-64h408Z"/>
        <rect class="cls-11" x="1334" y="1597" width="122" height="192"/>
        <rect class="cls-11" x="752" y="1597" width="122" height="192"/>
        <path class="cls-11" d="M1456,1245v100h-122v-100h122Z"/>
        <path class="cls-11" d="M874,1245v100h-122v-100h122Z"/>
        <rect class="cls-15" x="900" y="1477" width="408" height="24"/>
        <path class="cls-18" d="M1334,981v-24h122v24h-122Z"/>
        <path class="cls-18" d="M752,981c0-8-.2-16,0-24h122c.2,8-.3,16,0,24h-122Z"/>
        <rect class="cls-21" x="900" y="1475" width="408" height="2"/>
        <polygon class="cls-10" points="1240 1013 1004 1355 962 1355 962 1225 1110 1013 1240 1013"/>
        <polygon class="cls-17" points="1240 1013 1246 1013 1246 1097 1068 1355 1004 1355 1240 1013"/>
        <polygon class="cls-17" points="1110 1013 962 1225 962 1013 1110 1013"/>
        <polygon class="cls-10" points="1246 1207 1142 1355 1068 1355 1246 1097 1246 1207"/>
        <polygon class="cls-17" points="1246 1207 1246 1355 1142 1355 1246 1207"/>
      </g>
      <g>
        <path class="cls-9" d="M1218,827v86h-228v-86h228ZM1202,843h-196v56h196v-56Z"/>
        <path class="cls-22" d="M1202,843v56h-196v-56h196ZM1166,849c-13.8-.6-9.8,7.5-10,18h7.9l2.1-18ZM1188,849c-8.2-2.2-13.8,13.9-7,18l5.5-2.5,1.5-15.5ZM1162,873c-12.7-2.7-14.3,22.2-2,16.7l2-16.7ZM1184,873c-12.8-1.7-12.9,27-.3,14.6l.3-14.6Z"/>
        <path class="cls-14" d="M1166,849l-2.1,17.9h-7.9c.2-10.5-3.8-18.5,10-17.9Z"/>
        <path class="cls-14" d="M1162,873l-2,16.7c-12.3,5.6-10.7-19.3,2-16.7Z"/>
        <path class="cls-14" d="M1184,873l-.3,14.6c-12.5,12.4-12.5-16.4.3-14.6Z"/>
        <path class="cls-14" d="M1188,849l-1.5,15.5-5.5,2.5c-6.9-4-1.2-20.2,7-18Z"/>
      </g>
    </g>
  </g>
  <path id="elevators" class="cls-7" d="M497.6,710.1c.9-2.1,1.9-4.2,2.9-6.5,4.1-8.8,9.4-19.1,16.1-31,6.7-11.9,14.9-26.1,24.7-42.6s21.3-35.7,34.5-57.7,28.3-47.5,45.3-76.5l57.7-3.9c-26.2,43.4-48.5,80.2-67.1,110.3-18.6,30.1-33.8,55.3-45.7,75.5s-20.7,36.4-26.3,48.3-8.4,21.4-8.4,28.5.9,5.1,2.6,6.7,3.6,2.4,5.7,2.4c6,0,13.6-3.3,22.8-10s18.6-15,28.5-24.9c4.9-5,9.7-10.1,14.5-15.5,1.6-9.6,5.2-18.9,10.8-27.7,7.8-12.3,17.7-23,29.6-32.2,11.9-9.2,24.9-16.5,38.9-22s27.3-8.2,39.8-8.2,22.9,2,31,6.1,12.2,10.7,12.2,19.8-4.4,17.1-13.3,23.9-19.4,12.6-31.6,17.5c-12.2,4.8-24.4,8.8-36.7,11.8s-22,5.3-29,6.9c-.5,2.6-.9,5.2-1.2,7.8s-.4,5.2-.4,7.8c0,4.7.5,9.4,1.6,13.9s2.8,8.6,5.3,12,5.8,6.1,9.8,8.2c4.1,2.1,9.1,3.1,15.1,3.1,12.3,0,25.5-4.5,39.6-13.5s28.4-20.3,42.8-33.9c2.1-2.1,4.2-4.1,6.2-6.2.3-.9.5-1.8.8-2.7,2.4-6.9,5.6-14.3,9.8-22.2,4.2-7.8,9.1-16.3,14.7-25.3,5.6-9,11.7-18.6,18.2-28.8l55.7-1.6c-3.9,7.1-9.5,16-16.9,26.9s-14.7,22-22,33.6-13.7,22.9-19,34.1c-5.4,11.3-8,20.8-8,28.6s1.3,9.5,3.9,13c2.6,3.4,6.7,5.1,12.2,5.1,8.1,0,16.4-3,24.7-9s16.4-13.9,23.9-23.5,14.5-20.7,20.6-33,11.1-24.7,14.7-37.3c-1-2.4-1.8-5-2.2-7.8-.4-2.9-.6-5.8-.6-8.6,0-6.8,2.1-13,6.3-18.4,4.2-5.5,9.8-8.2,16.9-8.2s17.1,2.9,21.4,8.8c4.3,5.9,6.5,13.7,6.5,23.4s-.8,12.8-2.4,18.8c4.7,4.7,9.5,7.8,14.3,9.4,4.8,1.6,9.5,2.4,13.9,2.4s5.6-.2,8.2-.7c5.5-9.8,12.6-18.9,21.4-27.3,10.6-10.1,23.2-18.4,37.9-24.9s30.7-9.8,48.3-9.8,18,2.6,23.4,7.7c5.4,5.1,8.8,11.4,10.4,19h.8l10.2-20.4,55.7-1.6c-2.9,4.2-6.6,9.5-11.2,16.1-4.6,6.5-9.5,13.6-14.7,21.2-5.2,7.6-10.5,15.5-15.7,23.7s-10,16.3-14.3,24.1-7.8,15.2-10.6,22c-2.7,6.8-4.1,12.6-4.1,17.3,0,7.6,3,11.4,9,11.4s12-2.6,19.4-7.8c7.5-5.2,15.6-12.2,24.5-21,7.8-7.7,15.9-16.5,24.3-26.6.5-1.1,1-2.2,1.6-3.3,3.7-7.5,8.5-16.5,14.5-27.3,6-10.7,13.7-24.2,23.2-40.4h-31.8l2.7-6.3h32.6l33.4-56.9,54.6-2-35.3,58.9h53.8l-3.1,6.3h-54.2c-3.7,6.3-8.7,14.5-15.1,24.7s-12.8,20.8-19,31.8-11.8,21.6-16.5,31.8-7.1,18.6-7.1,25.1,1.2,7.7,3.7,9.8,6,3.1,10.4,3.1c6.8,0,14-1.9,21.6-5.7s15.2-8.7,23-14.7c7.7-6,15.2-12.8,22.4-20.2,2.5-2.6,5-5.2,7.4-7.8.7-12.8,4.2-24.6,10.4-35.2,7.1-12,16.2-22.3,27.3-30.8,11.1-8.5,23.7-15,37.7-19.4s27.8-6.7,41.4-6.7,20.5,1.6,27.9,4.7c7.3,3.1,13.5,7,18.6,11.6s9.4,9.6,13,15.1c3.5,5.5,7.1,10.5,10.6,15.1s7.5,8.4,11.8,11.6c4.3,3.1,9.7,4.7,16.3,4.7s9.6-1.1,14.5-3.3l30.2-53.3,56.5-1.6-60,88.7.8.8c14.4-20.7,27.8-37.3,40.2-49.8,12.4-12.6,23.4-20.8,32.8-24.7,3.7-4.4,6.9-8,9.8-10.6s6.6-4.7,11.2-6.3,10.7-2.7,18.4-3.3c7.7-.7,18.2-1.2,31.6-1.8-3.1,3.1-6.3,6.7-9.4,10.6-3.1,3.9-6,8.1-8.6,12.6-2.6,4.4-4.8,9-6.5,13.7s-2.6,9.3-2.6,13.7,1.4,10.6,4.1,15.3,7.1,7.1,13.1,7.1,7.8-.9,11.8-2.6c3.9-1.7,7.7-3.9,11.4-6.7,3.4-2.6,6.7-5.5,9.8-8.6-.3-1.5-.4-3-.4-4.5,0-6.3,1.4-12.3,4.3-18.1s7.1-10.9,12.8-15.5,12.5-8.2,20.6-10.8,17.4-3.9,27.9-3.9c15.2,0,27.5,2.6,37.1,7.7,9.5,5.1,14.3,12.5,14.3,22.2s-2.5,13.3-7.5,17.9-10.9,6.9-17.7,6.9-11.6-1.6-16.9-4.7c1.8-2.9,3.3-5.9,4.3-9s1.6-6.7,1.6-10.6c0-6.5-1.5-12.4-4.5-17.7s-7.9-7.8-14.7-7.8-10.7,2.1-14.1,6.3-5.1,9.7-5.1,16.5,2,12.6,5.9,18.2c3.9,5.6,8.2,11.2,12.8,16.7s8.8,11.3,12.8,17.3c3.9,6,5.9,12.8,5.9,20.4s-2,16.4-6.1,22.6c-4.1,6.1-10.3,11.6-18.6,16.3l.8.8c11.3-3.1,22.3-8,33.2-14.7,10.9-6.7,21.3-14.5,31.2-23.4,9.9-8.9,19.2-18.5,27.7-28.8s16-20.7,22.6-31.2l2.7,3.1c-9.7,14.4-20,28-30.8,40.8-10.9,12.8-23,24.1-36.3,33.8s-28.3,17.3-44.7,23c-16.5,5.6-35.3,8.4-56.5,8.4s-15.2-.8-22.2-2.4c-6.9-1.6-12.9-4.1-17.9-7.5s-8.9-7.8-11.8-13.1-4.3-11.7-4.3-19,3.1-17.3,9.2-23c6.1-5.6,13.3-8.4,21.4-8.4s10.2,1.6,14.1,4.7c3.9,3.1,5.9,7.8,5.9,14.1s-1.7,10.1-5.1,13-7.2,4.3-11.4,4.3-5.8-.4-7.8-1.2c-1.3,2.1-2,4.6-2,7.5,0,8.4,2.2,14.8,6.7,19.4,4.4,4.6,11,6.9,19.6,6.9s19.6-3.3,25.1-9.8,8.2-14.4,8.2-23.5-1.7-10.9-5.1-16.1c-3.4-5.2-7.1-10.5-11.2-15.9s-7.8-10.7-11.2-16.1c-1.5-2.4-2.7-4.8-3.5-7.2-2.9,2.9-6.4,5.7-10.4,8.6-5.6,3.9-12.6,7.4-20.8,10.4-8.2,3-18.1,4.5-29.6,4.5s-12-1-17.3-2.9c-5.2-2-9.6-4.5-13.1-7.7-3.5-3.1-6.3-6.8-8.2-11-2-4.2-2.9-8.6-2.9-13.3,0-7.8,1-14,3.1-18.4v-.8c-7.8,4.2-16.4,11.1-25.7,20.8s-18.3,20.3-27.1,32c-8.8,11.6-16.7,23.3-23.9,34.9-7.2,11.6-12.6,21.4-16.3,29.2l-52.6,2.4,45.4-80.1c-3.4,1.1-7.1,1.6-10.9,1.6-6.8,0-12.9-1.6-18.2-4.9-5.4-3.3-10.3-7.7-14.7-13.1h-.8c0,13.6-3.2,26.6-9.6,38.9s-14.9,23.1-25.5,32.4-22.7,16.6-36.3,22-27.7,8-42.4,8-17-.9-25.1-2.7-15.3-4.8-21.6-9-11.3-9.7-15.1-16.5c-3.6-6.5-5.5-14.4-5.7-23.8-4.6,4.9-9.3,9.6-14.1,14.2-11.5,10.9-23.9,19.9-37.3,27.1s-27.9,10.8-43.6,10.8-21-3.2-26.9-9.6-8.8-14.7-8.8-24.9.7-10.4,2.2-15.5c.5-1.6,1-3.4,1.7-5.3-6.9,8.2-13.8,15.7-20.6,22.6-9.8,9.8-19.6,17.7-29.4,23.7s-19.8,9-30,9-15.7-1.4-20.4-4.3c-4.7-2.9-8.2-6.5-10.4-10.8-2.2-4.3-3.5-8.8-3.9-13.5s-.6-8.9-.6-12.6l-1.2-.8c-4.2,5-8.7,9.9-13.5,14.9s-10.1,9.5-15.9,13.5c-5.8,4.1-11.8,7.3-18.1,9.8-6.3,2.5-13,3.7-20,3.7-12.6,0-22-3.7-28.5-11.2-6.4-7.5-9.6-19.4-9.6-35.9s2.9-23.4,8.6-35.5c.1-.3.3-.6.4-.9-1.8.2-3.6.3-5.6.3-10.7,0-20.5-3.7-29.4-11-3.7,13.6-10,26.2-19,37.9-9,11.6-19.6,21.6-31.6,29.8s-25.1,14.7-39,19.4c-14,4.7-27.9,7.1-41.8,7.1s-28.2-4.3-36.7-13c-8.5-8.6-12.8-20.3-12.8-34.9s.3-6.2.8-9.3c-1.5,1.5-3.1,3.1-4.7,4.6-18.1,17.3-35.6,30.4-52.6,39.2-17,8.9-36,13.3-56.9,13.3s-31.8-4.2-41.2-12.6c-9.4-8.4-14.1-20.5-14.1-36.5s0-2.6.1-4c-1.6,1.8-3.3,3.7-5,5.5-7.7,8.4-15.8,16.1-24.3,23.2-8.5,7.1-17.3,12.9-26.3,17.5s-18,6.9-26.9,6.9-19.2-2.7-24.7-8.2-8.2-12.4-8.2-20.8.9-11.8,2.7-18.2c.5-1.9,1.2-3.9,1.9-6-.2.2-.5.5-.8.7-18.1,17.3-35.6,30.4-52.6,39.2-17,8.9-36,13.3-56.9,13.3s-31.8-4.2-41.2-12.6c-9.4-8.4-14.1-20.5-14.1-36.5s3.9-26.9,11.8-39.2c7.8-12.3,17.7-23,29.6-32.2s24.9-16.5,38.9-22,27.3-8.2,39.8-8.2,22.9,2,31,6.1,12.2,10.7,12.2,19.8-4.4,17.1-13.3,23.9c-8.9,6.8-19.4,12.6-31.6,17.5-12.2,4.8-24.4,8.8-36.7,11.8-12.3,3-22,5.3-29,6.9-.5,2.6-.9,5.2-1.2,7.8-.3,2.6-.4,5.2-.4,7.8,0,4.7.5,9.4,1.6,13.9s2.8,8.6,5.3,12,5.8,6.1,9.8,8.2c4.1,2.1,9.1,3.1,15.1,3.1,12.3,0,25.5-4.5,39.6-13.5s28.4-20.3,42.8-33.9c1.5-1.4,2.9-2.9,4.4-4.3l-.4-.5ZM1433,634.2c6.4-4.3,12.8-6.5,19-6.5s8.8,1.8,11.6,5.5c2.7,3.7,4.1,8.5,4.1,14.5s-1.1,13.3-3.3,21.8-5.3,17.2-9.2,26.1-8.5,17.7-13.7,26.5-10.9,16.6-16.9,23.5-12.2,12.6-18.6,16.9c-6.4,4.3-12.8,6.5-19,6.5s-8.8-1.8-11.6-5.5c-2.7-3.7-4.1-8.5-4.1-14.5s1.1-13.6,3.3-22c2.2-8.4,5.3-17,9.2-25.9,3.9-8.9,8.5-17.7,13.7-26.5s10.9-16.6,16.9-23.5,12.2-12.6,18.6-16.9h0ZM1065,745.8c-8.6,7.1-15.7,10.6-21.2,10.6s-8.7-2.2-10.4-6.5-2.6-8.7-2.6-13.1,1-13,3.1-20.8,5-15.8,8.6-23.7c3.7-8,7.9-15.8,12.8-23.5,4.8-7.7,9.9-14.7,15.3-20.8s10.9-11.1,16.5-14.7c5.6-3.7,11.2-5.5,16.7-5.5s8.4,1.5,12,4.5c3.5,3,5.3,7.5,5.3,13.5,0,11.8-3,24.1-9,37.1s-13.2,24.9-21.6,35.9-16.9,20-25.5,27.1v-.1ZM441,627.7c7.3,0,11,3.7,11,11s-1.6,12.8-4.7,19.6-7.8,13.2-13.9,19.2-13.6,11.4-22.4,16.3c-8.8,4.8-18.6,8.4-29.6,10.8,1-5.8,3.7-13,7.8-21.6,4.2-8.6,9.1-17.1,14.7-25.3s11.8-15.3,18.4-21.2c6.7-5.9,12.9-8.8,18.6-8.8h.1ZM717.3,627.7c7.3,0,11,3.7,11,11s-1.6,12.8-4.7,19.6-7.8,13.2-13.9,19.2c-6.1,6-13.6,11.4-22.4,16.3-8.8,4.8-18.6,8.4-29.6,10.8,1-5.8,3.7-13,7.8-21.6,4.2-8.6,9.1-17.1,14.7-25.3,5.6-8.2,11.8-15.3,18.4-21.2s12.9-8.8,18.6-8.8h.1Z"/>
  <path class="cls-5" d="M-1.84,643.72l9.34-3.63L1097.25,9.03l9.79.03,1096.14,634.65.66,1275.2-1096.68,634.07h-7.99L-1.84,1917.22V643.72ZM2113.82,1868.83l-.61-1169.1-6.3-5.69c-326.31-181.59-644.03-379.19-970.44-560.46-11.22-6.23-22.32-13.12-34.31-17.84l-4.91,1.26L91.06,699.68l-.95,1164.52c.93,5.39,7,7.81,11.34,10.64,51.76,33.78,112.98,65.31,167.11,96.7,275.46,159.75,552.15,317.38,827.15,477.91,4.68,2.59,9.7,1.97,14.24-.65l1003.86-579.97Z"/>
</svg>