<svg height="100" width="20%" xmlns="http://www.w3.org/2000/svg" viewBox="0 0 470 470" xml:space="preserve"><path style="fill:#fff" d="M355.894 368.259c23.526-28.213 36.483-63.953 36.483-100.637 0-86.778-70.599-157.377-157.377-157.377s-157.377 70.6-157.377 157.378C77.623 354.401 148.222 425 235 425c36.685 0 72.424-12.957 100.636-36.484 3.139-2.618 7.781-2.229 10.452.836a166.355 166.355 0 0 0 10.64-10.641 7.496 7.496 0 0 1-.834-10.452zm13.983-108.136c4.143 0 7.5 3.358 7.5 7.5s-3.357 7.5-7.5 7.5h-10c-4.143 0-7.5-3.358-7.5-7.5s3.357-7.5 7.5-7.5h10zm-30.481-61.434 8.66-5a7.5 7.5 0 1 1 7.5 12.99l-8.66 5a7.498 7.498 0 0 1-10.245-2.745 7.5 7.5 0 0 1 2.745-10.245zm-48.453-42.963 5-8.66a7.496 7.496 0 0 1 10.245-2.745 7.5 7.5 0 0 1 2.745 10.245l-5 8.66a7.497 7.497 0 0 1-10.245 2.745 7.5 7.5 0 0 1-2.745-10.245zm-63.443-22.98c0-4.142 3.357-7.5 7.5-7.5s7.5 3.358 7.5 7.5v10c0 4.142-3.357 7.5-7.5 7.5s-7.5-3.358-7.5-7.5v-10zm-63.688 11.575a7.499 7.499 0 0 1 10.245 2.745l5 8.66a7.5 7.5 0 0 1-12.99 7.5l-5-8.66a7.5 7.5 0 0 1 2.745-10.245zm-63.689 130.802c-4.143 0-7.5-3.358-7.5-7.5s3.357-7.5 7.5-7.5h10c4.143 0 7.5 3.358 7.5 7.5s-3.357 7.5-7.5 7.5h-10zm30.481 61.434-8.66 5a7.498 7.498 0 0 1-10.245-2.745 7.5 7.5 0 0 1 2.745-10.245l8.66-5a7.5 7.5 0 0 1 7.5 12.99zm2.745-127.623a7.497 7.497 0 0 1-10.245 2.745l-8.66-5a7.5 7.5 0 0 1-2.745-10.245 7.496 7.496 0 0 1 10.245-2.745l8.66 5a7.5 7.5 0 0 1 2.745 10.245zm45.708 170.586-5 8.66a7.497 7.497 0 0 1-10.245 2.745 7.5 7.5 0 0 1-2.745-10.245l5-8.66a7.5 7.5 0 0 1 12.99 7.5zM242.5 402.5c0 4.142-3.357 7.5-7.5 7.5s-7.5-3.358-7.5-7.5v-10c0-4.142 3.357-7.5 7.5-7.5s7.5 3.358 7.5 7.5v10zm63.688-11.575a7.498 7.498 0 0 1-10.245-2.745l-5-8.66a7.5 7.5 0 0 1 12.99-7.5l5 8.66a7.5 7.5 0 0 1-2.745 10.245zm23.689-115.802H257.5V322.5c0 12.407-10.094 22.5-22.5 22.5s-22.5-10.093-22.5-22.5v-45.557l-56.963-56.963c-8.771-8.773-8.771-23.047 0-31.82 4.25-4.25 9.9-6.59 15.91-6.59s11.66 2.341 15.91 6.59l63.553 63.553c.095.095.178.196.267.295a22.523 22.523 0 0 1 5.033 8.115h73.667c4.143 0 7.5 3.358 7.5 7.5s-3.357 7.5-7.5 7.5zm18.18 66.434-8.66-5a7.5 7.5 0 0 1-2.745-10.245 7.497 7.497 0 0 1 10.245-2.745l8.66 5a7.5 7.5 0 0 1-7.5 12.99z"/><path style="fill:#bd1515" d="M235 275.123c4.136 0 7.5-3.364 7.5-7.5s-3.364-7.5-7.5-7.5-7.5 3.364-7.5 7.5 3.364 7.5 7.5 7.5z"/><path style="fill:#ffcc75" d="M214.699 257.928a22.65 22.65 0 0 1 10.606-10.606l-48.555-48.555c-1.416-1.417-3.3-2.197-5.303-2.197s-3.887.78-5.303 2.197c-2.925 2.924-2.925 7.683 0 10.607l48.555 48.554z"/><path style="fill:#f2484b" d="M242.5 288.833c-2.347.833-4.871 1.29-7.5 1.29s-5.153-.458-7.5-1.29V322.5c0 4.136 3.364 7.5 7.5 7.5s7.5-3.364 7.5-7.5v-33.667z"/><path style="fill:#f2484b" d="M235 80.246c-103.32 0-187.377 84.057-187.377 187.377C47.623 370.943 131.68 455 235 455s187.377-84.057 187.377-187.377c0-103.32-84.057-187.377-187.377-187.377zm132.413 297.62a7.497 7.497 0 0 1-10.563.957c-.042-.036-.079-.075-.121-.112a166.355 166.355 0 0 1-10.64 10.641c.036.041.076.078.111.12a7.5 7.5 0 0 1-.956 10.563C314.34 425.807 275.188 440 235 440c-95.049 0-172.377-77.328-172.377-172.377S139.951 95.246 235 95.246s172.377 77.328 172.377 172.377c0 40.187-14.192 79.338-39.964 110.243zm50.522-308.43c-2.689-17.017-11.846-31.969-25.78-42.1C381.054 19.266 367.959 15 354.284 15c-18.081 0-35.331 7.651-47.461 20.77l103.635 75.346c7.124-12.614 9.772-27.157 7.477-41.68zM163.177 35.77C151.047 22.651 133.797 15 115.716 15c-13.675 0-26.77 4.266-37.87 12.336-13.935 10.131-23.091 25.083-25.78 42.1-2.296 14.523.353 29.066 7.477 41.68L163.177 35.77z"/><path style="fill:#082947" d="M242.5 65.399V50.246H255c4.143 0 7.5-3.358 7.5-7.5s-3.357-7.5-7.5-7.5h-40c-4.143 0-7.5 3.358-7.5 7.5s3.357 7.5 7.5 7.5h12.5v15.153C119.372 69.36 32.623 158.544 32.623 267.623 32.623 379.214 123.409 470 235 470s202.377-90.786 202.377-202.377c0-109.079-86.749-198.263-194.877-202.224zM235 455c-103.32 0-187.377-84.057-187.377-187.377 0-103.32 84.057-187.377 187.377-187.377s187.377 84.057 187.377 187.377C422.377 370.943 338.32 455 235 455z"/><path style="fill:#082947" d="M57.545 129.345a7.465 7.465 0 0 0 4.404-1.434l116.472-84.678a7.5 7.5 0 0 0 1.656-10.477C165.165 12.245 141.104 0 115.716 0c-16.865 0-33.01 5.257-46.69 15.203C51.85 27.69 40.564 46.119 37.249 67.094c-3.315 20.975 1.736 41.985 14.224 59.161a7.49 7.49 0 0 0 6.072 3.09zm-5.48-59.909c2.689-17.017 11.846-31.969 25.78-42.1C88.946 19.266 102.041 15 115.716 15c18.081 0 35.331 7.651 47.461 20.77L59.542 111.116c-7.124-12.614-9.772-27.157-7.477-41.68zm239.514-26.204 116.472 84.678a7.465 7.465 0 0 0 4.404 1.434 7.49 7.49 0 0 0 6.072-3.09c12.487-17.176 17.539-38.186 14.224-59.161-3.315-20.975-14.601-39.403-31.776-51.891C387.294 5.257 371.149 0 354.284 0c-25.389 0-49.449 12.245-64.361 32.756a7.5 7.5 0 0 0 1.656 10.476zM354.284 15c13.675 0 26.77 4.266 37.87 12.336 13.935 10.131 23.091 25.083 25.78 42.1 2.296 14.523-.353 29.066-7.477 41.68L306.823 35.77C318.953 22.651 336.203 15 354.284 15zM235 150.246a7.5 7.5 0 0 0 7.5-7.5v-10c0-4.142-3.357-7.5-7.5-7.5s-7.5 3.358-7.5 7.5v10a7.5 7.5 0 0 0 7.5 7.5zm-68.934 12.98a7.498 7.498 0 0 0 10.245 2.745 7.5 7.5 0 0 0 2.745-10.245l-5-8.66a7.499 7.499 0 0 0-10.245-2.745 7.5 7.5 0 0 0-2.745 10.245l5 8.66zm-35.462 35.463-8.66-5a7.496 7.496 0 0 0-10.245 2.745 7.5 7.5 0 0 0 2.745 10.245l8.66 5a7.497 7.497 0 0 0 10.245-2.745 7.5 7.5 0 0 0-2.745-10.245zm-12.981 68.934a7.5 7.5 0 0 0-7.5-7.5h-10c-4.143 0-7.5 3.358-7.5 7.5s3.357 7.5 7.5 7.5h10a7.5 7.5 0 0 0 7.5-7.5zm5.481 55.943-8.66 5a7.5 7.5 0 0 0 7.5 12.99l8.66-5a7.5 7.5 0 0 0-7.5-12.99zm53.208 45.708a7.498 7.498 0 0 0-10.245 2.745l-5 8.66a7.5 7.5 0 0 0 12.99 7.5l5-8.66a7.5 7.5 0 0 0-2.745-10.245zM235 385a7.5 7.5 0 0 0-7.5 7.5v10c0 4.142 3.357 7.5 7.5 7.5s7.5-3.358 7.5-7.5v-10a7.5 7.5 0 0 0-7.5-7.5zm68.934-12.98a7.5 7.5 0 0 0-12.99 7.5l5 8.66a7.498 7.498 0 0 0 10.245 2.745 7.5 7.5 0 0 0 2.745-10.245l-5-8.66zm54.368-33.208a7.5 7.5 0 0 0-2.745-10.245l-8.66-5a7.497 7.497 0 0 0-10.245 2.745 7.5 7.5 0 0 0 2.745 10.245l8.66 5a7.497 7.497 0 0 0 10.245-2.745zm-5.925-71.189a7.5 7.5 0 0 0 7.5 7.5h10c4.143 0 7.5-3.358 7.5-7.5s-3.357-7.5-7.5-7.5h-10a7.499 7.499 0 0 0-7.5 7.5zm-9.224-54.937a7.463 7.463 0 0 0 3.743-1.006l8.66-5a7.5 7.5 0 0 0-7.5-12.99l-8.66 5a7.5 7.5 0 0 0 3.757 13.996zm-49.465-46.715a7.497 7.497 0 0 0 10.245-2.745l5-8.66a7.5 7.5 0 0 0-2.745-10.245 7.496 7.496 0 0 0-10.245 2.745l-5 8.66a7.5 7.5 0 0 0 2.745 10.245zm36.189 94.152H256.21a22.545 22.545 0 0 0-5.033-8.115c-.089-.099-.172-.2-.267-.295l-63.553-63.553c-4.25-4.25-9.9-6.59-15.91-6.59s-11.66 2.341-15.91 6.59c-8.771 8.773-8.771 23.047 0 31.82l56.963 56.963V322.5c0 12.407 10.094 22.5 22.5 22.5s22.5-10.093 22.5-22.5v-47.377h72.377c4.143 0 7.5-3.358 7.5-7.5s-3.357-7.5-7.5-7.5zM235 330c-4.136 0-7.5-3.364-7.5-7.5v-33.667c2.347.833 4.871 1.29 7.5 1.29s5.153-.458 7.5-1.29V322.5c0 4.136-3.364 7.5-7.5 7.5zm-7.5-62.377c0-4.136 3.364-7.5 7.5-7.5s7.5 3.364 7.5 7.5-3.364 7.5-7.5 7.5-7.5-3.365-7.5-7.5zm-61.355-68.856c1.416-1.417 3.3-2.197 5.303-2.197s3.887.78 5.303 2.197l48.555 48.555a22.65 22.65 0 0 0-10.606 10.606l-48.554-48.554c-2.926-2.925-2.926-7.683-.001-10.607z"/><path style="fill:#082947" d="M235 95.246c-95.049 0-172.377 77.328-172.377 172.377S139.951 440 235 440c40.188 0 79.34-14.193 110.243-39.965a7.5 7.5 0 0 0 .956-10.563c-.035-.042-.075-.079-.111-.12-2.671-3.065-7.313-3.454-10.452-.836C307.424 412.043 271.685 425 235 425c-86.778 0-157.377-70.599-157.377-157.377S148.222 110.246 235 110.246s157.377 70.599 157.377 157.377c0 36.684-12.957 72.423-36.483 100.637-2.618 3.139-2.23 7.78.835 10.452.042.037.079.076.121.112a7.497 7.497 0 0 0 10.563-.957c25.771-30.904 39.964-70.056 39.964-110.243 0-95.05-77.328-172.378-172.377-172.378z"/></svg>
