<svg height="100" width="20%" xmlns="http://www.w3.org/2000/svg" viewBox="0 0 64 64" xml:space="preserve"><path style="fill:#e65c64" d="M45.897 39.333h-7.295a2.087 2.087 0 1 1 0-4.174h7.295a2.087 2.087 0 1 1 0 4.174z"/><path style="fill:#f26d76" d="M26.796 27.527a2.087 2.087 0 0 1-2.087-2.087v-7.295a2.087 2.087 0 1 1 4.174 0v7.295a2.087 2.087 0 0 1-2.087 2.087z"/><path style="fill:#ffc033" d="M30.126 1.837a6.247 6.247 0 0 0-8.849 0c-2.435 2.435-2.435 6.414 0 8.849 1.183 1.183 2.755 1.837 4.425 1.837s3.242-.654 4.425-1.837a6.247 6.247 0 0 0 0-8.849zm-2.943 5.889a2.07 2.07 0 0 1-2.954.009c-.799-.799-.799-2.148 0-2.947a2.074 2.074 0 0 1 2.938-.008c.85.846.804 2.164.016 2.947z"/><path style="fill:#43bfbf" d="M55.448 25.441a2.087 2.087 0 0 1-2.087 2.087 2.087 2.087 0 0 1-2.087-2.087 2.087 2.087 0 0 1 4.174 0z"/><path style="fill:#36d9d9" d="M40.689 10.682a2.087 2.087 0 0 1-2.087 2.087 2.087 2.087 0 0 1-2.087-2.087 2.087 2.087 0 0 1 4.174 0z"/><path style="fill:#43bfbf" d="M55.448 49.053a2.087 2.087 0 0 1-2.087 2.087 2.087 2.087 0 0 1-2.087-2.087 2.087 2.087 0 0 1 4.174 0z"/><path style="fill:#36d9d9" d="M17.077 10.682a2.087 2.087 0 0 1-2.087 2.087 2.087 2.087 0 0 1-2.087-2.087 2.087 2.087 0 0 1 4.174 0z"/><path style="fill:#ffc033" d="M55.448 6.507a2.087 2.087 0 0 1-2.087-2.087V2.333a2.087 2.087 0 1 1 4.174 0V4.42a2.087 2.087 0 0 1-2.087 2.087z"/><path style="fill:#f9a926" d="M55.448 16.943a2.087 2.087 0 0 1-2.087-2.087v-2.087a2.087 2.087 0 1 1 4.174 0v2.087a2.087 2.087 0 0 1-2.087 2.087z"/><path style="fill:#ffc033" d="M51.274 10.682h-2.087a2.087 2.087 0 1 1 0-4.174h2.087a2.087 2.087 0 1 1 0 4.174z"/><path style="fill:#f9a926" d="M61.709 10.682h-2.087a2.087 2.087 0 1 1 0-4.174h2.087a2.087 2.087 0 0 1 0 4.174zm.419 21.766a6.247 6.247 0 0 0-8.849 0c-2.435 2.435-2.435 6.414 0 8.849 1.183 1.183 2.755 1.837 4.425 1.837s3.242-.654 4.425-1.837a6.247 6.247 0 0 0 0-8.849zm-2.943 5.889a2.069 2.069 0 0 1-2.954.009c-.799-.799-.799-2.148 0-2.947a2.074 2.074 0 0 1 2.938-.008c.846.843.808 2.159.016 2.946z"/><path style="fill:#ffc033" d="M33.564 32.566a2.08 2.08 0 0 1-1.476-.612 2.086 2.086 0 0 1 0-2.951l13.029-13.029a2.086 2.086 0 1 1 2.951 2.951L35.04 31.954a2.08 2.08 0 0 1-1.476.612z"/><path style="fill:#f9a926" d="M32.088 31.954a2.081 2.081 0 0 0 1.476.612 2.08 2.08 0 0 0 1.476-.612l13.029-13.029a2.086 2.086 0 0 0 0-2.951l-15.981 15.98z"/><path style="fill:#f26d76" d="M16.24 53.259v5.893L2.82 63.877a2.061 2.061 0 0 1-2.165-.488 2.062 2.062 0 0 1-.497-2.175l4.731-13.405h5.907l2.717 2.72 2.727 2.73z"/><path style="fill:#e65c64" d="M16.24 53.259v5.893L2.82 63.877a2.061 2.061 0 0 1-2.165-.488l12.858-12.86 2.727 2.73z"/><path style="fill:#f26d76" d="m10.284 39.921 13.852 13.858h7.341l7.817-2.755a2.104 2.104 0 0 0 1.28-2.671l-24.891-24.88a2.073 2.073 0 0 0-2.658 1.266l-2.741 7.766v7.415z"/><path style="fill:#e65c64" d="M24.137 53.778h7.341l7.817-2.755a2.104 2.104 0 0 0 1.28-2.671L28.129 35.913 17.201 46.841l6.935 6.938z"/><path style="fill:#ffc033" d="M10.27 32.531 4.886 47.809l11.354 11.34.042-.014 15.222-5.371L10.27 32.531z"/><path style="fill:#f9a926" d="m16.24 59.149.041-.014 15.222-5.371-10.612-10.612L10.563 53.48Z"/><path style="fill:#36d9d9" d="M41.554 54.092a2.08 2.08 0 0 1-1.476-.612L10.562 23.964a2.086 2.086 0 1 1 2.951-2.951L43.03 50.529a2.086 2.086 0 0 1 0 2.951 2.08 2.08 0 0 1-1.476.611z"/><path style="fill:#43bfbf" d="M40.079 53.48c.408.408.942.612 1.476.612s1.068-.204 1.476-.612a2.086 2.086 0 0 0 0-2.951L28.272 35.771l-2.951 2.951L40.079 53.48z"/></svg>
