<?xml version="1.0" encoding="UTF-8"?>
<svg id="Layer_1" data-name="Layer 1" xmlns="http://www.w3.org/2000/svg" viewBox="0 0 2206 2557">
  <defs>
    <style>
      .cls-1 {
        fill: #d36d1b;
      }

      .cls-2 {
        fill: #477433;
      }

      .cls-3 {
        fill: #559bb5;
      }

      .cls-3, .cls-4, .cls-5, .cls-6, .cls-7, .cls-8, .cls-9, .cls-10, .cls-11, .cls-12 {
        stroke-miterlimit: 10;
      }

      .cls-3, .cls-4, .cls-5, .cls-6, .cls-8, .cls-9, .cls-10, .cls-11, .cls-12 {
        stroke: #000;
      }

      .cls-3, .cls-4, .cls-6, .cls-7, .cls-8, .cls-9, .cls-11, .cls-12 {
        stroke-width: 10px;
      }

      .cls-13 {
        fill: #3e484f;
      }

      .cls-14 {
        fill: #3f4a4f;
      }

      .cls-15 {
        fill: #4c882e;
      }

      .cls-16 {
        fill: #f98a21;
      }

      .cls-17 {
        fill: #e3542c;
      }

      .cls-4 {
        fill: #346928;
      }

      .cls-5 {
        fill: #efe2cf;
      }

      .cls-5, .cls-10 {
        stroke-width: 5px;
      }

      .cls-18 {
        fill: #c6381d;
      }

      .cls-19 {
        fill: #ffc939;
      }

      .cls-6 {
        fill: #455256;
      }

      .cls-20 {
        fill: #487e30;
      }

      .cls-7 {
        stroke: #fff;
      }

      .cls-7, .cls-8, .cls-12 {
        fill: none;
      }

      .cls-7, .cls-12 {
        stroke-linecap: round;
      }

      .cls-21 {
        fill: #546269;
      }

      .cls-22 {
        fill: #fba727;
      }

      .cls-9, .cls-10 {
        fill: #fdca46;
      }

      .cls-11 {
        fill: #91b241;
      }
    </style>
  </defs>
  <polygon class="cls-21" points="2159.1 673.75 2159.1 1877.25 1668.05 2161.21 1282.71 2384.05 1111.6 2483 1107.6 2483 554.28 2164.69 116.18 1912.66 58.1 1879.25 58.1 673.75 703.72 302.34 1004.83 129.12 1107.6 70 1111.6 70 1743.68 434.31 2121.78 652.24 2159.1 673.75"/>
  <path class="cls-9" d="M1123.14,796.26c-260.01-7.54-522.44,193.55-528.38,463.14-6.13,278.26,264.02,490.89,528.38,485.56,241.24-4.87,489.08-191.48,501-451.19,12.48-271.9-239.75-489.93-501-497.51ZM1556.52,1290.26c-11,235.62-246.07,401.53-470.24,387.57-225.83-14.06-438.8-210.58-418.68-446.23,19.7-230.76,253.22-385.66,472.02-370.68,217.57,14.89,427.69,198.26,416.9,429.34Z"/>
  <g>
    <path class="cls-11" d="M754.49,557.95c-7.8,45.84-57.83,119.56-120.35,141.34-18.45,9.23-83.27,53.83-147.64,120.35-118.11,147.02-267.55,101.27-434.5,73.53v-225.42l645.62-371.41c40.69,83.37,80.78,148.1,56.87,261.61Z"/>
    <path class="cls-11" d="M1737.58,428.31c-61.94,40.49-159.68,121.92-230.21,151.33-51.01,17.53-95.48,10.78-143.44,3.5-76.74-12.24-126.45-24.03-182.62-98.66-21.95-33-21.46-54.6-37.79-106.35-11.84-44.27-75.64-185.09-144.79-255.01,0,0,102.77-59.12,102.77-59.12,4.32-4.34,632.36,364.55,636.08,364.31Z"/>
    <path class="cls-11" d="M2153,667.75v615.02c-109.71-28.83-194.63-71.34-240.5-129.37-18.9-14.57-57.7-165.72-60.87-213.41,3.99-153.26,156.79-225.03,264.05-293.75l37.32,21.51Z"/>
    <path class="cls-11" d="M2153,1720.73v150.52l-491.05,283.96c-13.95-40.33-41.7-76.37-50.32-128.58-4.04-63.19,11.02-105.83,48.98-158.13,26.52-28.68,51.15-47.46,72.77-90.26,39.95-65.51,23.83-66.38,88.16-105.66,108.17-37.97,227.96,22.63,331.46,48.15Z"/>
    <path class="cls-11" d="M1276.61,2378.05l-171.11,98.95c-4.39,4.17-553.56-318.44-557.32-318.31,74.17-58.53,191.28-152.83,249.69-162.15,89.06-14.82,182.09.61,264.49,39.18,19.4,10.47,59.89,32.88,92.36,78.38,59.69,107.27,100.68,203.78,121.89,263.95Z"/>
    <path class="cls-11" d="M378.13,1634.4c-32.17,116.3-179.63,203.85-268.05,272.26l-58.08-33.41v-573.73c138.9-4.32,285.89,42.96,312.68,207.9,14.15,53,22.96,86.01,13.45,126.98Z"/>
    <path class="cls-11" d="M1556.52,1290.26c-44.35,544.15-916.68,485.67-888.92-58.68,60.4-521.33,897.46-466.81,888.92,58.68Z"/>
  </g>
  <g>
    <g>
      <path class="cls-20" d="M1491.57,443.41c-7.41,0-7.95,8.62-7.29,15.91.77,8.5,2.91,18.38,6.41,18.45,3.43.07,5.86-9.35,7.18-17.18s.38-17.18-6.3-17.18Z"/>
      <path class="cls-20" d="M1520.95,458.43c4.31,2.15,1.74,7.97,1.55,8.4-3.35,7.36-8.59,13.96-11.71,12.59-3.08-1.35-1.33-8.4,1.22-16.68,1.04-3.38,4.53-6.52,8.95-4.31Z"/>
      <path class="cls-20" d="M1470.36,459.98c-1.33-3.65-4.7-8.4-9.39-6.96-4.31,1.33-2.55,8.06-.99,11.82,3.34,8.03,11.11,15.48,12.7,14.76,1.88-.84.71-11.29-2.32-19.62Z"/>
    </g>
    <g>
      <path class="cls-20" d="M1455.48,309.11c-7.41,0-7.95,8.62-7.29,15.91.77,8.5,2.91,18.38,6.41,18.45,3.43.07,5.86-9.35,7.18-17.18s.38-17.18-6.3-17.18Z"/>
      <path class="cls-20" d="M1484.86,324.14c4.31,2.15,1.74,7.97,1.55,8.4-3.35,7.36-8.59,13.96-11.71,12.59-3.08-1.35-1.33-8.4,1.22-16.68,1.04-3.38,4.53-6.52,8.95-4.31Z"/>
      <path class="cls-20" d="M1434.27,325.68c-1.33-3.65-4.7-8.4-9.39-6.96-4.31,1.33-2.55,8.06-.99,11.82,3.34,8.03,11.11,15.48,12.7,14.76,1.88-.84.71-11.29-2.32-19.62Z"/>
    </g>
    <g>
      <path class="cls-20" d="M1337.75,376.45c-7.41,0-7.95,8.62-7.29,15.91.77,8.5,2.91,18.38,6.41,18.45,3.43.07,5.86-9.35,7.18-17.18s.38-17.18-6.3-17.18Z"/>
      <path class="cls-20" d="M1367.13,391.47c4.31,2.15,1.74,7.97,1.55,8.4-3.35,7.36-8.59,13.96-11.71,12.59-3.08-1.35-1.33-8.4,1.22-16.68,1.04-3.38,4.53-6.52,8.95-4.31Z"/>
      <path class="cls-20" d="M1316.54,393.02c-1.33-3.65-4.7-8.4-9.39-6.96-4.31,1.33-2.55,8.06-.99,11.82,3.34,8.03,11.11,15.48,12.7,14.76,1.88-.84.71-11.29-2.32-19.62Z"/>
    </g>
    <g>
      <path class="cls-20" d="M1255.37,287.16c-7.41,0-7.95,8.62-7.29,15.91.77,8.5,2.91,18.38,6.41,18.45,3.43.07,5.86-9.35,7.18-17.18s.38-17.18-6.3-17.18Z"/>
      <path class="cls-20" d="M1284.75,302.18c4.31,2.15,1.74,7.97,1.55,8.4-3.35,7.36-8.59,13.96-11.71,12.59-3.08-1.35-1.33-8.4,1.22-16.68,1.04-3.38,4.53-6.52,8.95-4.31Z"/>
      <path class="cls-20" d="M1234.16,303.73c-1.33-3.65-4.7-8.4-9.39-6.96-4.31,1.33-2.55,8.06-.99,11.82,3.34,8.03,11.11,15.48,12.7,14.76,1.88-.84.71-11.29-2.32-19.62Z"/>
    </g>
    <g>
      <path class="cls-20" d="M2054.7,812.82c-7.41,0-7.95,8.62-7.29,15.91.77,8.5,2.91,18.38,6.41,18.45,3.43.07,5.86-9.35,7.18-17.18s.38-17.18-6.3-17.18Z"/>
      <path class="cls-20" d="M2084.08,827.84c4.31,2.15,1.74,7.97,1.55,8.4-3.35,7.36-8.59,13.96-11.71,12.59-3.08-1.35-1.33-8.4,1.22-16.68,1.04-3.38,4.53-6.52,8.95-4.31Z"/>
      <path class="cls-20" d="M2033.49,829.39c-1.33-3.65-4.7-8.4-9.39-6.96-4.31,1.33-2.55,8.06-.99,11.82,3.34,8.03,11.11,15.48,12.7,14.76,1.88-.84.71-11.29-2.32-19.62Z"/>
    </g>
    <g>
      <path class="cls-20" d="M1989.52,938.92c-7.41,0-7.95,8.62-7.29,15.91.77,8.5,2.91,18.38,6.41,18.45,3.43.07,5.86-9.35,7.18-17.18s.38-17.18-6.3-17.18Z"/>
      <path class="cls-20" d="M2018.91,953.94c4.31,2.15,1.74,7.97,1.55,8.4-3.35,7.36-8.59,13.96-11.71,12.59-3.08-1.35-1.33-8.4,1.22-16.68,1.04-3.38,4.53-6.52,8.95-4.31Z"/>
      <path class="cls-20" d="M1968.31,955.49c-1.33-3.65-4.7-8.4-9.39-6.96-4.31,1.33-2.55,8.06-.99,11.82,3.34,8.03,11.11,15.48,12.7,14.76,1.88-.84.71-11.29-2.32-19.62Z"/>
    </g>
    <g>
      <path class="cls-20" d="M2055.07,1071.38c-7.41,0-7.95,8.62-7.29,15.91.77,8.5,2.91,18.38,6.41,18.45,3.43.07,5.86-9.35,7.18-17.18s.38-17.18-6.3-17.18Z"/>
      <path class="cls-20" d="M2084.46,1086.4c4.31,2.15,1.74,7.97,1.55,8.4-3.35,7.36-8.59,13.96-11.71,12.59-3.08-1.35-1.33-8.4,1.22-16.68,1.04-3.38,4.53-6.52,8.95-4.31Z"/>
      <path class="cls-20" d="M2033.86,1087.95c-1.33-3.65-4.7-8.4-9.39-6.96-4.31,1.33-2.55,8.06-.99,11.82,3.34,8.03,11.11,15.48,12.7,14.76,1.88-.84.71-11.29-2.32-19.62Z"/>
    </g>
    <g>
      <path class="cls-20" d="M1718.65,2023.23c-7.41,0-7.95,8.62-7.29,15.91.77,8.5,2.91,18.38,6.41,18.45,3.43.07,5.86-9.35,7.18-17.18s.38-17.18-6.3-17.18Z"/>
      <path class="cls-20" d="M1748.04,2038.25c4.31,2.15,1.74,7.97,1.55,8.4-3.35,7.36-8.59,13.96-11.71,12.59-3.08-1.35-1.33-8.4,1.22-16.68,1.04-3.38,4.53-6.52,8.95-4.31Z"/>
      <path class="cls-20" d="M1697.44,2039.8c-1.33-3.65-4.7-8.4-9.39-6.96-4.31,1.33-2.55,8.06-.99,11.82,3.34,8.03,11.11,15.48,12.7,14.76,1.88-.84.71-11.29-2.32-19.62Z"/>
    </g>
    <g>
      <path class="cls-20" d="M1265.16,976.76c-7.41,0-7.95,8.62-7.29,15.91.77,8.5,2.91,18.38,6.41,18.45,3.43.07,5.86-9.35,7.18-17.18s.38-17.18-6.3-17.18Z"/>
      <path class="cls-20" d="M1294.54,991.78c4.31,2.15,1.74,7.97,1.55,8.4-3.35,7.36-8.59,13.96-11.71,12.59-3.08-1.35-1.33-8.4,1.22-16.68,1.04-3.38,4.53-6.52,8.95-4.31Z"/>
      <path class="cls-20" d="M1243.95,993.33c-1.33-3.65-4.7-8.4-9.39-6.96-4.31,1.33-2.55,8.06-.99,11.82,3.34,8.03,11.11,15.48,12.7,14.76,1.88-.84.71-11.29-2.32-19.62Z"/>
    </g>
    <g>
      <path class="cls-20" d="M1091.02,1233.04c-7.41,0-7.95,8.62-7.29,15.91.77,8.5,2.91,18.38,6.41,18.45,3.43.07,5.86-9.35,7.18-17.18s.38-17.18-6.3-17.18Z"/>
      <path class="cls-20" d="M1120.4,1248.07c4.31,2.15,1.74,7.97,1.55,8.4-3.35,7.36-8.59,13.96-11.71,12.59-3.08-1.35-1.33-8.4,1.22-16.68,1.04-3.38,4.53-6.52,8.95-4.31Z"/>
      <path class="cls-20" d="M1069.81,1249.61c-1.33-3.65-4.7-8.4-9.39-6.96-4.31,1.33-2.55,8.06-.99,11.82,3.34,8.03,11.11,15.48,12.7,14.76,1.88-.84.71-11.29-2.32-19.62Z"/>
    </g>
    <g>
      <path class="cls-20" d="M813.57,1072.55c-7.41,0-7.95,8.62-7.29,15.91.77,8.5,2.91,18.38,6.41,18.45,3.43.07,5.86-9.35,7.18-17.18s.38-17.18-6.3-17.18Z"/>
      <path class="cls-20" d="M842.96,1087.58c4.31,2.15,1.74,7.97,1.55,8.4-3.35,7.36-8.59,13.96-11.71,12.59-3.08-1.35-1.33-8.4,1.22-16.68,1.04-3.38,4.53-6.52,8.95-4.31Z"/>
      <path class="cls-20" d="M792.36,1089.12c-1.33-3.65-4.7-8.4-9.39-6.96-4.31,1.33-2.55,8.06-.99,11.82,3.34,8.03,11.11,15.48,12.7,14.76,1.88-.84.71-11.29-2.32-19.62Z"/>
    </g>
    <g>
      <path class="cls-20" d="M1432.64,1334.37c-7.41,0-7.95,8.62-7.29,15.91.77,8.5,2.91,18.38,6.41,18.45,3.43.07,5.86-9.35,7.18-17.18s.38-17.18-6.3-17.18Z"/>
      <path class="cls-20" d="M1462.03,1349.4c4.31,2.15,1.74,7.97,1.55,8.4-3.35,7.36-8.59,13.96-11.71,12.59-3.08-1.35-1.33-8.4,1.22-16.68,1.04-3.38,4.53-6.52,8.95-4.31Z"/>
      <path class="cls-20" d="M1411.43,1350.94c-1.33-3.65-4.7-8.4-9.39-6.96-4.31,1.33-2.55,8.06-.99,11.82,3.34,8.03,11.11,15.48,12.7,14.76,1.88-.84.71-11.29-2.32-19.62Z"/>
    </g>
    <g>
      <path class="cls-20" d="M1382.79,1435.15c-7.41,0-7.95,8.62-7.29,15.91.77,8.5,2.91,18.38,6.41,18.45,3.43.07,5.86-9.35,7.18-17.18s.38-17.18-6.3-17.18Z"/>
      <path class="cls-20" d="M1412.18,1450.17c4.31,2.15,1.74,7.97,1.55,8.4-3.35,7.36-8.59,13.96-11.71,12.59-3.08-1.35-1.33-8.4,1.22-16.68,1.04-3.38,4.53-6.52,8.95-4.31Z"/>
      <path class="cls-20" d="M1361.58,1451.72c-1.33-3.65-4.7-8.4-9.39-6.96-4.31,1.33-2.55,8.06-.99,11.82,3.34,8.03,11.11,15.48,12.7,14.76,1.88-.84.71-11.29-2.32-19.62Z"/>
    </g>
    <g>
      <path class="cls-20" d="M1051.65,1576.26c-7.41,0-7.95,8.62-7.29,15.91.77,8.5,2.91,18.38,6.41,18.45,3.43.07,5.86-9.35,7.18-17.18s.38-17.18-6.3-17.18Z"/>
      <path class="cls-20" d="M1081.04,1591.28c4.31,2.15,1.74,7.97,1.55,8.4-3.35,7.36-8.59,13.96-11.71,12.59-3.08-1.35-1.33-8.4,1.22-16.68,1.04-3.38,4.53-6.52,8.95-4.31Z"/>
      <path class="cls-20" d="M1030.44,1592.83c-1.33-3.65-4.7-8.4-9.39-6.96-4.31,1.33-2.55,8.06-.99,11.82,3.34,8.03,11.11,15.48,12.7,14.76,1.88-.84.71-11.29-2.32-19.62Z"/>
    </g>
    <g>
      <path class="cls-20" d="M955.49,1485.27c-7.41,0-7.95,8.62-7.29,15.91.77,8.5,2.91,18.38,6.41,18.45,3.43.07,5.86-9.35,7.18-17.18s.38-17.18-6.3-17.18Z"/>
      <path class="cls-20" d="M984.88,1500.29c4.31,2.15,1.74,7.97,1.55,8.4-3.35,7.36-8.59,13.96-11.71,12.59-3.08-1.35-1.33-8.4,1.22-16.68,1.04-3.38,4.53-6.52,8.95-4.31Z"/>
      <path class="cls-20" d="M934.28,1501.84c-1.33-3.65-4.7-8.4-9.39-6.96-4.31,1.33-2.55,8.06-.99,11.82,3.34,8.03,11.11,15.48,12.7,14.76,1.88-.84.71-11.29-2.32-19.62Z"/>
    </g>
    <g>
      <path class="cls-20" d="M1025.74,2137.83c-7.41,0-7.95,8.62-7.29,15.91.77,8.5,2.91,18.38,6.41,18.45,3.43.07,5.86-9.35,7.18-17.18s.38-17.18-6.3-17.18Z"/>
      <path class="cls-20" d="M1055.13,2152.85c4.31,2.15,1.74,7.97,1.55,8.4-3.35,7.36-8.59,13.96-11.71,12.59-3.08-1.35-1.33-8.4,1.22-16.68,1.04-3.38,4.53-6.52,8.95-4.31Z"/>
      <path class="cls-20" d="M1004.53,2154.4c-1.33-3.65-4.7-8.4-9.39-6.96-4.31,1.33-2.55,8.06-.99,11.82,3.34,8.03,11.11,15.48,12.7,14.76,1.88-.84.71-11.29-2.32-19.62Z"/>
    </g>
    <g>
      <path class="cls-20" d="M888.87,2195.08c-7.41,0-7.95,8.62-7.29,15.91.77,8.5,2.91,18.38,6.41,18.45,3.43.07,5.86-9.35,7.18-17.18s.38-17.18-6.3-17.18Z"/>
      <path class="cls-20" d="M918.26,2210.1c4.31,2.15,1.74,7.97,1.55,8.4-3.35,7.36-8.59,13.96-11.71,12.59-3.08-1.35-1.33-8.4,1.22-16.68,1.04-3.38,4.53-6.52,8.95-4.31Z"/>
      <path class="cls-20" d="M867.67,2211.65c-1.33-3.65-4.7-8.4-9.39-6.96-4.31,1.33-2.55,8.06-.99,11.82,3.34,8.03,11.11,15.48,12.7,14.76,1.88-.84.71-11.29-2.32-19.62Z"/>
    </g>
    <g>
      <path class="cls-20" d="M778.72,2106.31c-7.41,0-7.95,8.62-7.29,15.91.77,8.5,2.91,18.38,6.41,18.45,3.43.07,5.86-9.35,7.18-17.18s.38-17.18-6.3-17.18Z"/>
      <path class="cls-20" d="M808.1,2121.33c4.31,2.15,1.74,7.97,1.55,8.4-3.35,7.36-8.59,13.96-11.71,12.59-3.08-1.35-1.33-8.4,1.22-16.68,1.04-3.38,4.53-6.52,8.95-4.31Z"/>
      <path class="cls-20" d="M757.51,2122.88c-1.33-3.65-4.7-8.4-9.39-6.96-4.31,1.33-2.55,8.06-.99,11.82,3.34,8.03,11.11,15.48,12.7,14.76,1.88-.84.71-11.29-2.32-19.62Z"/>
    </g>
    <g>
      <path class="cls-20" d="M252.46,1532.24c-7.41,0-7.95,8.62-7.29,15.91.77,8.5,2.91,18.38,6.41,18.45,3.43.07,5.86-9.35,7.18-17.18s.38-17.18-6.3-17.18Z"/>
      <path class="cls-20" d="M281.85,1547.27c4.31,2.15,1.74,7.97,1.55,8.4-3.35,7.36-8.59,13.96-11.71,12.59-3.08-1.35-1.33-8.4,1.22-16.68,1.04-3.38,4.53-6.52,8.95-4.31Z"/>
      <path class="cls-20" d="M231.25,1548.81c-1.33-3.65-4.7-8.4-9.39-6.96-4.31,1.33-2.55,8.06-.99,11.82,3.34,8.03,11.11,15.48,12.7,14.76,1.88-.84.71-11.29-2.32-19.62Z"/>
    </g>
    <g>
      <path class="cls-20" d="M187.29,1414.62c-7.41,0-7.95,8.62-7.29,15.91.77,8.5,2.91,18.38,6.41,18.45,3.43.07,5.86-9.35,7.18-17.18s.38-17.18-6.3-17.18Z"/>
      <path class="cls-20" d="M216.68,1429.64c4.31,2.15,1.74,7.97,1.55,8.4-3.35,7.36-8.59,13.96-11.71,12.59-3.08-1.35-1.33-8.4,1.22-16.68,1.04-3.38,4.53-6.52,8.95-4.31Z"/>
      <path class="cls-20" d="M166.08,1431.19c-1.33-3.65-4.7-8.4-9.39-6.96-4.31,1.33-2.55,8.06-.99,11.82,3.34,8.03,11.11,15.48,12.7,14.76,1.88-.84.71-11.29-2.32-19.62Z"/>
    </g>
    <g>
      <path class="cls-20" d="M173.01,1628.19c-7.41,0-7.95,8.62-7.29,15.91.77,8.5,2.91,18.38,6.41,18.45,3.43.07,5.86-9.35,7.18-17.18s.38-17.18-6.3-17.18Z"/>
      <path class="cls-20" d="M202.39,1643.22c4.31,2.15,1.74,7.97,1.55,8.4-3.35,7.36-8.59,13.96-11.71,12.59-3.08-1.35-1.33-8.4,1.22-16.68,1.04-3.38,4.53-6.52,8.95-4.31Z"/>
      <path class="cls-20" d="M151.8,1644.76c-1.33-3.65-4.7-8.4-9.39-6.96-4.31,1.33-2.55,8.06-.99,11.82,3.34,8.03,11.11,15.48,12.7,14.76,1.88-.84.71-11.29-2.32-19.62Z"/>
    </g>
    <g>
      <path class="cls-20" d="M613.04,564.54c-7.41,0-7.95,8.62-7.29,15.91.77,8.5,2.91,18.38,6.41,18.45,3.43.07,5.86-9.35,7.18-17.18s.38-17.18-6.3-17.18Z"/>
      <path class="cls-20" d="M642.42,579.56c4.31,2.15,1.74,7.97,1.55,8.4-3.35,7.36-8.59,13.96-11.71,12.59-3.08-1.35-1.33-8.4,1.22-16.68,1.04-3.38,4.53-6.52,8.95-4.31Z"/>
      <path class="cls-20" d="M591.83,581.11c-1.33-3.65-4.7-8.4-9.39-6.96-4.31,1.33-2.55,8.06-.99,11.82,3.34,8.03,11.11,15.48,12.7,14.76,1.88-.84.71-11.29-2.32-19.62Z"/>
    </g>
    <g>
      <path class="cls-20" d="M236.14,782.04c-7.41,0-7.95,8.62-7.29,15.91.77,8.5,2.91,18.38,6.41,18.45,3.43.07,5.86-9.35,7.18-17.18s.38-17.18-6.3-17.18Z"/>
      <path class="cls-20" d="M265.52,797.06c4.31,2.15,1.74,7.97,1.55,8.4-3.35,7.36-8.59,13.96-11.71,12.59-3.08-1.35-1.33-8.4,1.22-16.68,1.04-3.38,4.53-6.52,8.95-4.31Z"/>
      <path class="cls-20" d="M214.93,798.61c-1.33-3.65-4.7-8.4-9.39-6.96-4.31,1.33-2.55,8.06-.99,11.82,3.34,8.03,11.11,15.48,12.7,14.76,1.88-.84.71-11.29-2.32-19.62Z"/>
    </g>
  </g>
  <g>
    <path class="cls-4" d="M1444.17,1200.87c-.27,8.35-3.13,16.58-7.97,23.9-12.06,18.25-36.41,30.84-63.59,25.45-5.5,22.41-25.05,38.72-48.03,40.1-23.12,1.38-44.6-12.68-52.61-34.48-26.08,14.77-57.89,7.33-74.43-13.56-2.26-2.84-4.23-5.93-5.86-9.24-9.37-18.98-6.29-42.45,7.21-59.64,3.98-5.08,8.87-9.61,14.62-13.31-8.54-21.3-4.93-45.41,9.49-62.3,16.73-19.61,45.24-26.23,70.24-15.89,21.59-23.75,57.42-27.33,82.05-9.35,22.51,16.43,30.96,47.42,19.51,74.25,19.37,3.53,34.67,15.18,42.84,29.41,4.46,7.75,6.8,16.27,6.53,24.66Z"/>
    <path class="cls-4" d="M1139.61,1130.79c-1.21,1.78-2.49,3.48-3.82,5.1-17.89,21.78-52.49,25.31-75.8,5.65-15.77,28.78-48.92,40.73-74.86,30.14-19.52-7.98-32.97-27.91-34.84-50.85-3.93-1.49-7.61-3.34-11-5.49-22.82-14.43-33.11-42.4-24.78-66.07,1.97-5.59,4.91-10.74,8.62-15.3,11.43-14.07,30.15-22.52,50.23-20.97.91-23.45,18.26-42.84,40.49-46.12,20.24-3,40.66,7.93,49.91,27.06,15.41-9.82,34.23-11.19,47.84-2.89,19.19,11.69,26.56,41.73,11.29,66.69,6.75,2.49,12.14,5.69,16.33,9.44,19.01,16.87,13.54,44.38.39,63.61Z"/>
    <path class="cls-4" d="M1025.15,1327.04c-.18,8.33-3.09,16.69-8.14,24.22-12.28,18.28-37.25,31.63-66.72,27.57-9.31,26.11-33.52,43.77-60.26,44.26-29.74.53-56.83-20.27-64.5-50.38-24.88,1.93-47.06-11.9-56.93-31.92-2.8-5.7-4.61-11.89-5.21-18.37-1.15-12.39,2.26-24.67,9.08-34.96,7.4-11.15,18.82-19.95,32.82-23.98-9.68-26.05,3.6-54.76,27.77-64.03,25.77-9.88,56.73,5.08,64.98,33.59,17.63-20.51,47.03-24.84,67.79-11.46,17.41,11.22,26.18,33.24,21.53,54.92,6.65,2.94,12.67,6.75,17.84,11.16,12.64,10.77,20.26,25.15,19.95,39.38Z"/>
    <path class="cls-4" d="M1300.47,1413.53c-.25,10.13-3.94,20.49-10.69,28.93-5.37,6.71-12.66,12.22-21.69,15.48,4.88,21.56-4.61,43.74-23.07,54.6-20.04,11.78-46.41,7.73-62.62-10.1-15.39,23.85-46.19,30.12-66.66,16.78-16.64-10.85-24.45-33.35-17.91-54.7-8.77-3.54-15.7-9.39-20.53-16.37-8.63-12.45-10.56-28.51-4.26-41.54,3.38-7,8.95-12.75,15.8-16.71,8.98-5.19,20.14-7.3,31.38-5.09,1.47.29,2.91-.62,3.26-2.08,5.97-24.45,27.75-41.88,52.33-42.05,23.68-.15,45.15,15.75,52.26,39.08,24.24-16.67,56.29-7.85,67.79,13.65,3.28,6.13,4.77,13.07,4.61,20.11Z"/>
    <path class="cls-15" d="M1437.64,1176.21c-4.93,16.84-16.52,29.56-30.64,33.6-17.83,5.1-34.18-5.21-37.69-7.53-2.25,2.88-12.39,15.2-29.19,16.95-17.99,1.87-36.28-9.16-45.2-27.78-12.01,18.51-31.59,29.94-50.37,27.98-20.8-2.16-39.99-20.66-45.66-46.03,3.98-5.08,8.87-9.61,14.62-13.31-8.54-21.3-4.93-45.41,9.49-62.3,16.73-19.61,45.24-26.23,70.24-15.89,21.59-23.75,57.42-27.33,82.05-9.35,22.51,16.43,30.96,47.42,19.51,74.25,19.37,3.53,34.67,15.18,42.84,29.41Z"/>
    <path class="cls-2" d="M1414.66,1276.5c-18.01,12.83-39.17,8.64-43.47,7.7-9.6,22.71-32.03,37.17-55.96,36.25-21.53-.82-41.02-13.96-50.42-33.9-6.93,3.31-19.67,7.88-32.96,3.86-17.4-5.26-31.01-23.83-34.31-48.13,16.54,20.89,48.35,28.33,74.43,13.56,8.01,21.8,29.49,35.86,52.61,34.48,22.98-1.38,42.53-17.69,48.03-40.1,27.18,5.39,51.53-7.2,63.59-25.45,1.94,20.98-6.19,40.79-21.54,51.73Z"/>
    <path class="cls-15" d="M1139.22,1067.18c-3.89,19.68-17.76,35.99-36.22,41.61-20.25,6.17-43.27-1.35-57.6-19.06-5.87,9.96-17.35,15.07-28.25,12.74-11.98-2.57-20.8-13.6-20.72-26.37-2.4,1.77-26.95,19.36-47.55,10.74-15.67-6.56-27.03-27.45-25.75-52.87,11.43-14.07,30.15-22.52,50.23-20.97.91-23.45,18.26-42.84,40.49-46.12,20.24-3,40.66,7.93,49.91,27.06,15.41-9.82,34.23-11.19,47.84-2.89,19.19,11.69,26.56,41.73,11.29,66.69,6.75,2.49,12.14,5.69,16.33,9.44Z"/>
    <path class="cls-2" d="M1139.61,1130.79c-2.28,18.78-12.67,34.95-28.01,42.77-20.97,10.69-42.82,1.49-46.23,0-19.46,20.96-47.06,31.48-71.76,25.42-31.92-7.82-56.55-42.73-54.32-83.64,3.39,2.15,7.07,4,11,5.49,1.87,22.94,15.32,42.87,34.84,50.85,25.94,10.59,59.09-1.36,74.86-30.14,23.31,19.66,57.91,16.13,75.8-5.65,1.33-1.62,2.61-3.32,3.82-5.1Z"/>
    <path class="cls-15" d="M1005.2,1287.66c-2.55,21.01-15.31,38.3-32.13,44.09-16.5,5.68-36.11.02-50.88-13.18-4.34,17.41-19.93,29.82-37.81,30.13-18.03.31-34.14-11.75-38.94-29.19-5.6,2.62-25.46,11.08-44.39,2.91-13.25-5.72-23.59-18.52-28.58-34.96,7.4-11.15,18.82-19.95,32.82-23.98-9.68-26.05,3.6-54.76,27.77-64.03,25.77-9.88,56.73,5.08,64.98,33.59,17.63-20.51,47.03-24.84,67.79-11.46,17.41,11.22,26.18,33.24,21.53,54.92,6.65,2.94,12.67,6.75,17.84,11.16Z"/>
    <path class="cls-2" d="M995.96,1401.9c-13.09,8.35-27.75,6.68-33.66,5.65-14.99,30.88-47.16,49.12-79.8,45.67-27.99-2.96-52.46-21.45-64.03-48.03-5.17.84-23.42,3.15-37.19-8-14.1-11.4-19.58-33.72-12.68-56.4,9.87,20.02,32.05,33.85,56.93,31.92,7.67,30.11,34.76,50.91,64.5,50.38,26.74-.49,50.95-18.15,60.26-44.26,29.47,4.06,54.44-9.29,66.72-27.57,2.08,21.56-6.11,41.11-21.05,50.64Z"/>
    <path class="cls-15" d="M1289.78,1442.46c-3.92.64-8.2.72-12.75-.07-15.33-2.65-24.18-13.41-27.24-17.77-.29-.42-.93-.19-.91.32.89,24.87-17.02,46.04-39.64,48.99-18.77,2.45-37.88-8.02-46.96-26.06-.94-1.87-3.11-2.8-5.13-2.22-8.32,2.37-28.36,6.23-45.55-5.14-15.38-10.18-24.07-29.63-22.76-50.61,8.31-4.8,18.5-6.97,28.88-5.51,2.88.4,5.6-1.32,6.41-4.11,6.79-23.15,27.93-39.43,51.68-39.59,21.77-.14,41.67,13.29,50.26,33.58,1.14,2.69,4.29,3.91,6.87,2.54,23.49-12.5,52.17-3.48,62.92,16.61,8.01,14.96,5.36,34.73-6.08,49.04Z"/>
    <path class="cls-2" d="M1310.46,1457.94c-3.54,11.02-11.68,18.22-17.7,22.35-1.56,1.07-2.5,2.84-2.55,4.73-.68,26.04-15.86,49.48-39.07,60-28.29,12.83-54.7.22-63.33-4.78-1.67-.97-3.77-.54-4.99.96-12.58,15.55-33.12,22.65-52.68,17.95-20.07-4.83-35.38-21.21-39.03-41.45-.33-1.81-1.25-3.45-2.63-4.67-6.32-5.54-17.64-17.45-19.25-34.4-1.13-11.96,2.97-22.28,8.07-30.49,3.98,5.75,9.38,10.73,16.06,14.29,2.49,1.33,3.82,4.1,3.24,6.86-4.1,19.85,3.73,39.88,19.13,49.92,19.09,12.44,47.17,7.83,63.35-12.2,1.81-2.24,5.16-2.54,7.32-.63,16.31,14.42,40.15,17,58.61,6.15,17.4-10.24,26.83-30.53,23.77-50.88-.32-2.14.84-4.25,2.81-5.13,7.42-3.33,13.52-8.24,18.18-14.06,6.75-8.44,10.44-18.8,10.69-28.93,6.79,9.97,15.53,27.18,9.99,44.41Z"/>
    <path class="cls-8" d="M1444.17,1200.87c-.27,8.35-3.13,16.58-7.97,23.9-12.06,18.25-36.41,30.84-63.59,25.45-5.5,22.41-25.05,38.72-48.03,40.1-23.12,1.38-44.6-12.68-52.61-34.48-26.08,14.77-57.89,7.33-74.43-13.56-2.26-2.84-4.23-5.93-5.86-9.24-9.37-18.98-6.29-42.45,7.21-59.64,3.98-5.08,8.87-9.61,14.62-13.31-8.54-21.3-4.93-45.41,9.49-62.3,16.73-19.61,45.24-26.23,70.24-15.89,21.59-23.75,57.42-27.33,82.05-9.35,22.51,16.43,30.96,47.42,19.51,74.25,19.37,3.53,34.67,15.18,42.84,29.41,4.46,7.75,6.8,16.27,6.53,24.66Z"/>
    <path class="cls-8" d="M1139.61,1130.79c-1.21,1.78-2.49,3.48-3.82,5.1-17.89,21.78-52.49,25.31-75.8,5.65-15.77,28.78-48.92,40.73-74.86,30.14-19.52-7.98-32.97-27.91-34.84-50.85-3.93-1.49-7.61-3.34-11-5.49-22.82-14.43-33.11-42.4-24.78-66.07,1.97-5.59,4.91-10.74,8.62-15.3,11.43-14.07,30.15-22.52,50.23-20.97.91-23.45,18.26-42.84,40.49-46.12,20.24-3,40.66,7.93,49.91,27.06,15.41-9.82,34.23-11.19,47.84-2.89,19.19,11.69,26.56,41.73,11.29,66.69,6.75,2.49,12.14,5.69,16.33,9.44,19.01,16.87,13.54,44.38.39,63.61Z"/>
    <path class="cls-8" d="M1025.15,1327.04c-.18,8.33-3.09,16.69-8.14,24.22-12.28,18.28-37.25,31.63-66.72,27.57-9.31,26.11-33.52,43.77-60.26,44.26-29.74.53-56.83-20.27-64.5-50.38-24.88,1.93-47.06-11.9-56.93-31.92-2.8-5.7-4.61-11.89-5.21-18.37-1.15-12.39,2.26-24.67,9.08-34.96,7.4-11.15,18.82-19.95,32.82-23.98-9.68-26.05,3.6-54.76,27.77-64.03,25.77-9.88,56.73,5.08,64.98,33.59,17.63-20.51,47.03-24.84,67.79-11.46,17.41,11.22,26.18,33.24,21.53,54.92,6.65,2.94,12.67,6.75,17.84,11.16,12.64,10.77,20.26,25.15,19.95,39.38Z"/>
    <path class="cls-8" d="M1300.47,1413.53c-.25,10.13-3.94,20.49-10.69,28.93-5.37,6.71-12.66,12.22-21.69,15.48,4.88,21.56-4.61,43.74-23.07,54.6-20.04,11.78-46.41,7.73-62.62-10.1-15.39,23.85-46.19,30.12-66.66,16.78-16.64-10.85-24.45-33.35-17.91-54.7-8.77-3.54-15.7-9.39-20.53-16.37-8.63-12.45-10.56-28.51-4.26-41.54,3.38-7,8.95-12.75,15.8-16.71,8.98-5.19,20.14-7.3,31.38-5.09,1.47.29,2.91-.62,3.26-2.08,5.97-24.45,27.75-41.88,52.33-42.05,23.68-.15,45.15,15.75,52.26,39.08,24.24-16.67,56.29-7.85,67.79,13.65,3.28,6.13,4.77,13.07,4.61,20.11Z"/>
  </g>
  <g>
    <line class="cls-7" x1="1870.86" y1="577.52" x2="1815.82" y2="615.05"/>
    <line class="cls-7" x1="1753.28" y1="670.08" x2="1704.49" y2="710.11"/>
    <line class="cls-7" x1="2109.77" y1="1485.27" x2="2037.09" y2="1469.51"/>
    <line class="cls-7" x1="1956.22" y1="1444.5" x2="1888.37" y2="1423.1"/>
    <line class="cls-7" x1="1737.01" y1="1435.15" x2="1753.28" y2="1359.61"/>
    <line class="cls-7" x1="1762.03" y1="1276.5" x2="1757.75" y2="1201.69"/>
    <line class="cls-7" x1="1741.51" y1="1112.06" x2="1715.82" y2="1046.53"/>
    <line class="cls-7" x1="1675.46" y1="961.71" x2="1633" y2="902.38"/>
    <line class="cls-7" x1="1569.57" y1="836.86" x2="1512.96" y2="793.88"/>
    <line class="cls-7" x1="1436.95" y1="748.79" x2="1367.23" y2="718.92"/>
    <line class="cls-7" x1="1282.74" y1="693.23" x2="1209.98" y2="679.08"/>
    <line class="cls-7" x1="843.57" y1="722.59" x2="777.52" y2="754.04"/>
    <line class="cls-7" x1="699.42" y1="801.21" x2="640.71" y2="848.39"/>
    <line class="cls-7" x1="580.95" y1="919.16" x2="540.59" y2="978.39"/>
    <line class="cls-7" x1="498.66" y1="1062.26" x2="477.69" y2="1132.5"/>
    <line class="cls-7" x1="460.91" y1="1222.14" x2="460.91" y2="1297.62"/>
    <line class="cls-7" x1="470.35" y1="1390.93" x2="491.84" y2="1460.64"/>
    <line class="cls-7" x1="1705.62" y1="1524.16" x2="1670.93" y2="1586.5"/>
    <line class="cls-7" x1="1459.66" y1="2200.84" x2="1430.3" y2="2137.01"/>
    <line class="cls-7" x1="1406.4" y1="2064.3" x2="1376.02" y2="1994.66"/>
    <line class="cls-7" x1="1292.73" y1="1854.35" x2="1215.24" y2="1872.11"/>
    <line class="cls-7" x1="1132.28" y1="1878.93" x2="1047.63" y2="1876.54"/>
    <line class="cls-7" x1="963.65" y1="1864.94" x2="884.11" y2="1844.11"/>
    <line class="cls-7" x1="520.64" y1="1541.59" x2="561.28" y2="1615.98"/>
    <line class="cls-7" x1="339.21" y1="1136.37" x2="264.53" y2="1125.5"/>
    <line class="cls-7" x1="205.93" y1="1116.99" x2="129" y2="1105.18"/>
    <line class="cls-7" x1="888.9" y1="273.69" x2="917.4" y2="331.23"/>
    <line class="cls-7" x1="937.68" y1="404.12" x2="954.66" y2="466.05"/>
    <line class="cls-7" x1="404.65" y1="1939.21" x2="347.87" y2="1988.92"/>
  </g>
  <g>
    <path class="cls-1" d="M1701.54,1733.71c-1.51,5.07-3.6,9.38-6.54,13.67-3.83,5.62-9.1,11.19-16.4,18.34-36.89,36.21-56.56,45.56-86.96,70.72-44.11,36.5-48.04,54.33-88.4,74.54-23.69,11.87-37.03,13.09-46.83,12.43-21.91-1.48-36.49-13.07-62.12-33.45-22.81-18.13-37.37-30.06-42.53-51.13-.11-.45-.21-.89-.31-1.33-3.11-14.05-.65-25.82.31-30.21.6-2.72,1.34-5.33,2.19-7.84,7.81-22.92,25.06-37.17,27.92-39.46,10.5-8.45,16.84-9.27,23.89-19.59,5.46-8.01,5.75-13.52,9.08-22.46,5.23-14.09,12.8-22.69,24.37-35.84,7.99-9.09,19.13-19.87,69.28-52.08,46.16-29.65,53.85-31.51,62.6-31.06,6.11.31,10.69,1.64,50.65,22.93,30.21,16.1,45.4,24.22,49.19,27.72,13.41,12.35,26.07,31.19,30.89,51.19,2.62,10.91,2.91,22.16-.28,32.91Z"/>
    <path class="cls-3" d="M1589.72,1729.41c-5.6-3.14-16.81,7.16-21.5,11.47-3.23,2.97-15.64,14.82-25.33,39.66-4.8,12.32-9.18,23.56-5.26,26.76,4.04,3.29,14.52-3.84,33.45-16.72,18.31-12.47,21.15-17.48,22.46-21.77,1.09-3.56.72-9.29,0-20.76-1.06-16.69-2.96-18.15-3.82-18.64Z"/>
    <path class="cls-16" d="M1701.82,1700.8c-5.81-5.01-12-10.74-18.36-17.21-15.37-15.63-18.11-21.72-26.65-23.21-16.36-2.83-24.71,16.36-62.58,48.15-31.73,26.64-39.9,24.95-51.74,43.83-8.71,13.9-3.69,13.88-18.91,47.27-.46,1.03-10.53,22.87-28.36,49.42-12.11,18.05-16.34,21.19-21.06,23.06-13.55,5.37-28.2-.9-40.83-6.29-16.36-7-27.11-16.01-30.51-18.91-20.03-17.1-37.77-32.25-48.87-47.46,7.81-22.92,25.06-37.17,27.92-39.46,10.5-8.45,16.84-9.27,23.89-19.59,5.46-8.01,5.75-13.52,9.08-22.46,5.23-14.09,12.8-22.69,24.37-35.84,7.99-9.09,19.13-19.87,69.28-52.08,46.16-29.65,53.85-31.51,62.6-31.06,6.11.31,10.69,1.64,50.65,22.93,30.21,16.1,45.4,24.22,49.19,27.72,13.41,12.35,26.07,31.19,30.89,51.19Z"/>
    <path class="cls-3" d="M1517.09,1754.25c-2.46-7.56-7.16-9.1-32.02-25.43-26.28-17.27-30.29-21.63-37.75-19.96-9.1,2.04-14.53,11.09-21.5,22.7-6.49,10.81-10.7,17.83-9.56,26.04,1.04,7.42,5.9,11.86,35.84,31.54,31.85,20.94,37.84,23.48,43.96,21.02,6.94-2.79,9.93-10.35,15.29-23.89,5.14-13,8.86-22.4,5.73-32.02Z"/>
    <path class="cls-5" d="M1454.39,1868.39c7.63.01,13.38,8.36,12.77,15.9-.52,6.43-5.74,13.3-12.77,13.32-7.4.03-12.89-7.53-12.89-14.61,0-7.21,5.7-14.62,12.89-14.61Z"/>
    <path class="cls-5" d="M1370.58,1814.24c6.44-.33,12.21,8.57,12.03,16.33-.14,6.24-4.15,13.62-9.45,14.18-6.48.69-13.74-8.9-12.89-17.62.56-5.83,4.88-12.61,10.31-12.89Z"/>
    <path class="cls-13" d="M1703.85,1795.33c-7.03,22.58-27.65,33.86-43.82,43.84-48.41,29.85-89.9,69.7-135.59,103.57-11.12,8.25-22.03,16.37-38.68,19.34-26.82,4.8-49.65-7.13-67.47-16.76-24.36-13.15-50.65-27.35-62.75-56.93-7.16-17.51-7.2-35.16-4.09-50.89.1.44.2.88.31,1.33,5.16,21.07,19.72,33,42.53,51.13,25.63,20.38,40.21,31.97,62.12,33.45,9.8.66,23.14-.56,46.83-12.43,40.36-20.21,44.29-38.04,88.4-74.54,30.4-25.16,50.07-34.51,86.96-70.72,7.3-7.15,12.57-12.72,16.4-18.34,3.51,4.32,6.73,9.66,8.85,16.15,4.98,15.21,1.13,28.19,0,31.8Z"/>
    <path class="cls-8" d="M1701.54,1733.71c-1.51,5.07-3.6,9.38-6.54,13.67-3.83,5.62-9.1,11.19-16.4,18.34-36.89,36.21-56.56,45.56-86.96,70.72-44.11,36.5-48.04,54.33-88.4,74.54-23.69,11.87-37.03,13.09-46.83,12.43-21.91-1.48-36.49-13.07-62.12-33.45-22.81-18.13-37.37-30.06-42.53-51.13-.11-.45-.21-.89-.31-1.33-3.11-14.05-.65-25.82.31-30.21.6-2.72,1.34-5.33,2.19-7.84,7.81-22.92,25.06-37.17,27.92-39.46,10.5-8.45,16.84-9.27,23.89-19.59,5.46-8.01,5.75-13.52,9.08-22.46,5.23-14.09,12.8-22.69,24.37-35.84,7.99-9.09,19.13-19.87,69.28-52.08,46.16-29.65,53.85-31.51,62.6-31.06,6.11.31,10.69,1.64,50.65,22.93,30.21,16.1,45.4,24.22,49.19,27.72,13.41,12.35,26.07,31.19,30.89,51.19,2.62,10.91,2.91,22.16-.28,32.91Z"/>
    <path class="cls-6" d="M1664.12,1748.06c8.01,1.09,13.37,17.09,12.46,29.65-1.08,15.03-11.56,31.41-20.2,30.38-8.08-.96-13.9-17.08-12.89-30.02,1.17-15.06,12.03-31.19,20.63-30.02Z"/>
    <path class="cls-6" d="M1536.12,1859.37c8.12,2.45,10.98,19.63,7.66,32.23-3.81,14.46-17.2,28.41-25.54,25.79-8.17-2.57-11.02-20.87-6.69-34.38,4.13-12.88,16.3-26.14,24.57-23.64Z"/>
  </g>
  <g>
    <path class="cls-22" d="M791.27,1770.2c-1.71,5.39-3.88,9.83-6.4,14.01-1.21,2.01-2.51,3.97-3.88,5.94-22.03,31.89-45.87,47.03-91.26,80.38-32.12,23.6-66.07,44.66-97.87,68.68-7.64,5.77-22.18,11.85-34.35,12.31-29.16,1.13-44.01-10.2-72.68-31.2-22.59-16.55-38.05-28.11-44.79-42.55-1.87-4-3.07-8.22-3.56-12.83-1.32-12.36,3-21.93,10.48-37.76h0c.21-.46.42-.91.64-1.37,5.58-11.82,16.68-35.31,40.26-51.38,8.66-5.9,16.39-9.02,25.38-19.48,6.66-7.75,9.41-14.18,12.69-20.41,7.18-13.63,15.31-22.58,31.58-40.49,33.35-36.74,96.56-81.6,124.97-78.07,43.34,5.39,71.18,44.09,84.61,63.56,4.57,6.61,12.57,18.21,18.73,32.5,7.27,16.88,11.99,37.52,5.45,58.16Z"/>
    <path class="cls-19" d="M785.82,1712.04c-26.23,26.53-72.14,71.85-117.85,111.35-64.83,56.03-74.77,53.29-93.68,71.92-1.11,1.09-4.63,4.61-10.28,6.65-16.45,5.97-35.25-6.18-48.35-15.62-24.25-17.47-49.31-40.31-68.7-59.16h0c.21-.46.42-.91.64-1.37,5.58-11.82,16.68-35.31,40.26-51.38,8.66-5.9,16.39-9.02,25.38-19.48,6.66-7.75,9.41-14.18,12.69-20.41,7.18-13.63,15.31-22.58,31.58-40.49,33.35-36.74,96.56-81.6,124.97-78.07,43.34,5.39,71.18,44.09,84.61,63.56,4.57,6.61,12.57,18.21,18.73,32.5Z"/>
    <path class="cls-3" d="M643.79,1753.88c-5.16-9.52-12.61-8.32-33.85-19.95-25.92-14.18-30.01-24.28-39.89-21.76-5.97,1.52-11.23,10.08-21.76,27.2-7.79,12.67-11.69,19.11-11.48,24.18.5,12.44,13.36,20.76,33.24,33.24,27.39,17.2,43.15,27.09,56.21,20.55,11.01-5.52,14.65-19.98,17.53-31.43,2.58-10.26,5.5-21.88,0-32.03Z"/>
    <path class="cls-3" d="M761.05,1735.75c.45-7.22-3.6-16.38-5.44-20.55-3.96-8.96-6.04-13.66-10.27-15.11-7.51-2.56-13.93,7.77-34.45,22.36-18.31,13.02-20.2,9.76-29.01,18.74-13.74,14-17.66,30.56-19.34,38.08-2.5,11.19-5.91,26.44,0,30.22,7.32,4.68,19.56-14.26,57.42-38.68,23.8-15.35,40.26-21.6,41.1-35.06Z"/>
    <path class="cls-13" d="M782.81,1839.1c-52.97,57.67-98.51,83.04-155.94,128.14-8.99,7.06-22.74,18.11-43.52,21.68-20.94,3.6-37.61-2.35-56.21-8.99-14.01-5-47.2-17.31-73.13-48.96-8.76-10.68-20.11-24.94-17.77-41.71.62-4.41,2.09-8.26,3.8-11.49,6.74,14.44,22.2,26,44.79,42.55,28.67,21,43.52,32.33,72.68,31.2,12.17-.46,26.71-6.54,34.35-12.31,31.8-24.02,65.75-45.08,97.87-68.68,45.39-33.35,69.23-48.49,91.26-80.38,1.37-1.97,2.67-3.93,3.88-5.94,6.12,4.79,12.26,11.57,13.65,20.44,2.28,14.52-9.29,27.46-15.71,34.45Z"/>
    <path class="cls-5" d="M544.67,1889.27c7.82.26,13.85,9.37,12.69,17.53-1.11,7.83-8.85,14.9-16.4,13.3-6.72-1.43-10.43-9.12-10.19-15.4.28-7.53,6.32-15.68,13.9-15.42Z"/>
    <path class="cls-5" d="M462.47,1834.27c7.69.98,13.09,11.84,10.27,20.26-2.22,6.63-9.71,12.23-16.32,10.41-7.48-2.06-10.57-12.71-7.86-20.26,2.02-5.62,7.85-11.18,13.9-10.41Z"/>
    <line class="cls-8" x1="703.98" y1="1727.11" x2="710.17" y2="1777.37"/>
    <path class="cls-8" d="M791.27,1770.2c-1.71,5.39-3.88,9.83-6.4,14.01-1.21,2.01-2.51,3.97-3.88,5.94-22.03,31.89-45.87,47.03-91.26,80.38-32.12,23.6-66.07,44.66-97.87,68.68-7.64,5.77-22.18,11.85-34.35,12.31-29.16,1.13-44.01-10.2-72.68-31.2-22.59-16.55-38.05-28.11-44.79-42.55-1.87-4-3.07-8.22-3.56-12.83-1.32-12.36,3-21.93,10.48-37.76h0c.21-.46.42-.91.64-1.37,5.58-11.82,16.68-35.31,40.26-51.38,8.66-5.9,16.39-9.02,25.38-19.48,6.66-7.75,9.41-14.18,12.69-20.41,7.18-13.63,15.31-22.58,31.58-40.49,33.35-36.74,96.56-81.6,124.97-78.07,43.34,5.39,71.18,44.09,84.61,63.56,4.57,6.61,12.57,18.21,18.73,32.5,7.27,16.88,11.99,37.52,5.45,58.16Z"/>
    <path class="cls-6" d="M771.22,1819.38c4.55-13.57,1.7-31.97-6.54-34.67-8.52-2.8-21.83,11.51-26.59,25.5-4.28,12.57-3.61,30.6,4.23,33.91,8.26,3.48,23.84-9.62,28.9-24.74Z"/>
    <path class="cls-6" d="M631.71,1886.85c9.9,3.18,13.44,21.02,10.27,33.85-3.19,12.92-14.81,27.39-25.39,25.39-10.62-2.01-16.97-20.01-13.9-33.85,3.33-15.02,18.56-28.75,29.01-25.39Z"/>
  </g>
  <g>
    <path class="cls-13" d="M1132.7,702.66c-.24,17.47-9.84,29.36-15.07,35.65-12.33,14.83-26.78,20.34-48.08,28.14-9.06,3.32-41.2,14.41-84.07,13.08-13.11-.4-19.67-.6-28.13-3.27-22.9-7.21-34.08-23.39-49.72-42.2-47.23-56.75-66.85-55.28-78.51-91.91-7.75-24.37-3.6-39.25-2.61-42.53,3.39-11.26,9.83-19.96,16.55-26.44.03,3.29.18,6.14.51,8.68,2.13,16.38,12.7,26.97,33.83,48.86,30.4,31.49,45.61,47.23,48.86,51.32,20.58,25.87,23.97,38.75,44.34,50.91,4.07,2.43,14.74,11.75,30.38,11.49,31.41-.5,56.43-5.86,75.54-13.54,14.49-5.83,21.91-11.08,26.48-14.78,5.55-4.51,19.2-15.57,25.88-33.18,2.2,5.37,3.93,12.05,3.82,19.72Z"/>
    <path class="cls-18" d="M1131.53,673.83c-.65,3.21-1.55,6.25-2.65,9.11-6.68,17.61-20.33,28.67-25.88,33.18-4.57,3.7-11.99,8.95-26.48,14.78-19.11,7.68-44.13,13.04-75.54,13.54-15.64.26-26.31-9.06-30.38-11.49-20.37-12.16-23.76-25.04-44.34-50.91-3.25-4.09-18.46-19.83-48.86-51.32-21.13-21.89-31.7-32.48-33.83-48.86-.33-2.54-.48-5.39-.51-8.68-.06-5.3.2-11.71.51-19.64.5-12.59,1.33-16.3,3.45-20.12,3.53-6.34,7.19-6.75,12.73-14.37,1.77-2.42,2.94-4.5,3.87-6.49,1.45-3.08,2.32-5.94,3.93-9.52,6.65-14.8,17.74-23.81,23.81-28.74,12.28-9.97,23.99-14.09,32.02-16.83,13.96-4.77,24.71-5.57,43.52-6.98,15.73-1.18,23.59-1.77,30.79-.01,16.04,3.91,25.97,14.23,36.13,25.05,4.7,5,22.65,24.82,35.72,59.53,9.28,24.64,13.02,40.17,15.19,44.75,4.01,8.45,17.88,15.98,29.97,33.67,4.06,5.94,12.17,17.8,15.96,32.82,2.1,8.36,2.88,17.69.87,27.53Z"/>
    <path class="cls-17" d="M1130.66,646.3c-4.14,4.8-8.8,9.79-14.01,14.82-13.47,13-27.73,26.77-50.7,35.41-11.99,4.51-36.48,13.72-58.55,3.49-13.6-6.3-20.56-17.34-24.86-23.85-42.28-64.1-71.47-61.56-102.72-123.65-4.98-9.89-10.92-23.24-16.2-39.96,1.45-3.08,2.32-5.94,3.93-9.52,6.65-14.8,17.74-23.81,23.81-28.74,12.28-9.97,23.99-14.09,32.02-16.83,13.96-4.77,24.71-5.57,43.52-6.98,15.73-1.18,23.59-1.77,30.79-.01,16.04,3.91,25.97,14.23,36.13,25.05,4.7,5,22.65,24.82,35.72,59.53,9.28,24.64,13.02,40.17,15.19,44.75,4.01,8.45,17.88,15.98,29.97,33.67,4.06,5.94,12.17,17.8,15.96,32.82Z"/>
    <path class="cls-3" d="M1011.15,535.06c17.5-4.94,26.39-7.34,32.74-4.45,12.49,5.68,16.54,21.97,20.27,36.97,3.28,13.21,4.92,19.81,1.56,26.28-4.33,8.33-12.66,8.22-42.09,16.48-31.31,8.79-37.46,13.29-44.54,8.69-7.05-4.58-8.48-14.04-11.36-32.96-2.4-15.77-3.59-23.65-.03-30.51,4.91-9.46,17.83-13.26,43.45-20.49Z"/>
    <path class="cls-3" d="M949.91,558.67c-2.25-11.29-8.85-18.96-22.05-34.3-11.76-13.67-17.94-20.66-24.72-19.37-4.22.8-7.3,4.55-12.69,11.13-3.75,4.57-7.31,8.92-8.46,13.23-2.7,10.15,8.12,19.52,28.06,40.89,24.59,26.35,32.48,38.19,37.19,35.85,1.13-.56,2.13-1.96,2.67-22.05.4-14.9.61-22.35,0-25.39Z"/>
    <line class="cls-12" x1="927.86" y1="524.37" x2="910.04" y2="570.25"/>
    <path class="cls-5" d="M1103,666.66c6.77.43,11.42,8.3,11.38,15.02-.04,6.64-4.66,14.4-11.38,14.83-7.08.45-13.21-7.46-13.21-14.93,0-7.47,6.12-15.38,13.21-14.93Z"/>
    <path class="cls-5" d="M1007.85,688.51c7.41-.29,13.24,7.85,13.46,15.22.22,7.39-5.13,15.82-12.49,16-7.44.19-13.2-8.16-13.27-15.61-.06-7.1,5.03-15.33,12.29-15.61Z"/>
    <path class="cls-8" d="M1131.53,673.83c-.65,3.21-1.55,6.25-2.65,9.11-6.68,17.61-20.33,28.67-25.88,33.18-4.57,3.7-11.99,8.95-26.48,14.78-19.11,7.68-44.13,13.04-75.54,13.54-15.64.26-26.31-9.06-30.38-11.49-20.37-12.16-23.76-25.04-44.34-50.91-3.25-4.09-18.46-19.83-48.86-51.32-21.13-21.89-31.7-32.48-33.83-48.86-.33-2.54-.48-5.39-.51-8.68-.06-5.3.2-11.71.51-19.64.5-12.59,1.33-16.3,3.45-20.12,3.53-6.34,7.19-6.75,12.73-14.37,1.77-2.42,2.94-4.5,3.87-6.49,1.45-3.08,2.32-5.94,3.93-9.52,6.65-14.8,17.74-23.81,23.81-28.74,12.28-9.97,23.99-14.09,32.02-16.83,13.96-4.77,24.71-5.57,43.52-6.98,15.73-1.18,23.59-1.77,30.79-.01,16.04,3.91,25.97,14.23,36.13,25.05,4.7,5,22.65,24.82,35.72,59.53,9.28,24.64,13.02,40.17,15.19,44.75,4.01,8.45,17.88,15.98,29.97,33.67,4.06,5.94,12.17,17.8,15.96,32.82,2.1,8.36,2.88,17.69.87,27.53Z"/>
    <path class="cls-6" d="M944.63,670.17c8.76,0,16.85,17.82,16,32.78-.66,11.71-2.63,26.93-15.02,26.93-8.69,0-18.26-16.5-17.75-31.61.44-13.13,4.96-28.1,16.77-28.1Z"/>
    <path class="cls-6" d="M862.88,574.96c7.96.22,14.75,18.2,14.63,32.78-.1,11.52-4.56,27.62-11.9,28.49-7.77.92-18.14-15.29-18.54-30.63-.38-14.54,8.13-30.85,15.8-30.63Z"/>
  </g>
  <path class="cls-14" d="M1107,3l1100,635.75v1273.5l-1100,637.75h-4L-1,1912.25V640.75L1101,3h6ZM93.58,693.29l-2.67,12.35-.02,1151.73,2.94,7.06,995.82,575.95,16.01,7.2,1010.32-583.33,1.11-1164.63-1.94-6.06c-337-194.2-672.94-390.43-1011.17-582.48L93.58,693.29Z"/>
  <path class="cls-10" d="M1407.66,617.19l-8.29,28.83c-11.51-5.76-25.14-5.76-28.65,9.56,0,0-10.08,35.03-10.08,35.03l-32.58-9.37,22.68-78.86,30.99,8.92-2.45,8.52c8.59-5.35,17.88-5.52,28.38-2.63Z"/>
  <path class="cls-10" d="M1429.31,717.37c-58.22-24.93-24.08-103.77,33.93-77.99,58.5,24.79,23.98,103.71-33.93,77.99ZM1439.84,693.16c16.19,7.55,29.52-22.9,12.86-29.57-16.23-7.64-29.43,22.88-12.86,29.57Z"/>
  <path class="cls-10" d="M1599.31,717.97l-44.44,68.98-27.11-17.47,4.14-6.42c-20.23,4.22-43.05-13.77-40.82-34.97.1-14.34,25.59-46.15,32.57-58.86l28.5,18.36-21.37,33.16c-4.97,7.93-6.53,13.85.51,18.88,7.19,4.55,14.34-.56,18.64-7.61,0,0,20.88-32.41,20.88-32.41l28.5,18.36Z"/>
  <path class="cls-10" d="M1672.92,801.73c-2.26,13.78-33.76,41.94-42.5,53.01l-25.01-22.89,27.64-30.21c5.62-6.21,7.69-11.66,2.1-17.19-6.58-6.14-14.76-3.26-20.54,3.57,0,0-26.03,28.44-26.03,28.44l-25.01-22.88,55.39-60.54,23.79,21.77-5.49,6.01c20.46-.94,41.2,20.05,35.66,40.91Z"/>
  <path class="cls-10" d="M1761.43,840.9l-27.66,21.22c.73-32.01-41.07-47.71-64.84-26.46-27.57,18.23-21.87,64.12,10.51,70.21l-5.32,4.08,19.63,25.59,88.31-67.74-20.63-26.9ZM1683.85,869.78c8.24-16.93,35.26-13.45,28.23,7.46-8.12,16.9-35.68,13.62-28.23-7.46Z"/>
  <path class="cls-10" d="M1790.36,938.35c-5.56-10.51-15.31-22.48-25.48-28.26l-14.71,19.99c10.38,5.08,26.11,23.89,14.23,33.64-4.76-9.09-11.98-23.62-18.72-29.31-14.66-16.04-41.36-2.54-40.15,18.1.44,13.23,11.18,32.78,26.48,31.31l-9.47,5.01,14.73,27.84c33.7-19.29,79.54-29.26,53.09-78.32ZM1745.02,974.22c-8.76,2.61-18.4-10.61-9.83-16.01,7.92-4.28,11.6,7.96,14.87,13.34l-5.04,2.67Z"/>
  <path class="cls-10" d="M1828.33,1036.97c-1.07-.86-2.22-1.61-3.43-2.27l33.15-10.84-10.54-32.22-105.79,34.6,10.03,30.66,6.42-2.11c-10.17,19.6,7,47.08,28.68,50.28,39.65,7.14,72.24-37.19,41.48-68.1ZM1810.93,1059.79c-4,16.25-35.44,15.97-31.42-3.92,4.19-16.25,35.39-16.05,31.42,3.92Z"/>
  <path class="cls-10" d="M1776.8,1165.55c-9.57-62.6,75.42-75.24,84.15-12.36,9.83,62.77-75.41,75.12-84.15,12.36ZM1802.92,1161.71c2.13,17.74,35.04,12.98,31.91-4.69-2.08-17.82-34.97-12.92-31.91,4.69Z"/>
  <path class="cls-10" d="M1811.81,1263.93c0,8.51,8.1,11.85,16.37,11.74,0,0,38.54.46,38.54.46l-.4,33.9-82.04-.97.38-32.25,7.65.09c-14.36-14.87-11.22-43.78,7.9-53.16,12.2-7.55,52.7-2.86,67.18-3.71l-.41,33.9-39.44-.47c-9.36.01-15.21,1.82-15.73,10.47Z"/>
  <path class="cls-10" d="M1881.34,1338.13l-4.58,33.59-18.28-2.49-2.26,16.65-24.53-3.34,2.27-16.64c-10.29.02-41.18-12.17-32.6,10.39l-24.43,4.85c-5.2-14.26-.58-37.35,10.16-46.3,10.4-11.34,37.17-4.01,51.44-2.53l1.52-11.15,24.52,3.33-1.52,11.15,18.29,2.49Z"/>
  <path class="cls-10" d="M1763.91,1417.31c2.84-11.61,9.19-26.08,16.85-34.14l19.44,14.42c-7.87,8.04-15.43,23.32-15.05,34.36,2.58,7.19,7.09-.86,8.27-5.28,4.49-11.47,9.04-27.21,22.6-30.85,15.16-3.6,29.6,8.27,30.86,24.45,2.12,16.74-5.08,40.91-16.52,54.24l-19.44-14.42c16.89-16.43,14.42-48.84,4.27-25.22-4.41,11.5-9.24,27-22.71,30.67-27.15,5.18-35.91-25.4-28.57-48.23Z"/>
</svg>