<?xml version="1.0" encoding="UTF-8"?>
<svg id="Layer_1" data-name="Layer 1" xmlns="http://www.w3.org/2000/svg" viewBox="0 0 2521 2911">
  <defs>
    <style>
      .cls-1 {
        fill: #193dad;
      }

      .cls-2 {
        fill: none;
        stroke: #0aadff;
        stroke-linejoin: round;
        stroke-width: 17.13px;
      }

      .cls-3 {
        fill: #0b1b50;
      }

      .cls-4 {
        fill-rule: evenodd;
      }

      .cls-4, .cls-5 {
        fill: #23f5eb;
      }
    </style>
  </defs>
  <polygon class="cls-1" points="1257.31 56.74 2471 753.79 2474.19 2153.39 1263.69 2855.96 50 2158.91 46.81 759.31 1257.31 56.74"/>
  <g>
    <path id="Shape" class="cls-4" d="M1428.34,1967.74l-86.66-72.73-96.94,115.55-53.09-44.53,231.55-275.96,189.53,159.05-231.55,275.96-49.78-41.79,96.94-115.55h0ZM1436.67,1781.87l-57.2,68.28,86.66,72.73,57.2-68.28-86.66-72.73h0Z"/>
    <path id="path1" class="cls-4" d="M1226.93,1605.92l-71.7-60.17,39.62-47.27,189.53,159.05-39.62,47.27-64.74-54.35-191.93,228.69-53.09-44.53,191.93-228.69h0Z"/>
    <path id="path2" class="cls-4" d="M971.75,1584.68l-86.66-72.73-96.94,115.55-53.09-44.53,231.55-275.96,189.53,159.05-231.55,275.96-49.78-41.79,96.94-115.55h0ZM980.08,1398.69l-57.2,68.28,86.66,72.73,57.2-68.28-86.66-72.73Z"/>
    <path id="path3" class="cls-4" d="M507.74,1392.07l231.55-275.96,169.55,142.26-.34,40.99-190.9,227.55-40.08,7.65-169.67-142.38-.11-.11h0ZM839.31,1280.63l-86.66-72.73-152.2,181.43,86.66,72.73,152.2-181.43Z"/>
    <path id="Text" class="cls-4" d="M1696.42,1513.67l-71.7-60.17,39.62-47.27,189.53,159.05-39.62,47.27-64.74-54.35-191.93,228.69-53.09-44.53,191.93-228.69h0Z"/>
    <path id="path4" class="cls-4" d="M1388.83,1410.11l-1.71-1.48,48.87-194.1,53.09,44.53-30.71,123.54,117.37-50.92,49.78,41.79-184.96,79.58,1.71,1.48-48.87,194.1-53.09-44.53,30.71-123.54-117.37,50.92-49.78-41.79,184.96-79.58h0Z"/>
    <path id="path5" class="cls-4" d="M1220.31,1114.17l-57.2,68.28,136.44,114.52-37.68,44.99-136.44-114.52-57.2,68.28,136.44,114.52-39.62,47.27-189.53-159.05,231.55-275.96,189.53,159.05-39.62,47.27-136.44-114.52-.23-.11h0Z"/>
    <path id="path6" class="cls-4" d="M1011.6,939.02l-71.7-60.17,39.62-47.27,189.53,159.05-39.62,47.27-64.74-54.35-191.93,228.69-53.09-44.53,191.93-228.69h0Z"/>
  </g>
  <g>
    <g>
      <polyline class="cls-2" points="1349.89 107.32 1281.28 175.93 1281.28 231.85"/>
      <polyline class="cls-2" points="1430.61 153.45 1368.34 215.71 1368.34 309.1"/>
      <line class="cls-2" x1="1437.53" y1="205.33" x2="1477.88" y2="164.98"/>
      <polyline class="cls-2" points="1616.25 257.22 1580.5 292.97 1522.85 292.97"/>
      <polyline class="cls-2" points="1683.13 297.58 1620.29 360.42 1522.85 360.42"/>
      <polyline class="cls-2" points="1748.28 337.19 1660.3 425.17 1489.65 425.17 1327.56 587.27 1281.28 587.27 1188.68 679.88"/>
      <polyline class="cls-2" points="1782.53 353.72 1677.91 458.34 1514.45 458.34 1345.12 627.67 1315.59 627.67 1257.31 685.94 1257.31 876.91 1283.47 903.07 1360.92 903.07"/>
      <polyline class="cls-2" points="1821.5 376.17 1692.73 504.94 1519.92 504.94 1327.66 697.21"/>
      <polyline class="cls-2" points="1853.39 396.24 1709.31 540.32 1602.99 540.32 1302.44 840.87"/>
      <polyline class="cls-2" points="1891.18 418.68 1729.98 579.89 1651.44 579.89 1515.33 716 1515.33 778.89 1447.28 846.94"/>
      <polyline class="cls-2" points="1931.34 441.12 1751.09 621.36 1683.13 621.36 1574.79 729.7 1574.79 801.32"/>
      <line class="cls-2" x1="2001.71" y1="477.44" x2="1886.4" y2="592.75"/>
      <line class="cls-2" x1="2038.96" y1="508.53" x2="1726.71" y2="820.78"/>
      <line class="cls-2" x1="2102.41" y1="540.88" x2="1964.44" y2="678.86"/>
      <polyline class="cls-2" points="2157.8 570.08 1999.18 728.7 1886.4 728.7 1751 864.1 1649.23 864.1 1515.57 997.76 1515.57 1100.81"/>
      <polyline class="cls-2" points="2201.1 592.75 2029.9 763.94 1909.05 763.94 1731.06 941.94 1658.3 941.94"/>
      <polyline class="cls-2" points="2234.33 621.22 2045.4 810.16 1944.05 810.16 1724.29 1029.9 1658.3 1029.9 1658.3 1085.7"/>
      <polyline class="cls-2" points="2271.59 639.57 2071.75 839.41 1969.47 839.41 1654.5 1154.4 1587.31 1087.21 1587.31 1018.22"/>
      <polyline class="cls-2" points="2318.92 664.66 2099.84 883.74 1989.61 883.74 1787.11 1086.25 1787.11 1126.99 1740.32 1173.77 1740.32 1273.01 1785.61 1318.29 1931.34 1318.29"/>
      <polyline class="cls-2" points="2356.19 691.94 1973 1075.13 1882.84 1075.13 1804.95 1153.02 1804.95 1239.99"/>
      <polyline class="cls-2" points="2392.44 709.06 1955.89 1145.62 1891.18 1145.62"/>
      <line class="cls-2" x1="2454.88" y1="746.33" x2="2246.92" y2="954.27"/>
      <line class="cls-2" x1="2472" y1="903.07" x2="2342.42" y2="1032.66"/>
      <polyline class="cls-2" points="2464.95 1069.59 2385.39 1069.59 2348.5 1106.47 2234.33 1106.47 1935.42 1405.39 1776.12 1405.39"/>
      <line class="cls-2" x1="2472" y1="1124.98" x2="2422.65" y2="1124.98"/>
      <polyline class="cls-2" points="2472 1188.41 2392.44 1188.41 2354.66 1150.65 2255.48 1150.65 2189.76 1216.35 2189.76 1344.52 2107.59 1426.69 1996.67 1426.69"/>
      <line class="cls-2" x1="2472" y1="1217.62" x2="2318.92" y2="1217.62"/>
      <line class="cls-2" x1="2472" y1="1288.66" x2="2407.2" y2="1288.66"/>
      <polyline class="cls-2" points="2472 1336.28 2407.2 1336.28 2344.56 1398.92 2293.21 1398.92"/>
      <polyline class="cls-2" points="2478.98 1431.57 2395.46 1431.57 2347.85 1479.19 2257.29 1479.19 2243.55 1492.92 2208.02 1492.92"/>
      <polyline class="cls-2" points="2464.95 1577.48 2363 1577.48 2347.61 1592.87 2293.21 1592.87"/>
      <line class="cls-2" x1="2472" y1="1641.11" x2="2407.2" y2="1641.11"/>
      <line class="cls-2" x1="2472" y1="1798.15" x2="2382.61" y2="1798.15"/>
      <polyline class="cls-2" points="2472 1913.11 2395.46 1913.11 2312.52 1830.16 2312.52 1743.75 2286.95 1718.19"/>
      <line class="cls-2" x1="2472" y1="1984.95" x2="2379.08" y2="1984.95"/>
      <polyline class="cls-2" points="2472 2029.09 2349.66 2029.09 2286.49 1965.92 2286.49 1898.74"/>
      <polyline class="cls-2" points="2464.95 2125.08 2273.71 2125.08 2212.37 2063.74 2212.37 1939.79 2184.33 1911.75 2184.33 1865.89 2233.13 1817.1 2233.13 1781.87 2185.61 1734.35 2185.61 1621.61 2129.07 1565.08 2000.69 1565.08 1967.37 1531.76 1884.71 1531.76"/>
      <polyline class="cls-2" points="2411.87 2176.69 2240.97 2176.69 2101.02 2036.73 2101.02 1892.22"/>
      <polyline class="cls-2" points="2330.28 2217.48 2223.33 2217.48 2033.22 2027.35 2033.22 1776.45 1968.95 1712.2"/>
      <polyline class="cls-2" points="2267.44 2251.65 2202.38 2251.65 1995.65 2044.93 1995.65 1941.84 1866.13 1812.32"/>
      <line class="cls-2" x1="2174.83" y1="2308.99" x2="2102.09" y2="2236.25"/>
      <polyline class="cls-2" points="2129.62 2342.07 1962.03 2174.48 1962.03 1984.95 1774.36 1797.28 1821.82 1749.82 1921.23 1749.82 1982.8 1811.38"/>
      <polyline class="cls-2" points="2066.79 2374.04 1912.97 2220.23 1912.97 1998.07 1837.6 1922.7 1774.36 1922.7 1727.81 1876.15"/>
      <polyline class="cls-2" points="1976.36 2424.75 1885.33 2333.73 1885.33 2171.17 1789.17 2075 1789.17 1980.43"/>
      <polyline class="cls-2" points="1942.17 2442.41 1847.91 2348.13 1847.91 2189.92 1709.82 2051.82 1709.82 2010.19"/>
      <polyline class="cls-2" points="1902.49 2471.06 1808.77 2377.35 1808.77 2217.48 1601.49 2010.19 1538.64 2010.19"/>
      <polyline class="cls-2" points="1847.36 2497.53 1733.79 2383.96 1733.79 2251.65 1609.98 2127.85 1544.16 2127.85"/>
      <polyline class="cls-2" points="1798.85 2519.58 1672.05 2392.79 1672.05 2272.63 1618.45 2219.03"/>
      <line class="cls-2" x1="1745.92" y1="2555.97" x2="1669.29" y2="2479.34"/>
      <polyline class="cls-2" points="1695.76 2590.15 1575.85 2470.24 1575.85 2414.83 1547.87 2386.86"/>
      <polyline class="cls-2" points="1669.29 2603.37 1465.05 2399.12 1465.05 2240.64 1420.8 2196.39 1344.59 2196.39"/>
      <polyline class="cls-2" points="1636.77 2618.81 1410.74 2392.79 1410.74 2272.63"/>
      <polyline class="cls-2" points="1602.59 2640.87 1363.58 2401.85 1339.08 2401.85"/>
      <polyline class="cls-2" points="1559.59 2659.6 1544.36 2644.37 1492.33 2644.37"/>
      <polyline class="cls-2" points="1482.41 2719.15 1318.12 2554.86 1318.12 2456.74 1277.33 2415.94 1277.33 2325.52"/>
      <polyline class="cls-2" points="1384.38 2773.17 1334.71 2723.51 1334.71 2640.87"/>
      <polyline class="cls-2" points="1299.39 2820.58 1250.87 2772.07 1250.87 2719.15"/>
      <polyline class="cls-2" points="1339.08 2802.94 1294.17 2758.03 1294.17 2673.94 1255.98 2635.75 1255.98 2564.78"/>
      <polyline class="cls-2" points="1210.08 2798.53 1128.49 2716.94 1128.49 2369.3"/>
      <polyline class="cls-2" points="1057.92 2727.96 1057.92 2603.37 1022.09 2567.54 1022.09 2479.34"/>
      <polyline class="cls-2" points="835.21 2590.15 937.75 2590.15 978.54 2549.35"/>
      <polyline class="cls-2" points="707.31 2519.58 862.77 2519.58 1022.91 2359.43 1074.46 2359.43 1167.49 2266.4"/>
      <polyline class="cls-2" points="656.59 2488.5 835.21 2488.5 1011.87 2311.84 1034.77 2311.84 1086.15 2260.46 1086.15 2060.91 1057.15 2031.91 989.56 2031.91"/>
      <polyline class="cls-2" points="622.41 2474.38 656.59 2440.2 828.58 2440.2 1019.61 2249.18"/>
      <polyline class="cls-2" points="594.84 2455.63 649.85 2400.63 742.59 2400.63 1036.6 2106.62"/>
      <polyline class="cls-2" points="555.16 2434.69 621.47 2368.36 707.31 2368.36 841.74 2233.93 841.74 2174.48 907.26 2108.96"/>
      <polyline class="cls-2" points="522.08 2409.33 603.11 2328.29 668.72 2328.29 780.9 2216.1 780.9 2144.7"/>
      <line class="cls-2" x1="407.41" y1="2348.68" x2="627.37" y2="2128.72"/>
      <line class="cls-2" x1="342.36" y1="2312.3" x2="387.91" y2="2266.75"/>
      <polyline class="cls-2" points="292.75 2281.12 350.47 2223.39 461.44 2223.39 604.42 2080.41 698.49 2080.41 833.93 1944.97 833.93 1852.37"/>
      <polyline class="cls-2" points="244.23 2249.18 317.42 2176 439.38 2176 610.49 2004.89 686.36 2004.89"/>
      <polyline class="cls-2" points="206.75 2238.71 312.45 2132.99 407.41 2132.99 626.47 1913.93 692.98 1913.93 692.98 1870.17"/>
      <polyline class="cls-2" points="172.57 2217.48 290.54 2099.5 375.43 2099.5 668.72 1806.22 719.43 1806.22 762.43 1849.22 762.43 1935.23"/>
      <polyline class="cls-2" points="127.36 2180 257.4 2049.96 365.13 2049.96 567.76 1847.33 567.76 1812.84 613.83 1766.77 613.83 1672.82 565.43 1624.42 420.65 1624.42"/>
      <polyline class="cls-2" points="89.87 2162.34 380.95 1871.28 465.3 1871.28 548.82 1787.76 548.82 1705.89"/>
      <polyline class="cls-2" points="47.98 2144.7 389.4 1803.3 465.3 1803.3"/>
      <polyline class="cls-2" points="47.98 1840.4 127.36 1840.4 422.14 1545.61 577.2 1545.61"/>
      <polyline class="cls-2" points="47.98 1794.87 89.87 1794.87 166.19 1718.54 166.19 1594.56 240.24 1520.52 352.53 1520.52"/>
      <polyline class="cls-2" points="47.98 831.58 82.29 831.58 133.12 882.41 133.12 1004.79 163.34 1035.01 163.34 1089.04 122.02 1130.36 122.02 1165.34 159.99 1203.31 159.99 1316.36 222.88 1379.25 352.53 1379.25 393.43 1420.13 465.4 1420.13"/>
      <polyline class="cls-2" points="47.98 772.22 110.96 772.22 237.93 899.21 237.93 1055.82"/>
      <polyline class="cls-2" points="113.92 709.97 319.21 915.26 319.21 1166.5 385.54 1232.83"/>
      <polyline class="cls-2" points="142.96 686.26 359.66 902.96 359.66 1001.47 489.27 1131.08"/>
      <line class="cls-2" x1="200.88" y1="652.66" x2="259.91" y2="711.7"/>
      <polyline class="cls-2" points="249.73 626.97 393.29 770.53 393.29 958.99 578.22 1143.91 530.43 1191.7 422.22 1191.7 362.76 1132.24"/>
      <polyline class="cls-2" points="311.55 594.36 443.96 726.77 443.96 949.1 516.44 1021.58 572.42 1021.58 618.7 1067.86"/>
      <polyline class="cls-2" points="396.53 540.99 471.13 615.61 471.13 775.19 564.27 868.32 564.27 971.4"/>
      <polyline class="cls-2" points="441.99 521.23 512.64 591.89 512.64 745.55 647.78 880.68 647.78 946.14"/>
      <polyline class="cls-2" points="480.41 494.56 546.24 560.39 546.24 733.69 744.12 931.56 819.67 931.56"/>
      <polyline class="cls-2" points="526.97 471.82 618.38 563.23 618.38 696.13 737.69 815.46 803.65 815.46"/>
      <polyline class="cls-2" points="573.41 447.12 678.65 552.36 678.65 687.24 734.73 743.32"/>
      <line class="cls-2" x1="627.76" y1="418.68" x2="682.01" y2="472.92"/>
      <polyline class="cls-2" points="682.01 385.86 773.52 477.37 773.52 521.23 807.85 555.57"/>
      <polyline class="cls-2" points="709.77 358.19 890.11 538.53 890.11 706.02 935.33 751.22 1008.21 751.22"/>
      <polyline class="cls-2" points="744.93 349.29 938.33 542.69 938.33 687.24"/>
      <line class="cls-2" x1="772.03" y1="337.19" x2="996.9" y2="562.06"/>
      <polyline class="cls-2" points="898.52 257.22 1030.02 388.73 1030.02 486.64 1076.93 533.54 1076.93 618.07"/>
      <line class="cls-2" x1="1020.06" y1="193.17" x2="1020.06" y2="309.1"/>
      <line class="cls-2" x1="1099.11" y1="145.74" x2="1099.11" y2="231.85"/>
      <polyline class="cls-2" points="1124.8 134.87 1218.76 228.81 1218.76 570.08"/>
    </g>
    <circle class="cls-5" cx="1281.28" cy="231.85" r="22.84"/>
    <circle class="cls-5" cx="1368.34" cy="309.1" r="22.84"/>
    <circle class="cls-5" cx="1437.53" cy="205.33" r="22.84"/>
    <circle class="cls-5" cx="1522.85" cy="292.97" r="22.84"/>
    <circle class="cls-5" cx="1522.85" cy="360.02" r="22.84"/>
    <circle class="cls-5" cx="1218.76" cy="570.08" r="22.84"/>
    <circle class="cls-5" cx="1188.68" cy="679.88" r="22.84"/>
    <circle class="cls-5" cx="1327.66" cy="697.21" r="22.84"/>
    <circle class="cls-5" cx="1304.82" cy="835.45" r="22.84"/>
    <circle class="cls-5" cx="1350.49" cy="903.07" r="22.84"/>
    <circle class="cls-5" cx="1447.28" cy="846.94" r="22.84"/>
    <circle class="cls-5" cx="1574.79" cy="801.32" r="22.84"/>
    <circle class="cls-5" cx="1886.4" cy="592.75" r="22.84"/>
    <circle class="cls-5" cx="1726.71" cy="824.1" r="22.84"/>
    <circle class="cls-5" cx="1964.44" cy="678.86" r="22.84"/>
    <circle class="cls-5" cx="1658.3" cy="941.94" r="22.84"/>
    <circle class="cls-5" cx="1515.57" cy="1100.81" r="22.84"/>
    <circle class="cls-5" cx="1658.3" cy="1085.7" r="22.84"/>
    <circle class="cls-5" cx="1587.31" cy="1021.91" r="22.84"/>
    <circle class="cls-5" cx="2246.92" cy="954.27" r="22.84"/>
    <circle class="cls-5" cx="2342.42" cy="1032.66" r="22.84"/>
    <circle class="cls-5" cx="2422.65" cy="1124.98" r="22.84"/>
    <circle class="cls-5" cx="2319.58" cy="1217.62" r="22.84" transform="translate(746.13 3312.21) rotate(-80.78)"/>
    <circle class="cls-5" cx="1891.18" cy="1145.62" r="22.84"/>
    <circle class="cls-5" cx="1804.95" cy="1240.46" r="22.84"/>
    <circle class="cls-5" cx="1929.7" cy="1318.29" r="22.84"/>
    <circle class="cls-5" cx="2407.2" cy="1288.66" r="22.84"/>
    <circle class="cls-5" cx="2296.75" cy="1398.92" r="22.84"/>
    <circle class="cls-5" cx="1996.67" cy="1426.69" r="22.84"/>
    <circle class="cls-5" cx="1776.12" cy="1405.39" r="22.84"/>
    <circle class="cls-5" cx="1884.71" cy="1531.76" r="22.84"/>
    <circle class="cls-5" cx="2208.02" cy="1492.92" r="22.84"/>
    <circle class="cls-5" cx="2286.95" cy="1592.87" r="22.84"/>
    <circle class="cls-5" cx="2407.2" cy="1641.11" r="22.84"/>
    <circle class="cls-5" cx="2286.49" cy="1718.19" r="22.84"/>
    <circle class="cls-5" cx="2382.61" cy="1798.15" r="22.84"/>
    <circle class="cls-5" cx="2379.48" cy="1984.95" r="22.84"/>
    <circle class="cls-5" cx="2286.49" cy="1898.74" r="22.84"/>
    <circle class="cls-5" cx="2101.02" cy="1892.22" r="22.84"/>
    <circle class="cls-5" cx="1973.84" cy="1718.19" r="22.84"/>
    <circle class="cls-5" cx="1991.78" cy="1815.65" r="22.84"/>
    <circle class="cls-5" cx="1866.13" cy="1812.32" r="22.84"/>
    <circle class="cls-5" cx="2101.02" cy="2240.64" r="22.84"/>
    <circle class="cls-5" cx="1727.81" cy="1875.9" r="22.84"/>
    <circle class="cls-5" cx="1789.17" cy="1980.43" r="22.84"/>
    <circle class="cls-5" cx="1709.82" cy="2007.79" r="22.84"/>
    <circle class="cls-5" cx="1538.64" cy="2010.19" r="22.84"/>
    <circle class="cls-5" cx="1547.87" cy="2127.85" r="22.84"/>
    <circle class="cls-5" cx="1625.52" cy="2226.29" r="22.84"/>
    <circle class="cls-5" cx="1669.29" cy="2479.34" r="22.84"/>
    <circle class="cls-5" cx="1547.87" cy="2386.86" r="22.84"/>
    <circle class="cls-5" cx="1344.59" cy="2196.39" r="22.84"/>
    <circle class="cls-5" cx="1410.74" cy="2272.63" r="22.84"/>
    <circle class="cls-5" cx="1334.71" cy="2401.85" r="22.84"/>
    <circle class="cls-5" cx="1492.33" cy="2644.37" r="22.84"/>
    <circle class="cls-5" cx="1277.33" cy="2325.52" r="22.84"/>
    <circle class="cls-5" cx="1334.71" cy="2640.87" r="22.84"/>
    <circle class="cls-5" cx="1255.98" cy="2564.78" r="22.84"/>
    <circle class="cls-5" cx="1250.87" cy="2719.15" r="22.84"/>
    <circle class="cls-5" cx="978.54" cy="2549.35" r="22.84"/>
    <circle class="cls-5" cx="1022.09" cy="2479.34" r="22.84"/>
    <circle class="cls-5" cx="1128.49" cy="2369.3" r="22.84"/>
    <circle class="cls-5" cx="1167.49" cy="2266.4" r="22.84" transform="translate(-1256.66 3055.78) rotate(-80.78)"/>
    <circle class="cls-5" cx="999.25" cy="2031.91" r="22.84"/>
    <circle class="cls-5" cx="1036.6" cy="2106.62" r="22.84"/>
    <circle class="cls-5" cx="1019.61" cy="2250.15" r="22.84"/>
    <circle class="cls-5" cx="907.26" cy="2106.62" r="22.84"/>
    <circle class="cls-5" cx="780.9" cy="2150.69" r="22.84"/>
    <circle class="cls-5" cx="387.91" cy="2266.4" r="22.84"/>
    <circle class="cls-5" cx="833.93" cy="1852.37" r="22.84"/>
    <circle class="cls-5" cx="622.41" cy="2128.72" r="22.84"/>
    <circle class="cls-5" cx="686.36" cy="2004.89" r="22.84"/>
    <circle class="cls-5" cx="692.98" cy="1875.2" r="22.84"/>
    <circle class="cls-5" cx="762.43" cy="1934.12" r="22.84"/>
    <circle class="cls-5" cx="548.82" cy="1705.89" r="22.84"/>
    <circle class="cls-5" cx="467.5" cy="1803.3" r="22.84"/>
    <circle class="cls-5" cx="410.75" cy="1624.42" r="22.84"/>
    <circle class="cls-5" cx="574.9" cy="1545.61" r="22.84" transform="translate(-1042.85 1865.51) rotate(-80.78)"/>
    <circle class="cls-5" cx="352.53" cy="1520.52" r="22.84"/>
    <circle class="cls-5" cx="465.44" cy="1420.13" r="22.84"/>
    <circle class="cls-5" cx="237.93" cy="1055.82" r="22.84"/>
    <circle class="cls-5" cx="375.36" cy="1138.94" r="22.84"/>
    <circle class="cls-5" cx="387.91" cy="1232.83" r="22.84"/>
    <circle class="cls-5" cx="260.77" cy="709.97" r="22.84"/>
    <circle class="cls-5" cx="489.27" cy="1131.08" r="22.84"/>
    <circle class="cls-5" cx="618.7" cy="1067.86" r="22.84"/>
    <circle class="cls-5" cx="564.27" cy="971.4" r="22.84" transform="translate(-484.98 1372.78) rotate(-80.78)"/>
    <circle class="cls-5" cx="647.78" cy="948.57" r="22.84"/>
    <circle class="cls-5" cx="819.67" cy="931.56" r="22.84"/>
    <circle class="cls-5" cx="806.57" cy="815.46" r="22.84"/>
    <circle class="cls-5" cx="744.93" cy="751.22" r="22.84"/>
    <circle class="cls-5" cx="693.45" cy="484.05" r="22.84"/>
    <circle class="cls-5" cx="807.85" cy="555.57" r="22.84"/>
    <circle class="cls-5" cx="1099.11" cy="231.85" r="22.84"/>
    <circle class="cls-5" cx="1020.06" cy="309.1" r="22.84"/>
    <circle class="cls-5" cx="1076.93" cy="618.07" r="22.84"/>
    <circle class="cls-5" cx="998.35" cy="563.83" r="22.84"/>
    <circle class="cls-5" cx="938.33" cy="687.24" r="22.84"/>
    <circle class="cls-5" cx="1008.21" cy="751.22" r="22.84"/>
  </g>
  <path class="cls-3" d="M1260.5-6L0,721.76v1455.49l1260.5,727.76,1260.5-727.76V721.76L1260.5-6ZM2414.83,2115.96l-1154.33,666.44L106.17,2115.96V783.04L1260.5,116.6l1154.33,666.44v1332.91h0Z"/>
</svg>