<?xml version="1.0" encoding="UTF-8"?>
<svg id="Layer_1" data-name="Layer 1" xmlns="http://www.w3.org/2000/svg" viewBox="0 0 2206 2557">
  <defs>
    <style>
      .cls-1 {
        fill: #193dad;
      }

      .cls-2 {
        fill: none;
        stroke: #0aadff;
        stroke-linejoin: round;
        stroke-width: 15px;
      }

      .cls-3 {
        fill: #0b1b50;
      }

      .cls-4 {
        fill-rule: evenodd;
      }

      .cls-4, .cls-5 {
        fill: #23f5eb;
      }
    </style>
  </defs>
  <polygon class="cls-1" points="1100.21 52.66 2163.21 663.17 2166 1889 1105.79 2504.34 42.79 1893.83 40 668 1100.21 52.66"/>
  <g>
    <path id="Shape" class="cls-4" d="M1250,1726.4l-75.9-63.7-84.9,101.2-46.5-39,202.8-241.7,166,139.3-202.8,241.7-43.6-36.6,84.9-101.2h0ZM1257.3,1563.6l-50.1,59.8,75.9,63.7,50.1-59.8-75.9-63.7h0Z"/>
    <path id="path1" class="cls-4" d="M1073.6,1409.5l-62.8-52.7,34.7-41.4,166,139.3-34.7,41.4-56.7-47.6-168.1,200.3-46.5-39,168.1-200.3Z"/>
    <path id="path2" class="cls-4" d="M850.1,1390.9l-75.9-63.7-84.9,101.2-46.5-39,202.8-241.7,166,139.3-202.8,241.7-43.6-36.6,84.9-101.2h0ZM857.4,1228l-50.1,59.8,75.9,63.7,50.1-59.8-75.9-63.7Z"/>
    <path id="path3" class="cls-4" d="M443.7,1222.2l202.8-241.7,148.5,124.6-.3,35.9-167.2,199.3-35.1,6.7-148.6-124.7-.1-.1ZM734.1,1124.6l-75.9-63.7-133.3,158.9,75.9,63.7,133.3-158.9Z"/>
    <path id="Text" class="cls-4" d="M1484.8,1328.7l-62.8-52.7,34.7-41.4,166,139.3-34.7,41.4-56.7-47.6-168.1,200.3-46.5-39,168.1-200.3h0Z"/>
    <path id="path4" class="cls-4" d="M1215.4,1238l-1.5-1.3,42.8-170,46.5,39-26.9,108.2,102.8-44.6,43.6,36.6-162,69.7,1.5,1.3-42.8,170-46.5-39,26.9-108.2-102.8,44.6-43.6-36.6,162-69.7h0Z"/>
    <path id="path5" class="cls-4" d="M1067.8,978.8l-50.1,59.8,119.5,100.3-33,39.4-119.5-100.3-50.1,59.8,119.5,100.3-34.7,41.4-166-139.3,202.8-241.7,166,139.3-34.7,41.4-119.5-100.3-.2-.1Z"/>
    <path id="path6" class="cls-4" d="M885,825.4l-62.8-52.7,34.7-41.4,166,139.3-34.7,41.4-56.7-47.6-168.1,200.3-46.5-39,168.1-200.3Z"/>
  </g>
  <g>
    <g>
      <polyline class="cls-2" points="1181.29 96.96 1121.2 157.05 1121.2 206.03"/>
      <polyline class="cls-2" points="1251.99 137.36 1197.45 191.89 1197.45 273.69"/>
      <line class="cls-2" x1="1258.05" y1="182.8" x2="1293.39" y2="147.46"/>
      <polyline class="cls-2" points="1414.58 228.25 1383.27 259.56 1332.78 259.56"/>
      <polyline class="cls-2" points="1473.16 263.6 1418.12 318.64 1332.78 318.64"/>
      <polyline class="cls-2" points="1530.22 298.29 1453.16 375.35 1303.7 375.35 1161.73 517.32 1121.2 517.32 1040.1 598.43"/>
      <polyline class="cls-2" points="1560.22 312.77 1468.59 404.4 1325.42 404.4 1177.11 552.71 1151.25 552.71 1100.21 603.74 1100.21 771 1123.12 793.91 1190.95 793.91"/>
      <polyline class="cls-2" points="1594.35 332.43 1481.57 445.21 1330.21 445.21 1161.82 613.61"/>
      <polyline class="cls-2" points="1622.28 350.01 1496.09 476.2 1402.97 476.2 1139.73 739.44"/>
      <polyline class="cls-2" points="1655.38 369.66 1514.19 510.86 1445.4 510.86 1326.19 630.07 1326.19 685.15 1266.59 744.75"/>
      <polyline class="cls-2" points="1690.55 389.32 1532.68 547.18 1473.16 547.18 1378.27 642.07 1378.27 704.8"/>
      <line class="cls-2" x1="1752.18" y1="421.13" x2="1651.19" y2="522.12"/>
      <line class="cls-2" x1="1784.81" y1="448.36" x2="1511.33" y2="721.84"/>
      <line class="cls-2" x1="1840.38" y1="476.69" x2="1719.54" y2="597.54"/>
      <polyline class="cls-2" points="1888.89 502.27 1749.97 641.19 1651.19 641.19 1532.6 759.78 1443.47 759.78 1326.4 876.85 1326.4 967.1"/>
      <polyline class="cls-2" points="1926.82 522.12 1776.87 672.06 1671.03 672.06 1515.14 827.96 1451.41 827.96"/>
      <polyline class="cls-2" points="1955.92 547.06 1790.45 712.54 1701.68 712.54 1509.21 905 1451.41 905 1451.41 953.87"/>
      <polyline class="cls-2" points="1988.56 563.13 1813.53 738.16 1723.95 738.16 1448.08 1014.04 1389.23 955.19 1389.23 894.77"/>
      <polyline class="cls-2" points="2030.01 585.1 1838.13 776.98 1741.59 776.98 1564.23 954.35 1564.23 990.03 1523.25 1031 1523.25 1117.92 1562.91 1157.58 1690.55 1157.58"/>
      <polyline class="cls-2" points="2062.65 609 1727.04 944.61 1648.07 944.61 1579.85 1012.83 1579.85 1089"/>
      <polyline class="cls-2" points="2094.4 623.99 1712.05 1006.35 1655.38 1006.35"/>
      <line class="cls-2" x1="2149.09" y1="656.63" x2="1966.95" y2="838.76"/>
      <line class="cls-2" x1="2164.08" y1="793.91" x2="2050.59" y2="907.41"/>
      <polyline class="cls-2" points="2157.91 939.76 2088.23 939.76 2055.92 972.06 1955.92 972.06 1694.12 1233.87 1554.6 1233.87"/>
      <line class="cls-2" x1="2164.08" y1="988.27" x2="2120.86" y2="988.27"/>
      <polyline class="cls-2" points="2164.08 1043.83 2094.4 1043.83 2061.31 1010.75 1974.45 1010.75 1916.89 1068.3 1916.89 1180.55 1844.92 1252.52 1747.77 1252.52"/>
      <line class="cls-2" x1="2164.08" y1="1069.41" x2="2030.01" y2="1069.41"/>
      <line class="cls-2" x1="2164.08" y1="1131.63" x2="2107.33" y2="1131.63"/>
      <polyline class="cls-2" points="2164.08 1173.34 2107.33 1173.34 2052.47 1228.2 2007.49 1228.2"/>
      <polyline class="cls-2" points="2170.2 1256.8 2097.05 1256.8 2055.35 1298.5 1976.03 1298.5 1964 1310.53 1932.88 1310.53"/>
      <polyline class="cls-2" points="2157.91 1384.59 2068.62 1384.59 2055.14 1398.07 2007.49 1398.07"/>
      <line class="cls-2" x1="2164.08" y1="1440.32" x2="2107.33" y2="1440.32"/>
      <line class="cls-2" x1="2164.08" y1="1577.86" x2="2085.79" y2="1577.86"/>
      <polyline class="cls-2" points="2164.08 1678.55 2097.05 1678.55 2024.4 1605.9 2024.4 1530.22 2002.01 1507.83"/>
      <line class="cls-2" x1="2164.08" y1="1741.47" x2="2082.7" y2="1741.47"/>
      <polyline class="cls-2" points="2164.08 1780.13 2056.93 1780.13 2001.61 1724.8 2001.61 1665.96"/>
      <polyline class="cls-2" points="2157.91 1864.2 1990.41 1864.2 1936.69 1810.48 1936.69 1701.92 1912.13 1677.36 1912.13 1637.19 1954.87 1594.46 1954.87 1563.6 1913.25 1521.98 1913.25 1423.24 1863.73 1373.73 1751.29 1373.73 1722.11 1344.55 1649.71 1344.55"/>
      <polyline class="cls-2" points="2111.42 1909.4 1961.74 1909.4 1839.16 1786.82 1839.16 1660.25"/>
      <polyline class="cls-2" points="2039.96 1945.13 1946.29 1945.13 1779.78 1778.61 1779.78 1558.86 1723.49 1502.58"/>
      <polyline class="cls-2" points="1984.92 1975.06 1927.94 1975.06 1746.88 1794 1746.88 1703.71 1633.44 1590.27"/>
      <line class="cls-2" x1="1903.81" y1="2025.28" x2="1840.1" y2="1961.57"/>
      <polyline class="cls-2" points="1864.21 2054.25 1717.43 1907.47 1717.43 1741.47 1553.06 1577.1 1594.63 1535.53 1681.7 1535.53 1735.62 1589.45"/>
      <polyline class="cls-2" points="1809.18 2082.25 1674.46 1947.54 1674.46 1752.96 1608.45 1686.95 1553.06 1686.95 1512.29 1646.18"/>
      <polyline class="cls-2" points="1729.98 2126.67 1650.25 2046.95 1650.25 1904.57 1566.03 1820.34 1566.03 1737.51"/>
      <polyline class="cls-2" points="1700.04 2142.13 1617.48 2059.56 1617.48 1920.99 1496.53 1800.04 1496.53 1763.58"/>
      <polyline class="cls-2" points="1665.28 2167.23 1583.2 2085.15 1583.2 1945.13 1401.65 1763.58 1346.61 1763.58"/>
      <polyline class="cls-2" points="1617 2190.41 1517.53 2090.94 1517.53 1975.06 1409.09 1866.63 1351.44 1866.63"/>
      <polyline class="cls-2" points="1574.51 2209.72 1463.45 2098.67 1463.45 1993.43 1416.51 1946.49"/>
      <line class="cls-2" x1="1528.15" y1="2241.59" x2="1461.04" y2="2174.48"/>
      <polyline class="cls-2" points="1484.22 2271.53 1379.2 2166.51 1379.2 2117.98 1354.69 2093.48"/>
      <polyline class="cls-2" points="1461.04 2283.11 1282.15 2104.22 1282.15 1965.41 1243.4 1926.66 1176.65 1926.66"/>
      <polyline class="cls-2" points="1432.55 2296.63 1234.59 2098.67 1234.59 1993.43"/>
      <polyline class="cls-2" points="1402.62 2315.95 1193.28 2106.61 1171.82 2106.61"/>
      <polyline class="cls-2" points="1364.96 2332.36 1351.62 2319.02 1306.05 2319.02"/>
      <polyline class="cls-2" points="1297.36 2384.51 1153.47 2240.62 1153.47 2154.68 1117.74 2118.95 1117.74 2039.76"/>
      <polyline class="cls-2" points="1211.5 2431.83 1168 2388.33 1168 2315.95"/>
      <polyline class="cls-2" points="1137.06 2473.35 1094.57 2430.86 1094.57 2384.51"/>
      <polyline class="cls-2" points="1171.82 2457.9 1132.49 2418.57 1132.49 2344.92 1099.04 2311.47 1099.04 2249.31"/>
      <polyline class="cls-2" points="1058.84 2454.04 987.38 2382.58 987.38 2078.1"/>
      <polyline class="cls-2" points="925.57 2392.23 925.57 2283.11 894.19 2251.73 894.19 2174.48"/>
      <polyline class="cls-2" points="730.51 2271.53 820.32 2271.53 856.05 2235.8"/>
      <polyline class="cls-2" points="618.49 2209.72 754.65 2209.72 894.91 2069.46 940.06 2069.46 1021.54 1987.98"/>
      <polyline class="cls-2" points="574.07 2182.5 730.51 2182.5 885.24 2027.77 905.3 2027.77 950.3 1982.77 950.3 1808 924.9 1782.6 865.7 1782.6"/>
      <polyline class="cls-2" points="544.13 2170.13 574.07 2140.2 724.71 2140.2 892.02 1972.89"/>
      <polyline class="cls-2" points="519.99 2153.71 568.17 2105.54 649.39 2105.54 906.9 1848.03"/>
      <polyline class="cls-2" points="485.23 2135.37 543.31 2077.28 618.49 2077.28 736.23 1959.54 736.23 1907.47 793.62 1850.08"/>
      <polyline class="cls-2" points="456.26 2113.16 527.23 2042.18 584.69 2042.18 682.95 1943.92 682.95 1881.39"/>
      <line class="cls-2" x1="355.83" y1="2060.04" x2="548.48" y2="1867.39"/>
      <line class="cls-2" x1="298.85" y1="2028.18" x2="338.75" y2="1988.28"/>
      <polyline class="cls-2" points="255.4 2000.87 305.96 1950.31 403.15 1950.31 528.38 1825.08 610.77 1825.08 729.39 1706.45 729.39 1625.35"/>
      <polyline class="cls-2" points="212.91 1972.89 277.01 1908.8 383.83 1908.8 533.69 1758.93 600.14 1758.93"/>
      <polyline class="cls-2" points="180.08 1963.72 272.66 1871.13 355.83 1871.13 547.69 1679.27 605.94 1679.27 605.94 1640.94"/>
      <polyline class="cls-2" points="150.14 1945.13 253.47 1841.8 327.82 1841.8 584.69 1584.93 629.11 1584.93 666.77 1622.59 666.77 1697.92"/>
      <polyline class="cls-2" points="110.55 1912.3 224.44 1798.41 318.8 1798.41 496.27 1620.94 496.27 1590.73 536.62 1550.38 536.62 1468.09 494.23 1425.7 367.42 1425.7"/>
      <polyline class="cls-2" points="77.71 1896.84 332.65 1641.91 406.53 1641.91 479.68 1568.76 479.68 1497.06"/>
      <polyline class="cls-2" points="41.02 1881.39 340.05 1582.37 406.53 1582.37"/>
      <polyline class="cls-2" points="41.02 1614.87 110.55 1614.87 368.73 1356.68 504.54 1356.68"/>
      <polyline class="cls-2" points="41.02 1574.99 77.71 1574.99 144.56 1508.14 144.56 1399.55 209.41 1334.7 307.76 1334.7"/>
      <polyline class="cls-2" points="41.02 731.3 71.07 731.3 115.59 775.82 115.59 883 142.06 909.47 142.06 956.79 105.87 992.98 105.87 1023.62 139.13 1056.88 139.13 1155.89 194.21 1210.97 307.76 1210.97 343.58 1246.78 406.62 1246.78"/>
      <polyline class="cls-2" points="41.02 679.31 96.18 679.31 207.39 790.53 207.39 927.7"/>
      <polyline class="cls-2" points="98.78 624.79 278.58 804.59 278.58 1024.64 336.67 1082.73"/>
      <polyline class="cls-2" points="124.21 604.02 314.01 793.82 314.01 880.1 427.52 993.61"/>
      <line class="cls-2" x1="174.94" y1="574.59" x2="226.64" y2="626.3"/>
      <polyline class="cls-2" points="217.72 552.09 343.46 677.83 343.46 842.89 505.43 1004.85 463.57 1046.71 368.8 1046.71 316.72 994.63"/>
      <polyline class="cls-2" points="271.87 523.53 387.84 639.5 387.84 834.23 451.32 897.71 500.35 897.71 540.88 938.24"/>
      <polyline class="cls-2" points="346.3 476.79 411.64 542.14 411.64 681.91 493.21 763.48 493.21 853.76"/>
      <polyline class="cls-2" points="386.11 459.48 447.99 521.37 447.99 655.95 566.35 774.3 566.35 831.64"/>
      <polyline class="cls-2" points="419.76 436.12 477.42 493.78 477.42 645.56 650.73 818.87 716.9 818.87"/>
      <polyline class="cls-2" points="460.54 416.21 540.6 496.27 540.6 612.67 645.1 717.18 702.87 717.18"/>
      <polyline class="cls-2" points="501.22 394.57 593.39 486.75 593.39 604.88 642.51 654"/>
      <line class="cls-2" x1="548.82" y1="369.66" x2="596.33" y2="417.17"/>
      <polyline class="cls-2" points="596.33 340.92 676.48 421.07 676.48 459.48 706.55 489.56"/>
      <polyline class="cls-2" points="620.65 316.68 778.6 474.63 778.6 621.33 818.2 660.92 882.03 660.92"/>
      <polyline class="cls-2" points="651.44 308.89 820.83 478.28 820.83 604.88"/>
      <line class="cls-2" x1="675.18" y1="298.29" x2="872.13" y2="495.24"/>
      <polyline class="cls-2" points="785.96 228.25 901.14 343.43 901.14 429.19 942.22 470.26 942.22 544.3"/>
      <line class="cls-2" x1="892.41" y1="172.15" x2="892.41" y2="273.69"/>
      <line class="cls-2" x1="961.65" y1="130.61" x2="961.65" y2="206.03"/>
      <polyline class="cls-2" points="984.15 121.09 1066.44 203.37 1066.44 502.27"/>
    </g>
    <circle class="cls-5" cx="1121.2" cy="206.03" r="20"/>
    <circle class="cls-5" cx="1197.45" cy="273.69" r="20"/>
    <circle class="cls-5" cx="1258.05" cy="182.8" r="20"/>
    <circle class="cls-5" cx="1332.78" cy="259.56" r="20"/>
    <circle class="cls-5" cx="1332.78" cy="318.29" r="20"/>
    <circle class="cls-5" cx="1066.44" cy="502.27" r="20"/>
    <circle class="cls-5" cx="1040.1" cy="598.43" r="20"/>
    <circle class="cls-5" cx="1161.82" cy="613.61" r="20"/>
    <circle class="cls-5" cx="1141.82" cy="734.69" r="20"/>
    <circle class="cls-5" cx="1181.82" cy="793.91" r="20"/>
    <circle class="cls-5" cx="1266.59" cy="744.75" r="20"/>
    <circle class="cls-5" cx="1378.27" cy="704.8" r="20"/>
    <circle class="cls-5" cx="1651.19" cy="522.12" r="20"/>
    <circle class="cls-5" cx="1511.33" cy="724.75" r="20"/>
    <circle class="cls-5" cx="1719.54" cy="597.54" r="20"/>
    <circle class="cls-5" cx="1451.41" cy="827.96" r="20"/>
    <circle class="cls-5" cx="1326.4" cy="967.1" r="20"/>
    <circle class="cls-5" cx="1451.41" cy="953.87" r="20"/>
    <circle class="cls-5" cx="1389.23" cy="898" r="20"/>
    <circle class="cls-5" cx="1966.95" cy="838.76" r="20"/>
    <circle class="cls-5" cx="2050.59" cy="907.41" r="20"/>
    <circle class="cls-5" cx="2120.86" cy="988.27" r="20"/>
    <circle class="cls-5" cx="2030.59" cy="1069.41" r="20"/>
    <circle class="cls-5" cx="1655.38" cy="1006.35" r="20"/>
    <circle class="cls-5" cx="1579.85" cy="1089.41" r="20"/>
    <circle class="cls-5" cx="1689.11" cy="1157.58" r="20"/>
    <circle class="cls-5" cx="2107.33" cy="1131.63" r="20"/>
    <circle class="cls-5" cx="2010.59" cy="1228.2" r="20"/>
    <circle class="cls-5" cx="1747.77" cy="1252.52" r="20"/>
    <circle class="cls-5" cx="1554.6" cy="1233.87" r="20"/>
    <circle class="cls-5" cx="1649.71" cy="1344.55" r="20"/>
    <circle class="cls-5" cx="1932.88" cy="1310.53" r="20"/>
    <circle class="cls-5" cx="2002.01" cy="1398.07" r="20"/>
    <circle class="cls-5" cx="2107.33" cy="1440.32" r="20"/>
    <circle class="cls-5" cx="2001.61" cy="1507.83" r="20"/>
    <circle class="cls-5" cx="2085.79" cy="1577.86" r="20"/>
    <circle class="cls-5" cx="2083.05" cy="1741.47" r="20"/>
    <circle class="cls-5" cx="2001.61" cy="1665.96" r="20"/>
    <circle class="cls-5" cx="1839.16" cy="1660.25" r="20"/>
    <circle class="cls-5" cx="1727.77" cy="1507.83" r="20"/>
    <circle class="cls-5" cx="1743.49" cy="1593.19" r="20"/>
    <circle class="cls-5" cx="1633.44" cy="1590.27" r="20"/>
    <circle class="cls-5" cx="1839.16" cy="1965.41" r="20"/>
    <circle class="cls-5" cx="1512.29" cy="1645.96" r="20"/>
    <circle class="cls-5" cx="1566.03" cy="1737.51" r="20"/>
    <circle class="cls-5" cx="1496.53" cy="1761.47" r="20"/>
    <circle class="cls-5" cx="1346.61" cy="1763.58" r="20"/>
    <circle class="cls-5" cx="1354.69" cy="1866.63" r="20"/>
    <circle class="cls-5" cx="1422.7" cy="1952.85" r="20"/>
    <circle class="cls-5" cx="1461.04" cy="2174.48" r="20"/>
    <circle class="cls-5" cx="1354.69" cy="2093.48" r="20"/>
    <circle class="cls-5" cx="1176.65" cy="1926.66" r="20"/>
    <circle class="cls-5" cx="1234.59" cy="1993.43" r="20"/>
    <circle class="cls-5" cx="1168" cy="2106.61" r="20"/>
    <circle class="cls-5" cx="1306.05" cy="2319.02" r="20"/>
    <circle class="cls-5" cx="1117.74" cy="2039.76" r="20"/>
    <circle class="cls-5" cx="1168" cy="2315.95" r="20"/>
    <circle class="cls-5" cx="1099.04" cy="2249.31" r="20"/>
    <circle class="cls-5" cx="1094.57" cy="2384.51" r="20"/>
    <circle class="cls-5" cx="856.05" cy="2235.8" r="20"/>
    <circle class="cls-5" cx="894.19" cy="2174.48" r="20"/>
    <circle class="cls-5" cx="987.38" cy="2078.1" r="20"/>
    <circle class="cls-5" cx="1021.54" cy="1987.98" r="20"/>
    <circle class="cls-5" cx="874.19" cy="1782.6" r="20"/>
    <circle class="cls-5" cx="906.9" cy="1848.03" r="20"/>
    <circle class="cls-5" cx="892.02" cy="1973.74" r="20"/>
    <circle class="cls-5" cx="793.62" cy="1848.03" r="20"/>
    <circle class="cls-5" cx="682.95" cy="1886.63" r="20"/>
    <circle class="cls-5" cx="338.75" cy="1987.98" r="20"/>
    <circle class="cls-5" cx="729.39" cy="1625.35" r="20"/>
    <circle class="cls-5" cx="544.13" cy="1867.39" r="20"/>
    <circle class="cls-5" cx="600.14" cy="1758.93" r="20"/>
    <circle class="cls-5" cx="605.94" cy="1645.35" r="20"/>
    <circle class="cls-5" cx="666.77" cy="1696.95" r="20"/>
    <circle class="cls-5" cx="479.68" cy="1497.06" r="20"/>
    <circle class="cls-5" cx="408.46" cy="1582.37" r="20"/>
    <circle class="cls-5" cx="358.75" cy="1425.7" r="20"/>
    <circle class="cls-5" cx="502.52" cy="1356.68" r="20"/>
    <circle class="cls-5" cx="307.76" cy="1334.7" r="20"/>
    <circle class="cls-5" cx="406.65" cy="1246.78" r="20"/>
    <circle class="cls-5" cx="207.39" cy="927.7" r="20"/>
    <circle class="cls-5" cx="327.76" cy="1000.5" r="20"/>
    <circle class="cls-5" cx="338.75" cy="1082.73" r="20"/>
    <circle class="cls-5" cx="227.39" cy="624.79" r="20"/>
    <circle class="cls-5" cx="427.52" cy="993.61" r="20"/>
    <circle class="cls-5" cx="540.88" cy="938.24" r="20"/>
    <circle class="cls-5" cx="493.21" cy="853.76" r="20"/>
    <circle class="cls-5" cx="566.35" cy="833.76" r="20"/>
    <circle class="cls-5" cx="716.9" cy="818.87" r="20"/>
    <circle class="cls-5" cx="705.43" cy="717.18" r="20"/>
    <circle class="cls-5" cx="651.44" cy="660.92" r="20"/>
    <circle class="cls-5" cx="606.35" cy="426.92" r="20"/>
    <circle class="cls-5" cx="706.55" cy="489.56" r="20"/>
    <circle class="cls-5" cx="961.65" cy="206.03" r="20"/>
    <circle class="cls-5" cx="892.41" cy="273.69" r="20"/>
    <circle class="cls-5" cx="942.22" cy="544.3" r="20"/>
    <circle class="cls-5" cx="873.4" cy="496.79" r="20"/>
    <circle class="cls-5" cx="820.83" cy="604.88" r="20"/>
    <circle class="cls-5" cx="882.03" cy="660.92" r="20"/>
  </g>
  <path class="cls-3" d="M1103-2.29L-1,635.11v1274.78l1104,637.4,1104-637.4V635.11L1103-2.29ZM2114.01,1856.21l-1011.01,583.7L91.99,1856.21V688.79L1103,105.09l1011.01,583.7v1167.42Z"/>
</svg>