<?xml version="1.0" encoding="UTF-8"?>
<svg id="Layer_1" data-name="Layer 1" xmlns="http://www.w3.org/2000/svg" xmlns:xlink="http://www.w3.org/1999/xlink" viewBox="0 0 2206 2557">
  <defs>
    <style>
      .cls-1 {
        fill: #333a25;
      }

      .cls-2, .cls-3, .cls-4, .cls-5, .cls-6, .cls-7, .cls-8, .cls-9, .cls-10, .cls-11, .cls-12, .cls-13, .cls-14, .cls-15, .cls-16, .cls-17, .cls-18, .cls-19, .cls-20, .cls-21, .cls-22, .cls-23, .cls-24 {
        stroke-miterlimit: 10;
      }

      .cls-2, .cls-3, .cls-4, .cls-5, .cls-6, .cls-7, .cls-8, .cls-9, .cls-10, .cls-11, .cls-12, .cls-13, .cls-14, .cls-16, .cls-17, .cls-18, .cls-19, .cls-20, .cls-21, .cls-22, .cls-23, .cls-24 {
        stroke: #4b2500;
      }

      .cls-2, .cls-3, .cls-5, .cls-6, .cls-8, .cls-9, .cls-12, .cls-17, .cls-22 {
        stroke-width: 7px;
      }

      .cls-2, .cls-4, .cls-5, .cls-7, .cls-8, .cls-11, .cls-12, .cls-13, .cls-14, .cls-15 {
        fill: none;
      }

      .cls-2, .cls-25, .cls-6, .cls-7, .cls-8, .cls-26 {
        fill-rule: evenodd;
      }

      .cls-3, .cls-25, .cls-27 {
        fill: #bf6300;
      }

      .cls-28 {
        fill: #a2c7b1;
      }

      .cls-29 {
        fill: url(#linear-gradient);
      }

      .cls-30, .cls-6, .cls-26, .cls-20, .cls-21, .cls-22, .cls-23, .cls-24 {
        fill: #f0aa14;
      }

      .cls-4 {
        stroke-width: 8.4px;
      }

      .cls-4, .cls-5, .cls-7, .cls-8 {
        stroke-linecap: round;
      }

      .cls-7 {
        stroke-width: 6.56px;
      }

      .cls-9 {
        fill: #426b67;
      }

      .cls-10 {
        fill: #87470e;
        stroke-width: 6px;
      }

      .cls-11, .cls-19, .cls-20 {
        stroke-width: 7.18px;
      }

      .cls-13, .cls-18, .cls-24 {
        stroke-width: 6.88px;
      }

      .cls-14, .cls-16, .cls-23 {
        stroke-width: 6.8px;
      }

      .cls-15 {
        stroke: #02836e;
        stroke-width: .25px;
      }

      .cls-31, .cls-16, .cls-17, .cls-18, .cls-19 {
        fill: #d27407;
      }

      .cls-32 {
        fill: #4b2500;
      }

      .cls-21 {
        stroke-width: 8px;
      }
    </style>
    <linearGradient id="linear-gradient" x1="1101.5" y1="2475" x2="1101.5" y2="248.03" gradientUnits="userSpaceOnUse">
      <stop offset=".3" stop-color="#47a9bc"/>
      <stop offset="1" stop-color="#1685a3"/>
    </linearGradient>
  </defs>
  <path class="cls-29" d="M2152,667.75v1205.5l-286.74,164.54-56.87,32.64-11.14,6.39-.91.52-54.94,31.53-115.64,66.36-23.29,13.36-.04.02h0s-1.19.69-1.19.69h-.01l-42.41,24.34-19.78,11.35-8,4.59-148.68,85.32-9.01,5.17-14.97,8.59-59.92,34.38-51.65,29.64h-.03l-143.42,82.32-6.29-1.53-36.25-20.8-77.39-44.4-23.81-13.67-114.93-65.94-34.69-19.9-58.43-33.53-11.95-6.86-21.83-12.52h0s-23.73-13.62-23.73-13.62l-43.62-25.03-90.15-51.72h-.03l-11.58-6.67-18.9-10.84-50.52-28.99-63.19-36.26-42.71-24.51-68.3-39.18-254.06-145.78V667.75c84.86-47.94,169.47-96.31,253.97-144.9h.01c14.14-8.12,28.27-16.26,42.4-24.39,12.05-6.95,24.1-13.89,36.15-20.84,16.89-9.74,33.78-19.49,50.67-29.25,9.48-5.47,18.95-10.95,28.43-16.43h.01c22.25-12.85,44.49-25.72,66.74-38.59,28.53-16.5,57.06-33,85.59-49.51,53.47-30.92,106.95-61.83,160.47-92.67,85.78-49.42,171.66-98.67,257.75-147.53,10.16-5.77,63.88-38.03,70.16-37.62,6.24.4,58.29,31.85,68.46,37.62,126.82,71.95,253.23,144.68,379.52,217.63,36.44,21.05,72.87,42.12,109.29,63.19,67.53,39.07,135.04,78.17,202.59,117.2,20.14,11.64,40.28,23.27,60.42,34.89,76.04,43.88,152.15,87.65,228.37,131.2Z"/>
  <g>
    <polygon class="cls-3" points="1605.97 757.24 1538.95 767.5 1037.45 545.44 596.76 911.71 513.52 924.45 1021.53 494.48 1605.97 757.24"/>
    <polygon class="cls-3" points="1538.95 767.5 1492.63 774.59 1059.75 585.25 680.97 898.82 596.76 911.71 1037.45 545.44 1538.95 767.5"/>
    <polygon class="cls-30" points="1498.99 772.64 674.61 898.82 1059.33 580.34 1498.99 772.64"/>
    <line class="cls-15" x1="680.97" y1="898.82" x2="680.96" y2="898.83"/>
    <polygon class="cls-3" points="2173.61 1422.51 2169.54 1464.88 1698.33 793.87 1711.07 747.69 2173.61 1422.51"/>
    <polygon class="cls-3" points="2169.54 1464.88 2153 1884.41 2015.09 1971.22 424.34 984.97 1698.33 793.87 2169.54 1464.88"/>
    <path class="cls-22" d="M1018.34,437.15l-594,508.01v39.81l1273.99-191.1,12.74-46.18-692.73-310.54ZM1538.95,767.5l-46.32,7.09-811.66,124.23-84.21,12.89-83.24,12.74,508.01-429.97,584.44,262.76-67.02,10.26Z"/>
  </g>
  <g>
    <polygon class="cls-22" points="1652.1 1006.7 1652.1 1054.61 518.44 1210.41 518.44 1167.34 533.93 1165.15 1649.79 1007.03 1652.1 1006.7"/>
    <polygon class="cls-3" points="2148.79 1598.11 1649.84 1003.43 1652.1 839.78 2143.5 1466.52 2148.79 1598.11"/>
    <polygon class="cls-3" points="2157.92 1651.08 1818.12 1250.38 1709.51 1122.31 1652.1 1054.61 1652.1 1006.7 1649.79 1007.03 1649.84 1003.43 2148.79 1598.11 2157.92 1651.08"/>
    <polygon class="cls-3" points="719.48 1245.72 862.43 1351.44 789.64 1359.14 518.44 1210.41 1652.1 1054.61 1709.51 1122.31 719.48 1245.72"/>
    <polygon class="cls-10" points="1818.12 1250.38 862.43 1351.44 719.48 1245.72 1709.51 1122.31 1818.12 1250.38"/>
    <polygon class="cls-22" points="1652.1 839.78 1649.84 1003.43 1649.79 1007.03 533.93 1165.15 533.93 1012.24 1652.1 839.78"/>
    <polygon class="cls-27" points="1652.1 839.78 1651.46 886.01 533.93 1049.99 533.93 1012.24 1652.1 839.78"/>
    <line class="cls-22" x1="533.93" y1="1165.15" x2="533.93" y2="1012.24"/>
    <polygon class="cls-12" points="1652.1 839.78 1649.84 1003.43 1649.79 1007.03 533.93 1165.15 533.93 1012.24 1652.1 839.78"/>
  </g>
  <g>
    <polygon class="cls-30" points="785.31 1517.93 783.32 1562.55 27.87 1635.52 27.42 1576.33 785.31 1517.93"/>
    <polygon class="cls-27" points="783.32 1562.55 781.04 1613.76 731.83 1618.18 731.82 1618.18 671.18 1623.62 623.25 1627.92 535.63 1635.78 51 1679.27 28.21 1681.32 27.87 1635.52 51 1633.29 538.78 1586.17 623.83 1577.96 670.59 1573.44 732.94 1567.42 783.32 1562.55"/>
    <path class="cls-30" d="M510.52,2166.71h0l29.87-.74,19.86-.49h.03l90.15,51.72,43.62,25.03c-7.57.11-15.14.23-22.71.34,14.46,8.66,28.92,17.33,43.38,26,.92.54,1.84,1.09,2.75,1.64l-.03,1.31,33.44,19v-.28s.68-15.01.68-15.01l.31-6.96,1.2-26.93,1.16-26.14,2.44-54.6,2.31-51.92,1.89-42.36,2.14-48.16,18.02-404.4-49.21,4.42h-.01l-60.64,5.44-47.93,4.3-87.62,7.86-484.63,43.49v193.98l254.06,145.78c-.59,14.08-1.18,28.17-1.78,42.26l12.21-.54-1.91,25.21,102.49-3.24,63.19,36.26,31.26,47.73Z"/>
    <polyline class="cls-12" points="27.86 1635.52 27.87 1635.52 783.32 1562.55"/>
    <polygon class="cls-9" points="358.35 1742.44 353.16 1895.57 296.06 1902.06 302.35 1747.26 358.35 1742.44"/>
    <path class="cls-12" d="M510.52,2166.71h0l29.87-.74,19.86-.49h.03l90.15,51.72,43.62,25.03c-7.57.11-15.14.23-22.71.34,14.46,8.66,28.92,17.33,43.38,26,.92.54,1.84,1.09,2.75,1.64l-.03,1.31,33.44,19v-.28s.68-15.01.68-15.01l.31-6.96,1.2-26.93,1.16-26.14,2.44-54.6,2.31-51.92,1.89-42.36,2.14-48.16,18.02-404.4,2.28-51.21,1.99-44.62-51.37,3.96-63.9,4.92-45.64,3.52-82.48,6.35-490.92,37.83-23.58,1.82.44,59.19.35,45.8,22.79-2.05v193.98l254.06,145.78c-.59,14.08-1.18,28.17-1.78,42.26l12.21-.54-1.91,25.21,102.49-3.24,63.19,36.26"/>
  </g>
  <g>
    <path class="cls-3" d="M2153,1902.24l-321.23,185.46s-.01.01-.01,0l-23.66,13.67-.85.49-66.31,38.28h0s-115.19,66.51-115.19,66.51l-16.89,9.75-7.52,4.34h-.01s-7.35,4.25-7.35,4.25l-157.98,91.21h-.01l-54.31,31.36-83.47,48.2-179.67,103.73-11.91-6.77-45.98-26.13-77.48-44.04-48.87-27.78-116.32-66.11-8.16-4.64-49.42-28.09s-.04-.03-.07-.04l-9.44-5.37-33.44-19,.03-1.31.04-1.66.27-12.7h0s.31-13.99.31-13.99l.57-25.97,1.2-54.37,1.13-51.56.92-41.8.04-1.76h0s1.02-46.16,1.02-46.16h0s1.05-47.56,1.05-47.56l7.79-354.5,1.12-50.76,1-45.53,3.04-137.95h0s1.11-50.62,1.11-50.62l83.81-9.96,25.94-3.08,55.97-6.65,17.68-2.1,41.23-4.9,241.11-28.66,73.68-8.75,41.25-4.9,213.94-25.43h.01l61.84-7.35,11.63-1.38,19.97-2.37,21.17-2.52h.01l107.13-12.73,3.78-.45,57.47,65.43,333,379.11,3.29,188.36,1,57.25Z"/>
    <polygon class="cls-12" points="2153 1902.24 1808.1 2101.37 1815.71 1277.52 2148.71 1656.63 2153 1902.24"/>
    <polygon class="cls-12" points="1815.71 1277.52 1808.1 2101.37 1740.94 2140.15 1754.46 1212.54 1758.24 1212.09 1815.71 1277.52"/>
    <path class="cls-12" d="M1626.15,1227.79l-.11,255.73-.02,60.14-.04,93.35v22.88s-.01,2.73-.01,2.73l-.03,71.14v34.79s-.01,1.36-.01,1.36l-.02,27.21v28.6s-.04,82.85-.04,82.85v24.11s-.02,17.44-.02,17.44v2.73l-.02,44.06v10.63l-.03,77.53h0s-.04,90.16-.04,90.16v31.42s-16.9,9.75-16.9,9.75l-7.52,4.34h-.01s-7.35,4.25-7.35,4.25l-157.98,91.21h-.01l-54.31,31.36.25-12.32.14-6.58.19-9.15.1-4.61,1.06-51.62.65-31.48.09-4.42.51-24.29,1.2-58.1,1.19-57.54,1.05-50.9.48-23.25.57-27.61.59-28.36,13.58-656.92,126.67-13.97h.01l64.54-7.12v-47.78l11.63-1.38,19.97-2.37Z"/>
    <polygon class="cls-12" points="1403.33 1300.41 1381.68 2347.56 1298.21 2395.76 1306.64 1311.08 1403.33 1300.41"/>
    <path class="cls-12" d="M1276.91,1314.36l-75.76,8.36-126.32,13.94-6.08,484.31-1.58,126.33-.69,55.12-.16,12.59-.47,36.83-.58,46.49-.49,39.42-.19,15.21-.71,56.29-.34,27.4-.37,29.16-.79,62.85-.82,65.26-.74,58.75-.17,13.92,45.98,26.13,11.91,6.77,179.67-103.73.1-12.68.15-20.04.27-34.38.5-64.71.24-30.87.22-28.36.45-57.6.44-56.74h0s.12-15.31.12-15.31l.27-34.38.33-42.81.06-7.64.3-38.04h0s.15-19.9.15-19.9l.17-21.69h0s4.66-599.53,4.66-599.53l-29.73,3.28ZM1110.89,1407.44l85.75-9.61,36.49-4.09v614.32l-23.34,1.14-73.25,3.59-32.59,1.59.16-13.91,6.78-593.03Z"/>
    <polygon class="cls-12" points="1003.04 1344.57 983.17 2422.55 809.82 2324.02 821.9 1323.36 903.81 1313.63 901.2 1355.81 1003.04 1344.57"/>
    <path class="cls-12" d="M821.9,1323.36l-2.08,172.33-4.12,341.26-1.14,94.44h0s-.16,13.25-.16,13.25l-.31,25.7h0s-.36,29.78-.36,29.78h0s-.19,15.42-.19,15.42l-.58,48.3-.08,6.4-.44,36.63-.63,52.36-.66,54.88-.32,26.35-.33,27.35-.5,40.95-.18,15.26-49.42-28.09s-.04-.03-.07-.04l-9.44-5.37-33.44-19,.03-1.31.04-1.66.27-12.7h0s.31-13.99.31-13.99l.57-25.97,1.2-54.37,1.13-51.56.92-41.8.04-1.76h0s1.02-46.16,1.02-46.16h0s1.05-47.56,1.05-47.56l7.8-354.5,1.11-50.76,1-45.53,3.04-137.95h0s1.11-50.62,1.11-50.62l83.81-9.96Z"/>
    <polygon class="cls-12" points="1594.55 1231.54 1594.55 1279.32 1403.33 1300.41 1306.64 1311.08 1074.83 1336.66 1003.04 1344.57 901.2 1355.81 903.81 1313.63 1594.55 1231.54"/>
    <polygon class="cls-1" points="1233.13 1393.74 1233.13 2008.06 1103.95 2014.38 1110.89 1407.44 1233.13 1393.74"/>
    <g>
      <polygon class="cls-27" points="1754.46 1212.54 1748.7 1607.69 1626.04 1483.52 1626.04 1483.51 1626.15 1227.79 1754.46 1212.54"/>
      <polygon class="cls-30" points="1748.7 1607.69 1740.94 2140.15 1625.75 2206.65 1626.04 1483.52 1748.7 1607.69"/>
      <polygon class="cls-12" points="1754.46 1212.54 1740.94 2140.15 1625.75 2206.65 1626.04 1483.52 1626.15 1227.79 1754.46 1212.54"/>
    </g>
    <g>
      <polygon class="cls-27" points="821.9 1323.36 819.82 1495.69 736.98 1383.94 736.98 1383.93 738.09 1333.32 821.9 1323.36"/>
      <path class="cls-30" d="M819.82,1495.69l-4.12,341.26-1.14,94.44h0s-.16,13.25-.16,13.25l-.31,25.7h0s-.36,29.78-.36,29.78h0s-.19,15.42-.19,15.42l-.58,48.3-.08,6.4-.44,36.63-.63,52.36-.66,54.88-.32,26.35-.33,27.35-.5,40.95-.18,15.26-49.42-28.09s-.04-.03-.07-.04l-9.44-5.37-33.44-19,.03-1.31.04-1.66.27-12.7h0s.31-13.99.31-13.99l.57-25.97,1.2-54.37,1.13-51.56.92-41.8.04-1.76h0s1.02-46.16,1.02-46.16h0s1.05-47.56,1.05-47.56l7.8-354.5,1.11-50.76,1-45.53,3.04-137.95,82.84,111.75Z"/>
      <path class="cls-12" d="M821.9,1323.36l-2.08,172.33-4.12,341.26-1.14,94.44h0s-.16,13.25-.16,13.25l-.31,25.7h0s-.36,29.78-.36,29.78h0s-.19,15.42-.19,15.42l-.58,48.3-.08,6.4-.44,36.63-.63,52.36-.66,54.88-.32,26.35-.33,27.35-.5,40.95-.18,15.26-49.42-28.09s-.04-.03-.07-.04l-9.44-5.37-33.44-19,.03-1.31.04-1.66.27-12.7h0s.31-13.99.31-13.99l.57-25.97,1.2-54.37,1.13-51.56.92-41.8.04-1.76h0s1.02-46.16,1.02-46.16h0s1.05-47.56,1.05-47.56l7.8-354.5,1.11-50.76,1-45.53,3.04-137.95h0s1.11-50.62,1.11-50.62l83.81-9.96Z"/>
    </g>
    <g>
      <polygon class="cls-27" points="1074.83 1336.66 1068.75 1820.97 995.99 1727.09 1003.04 1344.57 1074.83 1336.66"/>
      <polygon class="cls-30" points="1068.75 1820.97 1060.65 2466.59 983.17 2422.55 995.99 1727.09 1068.75 1820.97"/>
      <polygon class="cls-12" points="1074.83 1336.66 1060.65 2466.59 983.17 2422.55 1003.04 1344.57 1074.83 1336.66"/>
    </g>
  </g>
  <g>
    <g>
      <g>
        <path class="cls-22" d="M1319.88,1141.83c-7.17,9.07-18.35,10.47-29.8,11.74-20.87,2.3-22.94-4.29-41.23-3.01-26.13,1.82-37.6,8.35-47.25,13.54-16.4,8.82-26.95,7.11-34.31,2.11-1.14-.78-2.13-1.65-2.99-2.57l-.57-.63c-3.55-4.14-4.62-8.95-4.86-10.05-2.62-11.8,4.67-25.47,18.35-34l131.82-17.46c1.53.57,9.2,3.54,13.74,11.19.6,1,1.14,2.09,1.61,3.26,5.24,13.12-3.77,24.94-4.51,25.88Z"/>
        <path class="cls-17" d="M1367.4,1194.41c-7.17,9.07-18.35,10.47-29.8,11.73-20.86,2.3-22.94-4.28-41.23-3.01-26.13,1.83-37.6,8.36-47.25,13.55-16.4,8.82-26.95,7.1-34.3,2.1-1.07-.73-2.01-1.54-2.83-2.4h-.01l-.75-.83-46.93-51.91c.86.92,1.85,1.79,2.99,2.57,7.36,5,17.91,6.71,34.31-2.11,9.65-5.19,21.12-11.72,47.25-13.54,18.29-1.28,20.36,5.31,41.23,3.01,11.45-1.27,22.63-2.67,29.8-11.74.74-.94,9.75-12.76,4.51-25.88-.47-1.17-1.01-2.26-1.61-3.26h.01l40.81,45.23h.01s6.82,7.58,6.82,7.58l.03.04c.54.93,1.03,1.92,1.45,2.99,5.24,13.12-3.77,24.94-4.51,25.88Z"/>
      </g>
      <g>
        <path class="cls-31" d="M1335.99,1192.84c.25,21.8-35.79,43.76-69.75,43.78,5.63-20.8,13.01-54.89,12.01-58.29-2.24-7.56-7.45-11.73-28.69-27.7,6.68-.77,13.35-.94,19.63-.44,29.58,2.35,66.54,20.72,66.8,42.65Z"/>
        <path class="cls-30" d="M1266.24,1236.62c-2.15.01-4.29-.08-6.41-.26-33.41-2.83-68.93-29.37-65.93-52.01,2.4-18.12,29.08-30.68,55.66-33.72,21.24,15.97,26.45,20.14,28.69,27.7,1,3.4-6.38,37.49-12.01,58.29Z"/>
        <path class="cls-12" d="M1335.99,1192.84c-.26-21.93-37.21-40.3-66.8-42.65-31.27-2.48-72.29,11.49-75.29,34.16-3,22.63,32.52,49.17,65.93,52.01,35.67,3.02,76.43-20.34,76.16-43.52Z"/>
      </g>
      <g>
        <path class="cls-31" d="M1269.64,1930.42c3.19-227.79,5.32-488.47,8.61-713.92-7.91-8.02-15.82-16.04-23.72-24.06,4.03-.16,8.27,0,12.68.58,31.13,4.09,48.12,26.06,51.09,30.05,2.63,236.88,5.26,473.77,7.89,710.65-18.85-1.1-37.7-2.2-56.55-3.3Z"/>
        <path class="cls-30" d="M1278.25,1216.5c-3.29,225.45-5.42,486.13-8.61,713.92-34.87-2.03-69.73-4.06-104.59-6.09,14.27-237.88,28.55-475.77,42.82-713.66,3.1-2.64,20.71-17.17,46.66-18.23,7.9,8.02,15.81,16.04,23.72,24.06Z"/>
        <path class="cls-12" d="M1318.3,1223.07c-2.97-3.99-19.95-25.96-51.08-30.05-32.82-4.32-55.77,14.6-59.35,17.65-14.27,237.89-28.55,475.77-42.82,713.66,53.71,3.13,107.42,6.26,161.14,9.39-2.63-236.89-5.26-473.77-7.89-710.66Z"/>
      </g>
      <g>
        <path class="cls-31" d="M1269.3,2011.98c5.79-29.66,13.6-74.29,10.98-85.2-2.31-9.65-6.16-17.55-10.06-23.68,28.23,4.59,67.14,15.82,71.12,38.12,4.17,23.39-30.05,59.27-72.04,70.76Z"/>
        <path class="cls-30" d="M1269.3,2011.98c-12.57,3.45-25.84,4.7-38.99,2.78-47.51-6.95-89.67-54.87-80.66-83.51,9.37-29.76,72.21-32.93,102.96-30.36,4.87.41,10.94,1.12,17.61,2.21,3.9,6.13,7.75,14.03,10.06,23.68,2.62,10.91-5.19,55.54-10.98,85.2Z"/>
        <path class="cls-12" d="M1341.34,1941.22c-4.92-27.57-63.23-38.2-88.73-40.33-30.75-2.56-93.59.6-102.96,30.37-9.01,28.64,33.14,76.56,80.66,83.51,57.03,8.34,116.45-43.15,111.03-73.54Z"/>
      </g>
      <g>
        <path class="cls-31" d="M1295.26,2077.53c.83-19.18.55-40.76-1.75-64.23-2.37-24.27-6.47-46.07-11.13-64.99,30.1,5.04,75.65,17.1,81.73,44.63,5.93,26.8-26,66.34-68.85,84.59Z"/>
        <path class="cls-30" d="M1295.26,2077.53c-15.71,6.7-32.88,10.53-50.2,9.83-66.94-2.72-124.77-72.71-112.49-108.66,11.88-34.75,88.97-36.66,123.84-33.69,2.75.24,12.91,1.1,25.97,3.3,4.66,18.92,8.76,40.72,11.13,64.99,2.3,23.47,2.58,45.05,1.75,64.23Z"/>
        <path class="cls-12" d="M1132.57,1978.7c11.88-34.76,88.97-36.66,123.84-33.69,9.09.78,98.98,8.45,107.71,47.92,8.1,36.63-54.48,97.04-119.06,94.42-66.93-2.72-124.77-72.71-112.49-108.65Z"/>
      </g>
    </g>
    <g>
      <g>
        <path class="cls-23" d="M669.07,1233.22c-7.17,8.57-18.35,9.89-29.8,11.09-20.87,2.17-22.94-4.05-41.23-2.84-26.13,1.72-37.6,7.89-47.25,12.79-16.4,8.33-26.95,6.72-34.31,1.99-1.14-.74-2.13-1.56-2.99-2.43l-.57-.6c-3.55-3.91-4.62-8.46-4.86-9.5-2.62-11.15,4.67-24.06,18.35-32.12l131.82-16.5c1.53.54,9.2,3.34,13.74,10.57.6.94,1.14,1.97,1.61,3.08,5.24,12.4-3.77,23.56-4.51,24.45Z"/>
        <path class="cls-16" d="M716.59,1282.9c-7.17,8.57-18.35,9.89-29.8,11.08-20.86,2.17-22.94-4.04-41.23-2.84-26.13,1.73-37.6,7.9-47.25,12.8-16.4,8.33-26.95,6.71-34.3,1.98-1.07-.69-2.01-1.46-2.83-2.27h-.01l-.75-.78-46.93-49.05c.86.87,1.85,1.69,2.99,2.43,7.36,4.72,17.91,6.34,34.31-1.99,9.65-4.9,21.12-11.07,47.25-12.79,18.29-1.21,20.36,5.02,41.23,2.84,11.45-1.2,22.63-2.52,29.8-11.09.74-.89,9.75-12.06,4.51-24.45-.47-1.11-1.01-2.14-1.61-3.08h.01l40.81,42.73h.01s6.82,7.16,6.82,7.16l.03.04c.54.88,1.03,1.81,1.45,2.83,5.24,12.4-3.77,23.56-4.51,24.45Z"/>
      </g>
      <g>
        <path class="cls-31" d="M685.18,1281.41c.25,20.6-35.79,41.35-69.75,41.36,5.63-19.65,13.01-51.86,12.01-55.07-2.24-7.14-7.45-11.08-28.69-26.17,6.68-.73,13.35-.89,19.63-.42,29.58,2.22,66.54,19.58,66.8,40.3Z"/>
        <path class="cls-30" d="M615.43,1322.78c-2.15,0-4.29-.08-6.41-.25-33.41-2.67-68.93-27.75-65.93-49.14,2.4-17.12,29.08-28.99,55.66-31.86,21.24,15.09,26.45,19.03,28.69,26.17,1,3.21-6.38,35.42-12.01,55.07Z"/>
        <path class="cls-14" d="M685.18,1281.41c-.26-20.72-37.21-38.08-66.8-40.3-31.27-2.35-72.29,10.86-75.29,32.28-3,21.39,32.52,46.46,65.93,49.14,35.67,2.86,76.43-19.22,76.16-41.12Z"/>
      </g>
      <g>
        <path class="cls-31" d="M618.83,1978.3c3.19-215.22,5.32-461.52,8.61-674.53-7.91-7.58-15.82-15.16-23.72-22.73,4.03-.15,8.27,0,12.68.55,31.13,3.86,48.12,24.62,51.09,28.39,2.63,223.81,5.26,447.63,7.89,671.44-18.85-1.04-37.7-2.08-56.55-3.12Z"/>
        <path class="cls-30" d="M627.44,1303.77c-3.29,213.01-5.42,459.31-8.61,674.53-34.87-1.92-69.73-3.84-104.59-5.75,14.27-224.76,28.55-449.52,42.82-674.29,3.1-2.49,20.71-16.22,46.66-17.22,7.9,7.58,15.81,15.16,23.72,22.73Z"/>
        <path class="cls-14" d="M667.49,1309.97c-2.97-3.77-19.95-24.52-51.08-28.39-32.82-4.08-55.77,13.8-59.35,16.68-14.27,224.76-28.55,449.53-42.82,674.29,53.71,2.96,107.42,5.91,161.14,8.87-2.63-223.82-5.26-447.63-7.89-671.45Z"/>
      </g>
      <g>
        <path class="cls-31" d="M618.49,2055.36c5.79-28.02,13.6-70.19,10.98-80.5-2.31-9.12-6.16-16.58-10.06-22.37,28.23,4.34,67.14,14.95,71.12,36.02,4.17,22.1-30.05,56-72.04,66.86Z"/>
        <path class="cls-30" d="M618.49,2055.36c-12.57,3.26-25.84,4.44-38.99,2.63-47.51-6.57-89.67-51.84-80.66-78.9,9.37-28.12,72.21-31.11,102.96-28.68,4.87.39,10.94,1.06,17.61,2.09,3.9,5.79,7.75,13.26,10.06,22.37,2.62,10.31-5.19,52.48-10.98,80.5Z"/>
        <path class="cls-14" d="M690.53,1988.5c-4.92-26.05-63.23-36.1-88.73-38.11-30.75-2.42-93.59.57-102.96,28.69-9.01,27.06,33.14,72.34,80.66,78.9,57.03,7.88,116.45-40.77,111.03-69.49Z"/>
      </g>
      <g>
        <path class="cls-31" d="M644.45,2117.3c.83-18.12.55-38.51-1.75-60.69-2.37-22.93-6.47-43.53-11.13-61.4,30.1,4.76,75.65,16.16,81.73,42.17,5.93,25.32-26,62.68-68.85,79.92Z"/>
        <path class="cls-30" d="M644.45,2117.3c-15.71,6.33-32.88,9.95-50.2,9.29-66.94-2.57-124.77-68.7-112.49-102.67,11.88-32.83,88.97-34.64,123.84-31.83,2.75.23,12.91,1.04,25.97,3.12,4.66,17.88,8.76,38.47,11.13,61.4,2.3,22.18,2.58,42.56,1.75,60.69Z"/>
        <path class="cls-14" d="M481.77,2023.92c11.88-32.84,88.97-34.64,123.84-31.83,9.09.73,98.98,7.98,107.71,45.28,8.1,34.61-54.48,91.69-119.06,89.21-66.93-2.57-124.77-68.7-112.49-102.66Z"/>
      </g>
    </g>
    <g>
      <g>
        <path class="cls-24" d="M963.85,1189.53c-7.17,8.75-18.35,10.1-29.8,11.32-20.87,2.22-22.94-4.14-41.23-2.9-26.13,1.76-37.6,8.05-47.25,13.06-16.4,8.51-26.95,6.86-34.31,2.04-1.14-.75-2.13-1.59-2.99-2.48l-.57-.61c-3.55-3.99-4.62-8.63-4.86-9.69-2.62-11.38,4.67-24.57,18.35-32.8l131.82-16.84c1.53.55,9.2,3.41,13.74,10.79.6.96,1.14,2.02,1.61,3.14,5.24,12.66-3.77,24.06-4.51,24.96Z"/>
        <path class="cls-18" d="M1011.37,1240.25c-7.17,8.75-18.35,10.1-29.8,11.31-20.86,2.22-22.94-4.13-41.23-2.9-26.13,1.77-37.6,8.06-47.25,13.07-16.4,8.51-26.95,6.85-34.3,2.03-1.07-.7-2.01-1.49-2.83-2.32h-.01l-.75-.8-46.93-50.07c.86.89,1.85,1.73,2.99,2.48,7.36,4.82,17.91,6.47,34.31-2.04,9.65-5.01,21.12-11.31,47.25-13.06,18.29-1.23,20.36,5.12,41.23,2.9,11.45-1.23,22.63-2.58,29.8-11.32.74-.91,9.75-12.31,4.51-24.96-.47-1.13-1.01-2.18-1.61-3.14h.01l40.81,43.63h.01s6.82,7.31,6.82,7.31l.03.04c.54.9,1.03,1.85,1.45,2.88,5.24,12.66-3.77,24.06-4.51,24.96Z"/>
      </g>
      <g>
        <path class="cls-31" d="M979.96,1238.74c.25,21.03-35.79,42.21-69.75,42.23,5.63-20.06,13.01-52.95,12.01-56.23-2.24-7.29-7.45-11.31-28.69-26.72,6.68-.74,13.35-.91,19.63-.42,29.58,2.27,66.54,19.99,66.8,41.14Z"/>
        <path class="cls-30" d="M910.21,1280.97c-2.15,0-4.29-.08-6.41-.25-33.41-2.73-68.93-28.33-65.93-50.17,2.4-17.48,29.08-29.59,55.66-32.53,21.24,15.4,26.45,19.43,28.69,26.72,1,3.28-6.38,36.16-12.01,56.23Z"/>
        <path class="cls-13" d="M979.96,1238.74c-.26-21.15-37.21-38.87-66.8-41.14-31.27-2.4-72.29,11.08-75.29,32.95-3,21.83,32.52,47.43,65.93,50.17,35.67,2.92,76.43-19.62,76.16-41.98Z"/>
      </g>
      <g>
        <path class="cls-31" d="M913.61,1950.21c3.19-219.73,5.32-471.18,8.61-688.65-7.91-7.74-15.82-15.47-23.72-23.21,4.03-.15,8.27,0,12.68.56,31.13,3.95,48.12,25.14,51.09,28.99,2.63,228.5,5.26,457,7.89,685.5-18.85-1.06-37.7-2.12-56.55-3.18Z"/>
        <path class="cls-30" d="M922.22,1261.56c-3.29,217.47-5.42,468.92-8.61,688.65-34.87-1.96-69.73-3.92-104.59-5.87,14.27-229.46,28.55-458.93,42.82-688.4,3.1-2.55,20.71-16.56,46.66-17.58,7.9,7.74,15.81,15.47,23.72,23.21Z"/>
        <path class="cls-13" d="M962.27,1267.89c-2.97-3.84-19.95-25.04-51.08-28.99-32.82-4.16-55.77,14.08-59.35,17.03-14.27,229.47-28.55,458.94-42.82,688.4,53.71,3.02,107.42,6.04,161.14,9.06-2.63-228.5-5.26-457-7.89-685.5Z"/>
      </g>
      <g>
        <path class="cls-31" d="M913.27,2028.88c5.79-28.61,13.6-71.66,10.98-82.18-2.31-9.31-6.16-16.93-10.06-22.84,28.23,4.43,67.14,15.26,71.12,36.77,4.17,22.56-30.05,57.17-72.04,68.26Z"/>
        <path class="cls-30" d="M913.27,2028.88c-12.57,3.33-25.84,4.53-38.99,2.68-47.51-6.7-89.67-52.93-80.66-80.55,9.37-28.71,72.21-31.76,102.96-29.29,4.87.4,10.94,1.08,17.61,2.13,3.9,5.91,7.75,13.53,10.06,22.84,2.62,10.52-5.19,53.57-10.98,82.18Z"/>
        <path class="cls-13" d="M985.31,1960.63c-4.92-26.59-63.23-36.85-88.73-38.9-30.75-2.47-93.59.58-102.96,29.29-9.01,27.62,33.14,73.85,80.66,80.55,57.03,8.04,116.45-41.62,111.03-70.94Z"/>
      </g>
      <g>
        <path class="cls-31" d="M939.23,2092.11c.83-18.5.55-39.32-1.75-61.96-2.37-23.41-6.47-44.44-11.13-62.69,30.1,4.86,75.65,16.49,81.73,43.05,5.93,25.85-26,63.99-68.85,81.6Z"/>
        <path class="cls-30" d="M939.23,2092.11c-15.71,6.46-32.88,10.16-50.2,9.48-66.94-2.62-124.77-70.14-112.49-104.81,11.88-33.52,88.97-35.36,123.84-32.5,2.75.23,12.91,1.06,25.97,3.18,4.66,18.25,8.76,39.28,11.13,62.69,2.3,22.64,2.58,43.46,1.75,61.96Z"/>
        <path class="cls-13" d="M776.54,1996.78c11.88-33.52,88.97-35.37,123.84-32.5,9.09.75,98.98,8.15,107.71,46.23,8.1,35.33-54.48,93.61-119.06,91.08-66.93-2.62-124.77-70.14-112.49-104.81Z"/>
      </g>
    </g>
    <g>
      <g>
        <path class="cls-20" d="M1648.49,1100.25c-7.17,9.55-18.35,11.03-29.8,12.37-20.87,2.42-22.94-4.52-41.23-3.17-26.13,1.92-37.6,8.8-47.25,14.26-16.4,9.29-26.95,7.49-34.31,2.22-1.14-.82-2.13-1.74-2.99-2.71l-.57-.66c-3.55-4.36-4.62-9.43-4.86-10.59-2.62-12.43,4.67-26.83,18.35-35.82l131.82-18.39c1.53.6,9.2,3.73,13.74,11.79.6,1.05,1.14,2.2,1.61,3.43,5.24,13.82-3.77,26.27-4.51,27.26Z"/>
        <path class="cls-19" d="M1696.01,1155.64c-7.17,9.55-18.35,11.03-29.8,12.36-20.86,2.42-22.94-4.51-41.23-3.17-26.13,1.93-37.6,8.81-47.25,14.27-16.4,9.29-26.95,7.48-34.3,2.21-1.07-.77-2.01-1.62-2.83-2.53h-.01l-.75-.87-46.93-54.68c.86.97,1.85,1.89,2.99,2.71,7.36,5.27,17.91,7.07,34.31-2.22,9.65-5.47,21.12-12.35,47.25-14.26,18.29-1.35,20.36,5.59,41.23,3.17,11.45-1.34,22.63-2.81,29.8-12.37.74-.99,9.75-13.44,4.51-27.26-.47-1.23-1.01-2.38-1.61-3.43h.01l40.81,47.65h.01s6.82,7.99,6.82,7.99l.03.04c.54.98,1.03,2.02,1.45,3.15,5.24,13.82-3.77,26.27-4.51,27.26Z"/>
      </g>
      <g>
        <path class="cls-31" d="M1664.6,1153.98c.25,22.96-35.79,46.1-69.75,46.12,5.63-21.91,13.01-57.82,12.01-61.4-2.24-7.96-7.45-12.36-28.69-29.18,6.68-.81,13.35-.99,19.63-.46,29.58,2.48,66.54,21.83,66.8,44.93Z"/>
        <path class="cls-30" d="M1594.85,1200.1c-2.15.01-4.29-.08-6.41-.27-33.41-2.98-68.93-30.94-65.93-54.79,2.4-19.09,29.08-32.32,55.66-35.52,21.24,16.82,26.45,21.22,28.69,29.18,1,3.58-6.38,39.49-12.01,61.4Z"/>
        <path class="cls-11" d="M1664.59,1153.98c-.26-23.1-37.21-42.45-66.8-44.93-31.27-2.62-72.29,12.1-75.29,35.99-3,23.84,32.52,51.8,65.93,54.79,35.67,3.19,76.43-21.43,76.16-45.85Z"/>
      </g>
      <g>
        <path class="cls-31" d="M1598.25,1930.98c3.19-239.96,5.32-514.57,8.61-752.07-7.91-8.45-15.82-16.9-23.72-25.35,4.03-.17,8.27,0,12.68.61,31.13,4.31,48.12,27.45,51.09,31.66,2.63,249.54,5.26,499.09,7.89,748.63-18.85-1.16-37.7-2.32-56.55-3.48Z"/>
        <path class="cls-30" d="M1606.86,1178.91c-3.29,237.5-5.42,512.11-8.61,752.07-34.87-2.14-69.73-4.28-104.59-6.42,14.27-250.59,28.55-501.19,42.82-751.8,3.1-2.78,20.71-18.09,46.66-19.2,7.9,8.45,15.81,16.9,23.72,25.35Z"/>
        <path class="cls-11" d="M1646.9,1185.83c-2.97-4.2-19.95-27.34-51.08-31.65-32.82-4.55-55.77,15.38-59.35,18.6-14.27,250.6-28.55,501.2-42.82,751.8,53.71,3.3,107.42,6.59,161.14,9.89-2.63-249.54-5.26-499.09-7.89-748.63Z"/>
      </g>
      <g>
        <path class="cls-31" d="M1597.91,2016.9c5.79-31.24,13.6-78.26,10.98-89.75-2.31-10.17-6.16-18.49-10.06-24.95,28.23,4.84,67.14,16.67,71.12,40.16,4.17,24.64-30.05,62.44-72.04,74.54Z"/>
        <path class="cls-30" d="M1597.91,2016.9c-12.57,3.63-25.84,4.95-38.99,2.93-47.51-7.32-89.67-57.8-80.66-87.97,9.37-31.35,72.21-34.69,102.96-31.98,4.87.43,10.94,1.18,17.61,2.33,3.9,6.46,7.75,14.78,10.06,24.95,2.62,11.49-5.19,58.51-10.98,89.75Z"/>
        <path class="cls-11" d="M1669.95,1942.35c-4.92-29.04-63.23-40.25-88.73-42.49-30.75-2.7-93.59.63-102.96,31.99-9.01,30.17,33.14,80.65,80.66,87.97,57.03,8.78,116.45-45.45,111.03-77.47Z"/>
      </g>
      <g>
        <path class="cls-31" d="M1623.87,2085.95c.83-20.21.55-42.94-1.75-67.66-2.37-25.57-6.47-48.53-11.13-68.46,30.1,5.31,75.65,18.01,81.73,47.01,5.93,28.23-26,69.89-68.85,89.11Z"/>
        <path class="cls-30" d="M1623.87,2085.95c-15.71,7.06-32.88,11.09-50.2,10.36-66.94-2.87-124.77-76.6-112.49-114.47,11.88-36.61,88.97-38.62,123.84-35.49,2.75.25,12.91,1.16,25.97,3.48,4.66,19.93,8.76,42.9,11.13,68.46,2.3,24.72,2.58,47.46,1.75,67.66Z"/>
        <path class="cls-11" d="M1461.18,1981.84c11.88-36.61,88.97-38.62,123.84-35.49,9.09.82,98.98,8.9,107.71,50.48,8.1,38.59-54.48,102.23-119.06,99.47-66.93-2.87-124.77-76.6-112.49-114.46Z"/>
      </g>
    </g>
  </g>
  <g>
    <path class="cls-25" d="M568.61,2048.18c-32.26-3.09-64.53-6.18-96.79-9.28.34-23.34.98-47.19,1.95-71.52,1.3-32.46,3.13-64.02,5.38-94.63,3.03,1.79,13.55,7.49,27.42,5.37,13.25-2.02,21.25-9.91,23.66-12.36,10.75-10.92,12.24-24.19,12.91-30.11,1.5-13.4-2.14-23.45-5.92-33.88-4.5-12.4-6.74-18.6-12.9-22.58-6.61-4.27-14.45-4.1-30.11-3.76-6.6.14-12.01.65-15.6,1.07-9.2-24.04-14.66-44.67-18-59.68-7.93-35.61-7.02-53.45-4.5-62.62,13.61-2.2,25.22,4.12,28.29,6.24,14.5,10.04,20.49,25.18,21.24,35.94.32,4.72-.67,12.53-4.91,19.61-1.73,2.88-4.66,1.71-6.53,4.35-1,1.42-2.24,4.13,0,15.8,1.39,7.21,2.5,10.59,3.27,12.52,1.43,3.64,15.96,4.71,25.05,7.08,16.69,4.35,27.21,23.98,32.67,45.74,8.33,33.17,9.51,61.07,8.17,72.43-1.32,11.25-3.61,20.42-5.44,26.69,2,5.32,5.94,12.96,6.76,22.87,1.93,23.49,1.7,36.53,3.04,53.91,1.29,16.79,1.81,40.16.89,70.8Z"/>
    <path class="cls-26" d="M543.14,1835.65c-.67,5.92-2.16,19.19-12.91,30.11-2.41,2.45-10.41,10.34-23.66,12.36-13.87,2.12-24.39-3.58-27.42-5.37-2.25,30.61-4.08,62.17-5.38,94.63-.97,24.33-1.61,48.18-1.95,71.52-39.74-3.8-79.47-7.61-119.21-11.42,0-20.05.57-36.95,1.35-47.92,3.05-42.82,4.12-64.71,8.14-87.66,1.23-7.08,5.62-10.78,12.84-11.45-1.2-3.91-2.25-9.64,0-15.25,2.77-6.93,8.63-8.86,16.34-14.7,3.71-2.82,15.48-11.75,20.69-24.51,4.06-9.95,3.09-10.82,3.81-34.31.22-7.24,3.16-14.26,7.08-20.69,2.44-4,5.43-8.78,11.44-11.98,6.69-3.58,13.28-3.13,16.21-2.74.04,0,.06-.05.03-.07-2.63-2.43-6.17-6.32-8.62-11.9-2.64-6.02-2.14-9.76-2.72-22.32-.71-15.3-1.06-22.95-3.27-29.95,0,0-5.31-8.74-3.52-17.28,2.07-9.8,10.34-16.59,18.22-19.21,1.85-.62,3.68-1.05,5.48-1.34-2.52,9.17-3.43,27.01,4.5,62.62,3.34,15.01,8.8,35.64,18,59.68,3.59-.42,9-.93,15.6-1.07,15.66-.34,23.5-.51,30.11,3.76,6.16,3.98,8.4,10.18,12.9,22.58,3.78,10.43,7.42,20.48,5.92,33.88Z"/>
    <path class="cls-25" d="M510.06,1806.53c.28,12.66.57,25.33.85,37.99-12.58,2.27-25.17,4.53-37.75,6.8-.62.11-.98-.66-.5-1.06,6-4.94,12.8-11.32,19.56-19.37,7.4-8.81,12.84-17.34,16.82-24.61.27-.49,1.01-.3,1.02.25Z"/>
    <path class="cls-2" d="M568.61,2048.18c-32.26-3.09-64.53-6.18-96.79-9.28-39.74-3.8-79.47-7.61-119.21-11.42,0-20.05.57-36.95,1.35-47.92,3.05-42.82,4.12-64.71,8.14-87.66,1.23-7.08,5.62-10.78,12.84-11.45-1.2-3.91-2.25-9.64,0-15.25,2.77-6.93,8.63-8.86,16.34-14.7,3.71-2.82,15.48-11.75,20.69-24.51,4.06-9.95,3.09-10.82,3.81-34.31.22-7.24,3.16-14.26,7.08-20.69,2.44-4,5.43-8.78,11.44-11.98,6.69-3.58,13.28-3.13,16.21-2.74.04,0,.06-.05.03-.07-2.63-2.43-6.17-6.32-8.62-11.9-2.64-6.02-2.14-9.76-2.72-22.32-.71-15.3-1.06-22.95-3.27-29.95,0,0-5.31-8.74-3.52-17.28,2.07-9.8,10.34-16.59,18.22-19.21,1.85-.62,3.68-1.05,5.48-1.34,13.61-2.2,25.22,4.12,28.29,6.24,14.5,10.04,20.49,25.18,21.24,35.94.32,4.72-.67,12.53-4.91,19.61-1.73,2.88-4.66,1.71-6.53,4.35-1,1.42-2.24,4.13,0,15.8,1.39,7.21,2.5,10.59,3.27,12.52,1.43,3.64,15.96,4.71,25.05,7.08,16.69,4.35,27.21,23.98,32.67,45.74,8.33,33.17,9.51,61.07,8.17,72.43-1.32,11.25-3.61,20.42-5.44,26.69,2,5.32,5.94,12.96,6.76,22.87,1.93,23.49,1.7,36.53,3.04,53.91,1.29,16.79,1.81,40.16.89,70.8Z"/>
    <path class="cls-6" d="M439.43,1738.61c-1.37-9.6-.47-10.65-.6-24.59-.11-11.59-3.05-11.87-3.15-23.24-.03-3.38,3.45-5.12,7.05-8.55,4.21-4.01,7.68-7.3,12.89-8.4,6.34-1.33,11.7,1.48,15.74,3.6,3.58,1.88,12.19,6.42,16.19,16.19,1.96,4.79,2.83,25.49,0,35.53-1.74,6.15-4.99,17.12-14.84,25.49-3.7,3.14-7.19,6.1-11.99,6.15-9.77.1-19.77-11.58-21.29-22.19Z"/>
    <path class="cls-8" d="M479.59,1704.08c-.14-1.5-1.21-2.74-2.27-3.82-2.27-2.29-4.87-4.41-7.99-5.23-1.69-.44-3.66-.41-4.95.76-1.22,1.11-1.49,2.9-1.68,4.54"/>
    <path class="cls-8" d="M437.69,1695.24c1.74-.14,3.49-.28,5.22-.04s3.45.9,4.67,2.14c1.82,1.84,2.25,4.61,2.49,7.18.37,3.9.51,7.83,1.27,11.68s2.18,7.65,4.78,10.58c1,1.13,2.37,2.17,3.86,1.97"/>
    <path class="cls-8" d="M475.41,1783.82c-5.63.07-11.12-2.27-15.52-5.78s-7.8-8.14-10.59-13.03"/>
    <path class="cls-8" d="M509.75,1799.51c.88,14.29.97,28.63.28,42.93"/>
    <path class="cls-8" d="M455.26,1855.68c-4.06-7.01-8-14.09-11.83-21.23-3.15-5.88-6.25-11.89-7.72-18.41-.35-1.55-.63-3.18-1.55-4.47"/>
    <path class="cls-8" d="M399.18,1846.57c3.46.44,6.85,1.31,10.22,2.18,9.51,2.45,19.53,5.18,26.37,12.23"/>
    <path class="cls-8" d="M559.15,1897.78l-7.24,12.06c-.95,1.59-1.91,3.18-3.07,4.62-1.59,1.96-3.55,3.62-5.76,4.85"/>
    <path class="cls-8" d="M521.1,1878.45c5.45,10.39,9.19,21.66,11.05,33.24.83,5.16,1.28,10.39,1.21,15.62-.21,15.69-5.11,31.36-2.66,46.86.75,4.77,2.19,9.39,3.69,13.98"/>
    <path class="cls-8" d="M416.76,1985.36c-10.7-17.81-19.93-36.75-24.43-57.03-2.06-9.29-3.12-18.83-6.04-27.89"/>
    <path class="cls-8" d="M472.38,1853.05c3.87.17,7.62-1.18,11.31-2.35,12.52-3.97,25.62-6.11,38.75-6.33"/>
    <path class="cls-8" d="M376.59,1879.3c4.11-1.01,7.87-3.11,11.87-4.47,7.14-2.43,15.39-2.36,21.87,1.49,1.77,1.05,3.39,2.36,5.22,3.3,4.49,2.29,9.8,2.13,14.84,1.88,2.94-.15,5.89-.3,8.83-.45,6.54-.34,13.08-.69,19.61-1.03"/>
    <path class="cls-8" d="M529.07,2015.66c-.19-5.09-2.76-9.73-4.78-14.4-2.79-6.44-4.62-13.24-6.44-20.01-3.43-12.77-6.87-25.57-9.03-38.63-3.16-19.1.44-38.56-5.47-56.99-2.13-6.64-5.72-12.05-10.87-16.76-2.14-1.96-4.33-3.88-6.7-5.56-10.95-7.74-25.77-9.7-38.36-5.05-11.52,4.25-20.72,13.56-26.61,24.35"/>
    <path class="cls-7" d="M439.51,1970.19c1.07-31.18,7.86-62.09,19.79-90.13,1.36-3.2,9.9-6.88,13.05-7.61,5.11-1.18,15.19.84,20.07,4.37,5.89,4.26,9.82,7.53,12.76,15.92"/>
  </g>
  <g>
    <path class="cls-26" d="M1672.97,1763.64c-1.78,8.64-3.49,16.45-10.11,22.74-5.43,5.18-11.84,7.1-26.11,9.27-11.1,1.69-26.41,3.44-45.07,3.79-.61,10.4-1.65,26.06-3.37,45.07-3.48,38.31-6.6,55.38-9.27,82.57-1.52,15.46-3.11,36.44-3.62,61.88-51.85-8.18-103.7-16.37-155.54-24.55,4.89-21.31,7.72-39.32,9.43-52.61,3.97-30.75,5.95-46.13,5.08-60.95-.52-8.88-1.79-20.05,1.82-34.84,3.61-14.85,6.14-19.19,7.98-21.04,10.9-10.99,30.56-6.25,33.74-5.44.97-17.54,1.94-35.08,2.9-52.61-2.69-1.79-6.67-4.9-10.16-9.8-9.45-13.3-7.12-28.46-6.53-32.29.64-4.11,2.24-10.96,6.9-18.51-1.1-10.8-.84-19.57-.37-25.76.41-5.26.95-8.23,2.91-11.24.42-.66,5.78-8.62,15.24-8.35.67.02,8.44.33,12.7,6.17,3.07,4.21,2.25,8.46,2.17,17.41-.04,5.29.16,12.99,1.41,22.5,1.09.82,7.38,5.69,8.39,14.51,1.13,9.92-5.34,16.59-6.17,17.42,4.23,4.96,8.47,9.92,12.7,14.88,3.2-3.89,7.76-10.1,11.61-18.51,7.61-16.62,5.21-26.05,12.7-36.64,3.44-4.87,9.71-11.05,22.13-15.24,4.11-8.47,8.23-16.94,12.34-25.4-1.6-2.17-3.87-5.6-5.81-10.16-1.06-2.49-3.99-9.97-3.99-29.03,0-5.81.28-13.76,1.45-23.22-1.52-1.12-4.96-3.97-6.16-8.71-1.73-6.75,2.31-12.5,3.99-14.87,7.32-10.41,20.68-12.06,25.03-12.34,4.79-.31,9.16.34,13.01,1.47,5.18,36.32,16,40.04,16.26,56.3.18,10.94-5.58,31.7-21.64,39.23-2.15,1-2.11,8.59-.84,16.42.74,4.55,1.83,11.35,6.74,15.17,3.71,2.88,7.48,2.43,23.17,1.26,21.51-1.6,23.55-1.42,26.11,0,7.31,4.04,9.61,13,12.22,23.17,2.58,10.07,2.29,15.78,2.95,29.49,1.53,31.88,4.82,36.18,1.68,51.39Z"/>
    <path class="cls-25" d="M1575.25,1751.8c7.03.8,19.03,1.06,31.8-4.57,30.73-13.55,37.3-48.6,37.91-52.16v68.29c-10.84,2.96-21.69,5.91-32.53,8.87-3.02.39-13.73,1.4-24.2-5.38-7.88-5.1-11.57-11.99-12.98-15.06Z"/>
    <path class="cls-25" d="M1550.05,1710.92c-5.65,9.59-11.29,19.18-16.94,28.77-8.96-9.77-17.92-19.54-26.88-29.3-.72,27.69-1.43,55.38-2.15,83.07,13.8,2.15,27.6,4.3,41.4,6.45,2.18-3.43,5.23-7.51,9.41-11.56,6.82-6.61,19.36-14.23,24.33-16.41-5.39-2.53-10.3-4.41-14.45-12.63-2.92-5.8-7.47-9.68-11.76-22.3-2.01-5.91-1.39-15.17-2.96-26.09Z"/>
    <path class="cls-25" d="M1709.42,1797.51c-3.64,11.64-7,21.22-9.44,27.94,4.4,2.97,9.77,7.69,12.7,14.87,2.12,5.2,2.18,9.73,2.18,11.61.02,11.56-.15,73.65-.73,158.92-46.24-7.3-92.47-14.59-138.71-21.89.51-25.44,2.1-46.42,3.62-61.88,2.67-27.19,5.79-44.26,9.27-82.57,1.72-19.01,2.76-34.67,3.37-45.07,18.66-.35,33.97-2.1,45.07-3.79,14.27-2.17,20.68-4.09,26.11-9.27,6.62-6.29,8.33-14.1,10.11-22.74,3.14-15.21-.15-19.51-1.68-51.39-.66-13.71-.37-19.42-2.95-29.49-2.61-10.17-4.91-19.13-12.22-23.17-2.56-1.42-4.6-1.6-26.11,0-15.69,1.17-19.46,1.62-23.17-1.26-4.91-3.82-6-10.62-6.74-15.17-1.27-7.83-1.31-15.42.84-16.42,16.06-7.53,21.82-28.29,21.64-39.23-.26-16.26-11.08-19.98-16.26-56.3,9.57,2.83,15.92,8.66,17.47,10.14,6.73,6.43,9.06,13.1,13.42,26.13,7.28,21.69,3.31,25.46,10.53,44.99,4.1,11.09,7.12,19.27,14.51,27.93,5.05,5.92,9.42,8.9,14.15,16.69,4.29,7.08,6.26,13.83,7.26,18.51,7.79,4.94,20.57,14.76,29.02,31.57,10.13,20.12,8.44,39.12,7.62,48.25-.9,10.18-4.23,20.82-10.88,42.09Z"/>
    <path class="cls-8" d="M1419.88,1964.41c4.89-21.32,7.72-39.32,9.43-52.61,3.97-30.76,5.95-46.14,5.08-60.96-.52-8.88-1.79-20.04,1.81-34.83,3.62-14.85,6.14-19.19,7.98-21.04,10.9-10.99,30.56-6.26,33.74-5.44.97-17.54,1.94-35.07,2.9-52.61-2.69-1.79-6.68-4.9-10.16-9.8-9.45-13.3-7.12-28.46-6.53-32.29.63-4.11,2.24-10.96,6.89-18.5-1.09-10.8-.84-19.58-.36-25.76.41-5.27.95-8.23,2.9-11.25.43-.66,5.79-8.62,15.24-8.35.68.02,8.44.33,12.7,6.17,3.07,4.21,2.26,8.46,2.18,17.42-.05,5.29.16,12.98,1.41,22.5,1.09.82,7.38,5.69,8.39,14.51,1.13,9.91-5.34,16.59-6.17,17.42,4.23,4.96,8.47,9.92,12.7,14.88,3.2-3.89,7.76-10.1,11.61-18.5,7.61-16.62,5.21-26.05,12.7-36.65,3.44-4.86,9.71-11.04,22.13-15.24,4.11-8.47,8.22-16.93,12.34-25.4-1.6-2.17-3.87-5.6-5.81-10.16-1.06-2.49-3.99-9.97-3.99-29.03,0-5.81.27-13.76,1.45-23.22-1.53-1.12-4.96-3.97-6.17-8.71-1.72-6.75,2.32-12.5,3.99-14.88,7.32-10.41,20.68-12.05,25.04-12.34,16.7-1.09,28.3,9.52,30.48,11.61,6.73,6.43,9.06,13.1,13.42,26.12,7.27,21.69,3.3,25.47,10.52,44.99,4.1,11.1,7.12,19.27,14.51,27.94,5.05,5.92,9.42,8.9,14.15,16.69,4.29,7.08,6.26,13.82,7.26,18.5,7.79,4.94,20.57,14.76,29.03,31.57,10.12,20.13,8.43,39.12,7.62,48.26-.91,10.18-4.23,20.82-10.88,42.09-3.64,11.64-6.99,21.22-9.43,27.94,4.4,2.97,9.77,7.7,12.7,14.88,2.12,5.19,2.17,9.73,2.18,11.61.02,11.56-.15,73.65-.73,158.92-98.09-15.48-196.17-30.96-294.26-46.44Z"/>
    <path class="cls-5" d="M1608.14,1533.86c-3.11-.18-6.26-.36-9.32.21-3.06.58-6.08,2-7.97,4.48-2.38,3.13-2.62,7.4-4.5,10.86"/>
    <path class="cls-5" d="M1601.39,1579.9c5.85-.16,11.7-.28,17.56-.36"/>
    <path class="cls-5" d="M1594.82,1610.09c-2.54-2.2-5.08-4.39-7.61-6.59-.25-.21-.51-.45-.6-.76-.1-.32,0-.67.1-.99,1.39-4.7,2.2-9.56,2.41-14.45.12-2.72-.07-5.74-2.01-7.65-1.97-1.94-5.09-2.05-7.82-1.6s-5.45,1.35-8.19.98"/>
    <path class="cls-5" d="M1572.72,1563.41c1.14-1.94,2.31-3.93,4.05-5.36,2.04-1.67,4.67-2.42,7.23-3.08,2.59-.67,5.19-1.3,7.79-1.92,1.77-.43,3.57-.86,5.39-.74,4.16.26,7.6,3.27,10.37,6.39,2.4,2.71,4.57,5.61,6.71,8.53,3.03,4.13,6.06,8.4,7.54,13.31.84,2.77,1.16,5.68,1.12,8.57-.1,8-3,15.94-8.07,22.14-4.88,5.96-9.5,12.54-15.97,16.72-3.3,2.14-6.99,4.02-10.92,4.03s-9.13-1.25-10-5.08"/>
    <path class="cls-5" d="M1662.61,1644.48c-8.45-.54-17.01.86-25.35-.61-2.26-.4-4.51-1.02-6.48-2.18-4-2.35-6.48-6.71-7.58-11.22-1.1-4.51-.97-9.21-.84-13.84.17-5.91.09-11.86.23-17.76"/>
    <path class="cls-5" d="M1581.95,1654.6c.41-7.49,2.17-14.91,5.19-21.78"/>
    <path class="cls-5" d="M1628.95,1660.2c-5.44,4.43-10.91,8.87-17,12.35s-12.89,5.96-19.9,6.12c-2.28.05-4.6-.14-6.75-.92-3.29-1.19-6.02-3.7-7.81-6.71-1.79-3.01-2.69-6.49-2.98-9.97-.21-2.54-.13-5.2-1.26-7.48"/>
    <path class="cls-5" d="M1683.82,1677.38c-.32,23.14,1.03,46.27,2.38,69.38.92,15.8,1.85,31.61,2.77,47.41.36,6.2-3.93,12.04-9.73,14.24-5.81,2.2-12.24,1.64-18.42,1.05-14.27-1.37-28.54-2.74-42.82-4.1"/>
    <path class="cls-5" d="M1675.23,1926.06c2.44-.85,4.23-3.04,5.19-5.44.96-2.4,1.22-5.01,1.45-7.59,3.07-34.23,3.32-68.71.73-102.98"/>
    <path class="cls-5" d="M1622.23,1929.99c-4.46-22.77-7.37-45.85-8.72-69.01"/>
    <path class="cls-5" d="M1523.07,1892.32c3.98-19.53,7.95-39.06,11.93-58.6"/>
    <path class="cls-5" d="M1506.85,1929.91c-11.18-11.9-14.63-28.88-17.95-44.86-3.32-15.99-7.56-32.97-19.67-43.92"/>
    <path class="cls-5" d="M1644.64,1686.43c-.16,27.1.48,49.83.32,76.93"/>
    <path class="cls-5" d="M1656.89,1763.18c-16.71,3.87-33.46,7.74-50.49,9.8-7.08.86-14.37,1.38-21.25-.52-10.82-2.99-19.32-11.75-24.44-21.73s-7.3-21.19-9.13-32.26c-.86-5.19-1.66-10.47-1.02-15.7"/>
    <path class="cls-5" d="M1550.32,1798.93c1.21-5.41,3.34-10.61,6.27-15.31,1.12-1.8,2.38-3.54,4.01-4.9,2.38-1.97,5.39-2.99,8.34-3.89,3.41-1.03,6.84-1.96,10.28-2.9"/>
    <path class="cls-5" d="M1659.16,1928.58c-8.46-7.65-12.11-19.16-14.97-30.2-4.9-18.93-8.54-38.15-12.17-57.36-1.57-8.3-5.49-15.79-11.3-21.92-4.34-4.59-9.63-8.16-15.01-11.47-12.17-7.48-25.64-13.95-39.92-13.99-27.07,11.42-51.97,15.61-75.09,27.95"/>
    <path class="cls-5" d="M1475.73,1788.89c12.31,3.72,15.86,3.57,29.44,6.64,15.51,3.51,31.55,4.66,47.4,3.4"/>
    <path class="cls-5" d="M1534.68,1741.83c-6.39-6.39-12.45-13.13-18.12-20.17"/>
    <path class="cls-5" d="M1472.38,1677.76c2.57-.94,4.39-3.27,6.84-4.5,1.11-.56,2.33-.88,3.55-1.1,6.95-1.28,14.41.47,20.07,4.7"/>
    <path class="cls-5" d="M1507.97,1709.14c-4.9,2.88-9.59,6.11-14.02,9.67-2.87,2.3-5.69,4.81-7.45,8.04-1.17,2.13-1.83,4.5-2.48,6.84-.83,2.98-1.65,5.95-2.48,8.93"/>
    <path class="cls-5" d="M1484.91,1710.4l7.49-.02c.7,0,1.4,0,2.09.12.73.13,1.42.38,2.11.64,1.15.43,2.31.86,3.46,1.29"/>
    <path class="cls-5" d="M1486.36,1699.77l15.99-.03c2.86,0,5.88.03,8.36,1.45"/>
    <path class="cls-5" d="M1484.64,1684.39c1.71-.42,3.51.09,5.2.59,7.23,2.16,14.46,4.33,21.69,6.49"/>
    <path class="cls-5" d="M1504.66,1710.8c-.5,27.31-1,54.66-4.04,81.8"/>
  </g>
  <g>
    <path class="cls-21" d="M486.92,2000.25l-.15,15.2h0s-.26,24.86-.26,24.86l-.13,12.95c-.63.03-1.25.05-1.88.08h-.01c-.98.04-1.96.09-2.94.13-36.06,1.58-72.12,3.16-108.19,4.74-19.29.85-38.58,1.69-57.87,2.54-4.07.18-8.14.36-12.21.54.6-14.09,1.19-28.18,1.78-42.26.12-2.87.24-5.73.36-8.6,15.79-.88,31.59-1.77,47.38-2.66,39.94-2.24,79.89-4.48,119.83-6.72,4.76-.27,9.53-.53,14.29-.8Z"/>
    <path class="cls-16" d="M659.84,2045.76c-10.17,14.46-20.34,28.91-30.51,43.37-47.65-11.96-95.3-23.92-142.95-35.87l.54-53.01c57.64,15.17,115.28,30.34,172.92,45.51Z"/>
    <line class="cls-5" x1="481.56" y1="2053.26" x2="481.55" y2="2053.47"/>
    <path class="cls-16" d="M510.52,2166.71h0l29.87-.74,8.28-7.16,37.97-32.8,13.83-11.97h0s.03-.01.03-.01l28.82-24.9c-10.37-2.6-20.73-5.2-31.1-7.8h-.01c-37.28-9.36-74.56-18.72-111.84-28.07-.63.03-1.25.05-1.88.08h-.01c-.98.04-1.96.09-2.94.13l-.95,27.21-1.34,38.3"/>
    <path class="cls-27" d="M481.55,2053.47l-.95,27.21-64.53,2.04-102.49,3.24,1.91-25.21c19.29-.85,38.58-1.69,57.87-2.54,36.07-1.58,72.13-3.16,108.19-4.74Z"/>
    <polygon class="cls-30" points="480.6 2080.68 479.26 2118.98 416.07 2082.72 480.6 2080.68"/>
    <path class="cls-5" d="M481.55,2053.47l-.95,27.21-1.34,38.3-63.19-36.26-102.49,3.24,1.91-25.21c19.29-.85,38.58-1.69,57.87-2.54,36.07-1.58,72.13-3.16,108.19-4.74Z"/>
  </g>
  <g>
    <path class="cls-30" d="M1503.13,1979.78c-.95,2.58-1.91,5.17-2.86,7.75-2.7,7.32-5.4,14.64-8.1,21.96h-.01c-.41,1.12-.82,2.24-1.23,3.36-2.36,6.39-4.72,12.77-7.08,19.16-.79,2.15-1.58,4.3-2.38,6.45-.41,1.12-.82,2.23-1.23,3.35-.12.32-.24.63-.35.95,0,0,0,.01-.01.01-5.17,14.02-10.35,28.05-15.52,42.07-7.23,19.58-14.45,39.16-21.68,58.74-7.23,19.6-14.47,39.21-21.7,58.81-2.78,7.53-5.56,15.07-8.34,22.6-.02.05-.04.11-.06.16-.77,2.09-1.54,4.17-2.31,6.26-3.91,10.58-7.81,21.17-11.72,31.75-5.04.04-10.09.08-15.13.12-3.23.03-6.46.05-9.69.08-24.83.19-49.67.39-74.5.59-78.69.62-157.37,1.24-236.06,1.86-25.71.2-51.41.41-77.12.61-58.52.46-117.03.92-175.55,1.39-19.54.15-39.08.31-58.62.46-4.09.03-8.17.06-12.26.1-7.37.06-14.73.11-22.1.18-.93,0-1.86.01-2.79.02-14.46-8.67-28.92-17.34-43.38-26,7.57-.11,15.14-.23,22.71-.34l-43.62-25.03-90.15-51.72h-.03l-19.86.49-29.87.74c6.41-6.25,12.83-12.5,19.25-18.74,9.76-9.51,19.52-19.01,29.28-28.51,1.42-1.39,2.85-2.78,4.28-4.17h0c11.62-11.32,23.24-22.63,34.87-33.96h.01c2.62-2.55,5.24-5.11,7.87-7.67h.01c7.22-7.04,14.45-14.07,21.68-21.11h.01c4.1-4,8.2-7.99,12.3-11.98.18-.18.37-.36.55-.53,5.62-5.47,11.23-10.94,16.85-16.41,5.92-.31,11.84-.61,17.76-.92h.01c9.27-.48,18.55-.96,27.82-1.44h0c2.25-.12,4.5-.24,6.75-.35,1.44-.08,2.87-.15,4.31-.23,2.94-.15,5.88-.31,8.82-.46,4.54-.23,9.09-.47,13.63-.7,8.8-.46,17.61-.91,26.41-1.37,4.4-.23,8.79-.46,13.19-.69,12.44-.64,24.89-1.28,37.33-1.93,5.95-.31,11.89-.62,17.84-.93,0,.01.01.01.01.01,0,0,.01,0,.01-.01,28.51-1.47,57.01-2.95,85.52-4.43,5.97-.31,11.95-.62,17.92-.93,7.02-.36,14.02-.73,21.04-1.09h.01c11.65-.6,23.3-1.21,34.95-1.82,5.19-.26,10.38-.53,15.57-.8h.01c20.02-1.04,40.03-2.08,60.05-3.12h.01c12.54-.64,25.09-1.29,37.63-1.95,9.29-.48,18.59-.96,27.88-1.44,18.02-.94,36.05-1.87,54.07-2.81,15.69-.81,31.38-1.62,47.07-2.44,13.33-.69,26.65-1.38,39.98-2.07,5.88-.3,11.75-.61,17.63-.92h.01c3.54-.18,7.07-.36,10.61-.55,3.88-.2,7.76-.4,11.64-.6h.01c16.37-.85,32.75-1.7,49.12-2.55h.01c4.87-.25,9.73-.5,14.6-.76,4.14-.21,8.28-.42,12.42-.64,24-1.24,47.98-2.49,71.98-3.73h.01c10.91-.57,21.83-1.13,32.74-1.7h.01c3.08-.16,6.15-.32,9.23-.48Z"/>
    <path class="cls-27" d="M736.61,2019.53l-15.21,48.66-33.94,1.61-81.36,3.86c17.13-16.67,34.27-33.35,51.4-50.03,26.37-1.37,52.74-2.73,79.11-4.1Z"/>
    <path class="cls-27" d="M687.46,2069.8l-16.16,41.84-35.47,1.2-72.48,2.45c14.25-13.88,28.5-27.75,42.75-41.63l81.36-3.86Z"/>
    <path class="cls-27" d="M635.83,2112.84l-2.29,8.33h0s-11.77,42.78-11.77,42.78l-61.48,1.53h-.03l-19.86.49-29.87.74c6.41-6.25,12.83-12.5,19.25-18.74,9.76-9.51,19.52-19.01,29.28-28.51,1.42-1.39,2.85-2.78,4.28-4.17h0l37.13-1.26h.03l35.32-1.19Z"/>
    <polyline class="cls-12" points="650.44 2217.2 718.67 2215.89 754.24 2215.2 811.15 2214.11 987.07 2210.73 1063.88 2209.25 1299.69 2204.72 1384.67 2203.09 1388.85 2203.01 1389.11 2203 1420.98 2202.39"/>
    <polyline class="cls-12" points="606.1 2073.66 606.11 2073.66 1483.85 2032.01"/>
    <polyline class="cls-12" points="1464.36 2084.84 563.35 2115.29 563.34 2115.29"/>
    <path class="cls-12" d="M1442.68,2143.58l-52.88,1.31-.95.03-2.98.07-85.73,2.13-235.55,5.84h-.01l-76.48,1.9-176.29,4.37-55.13,1.37-36.81.92-98.1,2.43-61.48,1.53h-.03l-19.86.49-29.87.74h0"/>
    <path class="cls-30" d="M1567.62,2229.03c-51.63,29.53-103.26,59.07-154.9,88.61h-.01c-6.42,3.67-12.84,7.34-19.26,11.02-3.84,2.19-7.68,4.39-11.52,6.58h0c-27.87,15.95-55.74,31.89-83.62,47.84-5.46,3.12-10.92,6.24-16.38,9.37h-.01c-58.43,33.42-116.86,66.85-175.29,100.27-3.04,1.74-6.08,3.48-9.12,5.22-57.36-34.37-114.71-68.74-172.07-103.11h-.01c-36.8-22.06-73.6-44.12-110.41-66.17-18.2-10.91-36.41-21.82-54.62-32.73-.02-.01-.04-.03-.07-.04-3.14-1.89-6.28-3.77-9.43-5.65-11.14-6.68-22.28-13.35-33.42-20.03-.91-.55-1.83-1.1-2.75-1.64-14.46-8.67-28.92-17.34-43.38-26,7.57-.11,15.14-.23,22.71-.34,8.01-.12,16.03-.25,24.04-.37,11.66-.17,23.32-.35,34.98-.52,19.25-.3,38.5-.59,57.75-.88,58.59-.89,117.17-1.77,175.75-2.65,25.65-.39,51.3-.78,76.95-1.16h.01c78.65-1.2,157.29-2.38,235.93-3.57l75.21-1.14c3.13-.04,6.26-.09,9.39-.14,8.74-.13,17.47-.26,26.2-.39,40.26-.61,80.51-1.22,120.77-1.83,12.19-.18,24.39-.37,36.58-.55Z"/>
    <path class="cls-12" d="M1503.13,1979.78c-.95,2.58-1.91,5.17-2.86,7.75-2.7,7.32-5.4,14.64-8.1,21.96h-.01c-.41,1.12-.82,2.24-1.23,3.36-2.36,6.39-4.72,12.77-7.08,19.16-.79,2.15-1.58,4.3-2.38,6.45-.41,1.12-.82,2.23-1.23,3.35-.12.32-.24.63-.35.95,0,0,0,.01-.01.01-5.17,14.02-10.35,28.05-15.52,42.07-7.23,19.58-14.45,39.16-21.68,58.74-7.23,19.6-14.47,39.21-21.7,58.81-2.78,7.53-5.56,15.07-8.34,22.6-.02.05-.04.11-.06.16-.77,2.09-1.54,4.17-2.31,6.26-3.91,10.58-7.81,21.17-11.72,31.75-5.04.04-10.09.08-15.13.12-3.23.03-6.46.05-9.69.08-24.83.19-49.67.39-74.5.59-78.69.62-157.37,1.24-236.06,1.86-25.71.2-51.41.41-77.12.61-58.52.46-117.03.92-175.55,1.39-19.54.15-39.08.31-58.62.46-4.09.03-8.17.06-12.26.1-7.37.06-14.73.11-22.1.18-.93,0-1.86.01-2.79.02-14.46-8.67-28.92-17.34-43.38-26,7.57-.11,15.14-.23,22.71-.34l-43.62-25.03-90.15-51.72h-.03l-19.86.49-29.87.74c6.41-6.25,12.83-12.5,19.25-18.74,9.76-9.51,19.52-19.01,29.28-28.51,1.42-1.39,2.85-2.78,4.28-4.17h0c11.62-11.32,23.24-22.63,34.87-33.96h.01c2.62-2.55,5.24-5.11,7.87-7.67h.01c7.22-7.04,14.45-14.07,21.68-21.11h.01c4.1-4,8.2-7.99,12.3-11.98.18-.18.37-.36.55-.53,5.62-5.47,11.23-10.94,16.85-16.41,5.92-.31,11.84-.61,17.76-.92h.01c9.27-.48,18.55-.96,27.82-1.44h0c2.25-.12,4.5-.24,6.75-.35,1.44-.08,2.87-.15,4.31-.23,2.94-.15,5.88-.31,8.82-.46,4.54-.23,9.09-.47,13.63-.7,8.8-.46,17.61-.91,26.41-1.37,4.4-.23,8.79-.46,13.19-.69,12.44-.64,24.89-1.28,37.33-1.93,5.95-.31,11.89-.62,17.84-.93,0,.01.01.01.01.01,0,0,.01,0,.01-.01,28.51-1.47,57.01-2.95,85.52-4.43,5.97-.31,11.95-.62,17.92-.93,7.02-.36,14.02-.73,21.04-1.09h.01c11.65-.6,23.3-1.21,34.95-1.82,5.19-.26,10.38-.53,15.57-.8h.01c20.02-1.04,40.03-2.08,60.05-3.12h.01c12.54-.64,25.09-1.29,37.63-1.95,9.29-.48,18.59-.96,27.88-1.44,18.02-.94,36.05-1.87,54.07-2.81,15.69-.81,31.38-1.62,47.07-2.44,13.33-.69,26.65-1.38,39.98-2.07,5.88-.3,11.75-.61,17.63-.92h.01c3.54-.18,7.07-.36,10.61-.55,3.88-.2,7.76-.4,11.64-.6h.01c16.37-.85,32.75-1.7,49.12-2.55h.01c4.87-.25,9.73-.5,14.6-.76,4.14-.21,8.28-.42,12.42-.64,24-1.24,47.98-2.49,71.98-3.73h.01c10.91-.57,21.83-1.13,32.74-1.7h.01c3.08-.16,6.15-.32,9.23-.48Z"/>
    <line class="cls-12" x1="1393.45" y1="2328.66" x2="815.02" y2="2328.66"/>
    <polyline class="cls-12" points="1281.93 2392.45 1281.92 2392.45 925.44 2394.83 925.43 2394.83"/>
  </g>
  <g>
    <path class="cls-22" d="M1615.93,1946.68l-.71,58.28c-2.11.08-4.22.15-6.33.23-72.51,2.66-145.02,5.33-217.54,8-5.33.2-10.66.4-16,.59.94-18.65,1.87-37.28,2.8-55.92,79.26-3.73,158.51-7.47,237.77-11.19Z"/>
    <path class="cls-17" d="M1895.23,2045.49c-13.32,15.9-51.67,25.93-64.99,41.83-62.42-13.15-152.6-69.22-215.02-82.36l.71-58.28c115.83,39.83,203.79,82.13,279.3,98.81Z"/>
    <line class="cls-4" x1="1608.91" y1="2004.97" x2="1608.9" y2="2005.2"/>
    <path class="cls-17" d="M1837.28,2088.96l-236.08,101.42,7.7-185.18c2.11-.08,4.22-.15,6.33-.23,62.42,13.14,159.63,70.84,222.05,83.99Z"/>
    <path class="cls-27" d="M1608.27,2008.53l-1.24,29.92-218.8,5.81,2.5-27.72c72.52-2.67,145.03-5.34,217.54-8Z"/>
    <polygon class="cls-30" points="1607.65 2035.11 1607.63 2035.73 1605.7 2092.51 1602.43 2188.62 1602.38 2189.87 1601.69 2210.27 1601.33 2220.75 1601.19 2224.99 1388.85 2224.99 1388.85 2040.92 1391.02 2040.86 1476.83 2038.58 1481.47 2038.46 1607.17 2035.12 1607.65 2035.11"/>
    <path class="cls-5" d="M1608.9,2005.2l-.28,8h0s-2.78,79.27-2.78,79.27l-3.37,96.12-.05,1.26-.71,20.42-.37,10.47-.15,4.25h-212.34l.26-21.99.69-58.11.67-57.55.51-43.16.04-3.32.06-4.45.23-19.9.04-3.31c23.72-.87,47.44-1.75,71.15-2.62h.01c9.89-.36,19.77-.73,29.65-1.09,11.52-.42,23.03-.85,34.54-1.27,24.43-.9,48.85-1.8,73.28-2.69,2.97-.11,5.95-.22,8.92-.33Z"/>
    <path class="cls-22" d="M1608.91,2209.7l-.05,6.7-7.52,4.34-.15,4.25h-7.21l-157.98,91.21h-.01c-7.75.48-15.51.96-23.27,1.44-8.31.51-16.63,1.02-24.94,1.53-1.84.12-3.68.23-5.52.34-2.97.19-5.94.37-8.91.56-.44.02-.88.05-1.32.08.57-18.94,1.14-37.87,1.7-56.79.32-10.48.63-20.95.95-31.42.03-1.27.07-2.55.11-3.82,3.12-.25,6.25-.49,9.37-.74,9.47-.74,18.95-1.49,28.42-2.23.66-.05,1.33-.1,1.99-.16,48.08-3.78,96.17-7.57,144.25-11.35,14.29-1.13,28.58-2.25,42.87-3.37h.02c2.4-.19,4.8-.38,7.2-.57Z"/>
  </g>
  <path class="cls-28" d="M51,1014.23v-72.27c56.92-10.79,118.88,21.18,151.9,54.9,6.71,6.86,38.47,58.26,14.21,106.62-20.91,41.7-68.07,49.21-71.86,49.75-7.27,1.04-52.7,7.52-73.45-22.11-13.03-18.61-14.34-36.61-5.73-55.03,5.66-12.13,39.34-13.82,44.43-10.52,7.51,4.87,8.53,18.03,4.74,21.33-2.71,2.35-6.91-.95-10.27,1.58-3.94,2.96-9.27,7.86-.79,17.37,7.99,8.95,24.56,13.23,37.91,8.69,17.99-6.12,29.3-26.52,29.22-44.23-.14-30.09-33.21-50.49-53.7-57.65-21.08-7.37-45.43-6.52-66.61,1.57Z"/>
  <path class="cls-28" d="M421.66,1252.74c-37.06,31.85-87.56,45.84-105.32,51.94-1.26.44-1.07,2.28.26,2.45,15.23,1.92,57.82,7.45,73.47,11.16,28.67,6.79,30.85,10.19,30.8,11.85-.23,6.77-27.22,7.07-44.61,7.34-58.88.91-100.6-12.24-168.62-21.56-37.73-5.17-77.49-11.38-126.49-39.89-.09-.05-.19.07-.12.14,12.54,12,44.82,37.5,31.84,67.39-8.58,19.77-34.21,30.3-61.87,35.38v-169.47c25.48,22.46,59.56,35.97,108.46,49.59,71.59,19.94,135.82,22.36,160.32,17.37,47.3-9.63,59.12-27.08,63.18-34.74,8.29-15.64,17.61-35.29-3.16-56.87-16.18-16.81-33.41-21.03-48.22-20.15-10.07.61-29.77,5.81-34.7,15.42-4.1,7.96-.96,20.32,4.74,22.9,3.39,1.53,10.26.79,10.26.79,0,0,.32-13.81,15.01-7.11,5.23,2.24,7.13,20.83-2.37,30.01-10.74,10.37-29.81,2.65-30.8,2.37-12.73-3.6-34.36-38.08-26.85-61.6,9.32-29.19,46.68-35.42,56.86-37.12,35.11-5.86,92.61,21.86,102.67,47.39,14.09,35.76,8.67,63.5-4.74,75.02Z"/>
  <path class="cls-28" d="M445.66,543.71c21.72,22.6,23.24,42.93,18.16,61.6-14.28,52.54-65.31,82.1-77.39,87.67-9.68,4.45-86,38.36-119.25,0-16.81-19.39-18.31-52.27-4.74-76.61,11.58-20.78,36.28-38.51,63.18-35.54,16.04,1.77,35.75,16.13,36.33,33.96.35,11.09-6.79,23.18-17.38,27.64-8.69,3.66-21.08,2.75-22.9-2.37-1.41-3.96,3.89-9.41,7.15-12.29,1.19-1.05.85-2.69-.3-3.79-2.91-2.8-4.42-7.88-13.17-2.87-8.96,5.13-14.39,16.64-12.63,26.06,3.83,20.64,30.28,25.1,47.38,19.74,22.93-7.18,47.38-20.61,56.86-48.17,11.48-33.36-3.84-52.93-22.75-64.27-13.32-7.99-33.38-14.63-47.54-17.86-11.33-2.59-21.96-7.43-31.69-13.76,14.14-8.12,28.27-16.26,42.4-24.39,10.42,8.1,22.12,13.93,33.52,17.61,33.15,10.71,48.6,10.84,64.76,27.64Z"/>
  <path class="cls-28" d="M993.16,380.33c-9.54,5.61-22.64,12.2-38.9,17.28-16.4,5.13-26.65,5.79-37.12,7.9-22.92,4.6-39.02,15.2-70.29,36.2-85.06,57.14-90.35,62.14-108.99,70.41-26.43,11.74-51.67,17.63-73.44,20.54-4.41,12.53-14.87,36.68-38.7,56.86-13.59,11.51-40.51,34.31-71.87,26.85-16.88-4.01-41.74-18.39-44.22-44.22-2.12-22.11,13.09-42.77,31.59-49.76,2.62-.99,25.38-9.23,37.12,3.95,7,7.87,8.04,21.08,2.37,30.01-5.07,7.98-16.04,13.4-20.54,10.27-2.33-1.63-3.11-5.7-2.37-8.69,1.02-4.08,4.4-4.28,6.32-8.69,1.61-3.69,1.68-9.17-.79-11.05-3.62-2.77-13.33,1.76-18.16,8.68-5.07,7.27-5.97,18.88-.79,25.28,9.29,11.48,36.1,12.92,56.07-7.11,1.1-1.1,30.51-23.4,24.48-56.86-4.14-23.03-22.78-38.94-40.28-44.23-12.55-3.8-22.25-1.44-75.22,17.37-54.4,19.33-61.64,23.05-76.41,21.33-2.57-.3-30.68-4.04-49.49-25.03,16.89-9.74,33.78-19.49,50.67-29.25,10.4-2.05,21.66-8.39,28.43-16.43h.01c22.25-12.85,44.49-25.72,66.74-38.59-7.38,30.01-22.94,51.51-32.25,61.63-.76.82.21,2.06,1.19,1.52,10.83-5.95,23.74-11.98,35.79-21.77,19.42-15.77,34.15-20.79,45.02-22.11,8.26-1.01,26.16-1.42,49.99,15.58.71.51,1.58-.36,1.07-1.06-8.44-11.39-24.95-31.67-21.05-61.12.99-7.52,3.04-14.96,5.83-22.18,14.25-36.94,47.73-68.04,57.35-74.17,16.46-10.48,54.53-25.29,96.35-19.74,2.28.3,4.54.72,6.77,1.24,36.33,8.54,64.78,46,53.25,96.69-6.36,27.94-28.58,52.29-55.29,59.23-4.02,1.04-35.38,9.18-48.96-8.69-9.35-12.3-8.31-34.33,3.16-42.65,7.03-5.09,12.95-5.35,20.12-2.81,2.49.88,8.65,6.37,7.96,12.89-1.33,12.52,1.28,12.35,1.93,12.83,4.73,3.44,16.18-2.47,22.9-9.48,7.12-7.42,12.08-19.36,10.27-30.85-3.25-20.51-19.18-32.14-37.77-34.61-34.25-4.55-78.51,29.21-87.8,58.35-.77,2.41-11.86,43.72,11.84,66.34,25.86,24.68,73.61,8.47,89.25,3.16,33.18-11.27,31.6-16.87,77.39-43.44,28.45-16.5,47.48-20.29,69.5-16.58,16.6,2.8,19.94,5.73,45.8,11.06,13.11,2.7,24.89-1.35,33.55-3.73.89-.24,1.42.98.62,1.45Z"/>
  <path class="cls-28" d="M1608.14,488.45c-9.32,29.19-46.68,35.42-56.86,37.12-35.1,5.86-92.61-21.86-102.67-47.38-14.08-35.76-8.66-63.51,4.74-75.03,37.06-31.85,87.56-45.84,105.32-51.94,1.26-.43,1.07-2.28-.26-2.45-15.23-1.92-57.81-7.45-73.47-11.16-28.67-6.79-30.85-10.19-30.8-11.84.23-6.77,27.22-7.07,44.61-7.34,18.81-.29,35.86.85,52.58,2.84,36.44,21.05,72.87,42.12,109.29,63.19-48-8.32-87.4-8.65-105.39-4.99-47.3,9.63-59.12,27.09-63.18,34.75-8.29,15.64-17.61,35.29,3.16,56.86,16.18,16.81,33.41,21.04,48.22,20.15,10.07-.6,29.77-5.81,34.7-15.41,4.1-7.97.96-20.32-4.74-22.9-3.38-1.54-10.26-.79-10.26-.79,0,0-.32,13.8-15.01,7.1-5.23-2.24-7.13-20.83,2.37-30.01,10.74-10.36,29.81-2.65,30.8-2.37,12.73,3.6,34.36,38.08,26.85,61.6Z"/>
  <path class="cls-28" d="M1926.41,617.97c-1.31,4.6-22.4,77.55-97.82,95.01-58.15,13.47-122.57-19.31-156.48-53.94-6.71-6.86-38.47-58.25-14.21-106.62,20.91-41.7,68.07-49.21,71.86-49.75,7.27-1.04,52.7-7.51,73.45,22.11,13.03,18.61,14.34,36.61,5.74,55.04-5.67,12.13-39.35,13.81-44.44,10.51-7.5-4.86-8.53-18.02-4.74-21.32,2.71-2.35,6.91.94,10.27-1.58,3.94-2.96,9.27-7.87.79-17.38-7.98-8.95-24.56-13.22-37.91-8.68-17.99,6.12-29.3,26.52-29.22,44.22.15,30.1,33.21,50.49,53.7,57.65,35.04,12.25,79.08,1.82,102.67-26.85,27.49-33.41,18.21-80.66,3.14-114.73,20.14,11.64,40.28,23.27,60.42,34.89,6.24,27.63,8.97,59.64,2.78,81.42Z"/>
  <path class="cls-32" d="M869.3,1018.88c-3.06-1.35-12.19-4.89-22.92-1.83-3,.85-10.62,1.5-15.75,8.03-1.5,1.91-7.19,11.6-4.28,21.96,2.32,8.28,10.98,12.78,14.93,14.93,5.57,3.02,8.32,2.71,11.52,6.42.71.82,5.39,6.24,3.67,12.44-2.06,7.42-11.36,9.1-11.79,9.17-6.17,1.02-12.59-1.87-16.76-7.33-1.74,1.18-4.16,3.11-6.42,6.02-2.35,3.03-3.62,5.96-4.32,7.99,1.49,1.49,10.91,10.57,25.14,9.69,2.75-.17,15.44-1.31,23.18-12.18,1.75-2.46,7.44-11.3,4.71-21.48-2.61-9.71-11.33-14.82-12.44-15.45-5.88-3.33-9.44-2.12-13.7-6.55-1.06-1.1-4.99-5.18-4.24-10.21.9-6.03,7.84-8.77,9.17-9.3,6.87-2.71,13.23.11,14.67.79,1.27-1.6,2.85-3.95,4.06-7.07.88-2.28,1.34-4.35,1.57-6.02Z"/>
  <path class="cls-32" d="M958.27,1008.66c-4.43-2.04-15.08-6.19-28.53-4.2-2.63.39-23.02,3.76-34.94,22.78-2.39,3.81-13.42,21.4-5.31,40.92,5.05,12.15,16.27,22.07,30.52,24.55,14.91,2.59,30.19-3.49,39.59-15.7-2.58-3.39-5.16-6.78-7.74-10.17-1.65,2.03-9.01,10.66-20.13,11.06-14.61.53-28.53-13.43-28.75-29.27-.23-16.79,15.01-28.45,28.53-30.22,9.02-1.18,16.35,2.17,19.68,3.98,2.36-4.57,4.72-9.14,7.08-13.71Z"/>
  <path class="cls-32" d="M1049.37,1004.61c-1.62-2.08-11.38-14.61-27.17-14.87-14.29-.24-23.76,9.71-28.8,15-2.58,2.72-14.35,15.67-14.6,35.42-.08,6.51-.26,20.41,10.14,30.55,9.99,9.76,23.18,9.64,27.04,9.6,4.41-.04,16.16-.85,26.36-9.6,11.16-9.57,13.15-22.38,14.19-29.06,1.06-6.79,3.61-23.21-7.16-37.04ZM1044.5,1039.62c-.44,4.35-1.3,12.73-8.25,19.33-7.01,6.67-15.74,7.26-19.6,7.17-2.63-.06-10.31-.36-16.9-6.09-8.5-7.39-8.62-18.15-8.65-20.68-.15-13.58,9.11-22.22,11.09-24.06,3.23-3.02,10.38-9.69,20.28-8.79,8.49.77,13.8,6.63,15.27,8.25,8.36,9.2,7.14,21.2,6.76,24.87Z"/>
  <path class="cls-32" d="M1134.23,973.11c-21.15,2.7-42.31,5.4-63.46,8.1v18l6.75-6.08c6.3-.6,12.6-1.2,18.9-1.8.45,22.88.9,45.76,1.35,68.63-1.88,1.35-3.75,2.7-5.63,4.05v5.4l22.05-2.7v-5.18c-1.43-1.28-2.85-2.55-4.28-3.83-.15-22.73-.3-45.46-.45-68.18,5.63-.68,11.25-1.35,16.88-2.03l7.88,5.18v-19.58Z"/>
  <path class="cls-32" d="M1217.79,966.96c-6.34.89-13.41,1.09-19.75,1.98v6.83c1.49.79,2.97,1.58,4.46,2.38.15,14.26.3,28.51.45,42.77.04,13.1-8.36,21.77-17,21.72-6.64-.04-14.48-4.76-14.34-13.84v-47.08l3.27-3.27v-5.49c-6.48.79-12.97,1.58-19.45,2.38v6.09c1.19.49,2.38.99,3.56,1.48-.15,15.39-.3,30.79-.45,46.18-.08,1.1-1.1,15.45,9.45,22.53,5.87,3.94,12.47,4.33,17.43,3.91,3.64-.31,13.39-1.13,21.38-9.06,6.76-6.7,9.19-13.72,8.91-17.82-.45-17.67-.89-35.34-1.34-53.02,1.14-1.09,2.28-2.18,3.42-3.27-.25-2.03.25-3.37,0-5.4Z"/>
  <path class="cls-32" d="M1287.25,957.71c-3.06-1.35-12.19-4.89-22.92-1.83-3,.85-10.62,1.5-15.75,8.03-1.5,1.91-7.19,11.6-4.28,21.96,2.32,8.28,10.98,12.78,14.93,14.93,5.57,3.02,8.32,2.71,11.52,6.42.71.82,5.39,6.24,3.67,12.44-2.06,7.42-11.36,9.1-11.79,9.17-6.17,1.02-12.59-1.87-16.76-7.33-1.74,1.18-4.16,3.11-6.42,6.02-2.35,3.03-3.62,5.96-4.32,7.99,1.49,1.49,10.91,10.57,25.14,9.69,2.75-.17,15.44-1.31,23.18-12.18,1.75-2.46,7.44-11.3,4.71-21.48-2.61-9.71-11.33-14.82-12.44-15.45-5.88-3.33-9.44-2.12-13.7-6.55-1.06-1.1-4.99-5.18-4.24-10.21.9-6.03,7.84-8.77,9.17-9.3,6.87-2.71,13.23.11,14.67.79,1.27-1.6,2.85-3.95,4.06-7.07.88-2.28,1.34-4.35,1.57-6.02Z"/>
  <path class="cls-32" d="M-1,642.75c79.82-48.94,161.49-95.42,242.66-142.29C526.92,335.76,812.79,172.12,1097.55,6.55c1.99-1.13,4.15-1.67,6.45-1.67,7.01,0,55.98,29.86,66.35,35.76,341.7,194.44,682.34,391.77,1022,589.76,5,2.91,11.2,5.72,14.66,10.35v1271.5c-364.33,213.34-731.32,422.36-1096.55,634.24-1.98,1.04-4.03,1.63-6.3,1.49-6.19-.4-36.48-19.15-44.5-23.62-342.97-191.41-682.69-391.82-1022-589.77-13.11-7.65-26.54-15.15-38.66-24.34V642.75ZM93.59,693.29l-2.67,12.35-.04,1149.75c-.99,8.99,7.28,12.23,13.51,16.48,333.8,191.05,665.44,385.89,999.95,575.67l12-5.17,999.67-578.09,1.09-1164.65c.11-3.07-.83-4.92-2.99-7.01-5.31-5.15-29.35-17.26-37.77-22.22-303.95-179.26-610.88-356.03-918-529.79-17.9-10.13-35.63-20.94-54.36-29.51L93.59,693.29Z"/>
</svg>