<?xml version="1.0" encoding="UTF-8"?>
<svg id="Layer_1" data-name="Layer 1" xmlns="http://www.w3.org/2000/svg" viewBox="0 0 2206 2557">
  <defs>
    <style>
      .cls-1 {
        fill: #ead28a;
      }

      .cls-1, .cls-2, .cls-3, .cls-4, .cls-5, .cls-6, .cls-7, .cls-8, .cls-9, .cls-10, .cls-11, .cls-12, .cls-13, .cls-14, .cls-15, .cls-16, .cls-17, .cls-18, .cls-19, .cls-20, .cls-21, .cls-22, .cls-23, .cls-24, .cls-25, .cls-26, .cls-27, .cls-28, .cls-29, .cls-30, .cls-31, .cls-32, .cls-33, .cls-34, .cls-35, .cls-36, .cls-37, .cls-38, .cls-39, .cls-40, .cls-41, .cls-42, .cls-43, .cls-44, .cls-45, .cls-46, .cls-47, .cls-48, .cls-49, .cls-50, .cls-51, .cls-52, .cls-53, .cls-54, .cls-55, .cls-56, .cls-57, .cls-58, .cls-59, .cls-60, .cls-61, .cls-62, .cls-63, .cls-64, .cls-65, .cls-66, .cls-67, .cls-68, .cls-69, .cls-70, .cls-71, .cls-72, .cls-73, .cls-74, .cls-75, .cls-76, .cls-77, .cls-78, .cls-79, .cls-80, .cls-81, .cls-82, .cls-83, .cls-84, .cls-85, .cls-86, .cls-87, .cls-88, .cls-89, .cls-90, .cls-91, .cls-92, .cls-93, .cls-94, .cls-95, .cls-96, .cls-97, .cls-98, .cls-99, .cls-100, .cls-101, .cls-102, .cls-103, .cls-104, .cls-105, .cls-106, .cls-107, .cls-108, .cls-109, .cls-110, .cls-111, .cls-112, .cls-113, .cls-114, .cls-115, .cls-116, .cls-117, .cls-118, .cls-119, .cls-120, .cls-121, .cls-122, .cls-123, .cls-124, .cls-125, .cls-126, .cls-127, .cls-128, .cls-129, .cls-130, .cls-131, .cls-132, .cls-133, .cls-134, .cls-135, .cls-136, .cls-137, .cls-138, .cls-139, .cls-140, .cls-141, .cls-142, .cls-143, .cls-144, .cls-145, .cls-146, .cls-147, .cls-148, .cls-149, .cls-150, .cls-151, .cls-152, .cls-153, .cls-154, .cls-155, .cls-156, .cls-157, .cls-158, .cls-159, .cls-160, .cls-161, .cls-162, .cls-163, .cls-164, .cls-165, .cls-166, .cls-167 {
        stroke: #000;
        stroke-miterlimit: 10;
        stroke-width: 4.65px;
      }

      .cls-2 {
        fill: #86c882;
      }

      .cls-3 {
        fill: #eac57d;
      }

      .cls-4 {
        fill: #9ccd83;
      }

      .cls-5 {
        fill: #eaaf6e;
      }

      .cls-6 {
        fill: #e9a26a;
      }

      .cls-7 {
        fill: #e3776e;
      }

      .cls-8 {
        fill: #eab974;
      }

      .cls-9 {
        fill: #ceda8f;
      }

      .cls-10 {
        fill: #eab873;
      }

      .cls-11 {
        fill: #e9a36a;
      }

      .cls-12 {
        fill: #ead992;
      }

      .cls-13 {
        fill: #eab06e;
      }

      .cls-14 {
        fill: #eae19c;
      }

      .cls-15 {
        fill: #eadd97;
      }

      .cls-16 {
        fill: #9ece84;
      }

      .cls-17 {
        fill: #bdd68a;
      }

      .cls-18 {
        fill: #ead088;
      }

      .cls-19 {
        fill: #e7e19b;
      }

      .cls-20 {
        fill: #cad98e;
      }

      .cls-168 {
        fill: #5a2778;
        fill-rule: evenodd;
        stroke: #fff;
        stroke-linecap: round;
        stroke-linejoin: round;
        stroke-width: 5px;
      }

      .cls-21 {
        fill: #089392;
      }

      .cls-22 {
        fill: #e9aa6c;
      }

      .cls-23 {
        fill: #dfdf97;
      }

      .cls-24 {
        fill: #eab471;
      }

      .cls-25 {
        fill: #bbd589;
      }

      .cls-26 {
        fill: #9fce84;
      }

      .cls-27 {
        fill: #eada93;
      }

      .cls-28 {
        fill: #eab772;
      }

      .cls-29 {
        fill: #e9ac6d;
      }

      .cls-30 {
        fill: #aad186;
      }

      .cls-31 {
        fill: #e89668;
      }

      .cls-32 {
        fill: #a6d085;
      }

      .cls-33 {
        fill: #c5d88c;
      }

      .cls-34 {
        fill: #e3786e;
      }

      .cls-35 {
        fill: #c0d78b;
      }

      .cls-36 {
        fill: #e0df98;
      }

      .cls-37 {
        fill: #dbdd94;
      }

      .cls-38 {
        fill: #67c183;
      }

      .cls-39 {
        fill: #eac47c;
      }

      .cls-40 {
        fill: #eabe77;
      }

      .cls-41 {
        fill: #e9a069;
      }

      .cls-42 {
        fill: #dadd94;
      }

      .cls-43 {
        fill: #e4e099;
      }

      .cls-44 {
        fill: #e9a86b;
      }

      .cls-45 {
        fill: #e99e69;
      }

      .cls-46 {
        fill: #d7617a;
      }

      .cls-47 {
        fill: #d6dc93;
      }

      .cls-48 {
        fill: #e5e099;
      }

      .cls-49 {
        fill: #eac980;
      }

      .cls-50 {
        fill: #ddde96;
      }

      .cls-51 {
        fill: #eabc76;
      }

      .cls-52 {
        fill: #c3d78c;
      }

      .cls-53 {
        fill: #d9dd94;
      }

      .cls-54 {
        fill: #eab672;
      }

      .cls-55 {
        fill: #e89b69;
      }

      .cls-56 {
        fill: #eabe78;
      }

      .cls-57 {
        fill: #e8e19b;
      }

      .cls-58 {
        fill: #eacf87;
      }

      .cls-59 {
        fill: #cfda90;
      }

      .cls-60 {
        fill: #ead38b;
      }

      .cls-61 {
        fill: #eabd77;
      }

      .cls-62 {
        fill: #e9e29c;
      }

      .cls-63 {
        fill: #6dc382;
      }

      .cls-64 {
        fill: #e89a69;
      }

      .cls-65 {
        fill: #a5cf85;
      }

      .cls-66 {
        fill: #a9d085;
      }

      .cls-67 {
        fill: #eadc95;
      }

      .cls-68 {
        fill: #eace85;
      }

      .cls-69 {
        fill: #ead48c;
      }

      .cls-70 {
        fill: #e9a96c;
      }

      .cls-71 {
        fill: #dcde95;
      }

      .cls-72 {
        fill: #eac179;
      }

      .cls-73 {
        fill: #e3e098;
      }

      .cls-74 {
        fill: #b3d388;
      }

      .cls-75 {
        fill: #b6d488;
      }

      .cls-76 {
        fill: #6ec382;
      }

      .cls-77 {
        fill: #bad589;
      }

      .cls-78 {
        fill: #eacc83;
      }

      .cls-79 {
        fill: #d0da90;
      }

      .cls-80 {
        fill: #eae09a;
      }

      .cls-81 {
        fill: #c4d88c;
      }

      .cls-82 {
        fill: #eacf86;
      }

      .cls-83 {
        fill: #e2e098;
      }

      .cls-84 {
        fill: #eab571;
      }

      .cls-85 {
        fill: #b0d287;
      }

      .cls-86 {
        fill: #eab16f;
      }

      .cls-87 {
        fill: #eac87f;
      }

      .cls-88 {
        fill: #ead58d;
      }

      .cls-89 {
        fill: #c2d78c;
      }

      .cls-90 {
        fill: #7fc682;
      }

      .cls-91 {
        fill: #ead890;
      }

      .cls-92 {
        fill: #ead78f;
      }

      .cls-93 {
        fill: #93cb83;
      }

      .cls-94 {
        fill: #e6e19a;
      }

      .cls-95 {
        fill: #cdda8f;
      }

      .cls-96 {
        fill: #eab370;
      }

      .cls-97 {
        fill: #e79169;
      }

      .cls-98 {
        fill: #e8e29c;
      }

      .cls-99 {
        fill: #83c782;
      }

      .cls-100 {
        fill: #e89768;
      }

      .cls-101 {
        fill: #8bc982;
      }

      .cls-102 {
        fill: #e89c69;
      }

      .cls-103 {
        fill: #eabf78;
      }

      .cls-104 {
        fill: #e89368;
      }

      .cls-105 {
        fill: #e5806b;
      }

      .cls-106 {
        fill: #eaca81;
      }

      .cls-107 {
        fill: #bcd58a;
      }

      .cls-108 {
        fill: #e9ae6e;
      }

      .cls-109 {
        fill: #bbd58a;
      }

      .cls-110 {
        fill: #91ca83;
      }

      .cls-111 {
        fill: #c7d88d;
      }

      .cls-112 {
        fill: #e9a46a;
      }

      .cls-113 {
        fill: #e79268;
      }

      .cls-114 {
        fill: #eabb75;
      }

      .cls-115 {
        fill: #d7dd94;
      }

      .cls-116 {
        fill: #bdd58a;
      }

      .cls-117 {
        fill: #b7d488;
      }

      .cls-118 {
        fill: #eac77e;
      }

      .cls-119 {
        fill: #ead790;
      }

      .cls-120 {
        fill: #e78c69;
      }

      .cls-121 {
        fill: #eac67e;
      }

      .cls-122 {
        fill: #acd186;
      }

      .cls-123 {
        fill: #85c882;
      }

      .cls-124 {
        fill: #e89568;
      }

      .cls-125 {
        fill: #ead68e;
      }

      .cls-126 {
        fill: #eadd96;
      }

      .cls-127 {
        fill: #eacd84;
      }

      .cls-128 {
        fill: #bfd68b;
      }

      .cls-129 {
        fill: #ead189;
      }

      .cls-130 {
        fill: #d2db91;
      }

      .cls-131 {
        fill: #a7d085;
      }

      .cls-132 {
        fill: #7ac582;
      }

      .cls-133 {
        fill: #eadf99;
      }

      .cls-134 {
        fill: #ead891;
      }

      .cls-135 {
        fill: #d1db91;
      }

      .cls-169 {
        fill: #6b5478;
      }

      .cls-136 {
        fill: #7dc682;
      }

      .cls-137 {
        fill: #eab26f;
      }

      .cls-138 {
        fill: #d3db91;
      }

      .cls-139 {
        fill: #eac078;
      }

      .cls-140 {
        fill: #eac27a;
      }

      .cls-141 {
        fill: #e9a66b;
      }

      .cls-142 {
        fill: #e5836b;
      }

      .cls-143 {
        fill: #eadb94;
      }

      .cls-144 {
        fill: #eacb82;
      }

      .cls-145 {
        fill: #eac37b;
      }

      .cls-146 {
        fill: #bed68a;
      }

      .cls-147 {
        fill: #b5d488;
      }

      .cls-148 {
        fill: #eaba74;
      }

      .cls-149 {
        fill: #8fca82;
      }

      .cls-150 {
        fill: #d4db91;
      }

      .cls-151 {
        fill: #e9a76b;
      }

      .cls-152 {
        fill: #c8d98d;
      }

      .cls-153 {
        fill: #70c382;
      }

      .cls-154 {
        fill: #c6d88d;
      }

      .cls-155 {
        fill: #e27270;
      }

      .cls-156 {
        fill: #aad085;
      }

      .cls-157 {
        fill: #a1ce84;
      }

      .cls-158 {
        fill: #d5dc92;
      }

      .cls-159 {
        fill: #e89969;
      }

      .cls-160 {
        fill: #e6876a;
      }

      .cls-161 {
        fill: #64c084;
      }

      .cls-162 {
        fill: #90ca83;
      }

      .cls-163 {
        fill: #a3cf84;
      }

      .cls-164 {
        fill: #e1df98;
      }

      .cls-165 {
        fill: #e9ad6d;
      }

      .cls-166 {
        fill: #e99f69;
      }

      .cls-167 {
        fill: #aed186;
      }
    </style>
  </defs>
  <g>
    <polygon class="cls-98" points="340.75 2056.66 327.43 2083.26 236.86 2031 263.15 2017.86 340.75 2056.66"/>
    <polygon class="cls-39" points="263.15 1940.26 263.15 2017.86 236.86 2031 159.65 1986.46 159.65 1979.06 219.04 1919.68 220.02 1918.7 263.15 1940.26"/>
    <polygon class="cls-19" points="340.75 1849.74 263.15 1810.94 185.54 1849.74 220.02 1918.7 263.15 1940.26 306.22 1918.7 340.75 1849.74"/>
    <polygon class="cls-22" points="263.15 1733.38 220.02 1711.82 159.66 1772.13 159.66 1841.14 185.54 1849.74 263.15 1810.94 263.15 1733.38"/>
    <polygon class="cls-164" points="340.75 1642.85 263.15 1604.05 185.54 1642.85 220.02 1711.82 263.15 1733.38 306.22 1711.82 340.75 1642.85"/>
    <polygon class="cls-87" points="263.15 1526.45 220.02 1504.89 159.66 1565.25 159.66 1634.21 185.54 1642.85 263.15 1604.05 263.15 1526.45"/>
    <polygon class="cls-88" points="340.75 1435.93 263.15 1397.12 185.54 1435.93 220.02 1504.89 263.15 1526.45 306.22 1504.89 340.75 1435.93"/>
    <polygon class="cls-143" points="263.15 1319.52 220.02 1297.96 159.66 1358.32 159.66 1427.28 185.54 1435.93 263.15 1397.12 263.15 1319.52"/>
    <polygon class="cls-119" points="340.75 1229 263.15 1190.19 185.54 1229 220.02 1297.96 263.15 1319.52 306.22 1297.96 340.75 1229"/>
    <polygon class="cls-69" points="263.15 1112.59 220.02 1091.07 159.66 1151.39 159.66 1220.4 185.54 1229 263.15 1190.19 263.15 1112.59"/>
    <polygon class="cls-62" points="340.75 1022.07 263.15 983.31 185.54 1022.07 220.02 1091.07 263.15 1112.59 306.22 1091.07 340.75 1022.07"/>
    <polygon class="cls-44" points="263.15 905.71 220.02 884.14 159.66 944.51 159.66 1013.47 185.54 1022.07 263.15 983.31 263.15 905.71"/>
    <polygon class="cls-78" points="340.75 815.18 263.15 776.38 185.54 815.18 220.02 884.14 263.15 905.71 306.22 884.14 340.75 815.18"/>
    <polygon class="cls-61" points="263.15 698.78 220.02 677.22 159.66 737.58 159.66 806.54 185.54 815.18 263.15 776.38 263.15 698.78"/>
    <polygon class="cls-124" points="340.75 608.25 263.15 569.45 185.54 608.25 220.02 677.22 263.15 698.78 306.22 677.22 340.75 608.25"/>
    <polygon class="cls-88" points="263.15 510.58 263.15 569.45 185.54 608.26 159.65 599.66 159.65 570.39 263.15 510.58"/>
    <polygon class="cls-80" points="426.95 2125.63 417.42 2135.16 327.43 2083.26 340.75 2056.66 366.59 2048.02 392.47 2056.66 426.95 2125.63"/>
    <polygon class="cls-54" points="306.22 1918.7 263.15 1940.26 263.15 2017.87 340.75 2056.67 366.59 2048.02 366.59 1979.06 306.22 1918.7"/>
    <polygon class="cls-39" points="426.95 1918.7 392.47 1849.74 366.59 1841.14 340.75 1849.74 306.22 1918.7 366.59 1979.06 426.95 1918.7"/>
    <polygon class="cls-35" points="306.22 1711.82 263.15 1733.38 263.15 1810.94 340.75 1849.74 366.59 1841.14 366.59 1772.13 306.22 1711.82"/>
    <polygon class="cls-140" points="426.95 1711.82 392.47 1642.85 366.59 1634.21 340.75 1642.85 306.22 1711.82 366.59 1772.13 426.95 1711.82"/>
    <polygon class="cls-67" points="306.22 1504.89 263.15 1526.45 263.15 1604.05 340.75 1642.85 366.59 1634.21 366.59 1565.25 306.22 1504.89"/>
    <polygon class="cls-29" points="426.95 1504.89 392.47 1435.93 366.59 1427.28 340.75 1435.93 306.22 1504.89 366.59 1565.25 426.95 1504.89"/>
    <polygon class="cls-1" points="306.22 1297.96 263.15 1319.52 263.15 1397.12 340.75 1435.93 366.59 1427.28 366.59 1358.32 306.22 1297.96"/>
    <polygon class="cls-158" points="426.95 1297.96 392.47 1229 366.59 1220.4 340.75 1229 306.22 1297.96 366.59 1358.32 426.95 1297.96"/>
    <polygon class="cls-166" points="306.22 1091.07 263.15 1112.59 263.15 1190.19 340.75 1229 366.59 1220.4 366.59 1151.39 306.22 1091.07"/>
    <polygon class="cls-129" points="426.95 1091.07 392.47 1022.07 366.59 1013.47 340.75 1022.07 306.22 1091.07 366.59 1151.39 426.95 1091.07"/>
    <polygon class="cls-60" points="306.22 884.14 263.15 905.71 263.15 983.31 340.75 1022.07 366.59 1013.47 366.59 944.51 306.22 884.14"/>
    <polygon class="cls-108" points="426.95 884.14 392.47 815.18 366.59 806.54 340.75 815.18 306.22 884.14 366.59 944.51 426.95 884.14"/>
    <polygon class="cls-166" points="306.22 677.22 263.15 698.78 263.15 776.38 340.75 815.18 366.59 806.54 366.59 737.58 306.22 677.22"/>
    <polygon class="cls-60" points="426.95 677.22 392.47 608.25 366.59 599.66 340.75 608.25 306.22 677.22 366.59 737.58 426.95 677.22"/>
    <polygon class="cls-102" points="366.59 530.65 366.59 599.66 340.75 608.26 308.48 592.12 263.15 569.45 263.15 510.58 315.95 480.06 315.96 480.06 366.59 530.65"/>
    <polygon class="cls-19" points="426.95 470.33 366.59 530.65 315.96 480.06 405.85 428.1 426.95 470.33"/>
    <polygon class="cls-112" points="470.08 2147.19 470.08 2165.55 417.42 2135.16 426.95 2125.63 470.08 2147.19"/>
    <polygon class="cls-14" points="547.63 2056.67 470.07 2017.87 392.47 2056.67 426.95 2125.63 470.07 2147.19 513.15 2125.63 547.63 2056.67"/>
    <polygon class="cls-70" points="470.07 1940.26 426.95 1918.7 366.59 1979.06 366.59 2048.02 392.47 2056.67 470.07 2017.87 470.07 1940.26"/>
    <polygon class="cls-3" points="547.63 1849.74 470.07 1810.94 392.47 1849.74 426.95 1918.7 470.07 1940.26 513.15 1918.7 547.63 1849.74"/>
    <polygon class="cls-121" points="470.07 1733.38 426.95 1711.82 366.59 1772.13 366.59 1841.14 392.47 1849.74 470.07 1810.94 470.07 1733.38"/>
    <polygon class="cls-71" points="547.63 1642.85 470.07 1604.05 392.47 1642.85 426.95 1711.82 470.07 1733.38 513.15 1711.82 547.63 1642.85"/>
    <polygon class="cls-126" points="470.07 1526.45 426.95 1504.89 366.59 1565.25 366.59 1634.21 392.47 1642.85 470.07 1604.05 470.07 1526.45"/>
    <polygon class="cls-80" points="547.63 1435.93 470.07 1397.12 392.47 1435.93 426.95 1504.89 470.07 1526.45 513.15 1504.89 547.63 1435.93"/>
    <polygon class="cls-132" points="470.07 1319.52 426.95 1297.96 366.59 1358.32 366.59 1427.28 392.47 1435.93 470.07 1397.12 470.07 1319.52"/>
    <polygon class="cls-50" points="547.63 1229 470.07 1190.19 392.47 1229 426.95 1297.96 470.07 1319.52 513.15 1297.96 547.63 1229"/>
    <polygon class="cls-128" points="470.07 1112.59 426.95 1091.07 366.59 1151.39 366.59 1220.4 392.47 1229 470.07 1190.19 470.07 1112.59"/>
    <polygon class="cls-65" points="547.63 1022.07 470.07 983.31 392.47 1022.07 426.95 1091.07 470.07 1112.59 513.15 1091.07 547.63 1022.07"/>
    <polygon class="cls-140" points="470.07 905.71 426.95 884.14 366.59 944.51 366.59 1013.47 392.47 1022.07 470.07 983.31 470.07 905.71"/>
    <polygon class="cls-89" points="547.63 815.18 470.07 776.38 392.47 815.18 426.95 884.14 470.07 905.71 513.15 884.14 547.63 815.18"/>
    <polygon class="cls-82" points="470.07 698.78 426.95 677.22 366.59 737.58 366.59 806.54 392.47 815.18 470.07 776.38 470.07 698.78"/>
    <polygon class="cls-23" points="547.63 608.25 470.07 569.45 392.47 608.25 426.95 677.22 470.07 698.78 513.15 677.22 547.63 608.25"/>
    <polygon class="cls-142" points="470.07 491.85 426.95 470.33 366.59 530.65 366.59 599.66 392.47 608.25 470.07 569.45 470.07 491.85"/>
    <polygon class="cls-100" points="547.63 401.33 513.15 470.33 470.08 491.85 426.95 470.33 405.85 428.1 496.47 375.73 547.63 401.33"/>
    <polygon class="cls-67" points="573.52 2185.99 573.52 2225.22 470.08 2165.55 470.08 2147.19 513.15 2125.63 573.52 2185.99"/>
    <polygon class="cls-60" points="633.88 2125.63 599.35 2056.67 573.52 2048.02 547.63 2056.67 513.15 2125.63 573.52 2185.99 633.88 2125.63"/>
    <polygon class="cls-114" points="513.15 1918.7 470.07 1940.26 470.07 2017.87 547.63 2056.67 573.52 2048.02 573.52 1979.06 513.15 1918.7"/>
    <polygon class="cls-92" points="633.88 1918.7 599.35 1849.74 573.52 1841.14 547.63 1849.74 513.15 1918.7 573.52 1979.06 633.88 1918.7"/>
    <polygon class="cls-125" points="513.15 1711.82 470.07 1733.38 470.07 1810.94 547.63 1849.74 573.52 1841.14 573.52 1772.13 513.15 1711.82"/>
    <polygon class="cls-106" points="633.88 1711.82 599.35 1642.85 573.52 1634.21 547.63 1642.85 513.15 1711.82 573.52 1772.13 633.88 1711.82"/>
    <polygon class="cls-157" points="513.15 1504.89 470.07 1526.45 470.07 1604.05 547.63 1642.85 573.52 1634.21 573.52 1565.25 513.15 1504.89"/>
    <polygon class="cls-17" points="633.88 1504.89 599.35 1435.93 573.52 1427.28 547.63 1435.93 513.15 1504.89 573.52 1565.25 633.88 1504.89"/>
    <polygon class="cls-33" points="513.15 1297.96 470.07 1319.52 470.07 1397.12 547.63 1435.93 573.52 1427.28 573.52 1358.32 513.15 1297.96"/>
    <polygon class="cls-134" points="633.88 1297.96 599.35 1229 573.52 1220.4 547.63 1229 513.15 1297.96 573.52 1358.32 633.88 1297.96"/>
    <polygon class="cls-163" points="513.15 1091.07 470.07 1112.59 470.07 1190.19 547.63 1229 573.52 1220.4 573.52 1151.39 513.15 1091.07"/>
    <polygon class="cls-47" points="633.88 1091.07 599.35 1022.07 573.52 1013.47 547.63 1022.07 513.15 1091.07 573.52 1151.39 633.88 1091.07"/>
    <polygon class="cls-148" points="513.15 884.14 470.07 905.71 470.07 983.31 547.63 1022.07 573.52 1013.47 573.52 944.51 513.15 884.14"/>
    <polygon class="cls-1" points="633.88 884.14 599.35 815.18 573.52 806.54 547.63 815.18 513.15 884.14 573.52 944.51 633.88 884.14"/>
    <polygon class="cls-60" points="513.15 677.22 470.07 698.78 470.07 776.38 547.63 815.18 573.52 806.54 573.52 737.58 513.15 677.22"/>
    <polygon class="cls-145" points="633.88 677.22 599.35 608.25 573.52 599.66 547.63 608.25 513.15 677.22 573.52 737.58 633.88 677.22"/>
    <polygon class="cls-137" points="513.15 470.33 470.07 491.85 470.07 569.45 547.63 608.25 573.52 599.66 573.52 530.65 513.15 470.33"/>
    <polygon class="cls-8" points="633.88 470.33 599.35 401.33 573.52 392.73 547.63 401.33 513.15 470.33 573.52 530.65 633.88 470.33"/>
    <polygon class="cls-137" points="573.52 331.19 573.52 392.73 547.63 401.33 496.47 375.73 573.52 331.19"/>
    <polygon class="cls-31" points="754.56 2263.6 728.92 2314.88 621.15 2252.7 676.96 2224.79 754.56 2263.6"/>
    <polygon class="cls-8" points="676.96 2147.19 676.96 2224.79 621.15 2252.7 573.52 2225.22 573.52 2185.99 633.88 2125.63 676.96 2147.19"/>
    <polygon class="cls-111" points="754.56 2056.67 676.96 2017.87 599.35 2056.67 633.88 2125.63 676.96 2147.19 720.08 2125.63 754.56 2056.67"/>
    <polygon class="cls-18" points="676.96 1940.26 633.88 1918.7 573.52 1979.06 573.52 2048.02 599.35 2056.67 676.96 2017.87 676.96 1940.26"/>
    <polygon class="cls-80" points="754.56 1849.74 676.96 1810.94 599.35 1849.74 633.88 1918.7 676.96 1940.26 720.08 1918.7 754.56 1849.74"/>
    <polygon class="cls-49" points="676.96 1733.38 633.88 1711.82 573.52 1772.13 573.52 1841.14 599.35 1849.74 676.96 1810.94 676.96 1733.38"/>
    <polygon class="cls-153" points="754.56 1642.85 676.96 1604.05 599.35 1642.85 633.88 1711.82 676.96 1733.38 720.08 1711.82 754.56 1642.85"/>
    <polygon class="cls-19" points="676.96 1526.45 633.88 1504.89 573.52 1565.25 573.52 1634.21 599.35 1642.85 676.96 1604.05 676.96 1526.45"/>
    <polygon class="cls-152" points="754.56 1435.93 676.96 1397.12 599.35 1435.93 633.88 1504.89 676.96 1526.45 720.08 1504.89 754.56 1435.93"/>
    <polygon class="cls-115" points="676.96 1319.52 633.88 1297.96 573.52 1358.32 573.52 1427.28 599.35 1435.93 676.96 1397.12 676.96 1319.52"/>
    <polygon class="cls-27" points="754.56 1229 676.96 1190.19 599.35 1229 633.88 1297.96 676.96 1319.52 720.08 1297.96 754.56 1229"/>
    <polygon class="cls-47" points="676.96 1112.59 633.88 1091.07 573.52 1151.39 573.52 1220.4 599.35 1229 676.96 1190.19 676.96 1112.59"/>
    <polygon class="cls-12" points="754.56 1022.07 676.96 983.31 599.35 1022.07 633.88 1091.07 676.96 1112.59 720.08 1091.07 754.56 1022.07"/>
    <polygon class="cls-164" points="676.96 905.71 633.88 884.14 573.52 944.51 573.52 1013.47 599.35 1022.07 676.96 983.31 676.96 905.71"/>
    <polygon class="cls-49" points="754.56 815.18 676.96 776.38 599.35 815.18 633.88 884.14 676.96 905.71 720.08 884.14 754.56 815.18"/>
    <polygon class="cls-70" points="676.96 698.78 633.88 677.22 573.52 737.58 573.52 806.54 599.35 815.18 676.96 776.38 676.96 698.78"/>
    <polygon class="cls-6" points="754.56 608.25 676.96 569.45 599.35 608.25 633.88 677.22 676.96 698.78 720.08 677.22 754.56 608.25"/>
    <polygon class="cls-145" points="676.96 491.85 633.88 470.33 573.52 530.65 573.52 599.66 599.35 608.25 676.96 569.45 676.96 491.85"/>
    <polygon class="cls-73" points="754.56 401.33 676.96 362.52 599.35 401.33 633.88 470.33 676.96 491.85 720.08 470.33 754.56 401.33"/>
    <polygon class="cls-5" points="676.96 284.96 676.96 362.53 599.36 401.33 573.52 392.73 573.52 331.19 664.4 278.67 676.96 284.96"/>
    <polygon class="cls-141" points="731.99 239.62 720.09 263.4 676.96 284.96 664.4 278.67 731.99 239.62"/>
    <polygon class="cls-108" points="840.77 2332.56 811.07 2362.27 728.92 2314.88 754.56 2263.6 780.45 2254.96 806.28 2263.6 840.77 2332.56"/>
    <polygon class="cls-86" points="720.08 2125.63 676.96 2147.19 676.96 2224.79 754.56 2263.6 780.45 2254.95 780.45 2185.99 720.08 2125.63"/>
    <polygon class="cls-158" points="840.76 2125.63 806.28 2056.67 780.45 2048.02 754.56 2056.67 720.08 2125.63 780.45 2185.99 840.76 2125.63"/>
    <polygon class="cls-127" points="720.08 1918.7 676.96 1940.26 676.96 2017.87 754.56 2056.67 780.45 2048.02 780.45 1979.06 720.08 1918.7"/>
    <polygon class="cls-81" points="840.76 1918.7 806.28 1849.74 780.45 1841.14 754.56 1849.74 720.08 1918.7 780.45 1979.06 840.76 1918.7"/>
    <polygon class="cls-95" points="720.08 1711.82 676.96 1733.38 676.96 1810.94 754.56 1849.74 780.45 1841.14 780.45 1772.13 720.08 1711.82"/>
    <polygon class="cls-77" points="840.76 1711.82 806.28 1642.85 780.45 1634.21 754.56 1642.85 720.08 1711.82 780.45 1772.13 840.76 1711.82"/>
    <polygon class="cls-26" points="720.08 1504.89 676.96 1526.45 676.96 1604.05 754.56 1642.85 780.45 1634.21 780.45 1565.25 720.08 1504.89"/>
    <polygon class="cls-71" points="840.76 1504.89 806.28 1435.93 780.45 1427.28 754.56 1435.93 720.08 1504.89 780.45 1565.25 840.76 1504.89"/>
    <polygon class="cls-66" points="720.08 1297.96 676.96 1319.52 676.96 1397.12 754.56 1435.93 780.45 1427.28 780.45 1358.32 720.08 1297.96"/>
    <polygon class="cls-167" points="840.76 1297.96 806.28 1229 780.45 1220.4 754.56 1229 720.08 1297.96 780.45 1358.32 840.76 1297.96"/>
    <polygon class="cls-164" points="720.08 1091.07 676.96 1112.59 676.96 1190.19 754.56 1229 780.45 1220.4 780.45 1151.39 720.08 1091.07"/>
    <polygon class="cls-9" points="840.76 1091.07 806.28 1022.07 780.45 1013.47 754.56 1022.07 720.08 1091.07 780.45 1151.39 840.76 1091.07"/>
    <polygon class="cls-12" points="720.08 884.14 676.96 905.71 676.96 983.31 754.56 1022.07 780.45 1013.47 780.45 944.51 720.08 884.14"/>
    <polygon class="cls-130" points="840.76 884.14 806.28 815.18 780.45 806.54 754.56 815.18 720.08 884.14 780.45 944.51 840.76 884.14"/>
    <polygon class="cls-60" points="720.08 677.22 676.96 698.78 676.96 776.38 754.56 815.18 780.45 806.54 780.45 737.58 720.08 677.22"/>
    <polygon class="cls-61" points="840.76 677.22 806.28 608.25 780.45 599.66 754.56 608.25 720.08 677.22 780.45 737.58 840.76 677.22"/>
    <polygon class="cls-12" points="720.08 470.33 676.96 491.85 676.96 569.45 754.56 608.25 780.45 599.66 780.45 530.65 720.08 470.33"/>
    <polygon class="cls-144" points="840.76 470.33 806.28 401.33 780.45 392.73 754.56 401.33 720.08 470.33 780.45 530.65 840.76 470.33"/>
    <polygon class="cls-84" points="720.08 263.4 676.96 284.97 676.96 362.52 754.56 401.33 780.45 392.73 780.45 323.77 720.08 263.4"/>
    <polygon class="cls-29" points="840.77 263.4 791.55 312.66 780.45 323.76 720.09 263.4 731.99 239.62 807.16 196.17 840.77 263.4"/>
    <polygon class="cls-148" points="883.89 2354.12 883.89 2404.28 811.07 2362.27 840.77 2332.56 883.89 2354.12"/>
    <polygon class="cls-16" points="961.49 2263.6 883.89 2224.79 806.28 2263.6 840.76 2332.56 883.89 2354.12 927.01 2332.56 961.49 2263.6"/>
    <polygon class="cls-106" points="883.89 2147.19 840.76 2125.63 780.45 2185.99 780.45 2254.95 806.28 2263.6 883.89 2224.79 883.89 2147.19"/>
    <polygon class="cls-129" points="961.49 2056.67 883.89 2017.87 806.28 2056.67 840.76 2125.63 883.89 2147.19 927.01 2125.63 961.49 2056.67"/>
    <polygon class="cls-81" points="883.89 1940.26 840.76 1918.7 780.45 1979.06 780.45 2048.02 806.28 2056.67 883.89 2017.87 883.89 1940.26"/>
    <polygon class="cls-162" points="961.49 1849.74 883.89 1810.94 806.28 1849.74 840.76 1918.7 883.89 1940.26 927.01 1918.7 961.49 1849.74"/>
    <polygon class="cls-164" points="883.89 1733.38 840.76 1711.82 780.45 1772.13 780.45 1841.14 806.28 1849.74 883.89 1810.94 883.89 1733.38"/>
    <polygon class="cls-66" points="961.49 1642.85 883.89 1604.05 806.28 1642.85 840.76 1711.82 883.89 1733.38 927.01 1711.82 961.49 1642.85"/>
    <polygon class="cls-23" points="883.89 1526.45 840.76 1504.89 780.45 1565.25 780.45 1634.21 806.28 1642.85 883.89 1604.05 883.89 1526.45"/>
    <polygon class="cls-37" points="961.49 1435.93 883.89 1397.12 806.28 1435.93 840.76 1504.89 883.89 1526.45 927.01 1504.89 961.49 1435.93"/>
    <polygon class="cls-43" points="883.89 1319.52 840.76 1297.96 780.45 1358.32 780.45 1427.28 806.28 1435.93 883.89 1397.12 883.89 1319.52"/>
    <polygon class="cls-161" points="961.49 1229 883.89 1190.19 806.28 1229 840.76 1297.96 883.89 1319.52 927.01 1297.96 961.49 1229"/>
    <polygon class="cls-137" points="883.89 1112.59 840.76 1091.07 780.45 1151.39 780.45 1220.4 806.28 1229 883.89 1190.19 883.89 1112.59"/>
    <polygon class="cls-81" points="961.49 1022.07 883.89 983.31 806.28 1022.07 840.76 1091.07 883.89 1112.59 927.01 1091.07 961.49 1022.07"/>
    <polygon class="cls-36" points="883.89 905.71 840.76 884.14 780.45 944.51 780.45 1013.47 806.28 1022.07 883.89 983.31 883.89 905.71"/>
    <polygon class="cls-79" points="961.49 815.18 883.89 776.38 806.28 815.18 840.76 884.14 883.89 905.71 927.01 884.14 961.49 815.18"/>
    <polygon class="cls-78" points="883.89 698.78 840.76 677.22 780.45 737.58 780.45 806.54 806.28 815.18 883.89 776.38 883.89 698.78"/>
    <polygon class="cls-68" points="961.49 608.25 883.89 569.45 806.28 608.25 840.76 677.22 883.89 698.78 927.01 677.22 961.49 608.25"/>
    <polygon class="cls-40" points="883.89 491.85 840.76 470.33 780.45 530.65 780.45 599.66 806.28 608.25 883.89 569.45 883.89 491.85"/>
    <polygon class="cls-143" points="961.49 401.33 883.89 362.52 806.28 401.33 840.76 470.33 883.89 491.85 927.01 470.33 961.49 401.33"/>
    <polygon class="cls-165" points="883.89 284.97 840.76 263.4 780.45 323.77 780.45 392.73 806.28 401.33 883.89 362.52 883.89 284.97"/>
    <polygon class="cls-102" points="987.33 92.04 987.33 142.72 947.48 222.45 927.01 263.4 883.89 284.96 860.04 273.03 840.77 263.4 807.16 196.17 987.33 92.04"/>
    <polygon class="cls-56" points="1019.11 2482.28 985.05 2462.63 987.33 2461.88 1013.21 2470.48 1019.11 2482.28"/>
    <polygon class="cls-74" points="987.33 2392.92 987.33 2461.88 985.05 2462.63 883.89 2404.28 883.89 2354.12 927.01 2332.56 987.33 2392.92"/>
    <polygon class="cls-103" points="1047.69 2332.56 1013.21 2263.6 987.33 2254.95 961.49 2263.6 927.01 2332.56 987.33 2392.92 1047.69 2332.56"/>
    <polygon class="cls-98" points="927.01 2125.63 883.89 2147.19 883.89 2224.79 961.49 2263.6 987.33 2254.95 987.33 2185.99 927.01 2125.63"/>
    <polygon class="cls-96" points="1047.69 2125.63 1013.21 2056.67 987.33 2048.02 961.49 2056.67 927.01 2125.63 987.33 2185.99 1047.69 2125.63"/>
    <polygon class="cls-83" points="927.01 1918.7 883.89 1940.26 883.89 2017.87 961.49 2056.67 987.33 2048.02 987.33 1979.06 927.01 1918.7"/>
    <polygon class="cls-88" points="1047.69 1918.7 1013.21 1849.74 987.33 1841.14 961.49 1849.74 927.01 1918.7 987.33 1979.06 1047.69 1918.7"/>
    <polygon class="cls-36" points="927.01 1711.82 883.89 1733.38 883.89 1810.94 961.49 1849.74 987.33 1841.14 987.33 1772.13 927.01 1711.82"/>
    <polygon class="cls-32" points="1047.69 1711.82 1013.21 1642.85 987.33 1634.21 961.49 1642.85 927.01 1711.82 987.33 1772.13 1047.69 1711.82"/>
    <polygon class="cls-75" points="927.01 1504.89 883.89 1526.45 883.89 1604.05 961.49 1642.85 987.33 1634.21 987.33 1565.25 927.01 1504.89"/>
    <polygon class="cls-154" points="1047.69 1504.89 1013.21 1435.93 987.33 1427.28 961.49 1435.93 927.01 1504.89 987.33 1565.25 1047.69 1504.89"/>
    <polygon class="cls-57" points="927.01 1297.96 883.89 1319.52 883.89 1397.12 961.49 1435.93 987.33 1427.28 987.33 1358.32 927.01 1297.96"/>
    <polygon class="cls-4" points="1047.69 1297.96 1013.21 1229 987.33 1220.4 961.49 1229 927.01 1297.96 987.33 1358.32 1047.69 1297.96"/>
    <polygon class="cls-30" points="927.01 1091.07 883.89 1112.59 883.89 1190.19 961.49 1229 987.33 1220.4 987.33 1151.39 927.01 1091.07"/>
    <polygon class="cls-157" points="1047.69 1091.07 1013.21 1022.07 987.33 1013.47 961.49 1022.07 927.01 1091.07 987.33 1151.39 1047.69 1091.07"/>
    <polygon class="cls-68" points="927.01 884.14 883.89 905.71 883.89 983.31 961.49 1022.07 987.33 1013.47 987.33 944.51 927.01 884.14"/>
    <polygon class="cls-92" points="1047.69 884.14 1013.21 815.18 987.33 806.54 961.49 815.18 927.01 884.14 987.33 944.51 1047.69 884.14"/>
    <polygon class="cls-53" points="927.01 677.22 883.89 698.78 883.89 776.38 961.49 815.18 987.33 806.54 987.33 737.58 927.01 677.22"/>
    <polygon class="cls-131" points="1047.69 677.22 1013.21 608.25 987.33 599.66 961.49 608.25 927.01 677.22 987.33 737.58 1047.69 677.22"/>
    <polygon class="cls-103" points="927.01 470.33 883.89 491.85 883.89 569.45 961.49 608.25 987.33 599.66 987.33 530.65 927.01 470.33"/>
    <polygon class="cls-143" points="1047.69 470.33 1013.21 401.33 987.33 392.73 961.49 401.33 927.01 470.33 987.33 530.65 1047.69 470.33"/>
    <polygon class="cls-155" points="927.01 263.4 883.89 284.97 883.89 362.52 961.49 401.33 987.33 392.73 987.33 323.77 927.01 263.4"/>
    <polygon class="cls-155" points="1047.69 263.4 987.33 142.72 927.01 263.4 987.33 323.77 1047.69 263.4"/>
    <polygon class="cls-41" points="1168.38 2470.48 1151.06 2505.13 1107.91 2530.11 1102.02 2530.11 1019.11 2482.28 1013.21 2470.48 1090.81 2431.68 1168.38 2470.48"/>
    <polygon class="cls-67" points="1090.82 2354.12 1047.69 2332.56 987.33 2392.92 987.33 2461.88 1013.21 2470.48 1090.82 2431.68 1090.82 2354.12"/>
    <polygon class="cls-42" points="1168.37 2263.6 1090.82 2224.79 1013.21 2263.6 1047.69 2332.56 1090.82 2354.12 1133.89 2332.56 1168.37 2263.6"/>
    <polygon class="cls-15" points="1090.82 2147.19 1047.69 2125.63 987.33 2185.99 987.33 2254.95 1013.21 2263.6 1090.82 2224.79 1090.82 2147.19"/>
    <polygon class="cls-89" points="1168.37 2056.67 1090.82 2017.87 1013.21 2056.67 1047.69 2125.63 1090.82 2147.19 1133.89 2125.63 1168.37 2056.67"/>
    <polygon class="cls-52" points="1090.82 1940.26 1047.69 1918.7 987.33 1979.06 987.33 2048.02 1013.21 2056.67 1090.82 2017.87 1090.82 1940.26"/>
    <polygon class="cls-27" points="1168.37 1849.74 1090.82 1810.94 1013.21 1849.74 1047.69 1918.7 1090.82 1940.26 1133.89 1918.7 1168.37 1849.74"/>
    <polygon class="cls-156" points="1090.82 1733.38 1047.69 1711.82 987.33 1772.13 987.33 1841.14 1013.21 1849.74 1090.82 1810.94 1090.82 1733.38"/>
    <polygon class="cls-21" points="1168.37 1642.85 1090.82 1604.05 1013.21 1642.85 1047.69 1711.82 1090.82 1733.38 1133.89 1711.82 1168.37 1642.85"/>
    <polygon class="cls-90" points="1090.82 1526.45 1047.69 1504.89 987.33 1565.25 987.33 1634.21 1013.21 1642.85 1090.82 1604.05 1090.82 1526.45"/>
    <polygon class="cls-158" points="1168.37 1435.93 1090.82 1397.12 1013.21 1435.93 1047.69 1504.89 1090.82 1526.45 1133.89 1504.89 1168.37 1435.93"/>
    <polygon class="cls-52" points="1090.82 1319.52 1047.69 1297.96 987.33 1358.32 987.33 1427.28 1013.21 1435.93 1090.82 1397.12 1090.82 1319.52"/>
    <polygon class="cls-63" points="1168.37 1229 1090.82 1190.19 1013.21 1229 1047.69 1297.96 1090.82 1319.52 1133.89 1297.96 1168.37 1229"/>
    <polygon class="cls-79" points="1090.82 1112.59 1047.69 1091.07 987.33 1151.39 987.33 1220.4 1013.21 1229 1090.82 1190.19 1090.82 1112.59"/>
    <polygon class="cls-133" points="1168.37 1022.07 1090.82 983.31 1013.21 1022.07 1047.69 1091.07 1090.82 1112.59 1133.89 1091.07 1168.37 1022.07"/>
    <polygon class="cls-72" points="1090.82 905.71 1047.69 884.14 987.33 944.51 987.33 1013.47 1013.21 1022.07 1090.82 983.31 1090.82 905.71"/>
    <polygon class="cls-110" points="1168.37 815.18 1090.82 776.38 1013.21 815.18 1047.69 884.14 1090.82 905.71 1133.89 884.14 1168.37 815.18"/>
    <polygon class="cls-148" points="1090.82 698.78 1047.69 677.22 987.33 737.58 987.33 806.54 1013.21 815.18 1090.82 776.38 1090.82 698.78"/>
    <polygon class="cls-3" points="1168.37 608.25 1090.82 569.45 1013.21 608.25 1047.69 677.22 1090.82 698.78 1133.89 677.22 1168.37 608.25"/>
    <polygon class="cls-68" points="1090.82 491.85 1047.69 470.33 987.33 530.65 987.33 599.66 1013.21 608.25 1090.82 569.45 1090.82 491.85"/>
    <polygon class="cls-51" points="1168.37 401.33 1090.82 362.52 1013.21 401.33 1047.69 470.33 1090.82 491.85 1133.89 470.33 1168.37 401.33"/>
    <polygon class="cls-143" points="1090.82 284.97 1047.69 263.4 987.33 323.77 987.33 392.73 1013.21 401.33 1090.82 362.52 1090.82 284.97"/>
    <polygon class="cls-97" points="1194.25 76.88 1194.25 142.72 1178.47 174.28 1133.89 263.4 1090.81 284.96 1047.7 263.4 1009.32 186.67 987.33 142.72 987.33 92.04 1100.05 26.89 1107.91 26.89 1194.25 76.88"/>
    <polygon class="cls-144" points="1214.27 2468.53 1151.06 2505.13 1168.38 2470.48 1194.25 2461.88 1214.27 2468.53"/>
    <polygon class="cls-6" points="1133.89 2332.56 1090.82 2354.12 1090.82 2431.68 1168.37 2470.48 1194.26 2461.88 1194.26 2392.92 1133.89 2332.56"/>
    <polygon class="cls-84" points="1254.62 2332.56 1220.14 2263.6 1194.26 2254.95 1168.37 2263.6 1133.89 2332.56 1194.26 2392.92 1254.62 2332.56"/>
    <polygon class="cls-81" points="1133.89 2125.63 1090.82 2147.19 1090.82 2224.79 1168.37 2263.6 1194.26 2254.95 1194.26 2185.99 1133.89 2125.63"/>
    <polygon class="cls-68" points="1254.62 2125.63 1220.14 2056.67 1194.26 2048.02 1168.37 2056.67 1133.89 2125.63 1194.26 2185.99 1254.62 2125.63"/>
    <polygon class="cls-123" points="1133.89 1918.7 1090.82 1940.26 1090.82 2017.87 1168.37 2056.67 1194.26 2048.02 1194.26 1979.06 1133.89 1918.7"/>
    <polygon class="cls-134" points="1254.62 1918.7 1220.14 1849.74 1194.26 1841.14 1168.37 1849.74 1133.89 1918.7 1194.26 1979.06 1254.62 1918.7"/>
    <polygon class="cls-25" points="1133.89 1711.82 1090.82 1733.38 1090.82 1810.94 1168.37 1849.74 1194.26 1841.14 1194.26 1772.13 1133.89 1711.82"/>
    <polygon class="cls-2" points="1254.62 1711.82 1220.14 1642.85 1194.26 1634.21 1168.37 1642.85 1133.89 1711.82 1194.26 1772.13 1254.62 1711.82"/>
    <polygon class="cls-85" points="1133.89 1504.89 1090.82 1526.45 1090.82 1604.05 1168.37 1642.85 1194.26 1634.21 1194.26 1565.25 1133.89 1504.89"/>
    <polygon class="cls-122" points="1254.62 1504.89 1220.14 1435.93 1194.26 1427.28 1168.37 1435.93 1133.89 1504.89 1194.26 1565.25 1254.62 1504.89"/>
    <polygon class="cls-138" points="1133.89 1297.96 1090.82 1319.52 1090.82 1397.12 1168.37 1435.93 1194.26 1427.28 1194.26 1358.32 1133.89 1297.96"/>
    <polygon class="cls-147" points="1254.62 1297.96 1220.14 1229 1194.26 1220.4 1168.37 1229 1133.89 1297.96 1194.26 1358.32 1254.62 1297.96"/>
    <polygon class="cls-47" points="1133.89 1091.07 1090.82 1112.59 1090.82 1190.19 1168.37 1229 1194.26 1220.4 1194.26 1151.39 1133.89 1091.07"/>
    <polygon class="cls-19" points="1254.62 1091.07 1220.14 1022.07 1194.26 1013.47 1168.37 1022.07 1133.89 1091.07 1194.26 1151.39 1254.62 1091.07"/>
    <polygon class="cls-143" points="1133.89 884.14 1090.82 905.71 1090.82 983.31 1168.37 1022.07 1194.26 1013.47 1194.26 944.51 1133.89 884.14"/>
    <polygon class="cls-80" points="1254.62 884.14 1220.14 815.18 1194.26 806.54 1168.37 815.18 1133.89 884.14 1194.26 944.51 1254.62 884.14"/>
    <polygon class="cls-118" points="1133.89 677.22 1090.82 698.78 1090.82 776.38 1168.37 815.18 1194.26 806.54 1194.26 737.58 1133.89 677.22"/>
    <polygon class="cls-106" points="1254.62 677.22 1220.14 608.25 1194.26 599.66 1168.37 608.25 1133.89 677.22 1194.26 737.58 1254.62 677.22"/>
    <polygon class="cls-133" points="1133.89 470.33 1090.82 491.85 1090.82 569.45 1168.37 608.25 1194.26 599.66 1194.26 530.65 1133.89 470.33"/>
    <polygon class="cls-88" points="1254.62 470.33 1220.14 401.33 1194.26 392.73 1168.37 401.33 1133.89 470.33 1194.26 530.65 1254.62 470.33"/>
    <polygon class="cls-86" points="1133.89 263.4 1090.82 284.97 1090.82 362.52 1168.37 401.33 1194.26 392.73 1194.26 323.77 1133.89 263.4"/>
    <polygon class="cls-78" points="1254.62 263.4 1194.26 142.72 1133.89 263.4 1194.26 323.77 1254.62 263.4"/>
    <polygon class="cls-125" points="1297.7 2354.12 1297.7 2420.23 1214.27 2468.53 1194.25 2461.88 1194.25 2392.92 1229.73 2357.44 1254.62 2332.56 1264.41 2337.46 1297.7 2354.12"/>
    <polygon class="cls-163" points="1375.3 2263.6 1297.7 2224.79 1220.14 2263.6 1254.62 2332.56 1297.7 2354.12 1340.82 2332.56 1375.3 2263.6"/>
    <polygon class="cls-49" points="1297.7 2147.19 1254.62 2125.63 1194.26 2185.99 1194.26 2254.95 1220.14 2263.6 1297.7 2224.79 1297.7 2147.19"/>
    <polygon class="cls-114" points="1375.3 2056.67 1297.7 2017.87 1220.14 2056.67 1254.62 2125.63 1297.7 2147.19 1340.82 2125.63 1375.3 2056.67"/>
    <polygon class="cls-118" points="1297.7 1940.26 1254.62 1918.7 1194.26 1979.06 1194.26 2048.02 1220.14 2056.67 1297.7 2017.87 1297.7 1940.26"/>
    <polygon class="cls-101" points="1375.3 1849.74 1297.7 1810.94 1220.14 1849.74 1254.62 1918.7 1297.7 1940.26 1340.82 1918.7 1375.3 1849.74"/>
    <polygon class="cls-20" points="1297.7 1733.38 1254.62 1711.82 1194.26 1772.13 1194.26 1841.14 1220.14 1849.74 1297.7 1810.94 1297.7 1733.38"/>
    <polygon class="cls-38" points="1375.3 1642.85 1297.7 1604.05 1220.14 1642.85 1254.62 1711.82 1297.7 1733.38 1340.82 1711.82 1375.3 1642.85"/>
    <polygon class="cls-23" points="1297.7 1526.45 1254.62 1504.89 1194.26 1565.25 1194.26 1634.21 1220.14 1642.85 1297.7 1604.05 1297.7 1526.45"/>
    <polygon class="cls-76" points="1375.3 1435.93 1297.7 1397.12 1220.14 1435.93 1254.62 1504.89 1297.7 1526.45 1340.82 1504.89 1375.3 1435.93"/>
    <polygon class="cls-18" points="1297.7 1319.52 1254.62 1297.96 1194.26 1358.32 1194.26 1427.28 1220.14 1435.93 1297.7 1397.12 1297.7 1319.52"/>
    <polygon class="cls-161" points="1375.3 1229 1297.7 1190.19 1220.14 1229 1254.62 1297.96 1297.7 1319.52 1340.82 1297.96 1375.3 1229"/>
    <polygon class="cls-83" points="1297.7 1112.59 1254.62 1091.07 1194.26 1151.39 1194.26 1220.4 1220.14 1229 1297.7 1190.19 1297.7 1112.59"/>
    <polygon class="cls-139" points="1375.3 1022.07 1297.7 983.31 1220.14 1022.07 1254.62 1091.07 1297.7 1112.59 1340.82 1091.07 1375.3 1022.07"/>
    <polygon class="cls-52" points="1297.7 905.71 1254.62 884.14 1194.26 944.51 1194.26 1013.47 1220.14 1022.07 1297.7 983.31 1297.7 905.71"/>
    <polygon class="cls-58" points="1375.3 815.18 1297.7 776.38 1220.14 815.18 1254.62 884.14 1297.7 905.71 1340.82 884.14 1375.3 815.18"/>
    <polygon class="cls-8" points="1297.7 698.78 1254.62 677.22 1194.26 737.58 1194.26 806.54 1220.14 815.18 1297.7 776.38 1297.7 698.78"/>
    <polygon class="cls-78" points="1375.3 608.25 1297.7 569.45 1220.14 608.25 1254.62 677.22 1297.7 698.78 1340.82 677.22 1375.3 608.25"/>
    <polygon class="cls-144" points="1297.7 491.85 1254.62 470.33 1194.26 530.65 1194.26 599.66 1220.14 608.25 1297.7 569.45 1297.7 491.85"/>
    <polygon class="cls-113" points="1375.3 401.33 1297.7 362.52 1220.14 401.33 1254.62 470.33 1297.7 491.85 1340.82 470.33 1375.3 401.33"/>
    <polygon class="cls-120" points="1297.7 284.97 1254.62 263.4 1194.26 323.77 1194.26 392.73 1220.14 401.33 1297.7 362.52 1297.7 284.97"/>
    <polygon class="cls-46" points="1380.25 184.57 1340.82 263.4 1297.7 284.96 1254.62 263.4 1222.6 199.38 1194.25 142.72 1194.25 76.88 1380.25 184.57"/>
    <polygon class="cls-80" points="1380.53 2372.27 1297.7 2420.23 1297.7 2354.12 1340.82 2332.56 1380.53 2372.27"/>
    <polygon class="cls-157" points="1458.72 2327 1380.53 2372.27 1340.82 2332.56 1368.3 2277.59 1375.3 2263.6 1401.19 2254.96 1405.24 2256.31 1427.02 2263.6 1458.72 2327"/>
    <polygon class="cls-87" points="1340.82 2125.63 1297.7 2147.19 1297.7 2224.79 1375.3 2263.6 1401.19 2254.95 1401.19 2185.99 1340.82 2125.63"/>
    <polygon class="cls-8" points="1461.5 2125.63 1427.02 2056.67 1401.19 2048.02 1375.3 2056.67 1340.82 2125.63 1401.19 2185.99 1461.5 2125.63"/>
    <polygon class="cls-33" points="1340.82 1918.7 1297.7 1940.26 1297.7 2017.87 1375.3 2056.67 1401.19 2048.02 1401.19 1979.06 1340.82 1918.7"/>
    <polygon class="cls-145" points="1461.5 1918.7 1427.02 1849.74 1401.19 1841.14 1375.3 1849.74 1340.82 1918.7 1401.19 1979.06 1461.5 1918.7"/>
    <polygon class="cls-164" points="1340.82 1711.82 1297.7 1733.38 1297.7 1810.94 1375.3 1849.74 1401.19 1841.14 1401.19 1772.13 1340.82 1711.82"/>
    <polygon class="cls-129" points="1461.5 1711.82 1427.02 1642.85 1401.19 1634.21 1375.3 1642.85 1340.82 1711.82 1401.19 1772.13 1461.5 1711.82"/>
    <polygon class="cls-117" points="1340.82 1504.89 1297.7 1526.45 1297.7 1604.05 1375.3 1642.85 1401.19 1634.21 1401.19 1565.25 1340.82 1504.89"/>
    <polygon class="cls-53" points="1461.5 1504.89 1427.02 1435.93 1401.19 1427.28 1375.3 1435.93 1340.82 1504.89 1401.19 1565.25 1461.5 1504.89"/>
    <polygon class="cls-136" points="1340.82 1297.96 1297.7 1319.52 1297.7 1397.12 1375.3 1435.93 1401.19 1427.28 1401.19 1358.32 1340.82 1297.96"/>
    <polygon class="cls-109" points="1461.5 1297.96 1427.02 1229 1401.19 1220.4 1375.3 1229 1340.82 1297.96 1401.19 1358.32 1461.5 1297.96"/>
    <polygon class="cls-146" points="1340.82 1091.07 1297.7 1112.59 1297.7 1190.19 1375.3 1229 1401.19 1220.4 1401.19 1151.39 1340.82 1091.07"/>
    <polygon class="cls-152" points="1461.5 1091.07 1427.02 1022.07 1401.19 1013.47 1375.3 1022.07 1340.82 1091.07 1401.19 1151.39 1461.5 1091.07"/>
    <polygon class="cls-99" points="1340.82 884.14 1297.7 905.71 1297.7 983.31 1375.3 1022.07 1401.19 1013.47 1401.19 944.51 1340.82 884.14"/>
    <polygon class="cls-80" points="1461.5 884.14 1427.02 815.18 1401.19 806.54 1375.3 815.18 1340.82 884.14 1401.19 944.51 1461.5 884.14"/>
    <polygon class="cls-3" points="1340.82 677.22 1297.7 698.78 1297.7 776.38 1375.3 815.18 1401.19 806.54 1401.19 737.58 1340.82 677.22"/>
    <polygon class="cls-94" points="1461.5 677.22 1427.02 608.25 1401.19 599.66 1375.3 608.25 1340.82 677.22 1401.19 737.58 1461.5 677.22"/>
    <polygon class="cls-129" points="1340.82 470.33 1297.7 491.85 1297.7 569.45 1375.3 608.25 1401.19 599.66 1401.19 530.65 1340.82 470.33"/>
    <polygon class="cls-151" points="1461.5 470.33 1427.02 401.33 1401.19 392.73 1375.3 401.33 1340.82 470.33 1401.19 530.65 1461.5 470.33"/>
    <polygon class="cls-84" points="1340.82 263.4 1297.7 284.97 1297.7 362.52 1375.3 401.33 1401.19 392.73 1401.19 323.77 1340.82 263.4"/>
    <polygon class="cls-141" points="1461.5 263.4 1414.86 310.08 1401.19 323.76 1349.88 272.46 1340.82 263.4 1380.25 184.57 1439.14 218.67 1439.15 218.67 1461.5 263.4"/>
    <polygon class="cls-1" points="1574.71 2259.83 1458.72 2327 1427.02 2263.6 1504.63 2224.79 1574.71 2259.83"/>
    <polygon class="cls-52" points="1504.63 2147.19 1461.5 2125.63 1401.19 2185.99 1401.19 2254.95 1427.02 2263.6 1504.63 2224.79 1504.63 2147.19"/>
    <polygon class="cls-18" points="1582.23 2056.67 1504.63 2017.87 1427.02 2056.67 1461.5 2125.63 1504.63 2147.19 1547.75 2125.63 1582.23 2056.67"/>
    <polygon class="cls-129" points="1504.63 1940.26 1461.5 1918.7 1401.19 1979.06 1401.19 2048.02 1427.02 2056.67 1504.63 2017.87 1504.63 1940.26"/>
    <polygon class="cls-125" points="1582.23 1849.74 1504.63 1810.94 1427.02 1849.74 1461.5 1918.7 1504.63 1940.26 1547.75 1918.7 1582.23 1849.74"/>
    <polygon class="cls-4" points="1504.63 1733.38 1461.5 1711.82 1401.19 1772.13 1401.19 1841.14 1427.02 1849.74 1504.63 1810.94 1504.63 1733.38"/>
    <polygon class="cls-58" points="1582.23 1642.85 1504.63 1604.05 1427.02 1642.85 1461.5 1711.82 1504.63 1733.38 1547.75 1711.82 1582.23 1642.85"/>
    <polygon class="cls-101" points="1504.63 1526.45 1461.5 1504.89 1401.19 1565.25 1401.19 1634.21 1427.02 1642.85 1504.63 1604.05 1504.63 1526.45"/>
    <polygon class="cls-93" points="1582.23 1435.93 1504.63 1397.12 1427.02 1435.93 1461.5 1504.89 1504.63 1526.45 1547.75 1504.89 1582.23 1435.93"/>
    <polygon class="cls-69" points="1504.63 1319.52 1461.5 1297.96 1401.19 1358.32 1401.19 1427.28 1427.02 1435.93 1504.63 1397.12 1504.63 1319.52"/>
    <polygon class="cls-109" points="1582.23 1229 1504.63 1190.19 1427.02 1229 1461.5 1297.96 1504.63 1319.52 1547.75 1297.96 1582.23 1229"/>
    <polygon class="cls-149" points="1504.63 1112.59 1461.5 1091.07 1401.19 1151.39 1401.19 1220.4 1427.02 1229 1504.63 1190.19 1504.63 1112.59"/>
    <polygon class="cls-42" points="1582.23 1022.07 1504.63 983.31 1427.02 1022.07 1461.5 1091.07 1504.63 1112.59 1547.75 1091.07 1582.23 1022.07"/>
    <polygon class="cls-69" points="1504.63 905.71 1461.5 884.14 1401.19 944.51 1401.19 1013.47 1427.02 1022.07 1504.63 983.31 1504.63 905.71"/>
    <polygon class="cls-118" points="1582.23 815.18 1504.63 776.38 1427.02 815.18 1461.5 884.14 1504.63 905.71 1547.75 884.14 1582.23 815.18"/>
    <polygon class="cls-58" points="1504.63 698.78 1461.5 677.22 1401.19 737.58 1401.19 806.54 1427.02 815.18 1504.63 776.38 1504.63 698.78"/>
    <polygon class="cls-119" points="1582.23 608.25 1504.63 569.45 1427.02 608.25 1461.5 677.22 1504.63 698.78 1547.75 677.22 1582.23 608.25"/>
    <polygon class="cls-69" points="1504.63 491.85 1461.5 470.33 1401.19 530.65 1401.19 599.66 1427.02 608.25 1504.63 569.45 1504.63 491.85"/>
    <polygon class="cls-24" points="1582.23 401.33 1504.63 362.52 1427.02 401.33 1461.5 470.33 1504.63 491.85 1547.75 470.33 1582.23 401.33"/>
    <polygon class="cls-6" points="1504.63 284.97 1461.5 263.4 1401.19 323.77 1401.19 392.73 1427.02 401.33 1504.63 362.52 1504.63 284.97"/>
    <polygon class="cls-105" points="1530.93 271.81 1504.63 284.96 1461.5 263.4 1439.15 218.67 1530.93 271.81"/>
    <polygon class="cls-17" points="1608.07 2185.99 1608.07 2240.52 1574.71 2259.83 1504.63 2224.79 1504.63 2147.19 1547.75 2125.63 1578.54 2156.44 1608.07 2185.99"/>
    <polygon class="cls-36" points="1668.43 2125.63 1633.95 2056.67 1608.07 2048.02 1582.23 2056.67 1547.75 2125.63 1608.07 2185.99 1668.43 2125.63"/>
    <polygon class="cls-133" points="1547.75 1918.7 1504.63 1940.26 1504.63 2017.87 1582.23 2056.67 1608.07 2048.02 1608.07 1979.06 1547.75 1918.7"/>
    <polygon class="cls-62" points="1668.43 1918.7 1633.95 1849.74 1608.07 1841.14 1582.23 1849.74 1547.75 1918.7 1608.07 1979.06 1668.43 1918.7"/>
    <polygon class="cls-15" points="1547.75 1711.82 1504.63 1733.38 1504.63 1810.94 1582.23 1849.74 1608.07 1841.14 1608.07 1772.13 1547.75 1711.82"/>
    <polygon class="cls-47" points="1668.43 1711.82 1633.95 1642.85 1608.07 1634.21 1582.23 1642.85 1547.75 1711.82 1608.07 1772.13 1668.43 1711.82"/>
    <polygon class="cls-79" points="1547.75 1504.89 1504.63 1526.45 1504.63 1604.05 1582.23 1642.85 1608.07 1634.21 1608.07 1565.25 1547.75 1504.89"/>
    <polygon class="cls-152" points="1668.43 1504.89 1633.95 1435.93 1608.07 1427.28 1582.23 1435.93 1547.75 1504.89 1608.07 1565.25 1668.43 1504.89"/>
    <polygon class="cls-139" points="1547.75 1297.96 1504.63 1319.52 1504.63 1397.12 1582.23 1435.93 1608.07 1427.28 1608.07 1358.32 1547.75 1297.96"/>
    <polygon class="cls-135" points="1668.43 1297.96 1633.95 1229 1608.07 1220.4 1582.23 1229 1547.75 1297.96 1608.07 1358.32 1668.43 1297.96"/>
    <polygon class="cls-107" points="1547.75 1091.07 1504.63 1112.59 1504.63 1190.19 1582.23 1229 1608.07 1220.4 1608.07 1151.39 1547.75 1091.07"/>
    <polygon class="cls-106" points="1668.43 1091.07 1633.95 1022.07 1608.07 1013.47 1582.23 1022.07 1547.75 1091.07 1608.07 1151.39 1668.43 1091.07"/>
    <polygon class="cls-146" points="1547.75 884.14 1504.63 905.71 1504.63 983.31 1582.23 1022.07 1608.07 1013.47 1608.07 944.51 1547.75 884.14"/>
    <polygon class="cls-14" points="1668.43 884.14 1633.95 815.18 1608.07 806.54 1582.23 815.18 1547.75 884.14 1608.07 944.51 1668.43 884.14"/>
    <polygon class="cls-42" points="1547.75 677.22 1504.63 698.78 1504.63 776.38 1582.23 815.18 1608.07 806.54 1608.07 737.58 1547.75 677.22"/>
    <polygon class="cls-51" points="1668.43 677.22 1633.95 608.25 1608.07 599.66 1582.23 608.25 1547.75 677.22 1608.07 737.58 1668.43 677.22"/>
    <polygon class="cls-159" points="1547.75 470.33 1504.63 491.85 1504.63 569.45 1582.23 608.25 1608.07 599.66 1608.07 530.65 1547.75 470.33"/>
    <polygon class="cls-8" points="1668.43 470.33 1633.95 401.33 1608.07 392.73 1582.23 401.33 1547.75 470.33 1608.07 530.65 1668.43 470.33"/>
    <path class="cls-114" d="M1608.07,323.76v68.96l-25.84,8.6-74.72-37.36-.06-.03-.06-.03s-.04-.02-.06-.03c-.02-.01-.04-.02-.06-.03-.02,0-.03-.02-.05-.03l-2.59-1.3v-77.56l26.3-13.15,59.78,34.58h0s0,.02,0,.02l.02.02h0s.02.03.02.03h0s0,.02,0,.02l17.27,17.29Z"/>
    <polygon class="cls-39" points="1612.68 319.15 1608.07 323.76 1590.8 306.48 1612.68 319.15"/>
    <polygon class="cls-40" points="1711.56 2147.19 1711.56 2180.6 1608.07 2240.52 1608.07 2185.99 1668.43 2125.63 1711.56 2147.19"/>
    <polygon class="cls-51" points="1789.12 2056.67 1711.56 2017.87 1633.95 2056.67 1668.43 2125.63 1711.56 2147.19 1754.64 2125.63 1789.12 2056.67"/>
    <polygon class="cls-135" points="1711.56 1940.26 1668.43 1918.7 1608.07 1979.06 1608.07 2048.02 1633.95 2056.67 1711.56 2017.87 1711.56 1940.26"/>
    <polygon class="cls-140" points="1789.12 1849.74 1711.56 1810.94 1633.95 1849.74 1668.43 1918.7 1711.56 1940.26 1754.64 1918.7 1789.12 1849.74"/>
    <polygon class="cls-43" points="1711.56 1733.38 1668.43 1711.82 1608.07 1772.13 1608.07 1841.14 1633.95 1849.74 1711.56 1810.94 1711.56 1733.38"/>
    <polygon class="cls-130" points="1789.12 1642.85 1711.56 1604.05 1633.95 1642.85 1668.43 1711.82 1711.56 1733.38 1754.64 1711.82 1789.12 1642.85"/>
    <polygon class="cls-12" points="1711.56 1526.45 1668.43 1504.89 1608.07 1565.25 1608.07 1634.21 1633.95 1642.85 1711.56 1604.05 1711.56 1526.45"/>
    <polygon class="cls-116" points="1789.12 1435.93 1711.56 1397.12 1633.95 1435.93 1668.43 1504.89 1711.56 1526.45 1754.64 1504.89 1789.12 1435.93"/>
    <polygon class="cls-116" points="1711.56 1319.52 1668.43 1297.96 1608.07 1358.32 1608.07 1427.28 1633.95 1435.93 1711.56 1397.12 1711.56 1319.52"/>
    <polygon class="cls-84" points="1789.12 1229 1711.56 1190.19 1633.95 1229 1668.43 1297.96 1711.56 1319.52 1754.64 1297.96 1789.12 1229"/>
    <polygon class="cls-118" points="1711.56 1112.59 1668.43 1091.07 1608.07 1151.39 1608.07 1220.4 1633.95 1229 1711.56 1190.19 1711.56 1112.59"/>
    <polygon class="cls-80" points="1789.12 1022.07 1711.56 983.31 1633.95 1022.07 1668.43 1091.07 1711.56 1112.59 1754.64 1091.07 1789.12 1022.07"/>
    <polygon class="cls-152" points="1711.56 905.71 1668.43 884.14 1608.07 944.51 1608.07 1013.47 1633.95 1022.07 1711.56 983.31 1711.56 905.71"/>
    <polygon class="cls-150" points="1789.12 815.18 1711.56 776.38 1633.95 815.18 1668.43 884.14 1711.56 905.71 1754.64 884.14 1789.12 815.18"/>
    <polygon class="cls-24" points="1711.56 698.78 1668.43 677.22 1608.07 737.58 1608.07 806.54 1633.95 815.18 1711.56 776.38 1711.56 698.78"/>
    <polygon class="cls-148" points="1789.12 608.25 1711.56 569.45 1633.95 608.25 1668.43 677.22 1711.56 698.78 1754.64 677.22 1789.12 608.25"/>
    <polygon class="cls-14" points="1711.56 491.85 1668.43 470.33 1608.07 530.65 1608.07 599.66 1633.95 608.25 1711.56 569.45 1711.56 491.85"/>
    <polygon class="cls-44" points="1781.37 416.82 1754.64 470.33 1719.72 487.77 1711.56 491.85 1668.43 470.33 1659.65 452.74 1659.64 452.74 1633.96 401.33 1698.7 368.95 1781.37 416.82"/>
    <polygon class="cls-112" points="1698.7 368.95 1633.96 401.33 1608.07 392.73 1608.07 323.76 1612.68 319.15 1698.7 368.95"/>
    <polygon class="cls-127" points="1773.65 2144.65 1711.56 2180.6 1711.56 2147.19 1754.64 2125.63 1773.65 2144.65"/>
    <polygon class="cls-69" points="1859.91 2094.71 1773.65 2144.65 1754.64 2125.63 1789.11 2056.66 1815 2048.02 1840.89 2056.66 1859.91 2094.71"/>
    <polygon class="cls-88" points="1754.64 1918.7 1711.56 1940.26 1711.56 2017.87 1789.12 2056.67 1815 2048.02 1815 1979.06 1754.64 1918.7"/>
    <polygon class="cls-12" points="1875.36 1918.7 1840.88 1849.74 1815 1841.14 1789.12 1849.74 1754.64 1918.7 1815 1979.06 1875.36 1918.7"/>
    <polygon class="cls-43" points="1754.64 1711.82 1711.56 1733.38 1711.56 1810.94 1789.12 1849.74 1815 1841.14 1815 1772.13 1754.64 1711.82"/>
    <polygon class="cls-59" points="1875.36 1711.82 1840.88 1642.85 1815 1634.21 1789.12 1642.85 1754.64 1711.82 1815 1772.13 1875.36 1711.82"/>
    <polygon class="cls-39" points="1754.64 1504.89 1711.56 1526.45 1711.56 1604.05 1789.12 1642.85 1815 1634.21 1815 1565.25 1754.64 1504.89"/>
    <polygon class="cls-69" points="1875.36 1504.89 1840.88 1435.93 1815 1427.28 1789.12 1435.93 1754.64 1504.89 1815 1565.25 1875.36 1504.89"/>
    <polygon class="cls-57" points="1754.64 1297.96 1711.56 1319.52 1711.56 1397.12 1789.12 1435.93 1815 1427.28 1815 1358.32 1754.64 1297.96"/>
    <polygon class="cls-104" points="1875.36 1297.96 1840.88 1229 1815 1220.4 1789.12 1229 1754.64 1297.96 1815 1358.32 1875.36 1297.96"/>
    <polygon class="cls-18" points="1754.64 1091.07 1711.56 1112.59 1711.56 1190.19 1789.12 1229 1815 1220.4 1815 1151.39 1754.64 1091.07"/>
    <polygon class="cls-19" points="1875.36 1091.07 1840.88 1022.07 1815 1013.47 1789.12 1022.07 1754.64 1091.07 1815 1151.39 1875.36 1091.07"/>
    <polygon class="cls-141" points="1754.64 884.14 1711.56 905.71 1711.56 983.31 1789.12 1022.07 1815 1013.47 1815 944.51 1754.64 884.14"/>
    <polygon class="cls-84" points="1875.36 884.14 1840.88 815.18 1815 806.54 1789.12 815.18 1754.64 884.14 1815 944.51 1875.36 884.14"/>
    <polygon class="cls-151" points="1754.64 677.22 1711.56 698.78 1711.56 776.38 1789.12 815.18 1815 806.54 1815 737.58 1754.64 677.22"/>
    <polygon class="cls-165" points="1875.36 677.22 1840.88 608.25 1815 599.66 1789.12 608.25 1754.64 677.22 1815 737.58 1875.36 677.22"/>
    <polygon class="cls-8" points="1754.64 470.33 1711.56 491.85 1711.56 569.45 1789.12 608.25 1815 599.66 1815 530.65 1754.64 470.33"/>
    <polygon class="cls-6" points="1874.79 470.91 1815 530.65 1754.64 470.33 1781.37 416.82 1874.79 470.91"/>
    <polygon class="cls-28" points="1958.25 2037.76 1859.91 2094.71 1840.89 2056.66 1918.44 2017.86 1958.25 2037.76"/>
    <polygon class="cls-87" points="1918.44 1940.26 1875.36 1918.7 1815 1979.06 1815 2048.02 1840.88 2056.67 1918.44 2017.87 1918.44 1940.26"/>
    <polygon class="cls-60" points="1996.05 1849.74 1918.44 1810.94 1840.88 1849.74 1875.36 1918.7 1918.44 1940.26 1961.56 1918.7 1996.05 1849.74"/>
    <polygon class="cls-3" points="1918.44 1733.38 1875.36 1711.82 1815 1772.13 1815 1841.14 1840.88 1849.74 1918.44 1810.94 1918.44 1733.38"/>
    <polygon class="cls-102" points="1996.05 1642.85 1918.44 1604.05 1840.88 1642.85 1875.36 1711.82 1918.44 1733.38 1961.56 1711.82 1996.05 1642.85"/>
    <polygon class="cls-1" points="1918.44 1526.45 1875.36 1504.89 1815 1565.25 1815 1634.21 1840.88 1642.85 1918.44 1604.05 1918.44 1526.45"/>
    <polygon class="cls-6" points="1996.05 1435.93 1918.44 1397.12 1840.88 1435.93 1875.36 1504.89 1918.44 1526.45 1961.56 1504.89 1996.05 1435.93"/>
    <polygon class="cls-144" points="1918.44 1319.52 1875.36 1297.96 1815 1358.32 1815 1427.28 1840.88 1435.93 1918.44 1397.12 1918.44 1319.52"/>
    <polygon class="cls-148" points="1996.05 1229 1918.44 1190.19 1840.88 1229 1875.36 1297.96 1918.44 1319.52 1961.56 1297.96 1996.05 1229"/>
    <polygon class="cls-51" points="1918.44 1112.59 1875.36 1091.07 1815 1151.39 1815 1220.4 1840.88 1229 1918.44 1190.19 1918.44 1112.59"/>
    <polygon class="cls-69" points="1996.05 1022.07 1918.44 983.31 1840.88 1022.07 1875.36 1091.07 1918.44 1112.59 1961.56 1091.07 1996.05 1022.07"/>
    <polygon class="cls-148" points="1918.44 905.71 1875.36 884.14 1815 944.51 1815 1013.47 1840.88 1022.07 1918.44 983.31 1918.44 905.71"/>
    <polygon class="cls-151" points="1996.05 815.18 1918.44 776.38 1840.88 815.18 1875.36 884.14 1918.44 905.71 1961.56 884.14 1996.05 815.18"/>
    <polygon class="cls-88" points="1918.44 698.78 1875.36 677.22 1815 737.58 1815 806.54 1840.88 815.18 1918.44 776.38 1918.44 698.78"/>
    <polygon class="cls-11" points="1996.05 608.25 1918.44 569.45 1840.88 608.25 1875.36 677.22 1918.44 698.78 1961.56 677.22 1996.05 608.25"/>
    <polygon class="cls-18" points="1918.44 491.85 1918.44 569.45 1887.33 585.02 1840.89 608.26 1815 599.66 1815 530.65 1874.79 470.91 1875.36 470.33 1918.44 491.85"/>
    <polygon class="cls-88" points="2021.93 1979.06 2021.93 2000.89 1958.25 2037.76 1918.44 2017.86 1918.44 1940.26 1961.57 1918.7 2021.93 1979.06"/>
    <polygon class="cls-12" points="2082.25 1918.7 2047.77 1849.74 2021.93 1841.14 1996.05 1849.74 1961.56 1918.7 2021.93 1979.06 2082.25 1918.7"/>
    <polygon class="cls-39" points="1961.56 1711.82 1918.44 1733.38 1918.44 1810.94 1996.05 1849.74 2021.93 1841.14 2021.93 1772.13 1961.56 1711.82"/>
    <polygon class="cls-54" points="2082.25 1711.82 2047.77 1642.85 2021.93 1634.21 1996.05 1642.85 1961.56 1711.82 2021.93 1772.13 2082.25 1711.82"/>
    <polygon class="cls-94" points="1961.56 1504.89 1918.44 1526.45 1918.44 1604.05 1996.05 1642.85 2021.93 1634.21 2021.93 1565.25 1961.56 1504.89"/>
    <polygon class="cls-106" points="2082.25 1504.89 2047.77 1435.93 2021.93 1427.28 1996.05 1435.93 1961.56 1504.89 2021.93 1565.25 2082.25 1504.89"/>
    <polygon class="cls-31" points="1961.56 1297.96 1918.44 1319.52 1918.44 1397.12 1996.05 1435.93 2021.93 1427.28 2021.93 1358.32 1961.56 1297.96"/>
    <polygon class="cls-47" points="2082.25 1297.96 2047.77 1229 2021.93 1220.4 1996.05 1229 1961.56 1297.96 2021.93 1358.32 2082.25 1297.96"/>
    <polygon class="cls-41" points="1961.56 1091.07 1918.44 1112.59 1918.44 1190.19 1996.05 1229 2021.93 1220.4 2021.93 1151.39 1961.56 1091.07"/>
    <polygon class="cls-72" points="2082.25 1091.07 2047.77 1022.07 2021.93 1013.47 1996.05 1022.07 1961.56 1091.07 2021.93 1151.39 2082.25 1091.07"/>
    <polygon class="cls-28" points="1961.56 884.14 1918.44 905.71 1918.44 983.31 1996.05 1022.07 2021.93 1013.47 2021.93 944.51 1961.56 884.14"/>
    <polygon class="cls-41" points="2082.25 884.14 2047.77 815.18 2021.93 806.54 1996.05 815.18 1961.56 884.14 2021.93 944.51 2082.25 884.14"/>
    <polygon class="cls-137" points="1961.56 677.22 1918.44 698.78 1918.44 776.38 1996.05 815.18 2021.93 806.54 2021.93 737.58 1961.56 677.22"/>
    <polygon class="cls-112" points="2082.25 677.22 2047.77 608.25 2021.93 599.66 1996.05 608.25 1961.56 677.22 2021.93 737.58 2082.25 677.22"/>
    <polygon class="cls-34" points="2021.93 556.11 2021.93 599.66 1996.04 608.26 1918.44 569.45 1918.44 496.19 2021.93 556.11"/>
    <polygon class="cls-96" points="2125.37 1940.26 2125.37 1941 2021.93 2000.89 2021.93 1979.06 2082.25 1918.7 2125.37 1940.26"/>
    <polygon class="cls-160" points="2187.05 1841.78 2187.05 1881.59 2170.37 1914.95 2170.36 1914.95 2168.49 1918.7 2134.76 1935.56 2134.75 1935.57 2125.37 1940.26 2082.25 1918.7 2047.77 1849.74 2099.57 1823.84 2099.57 1823.83 2125.37 1810.94 2187.05 1841.78"/>
    <polygon class="cls-114" points="2125.37 1733.38 2082.25 1711.82 2021.93 1772.13 2021.93 1841.14 2047.77 1849.74 2125.37 1810.94 2125.37 1733.38"/>
    <polygon class="cls-84" points="2187.05 1634.9 2187.05 1674.71 2168.49 1711.81 2125.37 1733.38 2099.67 1720.53 2082.25 1711.81 2047.77 1642.86 2099.78 1616.85 2125.37 1604.06 2187.05 1634.9"/>
    <polygon class="cls-48" points="2125.37 1526.45 2082.25 1504.89 2021.93 1565.25 2021.93 1634.21 2047.77 1642.85 2125.37 1604.05 2125.37 1526.45"/>
    <polygon class="cls-3" points="2187.05 1427.97 2187.05 1467.78 2168.49 1504.88 2125.37 1526.44 2099.88 1513.7 2082.25 1504.88 2047.77 1435.93 2099.99 1409.82 2099.99 1409.81 2125.37 1397.13 2187.05 1427.97"/>
    <polygon class="cls-3" points="2125.37 1319.52 2082.25 1297.96 2021.93 1358.32 2021.93 1427.28 2047.77 1435.93 2125.37 1397.12 2125.37 1319.52"/>
    <polygon class="cls-29" points="2187.05 1221.03 2187.05 1260.86 2168.49 1297.96 2125.37 1319.52 2100.09 1306.88 2082.25 1297.96 2047.77 1229 2100.19 1202.78 2125.37 1190.19 2187.05 1221.03"/>
    <polygon class="cls-22" points="2125.37 1112.59 2082.25 1091.07 2021.93 1151.39 2021.93 1220.4 2047.77 1229 2125.37 1190.19 2125.37 1112.59"/>
    <polygon class="cls-5" points="2187.05 1014.11 2187.05 1053.95 2168.49 1091.08 2125.37 1112.59 2100.29 1100.08 2082.25 1091.08 2047.77 1022.06 2100.4 995.78 2125.37 983.31 2187.05 1014.11"/>
    <polygon class="cls-91" points="2125.37 905.71 2082.25 884.14 2021.93 944.51 2021.93 1013.47 2047.77 1022.07 2125.37 983.31 2125.37 905.71"/>
    <polygon class="cls-7" points="2187.05 807.22 2187.05 847.04 2168.49 884.15 2125.37 905.71 2100.5 893.28 2082.25 884.15 2047.77 815.18 2100.61 788.76 2125.37 776.38 2187.05 807.22"/>
    <polygon class="cls-142" points="2125.37 698.78 2082.25 677.22 2021.93 737.58 2021.93 806.54 2047.77 815.18 2125.37 776.38 2125.37 698.78"/>
    <polygon class="cls-113" points="2182.54 649.11 2168.49 677.21 2125.37 698.78 2082.25 677.21 2047.77 608.26 2082.24 591.02 2182.54 649.11"/>
    <polygon class="cls-103" points="2082.24 591.02 2047.77 608.26 2021.93 599.66 2021.93 556.11 2082.24 591.02"/>
    <polygon class="cls-70" points="2134.75 1935.57 2125.37 1941 2125.37 1940.26 2134.75 1935.57"/>
    <polygon class="cls-10" points="2187.05 1881.59 2187.05 1905.29 2170.37 1914.95 2187.05 1881.59"/>
    <polygon class="cls-22" points="2187.05 1730.37 2187.05 1841.78 2125.37 1810.94 2125.37 1733.38 2168.49 1711.81 2187.05 1730.37"/>
    <polygon class="cls-54" points="2187.05 1674.71 2187.05 1730.37 2168.49 1711.81 2187.05 1674.71"/>
    <polygon class="cls-39" points="2187.05 1523.45 2187.05 1634.9 2125.37 1604.06 2125.37 1526.44 2168.49 1504.88 2187.05 1523.45"/>
    <polygon class="cls-51" points="2187.05 1467.78 2187.05 1523.45 2168.49 1504.88 2187.05 1467.78"/>
    <polygon class="cls-14" points="2187.05 1316.53 2187.05 1427.97 2125.37 1397.13 2125.37 1319.52 2168.49 1297.96 2187.05 1316.53"/>
    <polygon class="cls-145" points="133.82 1849.74 125.89 1865.61 99.34 1918.7 68.72 1934 18.95 1905.29 18.95 1829.57 56.21 1810.94 109.23 1837.45 133.82 1849.74"/>
    <polygon class="cls-3" points="2187.05 1260.86 2187.05 1316.53 2168.49 1297.96 2187.05 1260.86"/>
    <polygon class="cls-108" points="2187.05 1109.63 2187.05 1221.03 2125.37 1190.19 2125.37 1112.59 2168.49 1091.08 2187.05 1109.63"/>
    <polygon class="cls-39" points="2187.05 1053.95 2187.05 1109.63 2168.49 1091.08 2187.05 1053.95"/>
    <polygon class="cls-3" points="2187.05 902.71 2187.05 1014.11 2125.37 983.31 2125.37 905.71 2168.49 884.15 2187.05 902.71"/>
    <polygon class="cls-18" points="2187.05 847.04 2187.05 902.71 2168.49 884.15 2187.05 847.04"/>
    <polygon class="cls-61" points="2187.05 695.78 2187.05 807.22 2125.37 776.38 2125.37 698.78 2168.49 677.21 2187.05 695.78"/>
    <polygon class="cls-92" points="2187.05 651.71 2187.05 695.78 2168.49 677.21 2182.54 649.11 2187.05 651.71"/>
    <polygon class="cls-61" points="56.21 1733.38 56.21 1810.94 18.95 1829.57 18.95 1714.75 56.21 1733.38"/>
    <polygon class="cls-129" points="133.82 1642.86 108.66 1693.18 108.66 1693.19 99.34 1711.81 56.21 1733.38 18.95 1714.75 18.95 1622.69 56.21 1604.06 108.45 1630.17 108.45 1630.18 133.82 1642.86"/>
    <polygon class="cls-84" points="56.21 1526.44 56.21 1604.06 18.95 1622.69 18.95 1507.82 56.21 1526.44"/>
    <polygon class="cls-103" points="133.82 1435.93 108.12 1487.32 108.12 1487.33 99.34 1504.88 56.21 1526.44 18.95 1507.82 18.95 1415.76 56.21 1397.13 108.03 1423.03 133.82 1435.93"/>
    <polygon class="cls-60" points="56.21 1319.52 56.21 1397.13 18.95 1415.76 18.95 1300.9 56.21 1319.52"/>
    <polygon class="cls-86" points="133.82 1229 107.98 1280.68 99.34 1297.96 56.21 1319.52 18.95 1300.9 18.95 1208.83 56.21 1190.19 108.04 1216.1 133.82 1229"/>
    <polygon class="cls-72" points="56.21 1112.59 56.21 1190.19 18.95 1208.83 18.95 1094.01 56.21 1112.59"/>
    <polygon class="cls-139" points="133.82 1022.06 108.32 1073.09 99.34 1091.08 56.21 1112.59 18.95 1094.01 18.95 1001.92 56.21 983.31 108.55 1009.44 133.82 1022.06"/>
    <polygon class="cls-96" points="56.21 905.71 56.21 983.31 18.95 1001.92 18.95 887.08 56.21 905.71"/>
    <polygon class="cls-139" points="133.82 815.18 109.25 864.33 109.25 864.34 99.34 884.15 56.21 905.71 18.95 887.08 18.95 795.01 56.21 776.38 109.64 803.09 133.82 815.18"/>
    <polygon class="cls-61" points="56.21 698.78 56.21 776.38 18.95 795.01 18.95 680.15 56.21 698.78"/>
    <polygon class="cls-142" points="133.82 608.26 99.34 677.21 56.21 698.78 18.95 680.15 18.95 651.71 112.54 597.62 133.82 608.26"/>
    <polygon class="cls-94" points="159.65 1979.06 159.65 1986.46 68.72 1934 99.34 1918.7 159.65 1979.06"/>
    <polygon class="cls-24" points="220.02 1918.7 185.54 1849.74 159.66 1841.14 133.82 1849.74 99.34 1918.7 159.66 1979.06 220.02 1918.7"/>
    <polygon class="cls-15" points="99.34 1711.82 56.22 1733.38 56.22 1810.94 133.82 1849.74 159.66 1841.14 159.66 1772.13 99.34 1711.82"/>
    <polygon class="cls-118" points="220.02 1711.82 185.54 1642.85 159.66 1634.21 133.82 1642.85 99.34 1711.82 159.66 1772.13 220.02 1711.82"/>
    <polygon class="cls-13" points="99.34 1504.89 56.22 1526.45 56.22 1604.05 133.82 1642.85 159.66 1634.21 159.66 1565.25 99.34 1504.89"/>
    <polygon class="cls-139" points="220.02 1504.89 185.54 1435.93 159.66 1427.28 133.82 1435.93 99.34 1504.89 159.66 1565.25 220.02 1504.89"/>
    <polygon class="cls-10" points="99.34 1297.96 56.22 1319.52 56.22 1397.12 133.82 1435.93 159.66 1427.28 159.66 1358.32 99.34 1297.96"/>
    <polygon class="cls-18" points="220.02 1297.96 185.54 1229 159.66 1220.4 133.82 1229 99.34 1297.96 159.66 1358.32 220.02 1297.96"/>
    <polygon class="cls-58" points="99.34 1091.07 56.22 1112.59 56.22 1190.19 133.82 1229 159.66 1220.4 159.66 1151.39 99.34 1091.07"/>
    <polygon class="cls-11" points="220.02 1091.07 185.54 1022.07 159.66 1013.47 133.82 1022.07 99.34 1091.07 159.66 1151.39 220.02 1091.07"/>
    <polygon class="cls-29" points="99.34 884.14 56.22 905.71 56.22 983.31 133.82 1022.07 159.66 1013.47 159.66 944.51 99.34 884.14"/>
    <polygon class="cls-121" points="220.02 884.14 185.54 815.18 159.66 806.54 133.82 815.18 99.34 884.14 159.66 944.51 220.02 884.14"/>
    <polygon class="cls-45" points="99.34 677.22 56.22 698.78 56.22 776.38 133.82 815.18 159.66 806.54 159.66 737.58 99.34 677.22"/>
    <polygon class="cls-64" points="220.02 677.22 185.54 608.25 159.66 599.66 133.82 608.25 99.34 677.22 159.66 737.58 220.02 677.22"/>
    <polygon class="cls-55" points="159.65 570.39 159.65 599.66 133.82 608.26 112.54 597.62 159.65 570.39"/>
  </g>
  <g>
    <path id="prismatic" class="cls-168" d="M1899.88,1409.5c-21.7,0-41.12-4.2-58.28-12.6-17.15-8.4-30.57-20.18-40.25-35.35-9.68-15.17-14.53-32.32-14.53-51.45s4.84-36.22,14.53-51.28c9.68-15.05,23.1-26.78,40.25-35.18,17.15-8.4,36.57-12.6,58.28-12.6,23.33,0,43.28,5.02,59.85,15.05,16.57,10.03,28,23.92,34.3,41.65l-61.25,30.1c-7.47-16.8-18.55-25.2-33.25-25.2-9.33,0-17.09,3.27-23.27,9.8-6.18,6.53-9.28,15.75-9.28,27.65s3.09,21.47,9.28,28c6.18,6.53,13.94,9.8,23.27,9.8,14.7,0,25.78-8.4,33.25-25.2l61.25,30.1c-6.3,17.73-17.73,31.62-34.3,41.65-16.57,10.03-36.52,15.05-59.85,15.05Z"/>
    <path id="Shape" class="cls-168" d="M1682.88,1214.55h79.1v191.45h-79.1v-191.45ZM1722.42,1199.15c-14.23,0-25.72-3.79-34.47-11.38s-13.12-17.21-13.12-28.88,4.38-21.29,13.12-28.88,20.24-11.38,34.47-11.38,26.02,3.62,34.65,10.85c8.63,7.23,12.95,16.57,12.95,28,0,12.13-4.32,22.11-12.95,29.93-8.63,7.82-20.18,11.72-34.65,11.72Z"/>
    <path id="path1" class="cls-168" d="M1662.92,1399.35c-11.9,6.77-28.12,10.15-48.65,10.15-26.83,0-47.48-6.47-61.95-19.42-14.47-12.95-21.7-32.37-21.7-58.28v-49h-26.25v-57.75h26.25v-53.55h79.1v53.55h39.2v57.75h-39.2v48.3c0,5.83,1.52,10.38,4.55,13.65,3.03,3.27,7,4.9,11.9,4.9,6.77,0,12.72-1.75,17.85-5.25l18.9,54.95Z"/>
    <path id="path2" class="cls-168" d="M1383.97,1211.05c33.6,0,59.27,7.52,77,22.57,17.73,15.05,26.6,38.21,26.6,69.48v102.9h-73.5v-25.2c-9.1,19.13-27.18,28.7-54.25,28.7-15.17,0-28.06-2.62-38.68-7.88-10.62-5.25-18.67-12.37-24.15-21.35-5.48-8.98-8.23-19.07-8.23-30.28,0-18.9,7.23-33.25,21.7-43.05,14.47-9.8,36.4-14.7,65.8-14.7h31.85c-2.57-14.93-14.58-22.4-36.05-22.4-8.63,0-17.38,1.34-26.25,4.02-8.87,2.68-16.45,6.36-22.75,11.03l-25.2-52.15c10.97-6.77,24.21-12.07,39.72-15.92s30.97-5.78,46.38-5.78ZM1383.62,1361.9c5.6,0,10.62-1.52,15.05-4.55s7.7-7.58,9.8-13.65v-13.3h-19.6c-16.1,0-24.15,5.37-24.15,16.1,0,4.43,1.69,8.11,5.07,11.03,3.38,2.92,7.99,4.38,13.83,4.38Z"/>
    <path id="path3" class="cls-168" d="M1187.62,1211.05c23.1,0,41.59,7.12,55.47,21.35s20.82,35.7,20.82,64.4v109.2h-79.1v-95.55c0-21.93-7.12-32.9-21.35-32.9-7.47,0-13.47,2.8-18.03,8.4-4.55,5.6-6.82,14.47-6.82,26.6v93.45h-79.1v-95.55c0-21.93-7.12-32.9-21.35-32.9-7.47,0-13.47,2.8-18.03,8.4-4.55,5.6-6.82,14.47-6.82,26.6v93.45h-79.1v-191.45h75.25v17.85c14.23-14.23,32.32-21.35,54.25-21.35,12.83,0,24.38,2.39,34.65,7.18,10.27,4.78,18.67,12.07,25.2,21.88,7.7-9.33,17.03-16.51,28-21.53s22.98-7.53,36.05-7.53Z"/>
    <path id="path4" class="cls-168" d="M811.37,1409.5c-16.33,0-32.43-1.75-48.3-5.25-15.87-3.5-28.7-8.05-38.5-13.65l21.7-52.15c8.87,5.37,19.37,9.57,31.5,12.6,12.13,3.03,23.92,4.55,35.35,4.55,9.1,0,15.46-.76,19.08-2.28,3.62-1.52,5.42-3.79,5.42-6.83s-2.27-5.13-6.82-6.3-11.96-2.33-22.22-3.5c-15.63-1.87-28.93-4.26-39.9-7.18-10.97-2.92-20.59-8.57-28.88-16.97-8.28-8.4-12.43-20.42-12.43-36.05,0-12.37,3.73-23.45,11.2-33.25,7.47-9.8,18.61-17.62,33.42-23.45,14.82-5.83,32.61-8.75,53.38-8.75,14.47,0,28.64,1.34,42.53,4.03s25.72,6.59,35.53,11.72l-21.7,52.15c-16.8-9.33-35.23-14-55.3-14-17.27,0-25.9,3.03-25.9,9.1,0,3.03,2.33,5.19,7,6.47,4.67,1.28,12.02,2.51,22.05,3.68,15.63,1.87,28.87,4.32,39.72,7.35s20.42,8.75,28.7,17.15c8.28,8.4,12.43,20.42,12.43,36.05,0,11.9-3.73,22.75-11.2,32.55-7.47,9.8-18.67,17.62-33.6,23.45-14.93,5.83-33.02,8.75-54.25,8.75Z"/>
    <path id="path5" class="cls-168" d="M622.37,1214.55h79.1v191.45h-79.1v-191.45ZM661.92,1199.15c-14.23,0-25.72-3.79-34.47-11.38s-13.12-17.21-13.12-28.88,4.38-21.29,13.12-28.88,20.24-11.38,34.47-11.38,26.02,3.62,34.65,10.85c8.63,7.23,12.95,16.57,12.95,28,0,12.13-4.32,22.11-12.95,29.93-8.63,7.82-20.18,11.72-34.65,11.72Z"/>
    <path id="path6" class="cls-168" d="M538.02,1235.2c14-16.1,34.65-24.15,61.95-24.15v70c-6.3-.93-12.13-1.4-17.5-1.4-27.07,0-40.6,13.77-40.6,41.3v85.05h-79.1v-191.45h75.25v20.65Z"/>
    <path id="path7" class="cls-168" d="M345.52,1211.05c16.8,0,32.26,4.03,46.38,12.07,14.12,8.05,25.32,19.66,33.6,34.83,8.28,15.17,12.43,32.67,12.43,52.5s-4.14,37.27-12.43,52.32c-8.28,15.05-19.48,26.6-33.6,34.65-14.12,8.05-29.57,12.07-46.38,12.07-21.23,0-37.45-5.48-48.65-16.45v80.85h-79.1v-259.35h75.25v15.75c11.43-12.83,28.93-19.25,52.5-19.25ZM326.62,1347.9c9.1,0,16.57-3.27,22.4-9.8,5.83-6.53,8.75-15.75,8.75-27.65s-2.92-21.17-8.75-27.83c-5.83-6.65-13.3-9.97-22.4-9.97s-16.57,3.32-22.4,9.97c-5.83,6.65-8.75,15.93-8.75,27.83s2.92,21.12,8.75,27.65c5.83,6.53,13.3,9.8,22.4,9.8Z"/>
  </g>
  <path class="cls-169" d="M2201.42,638.1l-102.06-59.1-61.36-35.52-105.3-60.97-44.42-25.72-95.05-55.04-84.11-48.7-87.53-50.67-22.26-12.9h-.01s-.01-.02-.01-.02l-.02-.02h-.01s-.02-.03-.02-.03h-.01s-.01-.02-.01-.02l-60.83-35.18-93.38-54.07h-.01l-59.92-34.7-189.25-109.57-87.85-50.87h-8l-114.69,66.29-183.32,105.95-76.49,44.21-68.77,39.74-92.47,53.44-78.4,45.31-92.2,53.29-91.46,52.87h-.01l-53.73,31.05-105.3,60.86-47.94,27.7L0,640.75v1275.5l50.64,29.21,92.52,53.38,78.56,45.32,92.15,53.17,91.56,52.81,53.58,30.92,105.25,60.71,48.46,27.96,109.66,63.27,83.59,48.22,74.09,42.74,102.93,59.38,34.65,19.99,84.36,48.67h6l43.9-25.42,64.32-37.24,84.88-49.15,84.28-48.8,79.56-46.06,118.02-68.34,33.94-19.65,105.3-60.97,63.18-36.58,87.76-50.81,100.06-57.94,64.8-37.52,105.25-60.94,9.54-5.52h.01s36.22-20.98,36.22-20.98h.01l16.97-9.83V640.75l-4.58-2.65ZM1932.7,1972.48l-105.25,60.66-46.73,26.93-110.69,63.79-83.18,47.93-75.2,43.34-101.13,58.28-37.58,21.65-105.71,60.92-35.28,20.33-45.8,26.4-81.5,46.96-14.05-8.09-85.33-49.13-79.26-45.63-119.41-68.75-31.79-18.3-105.3-60.63-65.07-37.46-87.14-50.17-102.13-58.8-61.46-35.39-105.25-60.59-44.88-25.84-76.92-44.29c-4-3.78-11.1-7.07-17.86-10.72-8.25-4.46-15.98-9.45-16.9-16.51-.02-4.05-.04-8.1-.05-12.15-.18-39.42-.34-78.83-.48-118.25-.04-9.51-.07-19.02-.1-28.53h0c-.08-21.38-.15-42.74-.21-64.11h0c-.12-39.51-.22-79-.29-118.5-.02-8.95-.04-17.9-.05-26.85h0c-.04-21.82-.07-43.62-.09-65.42-.04-39.49-.06-78.98-.06-118.47,0-8.79,0-17.58.01-26.37.01-21.9.03-43.8.06-65.71.04-39.38.11-78.76.22-118.14.02-9.12.05-18.24.07-27.37.07-21.58.14-43.17.23-64.76.14-39.19.32-78.37.54-117.57h0c.05-10.03.11-20.05.17-30.07h0c.12-20.78.25-41.55.4-62.32.22-32.68.47-65.36.74-98.04l11.91-6.89,86.28-49.91,103.39-59.82,59.12-34.2,105.3-60.92,46.01-26.62,94.42-54.62,85.56-49.5,86.79-50.21,14.31-8.28,69.69-40.32,88.97-51.47,62.92-36.4,93.84-54.29c2.93-.73,3.81-.19,6.36.7,9.07,3.18,29.45,16.96,39.46,22.61,10.82,6.11,21.64,12.23,32.45,18.37,14.98,8.49,29.94,17,44.9,25.54,38.95,22.21,77.83,44.53,116.67,66.95,4.28,2.46,8.56,4.94,12.84,7.41,22.05,12.73,44.09,25.5,66.11,38.28,30.47,17.67,60.91,35.39,91.34,53.12.87.52,1.76,1.04,2.64,1.56.02.01.03.02.05.03.02.01.04.02.06.03.02,0,.04.02.06.03l.06.03.06.03c24.53,14.29,49.05,28.6,73.58,42.92,27.07,15.79,54.14,31.6,81.21,47.4h.01c20.37,11.89,40.74,23.77,61.12,35.64,32.3,18.82,64.61,37.62,96.95,56.38,24.51,14.22,49.04,28.41,73.59,42.57,31.67,18.28,63.38,36.5,95.13,54.64,30.21,17.28,60.47,34.49,90.77,51.61,5.89,3.33,11.78,6.66,17.67,9.98,6.23,4.25,14.5,7.49,13.51,16.48l-.07,74.6-.11,106.34-.1,104.3-.11,106.12-.1,104.5-.11,105.92-.1,104.73h0s-.11,105.7-.11,105.7l-.1,104.96-.11,105.49-.1,105.11h0s-.03,30.87-.03,30.87l-6.31,5.69-32.04,18.46-91.06,52.48-54.86,31.61Z"/>
</svg>