<?xml version="1.0" encoding="UTF-8"?>
<svg id="Layer_1" data-name="Layer 1" xmlns="http://www.w3.org/2000/svg" viewBox="0 0 2521 2911">
  <defs>
    <style>
      .cls-1 {
        fill: #67c183;
      }

      .cls-1, .cls-2, .cls-3, .cls-4, .cls-5, .cls-6, .cls-7, .cls-8, .cls-9, .cls-10, .cls-11, .cls-12, .cls-13, .cls-14, .cls-15, .cls-16, .cls-17, .cls-18, .cls-19, .cls-20, .cls-21, .cls-22, .cls-23, .cls-24, .cls-25, .cls-26, .cls-27, .cls-28, .cls-29, .cls-30, .cls-31, .cls-32, .cls-33, .cls-34, .cls-35, .cls-36, .cls-37, .cls-38, .cls-39, .cls-40, .cls-41, .cls-42, .cls-43, .cls-44, .cls-45, .cls-46, .cls-47, .cls-48, .cls-49, .cls-50, .cls-51, .cls-52, .cls-53, .cls-54, .cls-55, .cls-56, .cls-57, .cls-58, .cls-59, .cls-60, .cls-61, .cls-62, .cls-63, .cls-64, .cls-65, .cls-66, .cls-67, .cls-68, .cls-69, .cls-70, .cls-71, .cls-72, .cls-73, .cls-74, .cls-75, .cls-76, .cls-77, .cls-78, .cls-79, .cls-80, .cls-81, .cls-82, .cls-83, .cls-84, .cls-85, .cls-86, .cls-87, .cls-88, .cls-89, .cls-90, .cls-91, .cls-92, .cls-93, .cls-94, .cls-95, .cls-96, .cls-97, .cls-98, .cls-99, .cls-100, .cls-101, .cls-102, .cls-103, .cls-104, .cls-105, .cls-106, .cls-107, .cls-108, .cls-109, .cls-110, .cls-111, .cls-112, .cls-113, .cls-114, .cls-115, .cls-116, .cls-117, .cls-118, .cls-119, .cls-120, .cls-121, .cls-122, .cls-123, .cls-124, .cls-125, .cls-126, .cls-127, .cls-128, .cls-129, .cls-130, .cls-131, .cls-132, .cls-133, .cls-134, .cls-135, .cls-136, .cls-137, .cls-138, .cls-139, .cls-140, .cls-141, .cls-142, .cls-143, .cls-144, .cls-145, .cls-146, .cls-147, .cls-148, .cls-149, .cls-150, .cls-151, .cls-152, .cls-153, .cls-154, .cls-155, .cls-156, .cls-157, .cls-158, .cls-159, .cls-160, .cls-161, .cls-162, .cls-163, .cls-164, .cls-165, .cls-166, .cls-167 {
        stroke: #000;
        stroke-miterlimit: 10;
        stroke-width: 5.31px;
      }

      .cls-2 {
        fill: #eaaf6e;
      }

      .cls-3 {
        fill: #ead28a;
      }

      .cls-4 {
        fill: #86c882;
      }

      .cls-5 {
        fill: #eab974;
      }

      .cls-6 {
        fill: #e3776e;
      }

      .cls-7 {
        fill: #eab873;
      }

      .cls-8 {
        fill: #eac57d;
      }

      .cls-9 {
        fill: #e9a26a;
      }

      .cls-10 {
        fill: #eab06e;
      }

      .cls-11 {
        fill: #ead992;
      }

      .cls-12 {
        fill: #ceda8f;
      }

      .cls-13 {
        fill: #e9a36a;
      }

      .cls-14 {
        fill: #9ece84;
      }

      .cls-15 {
        fill: #eae19c;
      }

      .cls-16 {
        fill: #ead088;
      }

      .cls-17 {
        fill: #bdd68a;
      }

      .cls-18 {
        fill: #d4db91;
      }

      .cls-19 {
        fill: #e7e19b;
      }

      .cls-20 {
        fill: #eadd97;
      }

      .cls-21 {
        fill: #089392;
      }

      .cls-168 {
        fill: #5a2778;
        fill-rule: evenodd;
        stroke: #fff;
        stroke-linecap: round;
        stroke-linejoin: round;
        stroke-width: 5.71px;
      }

      .cls-22 {
        fill: #cad98e;
      }

      .cls-23 {
        fill: #9fce84;
      }

      .cls-24 {
        fill: #c5d88c;
      }

      .cls-25 {
        fill: #e9aa6c;
      }

      .cls-26 {
        fill: #eada93;
      }

      .cls-27 {
        fill: #bbd589;
      }

      .cls-28 {
        fill: #e89668;
      }

      .cls-29 {
        fill: #e3786e;
      }

      .cls-30 {
        fill: #c0d78b;
      }

      .cls-31 {
        fill: #aad186;
      }

      .cls-32 {
        fill: #a6d085;
      }

      .cls-33 {
        fill: #eab772;
      }

      .cls-34 {
        fill: #e9ac6d;
      }

      .cls-35 {
        fill: #eab471;
      }

      .cls-36 {
        fill: #dbdd94;
      }

      .cls-37 {
        fill: #e9a069;
      }

      .cls-38 {
        fill: #e0df98;
      }

      .cls-39 {
        fill: #eadf99;
      }

      .cls-40 {
        fill: #eac47c;
      }

      .cls-41 {
        fill: #eabe77;
      }

      .cls-42 {
        fill: #e9a86b;
      }

      .cls-43 {
        fill: #d9dd94;
      }

      .cls-44 {
        fill: #d6dc93;
      }

      .cls-45 {
        fill: #e4e099;
      }

      .cls-46 {
        fill: #eac980;
      }

      .cls-47 {
        fill: #eace85;
      }

      .cls-48 {
        fill: #ddde96;
      }

      .cls-49 {
        fill: #eab672;
      }

      .cls-50 {
        fill: #d7617a;
      }

      .cls-51 {
        fill: #c3d78c;
      }

      .cls-52 {
        fill: #eabc76;
      }

      .cls-53 {
        fill: #dadd94;
      }

      .cls-54 {
        fill: #b0d287;
      }

      .cls-55 {
        fill: #6dc382;
      }

      .cls-56 {
        fill: #eadc95;
      }

      .cls-57 {
        fill: #e9a96c;
      }

      .cls-58 {
        fill: #ead48c;
      }

      .cls-59 {
        fill: #e9e29c;
      }

      .cls-60 {
        fill: #e8e19b;
      }

      .cls-61 {
        fill: #eacf87;
      }

      .cls-62 {
        fill: #ead38b;
      }

      .cls-63 {
        fill: #cfda90;
      }

      .cls-64 {
        fill: #eabd77;
      }

      .cls-65 {
        fill: #e89b69;
      }

      .cls-66 {
        fill: #eabe78;
      }

      .cls-67 {
        fill: #a5cf85;
      }

      .cls-68 {
        fill: #e5e099;
      }

      .cls-69 {
        fill: #e89a69;
      }

      .cls-70 {
        fill: #a9d085;
      }

      .cls-71 {
        fill: #e99e69;
      }

      .cls-72 {
        fill: #dfdf97;
      }

      .cls-73 {
        fill: #eac179;
      }

      .cls-74 {
        fill: #b3d388;
      }

      .cls-75 {
        fill: #d0da90;
      }

      .cls-76 {
        fill: #e3e098;
      }

      .cls-77 {
        fill: #eae09a;
      }

      .cls-78 {
        fill: #bad589;
      }

      .cls-79 {
        fill: #ead58d;
      }

      .cls-80 {
        fill: #eab571;
      }

      .cls-81 {
        fill: #dcde95;
      }

      .cls-82 {
        fill: #b6d488;
      }

      .cls-83 {
        fill: #6ec382;
      }

      .cls-84 {
        fill: #eacc83;
      }

      .cls-85 {
        fill: #e2e098;
      }

      .cls-86 {
        fill: #c4d88c;
      }

      .cls-87 {
        fill: #eacf86;
      }

      .cls-88 {
        fill: #7fc682;
      }

      .cls-89 {
        fill: #eab16f;
      }

      .cls-90 {
        fill: #ead890;
      }

      .cls-91 {
        fill: #eac87f;
      }

      .cls-92 {
        fill: #c2d78c;
      }

      .cls-93 {
        fill: #e6e19a;
      }

      .cls-94 {
        fill: #93cb83;
      }

      .cls-95 {
        fill: #cdda8f;
      }

      .cls-96 {
        fill: #ead78f;
      }

      .cls-97 {
        fill: #e89768;
      }

      .cls-98 {
        fill: #e79169;
      }

      .cls-99 {
        fill: #eab370;
      }

      .cls-100 {
        fill: #e8e29c;
      }

      .cls-101 {
        fill: #83c782;
      }

      .cls-102 {
        fill: #e9ae6e;
      }

      .cls-103 {
        fill: #e89c69;
      }

      .cls-104 {
        fill: #e5806b;
      }

      .cls-105 {
        fill: #8bc982;
      }

      .cls-106 {
        fill: #eabf78;
      }

      .cls-107 {
        fill: #eaca81;
      }

      .cls-108 {
        fill: #bcd58a;
      }

      .cls-109 {
        fill: #e89368;
      }

      .cls-110 {
        fill: #b7d488;
      }

      .cls-111 {
        fill: #acd186;
      }

      .cls-112 {
        fill: #eabb75;
      }

      .cls-113 {
        fill: #91ca83;
      }

      .cls-114 {
        fill: #bbd58a;
      }

      .cls-115 {
        fill: #e78c69;
      }

      .cls-116 {
        fill: #e9a46a;
      }

      .cls-117 {
        fill: #bdd58a;
      }

      .cls-118 {
        fill: #85c882;
      }

      .cls-119 {
        fill: #d7dd94;
      }

      .cls-120 {
        fill: #eac77e;
      }

      .cls-121 {
        fill: #ead68e;
      }

      .cls-122 {
        fill: #e89568;
      }

      .cls-123 {
        fill: #eadd96;
      }

      .cls-124 {
        fill: #e79268;
      }

      .cls-125 {
        fill: #c7d88d;
      }

      .cls-126 {
        fill: #d1db91;
      }

      .cls-127 {
        fill: #eac67e;
      }

      .cls-128 {
        fill: #eacd84;
      }

      .cls-129 {
        fill: #bfd68b;
      }

      .cls-130 {
        fill: #ead790;
      }

      .cls-131 {
        fill: #d2db91;
      }

      .cls-132 {
        fill: #a7d085;
      }

      .cls-133 {
        fill: #ead189;
      }

      .cls-134 {
        fill: #ead891;
      }

      .cls-135 {
        fill: #e9a66b;
      }

      .cls-136 {
        fill: #90ca83;
      }

      .cls-137 {
        fill: #7dc682;
      }

      .cls-138 {
        fill: #eab26f;
      }

      .cls-169 {
        fill: #6b5478;
      }

      .cls-139 {
        fill: #eadb94;
      }

      .cls-140 {
        fill: #eac37b;
      }

      .cls-141 {
        fill: #eac27a;
      }

      .cls-142 {
        fill: #eacb82;
      }

      .cls-143 {
        fill: #eac078;
      }

      .cls-144 {
        fill: #d3db91;
      }

      .cls-145 {
        fill: #e5836b;
      }

      .cls-146 {
        fill: #eaba74;
      }

      .cls-147 {
        fill: #aed186;
      }

      .cls-148 {
        fill: #bed68a;
      }

      .cls-149 {
        fill: #b5d488;
      }

      .cls-150 {
        fill: #e1df98;
      }

      .cls-151 {
        fill: #70c382;
      }

      .cls-152 {
        fill: #c6d88d;
      }

      .cls-153 {
        fill: #e27270;
      }

      .cls-154 {
        fill: #d5dc92;
      }

      .cls-155 {
        fill: #e9a76b;
      }

      .cls-156 {
        fill: #c8d98d;
      }

      .cls-157 {
        fill: #e6876a;
      }

      .cls-158 {
        fill: #e89969;
      }

      .cls-159 {
        fill: #aad085;
      }

      .cls-160 {
        fill: #e99f69;
      }

      .cls-161 {
        fill: #e9ad6d;
      }

      .cls-162 {
        fill: #8fca82;
      }

      .cls-163 {
        fill: #64c084;
      }

      .cls-164 {
        fill: #7ac582;
      }

      .cls-165 {
        fill: #a1ce84;
      }

      .cls-166 {
        fill: #9ccd83;
      }

      .cls-167 {
        fill: #a3cf84;
      }
    </style>
  </defs>
  <g>
    <polygon class="cls-100" points="389.41 2344.78 374.18 2375.17 270.68 2315.45 300.73 2300.43 389.41 2344.78"/>
    <polygon class="cls-40" points="300.73 2211.75 300.73 2300.43 270.68 2315.45 182.45 2264.55 182.45 2256.09 250.32 2188.24 251.44 2187.12 300.73 2211.75"/>
    <polygon class="cls-19" points="389.41 2108.31 300.73 2063.97 212.03 2108.31 251.44 2187.12 300.73 2211.75 349.95 2187.12 389.41 2108.31"/>
    <polygon class="cls-25" points="300.73 1975.33 251.44 1950.69 182.46 2019.62 182.46 2098.48 212.03 2108.31 300.73 2063.97 300.73 1975.33"/>
    <polygon class="cls-150" points="389.41 1871.88 300.73 1827.54 212.03 1871.88 251.44 1950.69 300.73 1975.33 349.95 1950.69 389.41 1871.88"/>
    <polygon class="cls-91" points="300.73 1738.86 251.44 1714.22 182.46 1783.2 182.46 1862 212.03 1871.88 300.73 1827.54 300.73 1738.86"/>
    <polygon class="cls-79" points="389.41 1635.41 300.73 1591.06 212.03 1635.41 251.44 1714.22 300.73 1738.86 349.95 1714.22 389.41 1635.41"/>
    <polygon class="cls-139" points="300.73 1502.38 251.44 1477.74 182.46 1546.72 182.46 1625.52 212.03 1635.41 300.73 1591.06 300.73 1502.38"/>
    <polygon class="cls-130" points="389.41 1398.93 300.73 1354.58 212.03 1398.93 251.44 1477.74 300.73 1502.38 349.95 1477.74 389.41 1398.93"/>
    <polygon class="cls-58" points="300.73 1265.9 251.44 1241.31 182.46 1310.24 182.46 1389.1 212.03 1398.93 300.73 1354.58 300.73 1265.9"/>
    <polygon class="cls-59" points="389.41 1162.45 300.73 1118.16 212.03 1162.45 251.44 1241.31 300.73 1265.9 349.95 1241.31 389.41 1162.45"/>
    <polygon class="cls-42" points="300.73 1029.48 251.44 1004.83 182.46 1073.82 182.46 1152.63 212.03 1162.45 300.73 1118.16 300.73 1029.48"/>
    <polygon class="cls-84" points="389.41 926.02 300.73 881.68 212.03 926.02 251.44 1004.83 300.73 1029.48 349.95 1004.83 389.41 926.02"/>
    <polygon class="cls-64" points="300.73 793 251.44 768.36 182.46 837.34 182.46 916.15 212.03 926.02 300.73 881.68 300.73 793"/>
    <polygon class="cls-122" points="389.41 689.54 300.73 645.2 212.03 689.54 251.44 768.36 300.73 793 349.95 768.36 389.41 689.54"/>
    <polygon class="cls-79" points="300.73 577.93 300.73 645.2 212.03 689.55 182.45 679.73 182.45 646.28 300.73 577.93"/>
    <polygon class="cls-77" points="487.92 2423.59 477.02 2434.48 374.18 2375.17 389.41 2344.78 418.94 2334.9 448.51 2344.78 487.92 2423.59"/>
    <polygon class="cls-49" points="349.95 2187.12 300.73 2211.75 300.73 2300.45 389.41 2344.79 418.94 2334.9 418.94 2256.09 349.95 2187.12"/>
    <polygon class="cls-40" points="487.92 2187.12 448.51 2108.31 418.94 2098.48 389.41 2108.31 349.95 2187.12 418.94 2256.09 487.92 2187.12"/>
    <polygon class="cls-30" points="349.95 1950.69 300.73 1975.33 300.73 2063.97 389.41 2108.31 418.94 2098.48 418.94 2019.62 349.95 1950.69"/>
    <polygon class="cls-141" points="487.92 1950.69 448.51 1871.88 418.94 1862 389.41 1871.88 349.95 1950.69 418.94 2019.62 487.92 1950.69"/>
    <polygon class="cls-56" points="349.95 1714.22 300.73 1738.86 300.73 1827.54 389.41 1871.88 418.94 1862 418.94 1783.2 349.95 1714.22"/>
    <polygon class="cls-34" points="487.92 1714.22 448.51 1635.41 418.94 1625.52 389.41 1635.41 349.95 1714.22 418.94 1783.2 487.92 1714.22"/>
    <polygon class="cls-3" points="349.95 1477.74 300.73 1502.38 300.73 1591.06 389.41 1635.41 418.94 1625.52 418.94 1546.72 349.95 1477.74"/>
    <polygon class="cls-154" points="487.92 1477.74 448.51 1398.93 418.94 1389.1 389.41 1398.93 349.95 1477.74 418.94 1546.72 487.92 1477.74"/>
    <polygon class="cls-160" points="349.95 1241.31 300.73 1265.9 300.73 1354.58 389.41 1398.93 418.94 1389.1 418.94 1310.24 349.95 1241.31"/>
    <polygon class="cls-133" points="487.92 1241.31 448.51 1162.45 418.94 1152.63 389.41 1162.45 349.95 1241.31 418.94 1310.24 487.92 1241.31"/>
    <polygon class="cls-62" points="349.95 1004.83 300.73 1029.48 300.73 1118.16 389.41 1162.45 418.94 1152.63 418.94 1073.82 349.95 1004.83"/>
    <polygon class="cls-102" points="487.92 1004.83 448.51 926.02 418.94 916.15 389.41 926.02 349.95 1004.83 418.94 1073.82 487.92 1004.83"/>
    <polygon class="cls-160" points="349.95 768.36 300.73 793 300.73 881.68 389.41 926.02 418.94 916.15 418.94 837.34 349.95 768.36"/>
    <polygon class="cls-62" points="487.92 768.36 448.51 689.54 418.94 679.73 389.41 689.54 349.95 768.36 418.94 837.34 487.92 768.36"/>
    <polygon class="cls-103" points="418.94 600.86 418.94 679.73 389.41 689.55 352.53 671.11 300.73 645.2 300.73 577.93 361.07 543.05 361.08 543.05 418.94 600.86"/>
    <polygon class="cls-19" points="487.92 531.93 418.94 600.86 361.08 543.05 463.8 483.67 487.92 531.93"/>
    <polygon class="cls-116" points="537.2 2448.23 537.2 2469.21 477.02 2434.48 487.92 2423.59 537.2 2448.23"/>
    <polygon class="cls-15" points="625.83 2344.79 537.19 2300.45 448.51 2344.79 487.92 2423.59 537.19 2448.23 586.42 2423.59 625.83 2344.79"/>
    <polygon class="cls-57" points="537.19 2211.75 487.92 2187.12 418.94 2256.09 418.94 2334.9 448.51 2344.79 537.19 2300.45 537.19 2211.75"/>
    <polygon class="cls-8" points="625.83 2108.31 537.19 2063.97 448.51 2108.31 487.92 2187.12 537.19 2211.75 586.42 2187.12 625.83 2108.31"/>
    <polygon class="cls-127" points="537.19 1975.33 487.92 1950.69 418.94 2019.62 418.94 2098.48 448.51 2108.31 537.19 2063.97 537.19 1975.33"/>
    <polygon class="cls-81" points="625.83 1871.88 537.19 1827.54 448.51 1871.88 487.92 1950.69 537.19 1975.33 586.42 1950.69 625.83 1871.88"/>
    <polygon class="cls-123" points="537.19 1738.86 487.92 1714.22 418.94 1783.2 418.94 1862 448.51 1871.88 537.19 1827.54 537.19 1738.86"/>
    <polygon class="cls-77" points="625.83 1635.41 537.19 1591.06 448.51 1635.41 487.92 1714.22 537.19 1738.86 586.42 1714.22 625.83 1635.41"/>
    <polygon class="cls-164" points="537.19 1502.38 487.92 1477.74 418.94 1546.72 418.94 1625.52 448.51 1635.41 537.19 1591.06 537.19 1502.38"/>
    <polygon class="cls-48" points="625.83 1398.93 537.19 1354.58 448.51 1398.93 487.92 1477.74 537.19 1502.38 586.42 1477.74 625.83 1398.93"/>
    <polygon class="cls-129" points="537.19 1265.9 487.92 1241.31 418.94 1310.24 418.94 1389.1 448.51 1398.93 537.19 1354.58 537.19 1265.9"/>
    <polygon class="cls-67" points="625.83 1162.45 537.19 1118.16 448.51 1162.45 487.92 1241.31 537.19 1265.9 586.42 1241.31 625.83 1162.45"/>
    <polygon class="cls-141" points="537.19 1029.48 487.92 1004.83 418.94 1073.82 418.94 1152.63 448.51 1162.45 537.19 1118.16 537.19 1029.48"/>
    <polygon class="cls-92" points="625.83 926.02 537.19 881.68 448.51 926.02 487.92 1004.83 537.19 1029.48 586.42 1004.83 625.83 926.02"/>
    <polygon class="cls-87" points="537.19 793 487.92 768.36 418.94 837.34 418.94 916.15 448.51 926.02 537.19 881.68 537.19 793"/>
    <polygon class="cls-72" points="625.83 689.54 537.19 645.2 448.51 689.54 487.92 768.36 537.19 793 586.42 768.36 625.83 689.54"/>
    <polygon class="cls-145" points="537.19 556.52 487.92 531.93 418.94 600.86 418.94 679.73 448.51 689.54 537.19 645.2 537.19 556.52"/>
    <polygon class="cls-97" points="625.83 453.08 586.42 531.93 537.2 556.52 487.92 531.93 463.8 483.67 567.36 423.82 625.83 453.08"/>
    <polygon class="cls-56" points="655.41 2492.57 655.41 2537.4 537.2 2469.21 537.2 2448.23 586.42 2423.59 655.41 2492.57"/>
    <polygon class="cls-62" points="724.39 2423.59 684.93 2344.79 655.41 2334.9 625.83 2344.79 586.42 2423.59 655.41 2492.57 724.39 2423.59"/>
    <polygon class="cls-112" points="586.42 2187.12 537.19 2211.75 537.19 2300.45 625.83 2344.79 655.41 2334.9 655.41 2256.09 586.42 2187.12"/>
    <polygon class="cls-96" points="724.39 2187.12 684.93 2108.31 655.41 2098.48 625.83 2108.31 586.42 2187.12 655.41 2256.09 724.39 2187.12"/>
    <polygon class="cls-121" points="586.42 1950.69 537.19 1975.33 537.19 2063.97 625.83 2108.31 655.41 2098.48 655.41 2019.62 586.42 1950.69"/>
    <polygon class="cls-107" points="724.39 1950.69 684.93 1871.88 655.41 1862 625.83 1871.88 586.42 1950.69 655.41 2019.62 724.39 1950.69"/>
    <polygon class="cls-165" points="586.42 1714.22 537.19 1738.86 537.19 1827.54 625.83 1871.88 655.41 1862 655.41 1783.2 586.42 1714.22"/>
    <polygon class="cls-17" points="724.39 1714.22 684.93 1635.41 655.41 1625.52 625.83 1635.41 586.42 1714.22 655.41 1783.2 724.39 1714.22"/>
    <polygon class="cls-24" points="586.42 1477.74 537.19 1502.38 537.19 1591.06 625.83 1635.41 655.41 1625.52 655.41 1546.72 586.42 1477.74"/>
    <polygon class="cls-134" points="724.39 1477.74 684.93 1398.93 655.41 1389.1 625.83 1398.93 586.42 1477.74 655.41 1546.72 724.39 1477.74"/>
    <polygon class="cls-167" points="586.42 1241.31 537.19 1265.9 537.19 1354.58 625.83 1398.93 655.41 1389.1 655.41 1310.24 586.42 1241.31"/>
    <polygon class="cls-44" points="724.39 1241.31 684.93 1162.45 655.41 1152.63 625.83 1162.45 586.42 1241.31 655.41 1310.24 724.39 1241.31"/>
    <polygon class="cls-146" points="586.42 1004.83 537.19 1029.48 537.19 1118.16 625.83 1162.45 655.41 1152.63 655.41 1073.82 586.42 1004.83"/>
    <polygon class="cls-3" points="724.39 1004.83 684.93 926.02 655.41 916.15 625.83 926.02 586.42 1004.83 655.41 1073.82 724.39 1004.83"/>
    <polygon class="cls-62" points="586.42 768.36 537.19 793 537.19 881.68 625.83 926.02 655.41 916.15 655.41 837.34 586.42 768.36"/>
    <polygon class="cls-140" points="724.39 768.36 684.93 689.54 655.41 679.73 625.83 689.54 586.42 768.36 655.41 837.34 724.39 768.36"/>
    <polygon class="cls-138" points="586.42 531.93 537.19 556.52 537.19 645.2 625.83 689.54 655.41 679.73 655.41 600.86 586.42 531.93"/>
    <polygon class="cls-5" points="724.39 531.93 684.93 453.08 655.41 443.25 625.83 453.08 586.42 531.93 655.41 600.86 724.39 531.93"/>
    <polygon class="cls-138" points="655.41 372.92 655.41 443.25 625.83 453.08 567.36 423.82 655.41 372.92"/>
    <polygon class="cls-28" points="862.31 2581.26 833 2639.87 709.85 2568.81 773.62 2536.91 862.31 2581.26"/>
    <polygon class="cls-5" points="773.62 2448.23 773.62 2536.91 709.85 2568.81 655.41 2537.4 655.41 2492.57 724.39 2423.59 773.62 2448.23"/>
    <polygon class="cls-125" points="862.31 2344.79 773.62 2300.45 684.93 2344.79 724.39 2423.59 773.62 2448.23 822.9 2423.59 862.31 2344.79"/>
    <polygon class="cls-16" points="773.62 2211.75 724.39 2187.12 655.41 2256.09 655.41 2334.9 684.93 2344.79 773.62 2300.45 773.62 2211.75"/>
    <polygon class="cls-77" points="862.31 2108.31 773.62 2063.97 684.93 2108.31 724.39 2187.12 773.62 2211.75 822.9 2187.12 862.31 2108.31"/>
    <polygon class="cls-46" points="773.62 1975.33 724.39 1950.69 655.41 2019.62 655.41 2098.48 684.93 2108.31 773.62 2063.97 773.62 1975.33"/>
    <polygon class="cls-151" points="862.31 1871.88 773.62 1827.54 684.93 1871.88 724.39 1950.69 773.62 1975.33 822.9 1950.69 862.31 1871.88"/>
    <polygon class="cls-19" points="773.62 1738.86 724.39 1714.22 655.41 1783.2 655.41 1862 684.93 1871.88 773.62 1827.54 773.62 1738.86"/>
    <polygon class="cls-156" points="862.31 1635.41 773.62 1591.06 684.93 1635.41 724.39 1714.22 773.62 1738.86 822.9 1714.22 862.31 1635.41"/>
    <polygon class="cls-119" points="773.62 1502.38 724.39 1477.74 655.41 1546.72 655.41 1625.52 684.93 1635.41 773.62 1591.06 773.62 1502.38"/>
    <polygon class="cls-26" points="862.31 1398.93 773.62 1354.58 684.93 1398.93 724.39 1477.74 773.62 1502.38 822.9 1477.74 862.31 1398.93"/>
    <polygon class="cls-44" points="773.62 1265.9 724.39 1241.31 655.41 1310.24 655.41 1389.1 684.93 1398.93 773.62 1354.58 773.62 1265.9"/>
    <polygon class="cls-11" points="862.31 1162.45 773.62 1118.16 684.93 1162.45 724.39 1241.31 773.62 1265.9 822.9 1241.31 862.31 1162.45"/>
    <polygon class="cls-150" points="773.62 1029.48 724.39 1004.83 655.41 1073.82 655.41 1152.63 684.93 1162.45 773.62 1118.16 773.62 1029.48"/>
    <polygon class="cls-46" points="862.31 926.02 773.62 881.68 684.93 926.02 724.39 1004.83 773.62 1029.48 822.9 1004.83 862.31 926.02"/>
    <polygon class="cls-57" points="773.62 793 724.39 768.36 655.41 837.34 655.41 916.15 684.93 926.02 773.62 881.68 773.62 793"/>
    <polygon class="cls-9" points="862.31 689.54 773.62 645.2 684.93 689.54 724.39 768.36 773.62 793 822.9 768.36 862.31 689.54"/>
    <polygon class="cls-140" points="773.62 556.52 724.39 531.93 655.41 600.86 655.41 679.73 684.93 689.54 773.62 645.2 773.62 556.52"/>
    <polygon class="cls-76" points="862.31 453.08 773.62 408.73 684.93 453.08 724.39 531.93 773.62 556.52 822.9 531.93 862.31 453.08"/>
    <polygon class="cls-2" points="773.62 320.09 773.62 408.74 684.94 453.08 655.41 443.25 655.41 372.92 759.27 312.9 773.62 320.09"/>
    <polygon class="cls-135" points="836.51 268.28 822.91 295.45 773.62 320.09 759.27 312.9 836.51 268.28"/>
    <polygon class="cls-102" points="960.83 2660.07 926.88 2694.02 833 2639.87 862.31 2581.26 891.89 2571.39 921.41 2581.26 960.83 2660.07"/>
    <polygon class="cls-89" points="822.9 2423.59 773.62 2448.23 773.62 2536.91 862.31 2581.26 891.89 2571.38 891.89 2492.57 822.9 2423.59"/>
    <polygon class="cls-154" points="960.81 2423.59 921.41 2344.79 891.89 2334.9 862.31 2344.79 822.9 2423.59 891.89 2492.57 960.81 2423.59"/>
    <polygon class="cls-128" points="822.9 2187.12 773.62 2211.75 773.62 2300.45 862.31 2344.79 891.89 2334.9 891.89 2256.09 822.9 2187.12"/>
    <polygon class="cls-86" points="960.81 2187.12 921.41 2108.31 891.89 2098.48 862.31 2108.31 822.9 2187.12 891.89 2256.09 960.81 2187.12"/>
    <polygon class="cls-95" points="822.9 1950.69 773.62 1975.33 773.62 2063.97 862.31 2108.31 891.89 2098.48 891.89 2019.62 822.9 1950.69"/>
    <polygon class="cls-78" points="960.81 1950.69 921.41 1871.88 891.89 1862 862.31 1871.88 822.9 1950.69 891.89 2019.62 960.81 1950.69"/>
    <polygon class="cls-23" points="822.9 1714.22 773.62 1738.86 773.62 1827.54 862.31 1871.88 891.89 1862 891.89 1783.2 822.9 1714.22"/>
    <polygon class="cls-81" points="960.81 1714.22 921.41 1635.41 891.89 1625.52 862.31 1635.41 822.9 1714.22 891.89 1783.2 960.81 1714.22"/>
    <polygon class="cls-70" points="822.9 1477.74 773.62 1502.38 773.62 1591.06 862.31 1635.41 891.89 1625.52 891.89 1546.72 822.9 1477.74"/>
    <polygon class="cls-147" points="960.81 1477.74 921.41 1398.93 891.89 1389.1 862.31 1398.93 822.9 1477.74 891.89 1546.72 960.81 1477.74"/>
    <polygon class="cls-150" points="822.9 1241.31 773.62 1265.9 773.62 1354.58 862.31 1398.93 891.89 1389.1 891.89 1310.24 822.9 1241.31"/>
    <polygon class="cls-12" points="960.81 1241.31 921.41 1162.45 891.89 1152.63 862.31 1162.45 822.9 1241.31 891.89 1310.24 960.81 1241.31"/>
    <polygon class="cls-11" points="822.9 1004.83 773.62 1029.48 773.62 1118.16 862.31 1162.45 891.89 1152.63 891.89 1073.82 822.9 1004.83"/>
    <polygon class="cls-131" points="960.81 1004.83 921.41 926.02 891.89 916.15 862.31 926.02 822.9 1004.83 891.89 1073.82 960.81 1004.83"/>
    <polygon class="cls-62" points="822.9 768.36 773.62 793 773.62 881.68 862.31 926.02 891.89 916.15 891.89 837.34 822.9 768.36"/>
    <polygon class="cls-64" points="960.81 768.36 921.41 689.54 891.89 679.73 862.31 689.54 822.9 768.36 891.89 837.34 960.81 768.36"/>
    <polygon class="cls-11" points="822.9 531.93 773.62 556.52 773.62 645.2 862.31 689.54 891.89 679.73 891.89 600.86 822.9 531.93"/>
    <polygon class="cls-142" points="960.81 531.93 921.41 453.08 891.89 443.25 862.31 453.08 822.9 531.93 891.89 600.86 960.81 531.93"/>
    <polygon class="cls-80" points="822.9 295.45 773.62 320.1 773.62 408.73 862.31 453.08 891.89 443.25 891.89 364.44 822.9 295.45"/>
    <polygon class="cls-34" points="960.83 295.45 904.58 351.75 891.89 364.43 822.91 295.45 836.51 268.28 922.42 218.62 960.83 295.45"/>
    <polygon class="cls-146" points="1010.1 2684.71 1010.1 2742.03 926.88 2694.02 960.83 2660.07 1010.1 2684.71"/>
    <polygon class="cls-14" points="1098.78 2581.26 1010.1 2536.91 921.41 2581.26 960.81 2660.07 1010.1 2684.71 1059.38 2660.07 1098.78 2581.26"/>
    <polygon class="cls-107" points="1010.1 2448.23 960.81 2423.59 891.89 2492.57 891.89 2571.38 921.41 2581.26 1010.1 2536.91 1010.1 2448.23"/>
    <polygon class="cls-133" points="1098.78 2344.79 1010.1 2300.45 921.41 2344.79 960.81 2423.59 1010.1 2448.23 1059.38 2423.59 1098.78 2344.79"/>
    <polygon class="cls-86" points="1010.1 2211.75 960.81 2187.12 891.89 2256.09 891.89 2334.9 921.41 2344.79 1010.1 2300.45 1010.1 2211.75"/>
    <polygon class="cls-136" points="1098.78 2108.31 1010.1 2063.97 921.41 2108.31 960.81 2187.12 1010.1 2211.75 1059.38 2187.12 1098.78 2108.31"/>
    <polygon class="cls-150" points="1010.1 1975.33 960.81 1950.69 891.89 2019.62 891.89 2098.48 921.41 2108.31 1010.1 2063.97 1010.1 1975.33"/>
    <polygon class="cls-70" points="1098.78 1871.88 1010.1 1827.54 921.41 1871.88 960.81 1950.69 1010.1 1975.33 1059.38 1950.69 1098.78 1871.88"/>
    <polygon class="cls-72" points="1010.1 1738.86 960.81 1714.22 891.89 1783.2 891.89 1862 921.41 1871.88 1010.1 1827.54 1010.1 1738.86"/>
    <polygon class="cls-36" points="1098.78 1635.41 1010.1 1591.06 921.41 1635.41 960.81 1714.22 1010.1 1738.86 1059.38 1714.22 1098.78 1635.41"/>
    <polygon class="cls-45" points="1010.1 1502.38 960.81 1477.74 891.89 1546.72 891.89 1625.52 921.41 1635.41 1010.1 1591.06 1010.1 1502.38"/>
    <polygon class="cls-163" points="1098.78 1398.93 1010.1 1354.58 921.41 1398.93 960.81 1477.74 1010.1 1502.38 1059.38 1477.74 1098.78 1398.93"/>
    <polygon class="cls-138" points="1010.1 1265.9 960.81 1241.31 891.89 1310.24 891.89 1389.1 921.41 1398.93 1010.1 1354.58 1010.1 1265.9"/>
    <polygon class="cls-86" points="1098.78 1162.45 1010.1 1118.16 921.41 1162.45 960.81 1241.31 1010.1 1265.9 1059.38 1241.31 1098.78 1162.45"/>
    <polygon class="cls-38" points="1010.1 1029.48 960.81 1004.83 891.89 1073.82 891.89 1152.63 921.41 1162.45 1010.1 1118.16 1010.1 1029.48"/>
    <polygon class="cls-75" points="1098.78 926.02 1010.1 881.68 921.41 926.02 960.81 1004.83 1010.1 1029.48 1059.38 1004.83 1098.78 926.02"/>
    <polygon class="cls-84" points="1010.1 793 960.81 768.36 891.89 837.34 891.89 916.15 921.41 926.02 1010.1 881.68 1010.1 793"/>
    <polygon class="cls-47" points="1098.78 689.54 1010.1 645.2 921.41 689.54 960.81 768.36 1010.1 793 1059.38 768.36 1098.78 689.54"/>
    <polygon class="cls-41" points="1010.1 556.52 960.81 531.93 891.89 600.86 891.89 679.73 921.41 689.54 1010.1 645.2 1010.1 556.52"/>
    <polygon class="cls-139" points="1098.78 453.08 1010.1 408.73 921.41 453.08 960.81 531.93 1010.1 556.52 1059.38 531.93 1098.78 453.08"/>
    <polygon class="cls-161" points="1010.1 320.1 960.81 295.45 891.89 364.44 891.89 443.25 921.41 453.08 1010.1 408.73 1010.1 320.1"/>
    <polygon class="cls-103" points="1128.31 99.62 1128.31 157.54 1082.77 248.65 1059.38 295.45 1010.1 320.09 982.85 306.46 960.83 295.45 922.42 218.62 1128.31 99.62"/>
    <polygon class="cls-66" points="1164.63 2831.17 1125.71 2808.71 1128.31 2807.86 1157.89 2817.69 1164.63 2831.17"/>
    <polygon class="cls-74" points="1128.31 2729.05 1128.31 2807.86 1125.71 2808.71 1010.1 2742.03 1010.1 2684.71 1059.38 2660.07 1128.31 2729.05"/>
    <polygon class="cls-106" points="1197.29 2660.07 1157.89 2581.26 1128.31 2571.38 1098.78 2581.26 1059.38 2660.07 1128.31 2729.05 1197.29 2660.07"/>
    <polygon class="cls-100" points="1059.38 2423.59 1010.1 2448.23 1010.1 2536.91 1098.78 2581.26 1128.31 2571.38 1128.31 2492.57 1059.38 2423.59"/>
    <polygon class="cls-99" points="1197.29 2423.59 1157.89 2344.79 1128.31 2334.9 1098.78 2344.79 1059.38 2423.59 1128.31 2492.57 1197.29 2423.59"/>
    <polygon class="cls-85" points="1059.38 2187.12 1010.1 2211.75 1010.1 2300.45 1098.78 2344.79 1128.31 2334.9 1128.31 2256.09 1059.38 2187.12"/>
    <polygon class="cls-79" points="1197.29 2187.12 1157.89 2108.31 1128.31 2098.48 1098.78 2108.31 1059.38 2187.12 1128.31 2256.09 1197.29 2187.12"/>
    <polygon class="cls-38" points="1059.38 1950.69 1010.1 1975.33 1010.1 2063.97 1098.78 2108.31 1128.31 2098.48 1128.31 2019.62 1059.38 1950.69"/>
    <polygon class="cls-32" points="1197.29 1950.69 1157.89 1871.88 1128.31 1862 1098.78 1871.88 1059.38 1950.69 1128.31 2019.62 1197.29 1950.69"/>
    <polygon class="cls-82" points="1059.38 1714.22 1010.1 1738.86 1010.1 1827.54 1098.78 1871.88 1128.31 1862 1128.31 1783.2 1059.38 1714.22"/>
    <polygon class="cls-152" points="1197.29 1714.22 1157.89 1635.41 1128.31 1625.52 1098.78 1635.41 1059.38 1714.22 1128.31 1783.2 1197.29 1714.22"/>
    <polygon class="cls-60" points="1059.38 1477.74 1010.1 1502.38 1010.1 1591.06 1098.78 1635.41 1128.31 1625.52 1128.31 1546.72 1059.38 1477.74"/>
    <polygon class="cls-166" points="1197.29 1477.74 1157.89 1398.93 1128.31 1389.1 1098.78 1398.93 1059.38 1477.74 1128.31 1546.72 1197.29 1477.74"/>
    <polygon class="cls-31" points="1059.38 1241.31 1010.1 1265.9 1010.1 1354.58 1098.78 1398.93 1128.31 1389.1 1128.31 1310.24 1059.38 1241.31"/>
    <polygon class="cls-165" points="1197.29 1241.31 1157.89 1162.45 1128.31 1152.63 1098.78 1162.45 1059.38 1241.31 1128.31 1310.24 1197.29 1241.31"/>
    <polygon class="cls-47" points="1059.38 1004.83 1010.1 1029.48 1010.1 1118.16 1098.78 1162.45 1128.31 1152.63 1128.31 1073.82 1059.38 1004.83"/>
    <polygon class="cls-96" points="1197.29 1004.83 1157.89 926.02 1128.31 916.15 1098.78 926.02 1059.38 1004.83 1128.31 1073.82 1197.29 1004.83"/>
    <polygon class="cls-43" points="1059.38 768.36 1010.1 793 1010.1 881.68 1098.78 926.02 1128.31 916.15 1128.31 837.34 1059.38 768.36"/>
    <polygon class="cls-132" points="1197.29 768.36 1157.89 689.54 1128.31 679.73 1098.78 689.54 1059.38 768.36 1128.31 837.34 1197.29 768.36"/>
    <polygon class="cls-106" points="1059.38 531.93 1010.1 556.52 1010.1 645.2 1098.78 689.54 1128.31 679.73 1128.31 600.86 1059.38 531.93"/>
    <polygon class="cls-139" points="1197.29 531.93 1157.89 453.08 1128.31 443.25 1098.78 453.08 1059.38 531.93 1128.31 600.86 1197.29 531.93"/>
    <polygon class="cls-153" points="1059.38 295.45 1010.1 320.1 1010.1 408.73 1098.78 453.08 1128.31 443.25 1128.31 364.44 1059.38 295.45"/>
    <polygon class="cls-153" points="1197.29 295.45 1128.31 157.54 1059.38 295.45 1128.31 364.44 1197.29 295.45"/>
    <polygon class="cls-37" points="1335.22 2817.69 1315.42 2857.28 1266.11 2885.83 1259.38 2885.83 1164.63 2831.17 1157.89 2817.69 1246.57 2773.35 1335.22 2817.69"/>
    <polygon class="cls-56" points="1246.58 2684.71 1197.29 2660.07 1128.31 2729.05 1128.31 2807.86 1157.89 2817.69 1246.58 2773.35 1246.58 2684.71"/>
    <polygon class="cls-53" points="1335.2 2581.26 1246.58 2536.91 1157.89 2581.26 1197.29 2660.07 1246.58 2684.71 1295.8 2660.07 1335.2 2581.26"/>
    <polygon class="cls-20" points="1246.58 2448.23 1197.29 2423.59 1128.31 2492.57 1128.31 2571.38 1157.89 2581.26 1246.58 2536.91 1246.58 2448.23"/>
    <polygon class="cls-92" points="1335.2 2344.79 1246.58 2300.45 1157.89 2344.79 1197.29 2423.59 1246.58 2448.23 1295.8 2423.59 1335.2 2344.79"/>
    <polygon class="cls-51" points="1246.58 2211.75 1197.29 2187.12 1128.31 2256.09 1128.31 2334.9 1157.89 2344.79 1246.58 2300.45 1246.58 2211.75"/>
    <polygon class="cls-26" points="1335.2 2108.31 1246.58 2063.97 1157.89 2108.31 1197.29 2187.12 1246.58 2211.75 1295.8 2187.12 1335.2 2108.31"/>
    <polygon class="cls-159" points="1246.58 1975.33 1197.29 1950.69 1128.31 2019.62 1128.31 2098.48 1157.89 2108.31 1246.58 2063.97 1246.58 1975.33"/>
    <polygon class="cls-21" points="1335.2 1871.88 1246.58 1827.54 1157.89 1871.88 1197.29 1950.69 1246.58 1975.33 1295.8 1950.69 1335.2 1871.88"/>
    <polygon class="cls-88" points="1246.58 1738.86 1197.29 1714.22 1128.31 1783.2 1128.31 1862 1157.89 1871.88 1246.58 1827.54 1246.58 1738.86"/>
    <polygon class="cls-154" points="1335.2 1635.41 1246.58 1591.06 1157.89 1635.41 1197.29 1714.22 1246.58 1738.86 1295.8 1714.22 1335.2 1635.41"/>
    <polygon class="cls-51" points="1246.58 1502.38 1197.29 1477.74 1128.31 1546.72 1128.31 1625.52 1157.89 1635.41 1246.58 1591.06 1246.58 1502.38"/>
    <polygon class="cls-55" points="1335.2 1398.93 1246.58 1354.58 1157.89 1398.93 1197.29 1477.74 1246.58 1502.38 1295.8 1477.74 1335.2 1398.93"/>
    <polygon class="cls-75" points="1246.58 1265.9 1197.29 1241.31 1128.31 1310.24 1128.31 1389.1 1157.89 1398.93 1246.58 1354.58 1246.58 1265.9"/>
    <polygon class="cls-39" points="1335.2 1162.45 1246.58 1118.16 1157.89 1162.45 1197.29 1241.31 1246.58 1265.9 1295.8 1241.31 1335.2 1162.45"/>
    <polygon class="cls-73" points="1246.58 1029.48 1197.29 1004.83 1128.31 1073.82 1128.31 1152.63 1157.89 1162.45 1246.58 1118.16 1246.58 1029.48"/>
    <polygon class="cls-113" points="1335.2 926.02 1246.58 881.68 1157.89 926.02 1197.29 1004.83 1246.58 1029.48 1295.8 1004.83 1335.2 926.02"/>
    <polygon class="cls-146" points="1246.58 793 1197.29 768.36 1128.31 837.34 1128.31 916.15 1157.89 926.02 1246.58 881.68 1246.58 793"/>
    <polygon class="cls-8" points="1335.2 689.54 1246.58 645.2 1157.89 689.54 1197.29 768.36 1246.58 793 1295.8 768.36 1335.2 689.54"/>
    <polygon class="cls-47" points="1246.58 556.52 1197.29 531.93 1128.31 600.86 1128.31 679.73 1157.89 689.54 1246.58 645.2 1246.58 556.52"/>
    <polygon class="cls-52" points="1335.2 453.08 1246.58 408.73 1157.89 453.08 1197.29 531.93 1246.58 556.52 1295.8 531.93 1335.2 453.08"/>
    <polygon class="cls-139" points="1246.58 320.1 1197.29 295.45 1128.31 364.44 1128.31 443.25 1157.89 453.08 1246.58 408.73 1246.58 320.1"/>
    <polygon class="cls-98" points="1364.78 82.3 1364.78 157.54 1346.75 193.61 1295.8 295.45 1246.57 320.09 1197.3 295.45 1153.44 207.77 1128.31 157.54 1128.31 99.62 1257.13 25.17 1266.11 25.17 1364.78 82.3"/>
    <polygon class="cls-142" points="1387.66 2815.46 1315.42 2857.28 1335.22 2817.69 1364.78 2807.86 1387.66 2815.46"/>
    <polygon class="cls-9" points="1295.8 2660.07 1246.58 2684.71 1246.58 2773.35 1335.2 2817.69 1364.79 2807.86 1364.79 2729.05 1295.8 2660.07"/>
    <polygon class="cls-80" points="1433.77 2660.07 1394.37 2581.26 1364.79 2571.38 1335.2 2581.26 1295.8 2660.07 1364.79 2729.05 1433.77 2660.07"/>
    <polygon class="cls-86" points="1295.8 2423.59 1246.58 2448.23 1246.58 2536.91 1335.2 2581.26 1364.79 2571.38 1364.79 2492.57 1295.8 2423.59"/>
    <polygon class="cls-47" points="1433.77 2423.59 1394.37 2344.79 1364.79 2334.9 1335.2 2344.79 1295.8 2423.59 1364.79 2492.57 1433.77 2423.59"/>
    <polygon class="cls-118" points="1295.8 2187.12 1246.58 2211.75 1246.58 2300.45 1335.2 2344.79 1364.79 2334.9 1364.79 2256.09 1295.8 2187.12"/>
    <polygon class="cls-134" points="1433.77 2187.12 1394.37 2108.31 1364.79 2098.48 1335.2 2108.31 1295.8 2187.12 1364.79 2256.09 1433.77 2187.12"/>
    <polygon class="cls-27" points="1295.8 1950.69 1246.58 1975.33 1246.58 2063.97 1335.2 2108.31 1364.79 2098.48 1364.79 2019.62 1295.8 1950.69"/>
    <polygon class="cls-4" points="1433.77 1950.69 1394.37 1871.88 1364.79 1862 1335.2 1871.88 1295.8 1950.69 1364.79 2019.62 1433.77 1950.69"/>
    <polygon class="cls-54" points="1295.8 1714.22 1246.58 1738.86 1246.58 1827.54 1335.2 1871.88 1364.79 1862 1364.79 1783.2 1295.8 1714.22"/>
    <polygon class="cls-111" points="1433.77 1714.22 1394.37 1635.41 1364.79 1625.52 1335.2 1635.41 1295.8 1714.22 1364.79 1783.2 1433.77 1714.22"/>
    <polygon class="cls-144" points="1295.8 1477.74 1246.58 1502.38 1246.58 1591.06 1335.2 1635.41 1364.79 1625.52 1364.79 1546.72 1295.8 1477.74"/>
    <polygon class="cls-149" points="1433.77 1477.74 1394.37 1398.93 1364.79 1389.1 1335.2 1398.93 1295.8 1477.74 1364.79 1546.72 1433.77 1477.74"/>
    <polygon class="cls-44" points="1295.8 1241.31 1246.58 1265.9 1246.58 1354.58 1335.2 1398.93 1364.79 1389.1 1364.79 1310.24 1295.8 1241.31"/>
    <polygon class="cls-19" points="1433.77 1241.31 1394.37 1162.45 1364.79 1152.63 1335.2 1162.45 1295.8 1241.31 1364.79 1310.24 1433.77 1241.31"/>
    <polygon class="cls-139" points="1295.8 1004.83 1246.58 1029.48 1246.58 1118.16 1335.2 1162.45 1364.79 1152.63 1364.79 1073.82 1295.8 1004.83"/>
    <polygon class="cls-77" points="1433.77 1004.83 1394.37 926.02 1364.79 916.15 1335.2 926.02 1295.8 1004.83 1364.79 1073.82 1433.77 1004.83"/>
    <polygon class="cls-120" points="1295.8 768.36 1246.58 793 1246.58 881.68 1335.2 926.02 1364.79 916.15 1364.79 837.34 1295.8 768.36"/>
    <polygon class="cls-107" points="1433.77 768.36 1394.37 689.54 1364.79 679.73 1335.2 689.54 1295.8 768.36 1364.79 837.34 1433.77 768.36"/>
    <polygon class="cls-39" points="1295.8 531.93 1246.58 556.52 1246.58 645.2 1335.2 689.54 1364.79 679.73 1364.79 600.86 1295.8 531.93"/>
    <polygon class="cls-79" points="1433.77 531.93 1394.37 453.08 1364.79 443.25 1335.2 453.08 1295.8 531.93 1364.79 600.86 1433.77 531.93"/>
    <polygon class="cls-89" points="1295.8 295.45 1246.58 320.1 1246.58 408.73 1335.2 453.08 1364.79 443.25 1364.79 364.44 1295.8 295.45"/>
    <polygon class="cls-84" points="1433.77 295.45 1364.79 157.54 1295.8 295.45 1364.79 364.44 1433.77 295.45"/>
    <polygon class="cls-121" points="1483 2684.71 1483 2760.26 1387.66 2815.46 1364.78 2807.86 1364.78 2729.05 1405.33 2688.5 1433.77 2660.07 1444.96 2665.67 1483 2684.71"/>
    <polygon class="cls-167" points="1571.68 2581.26 1483 2536.91 1394.37 2581.26 1433.77 2660.07 1483 2684.71 1532.28 2660.07 1571.68 2581.26"/>
    <polygon class="cls-46" points="1483 2448.23 1433.77 2423.59 1364.79 2492.57 1364.79 2571.38 1394.37 2581.26 1483 2536.91 1483 2448.23"/>
    <polygon class="cls-112" points="1571.68 2344.79 1483 2300.45 1394.37 2344.79 1433.77 2423.59 1483 2448.23 1532.28 2423.59 1571.68 2344.79"/>
    <polygon class="cls-120" points="1483 2211.75 1433.77 2187.12 1364.79 2256.09 1364.79 2334.9 1394.37 2344.79 1483 2300.45 1483 2211.75"/>
    <polygon class="cls-105" points="1571.68 2108.31 1483 2063.97 1394.37 2108.31 1433.77 2187.12 1483 2211.75 1532.28 2187.12 1571.68 2108.31"/>
    <polygon class="cls-22" points="1483 1975.33 1433.77 1950.69 1364.79 2019.62 1364.79 2098.48 1394.37 2108.31 1483 2063.97 1483 1975.33"/>
    <polygon class="cls-1" points="1571.68 1871.88 1483 1827.54 1394.37 1871.88 1433.77 1950.69 1483 1975.33 1532.28 1950.69 1571.68 1871.88"/>
    <polygon class="cls-72" points="1483 1738.86 1433.77 1714.22 1364.79 1783.2 1364.79 1862 1394.37 1871.88 1483 1827.54 1483 1738.86"/>
    <polygon class="cls-83" points="1571.68 1635.41 1483 1591.06 1394.37 1635.41 1433.77 1714.22 1483 1738.86 1532.28 1714.22 1571.68 1635.41"/>
    <polygon class="cls-16" points="1483 1502.38 1433.77 1477.74 1364.79 1546.72 1364.79 1625.52 1394.37 1635.41 1483 1591.06 1483 1502.38"/>
    <polygon class="cls-163" points="1571.68 1398.93 1483 1354.58 1394.37 1398.93 1433.77 1477.74 1483 1502.38 1532.28 1477.74 1571.68 1398.93"/>
    <polygon class="cls-85" points="1483 1265.9 1433.77 1241.31 1364.79 1310.24 1364.79 1389.1 1394.37 1398.93 1483 1354.58 1483 1265.9"/>
    <polygon class="cls-143" points="1571.68 1162.45 1483 1118.16 1394.37 1162.45 1433.77 1241.31 1483 1265.9 1532.28 1241.31 1571.68 1162.45"/>
    <polygon class="cls-51" points="1483 1029.48 1433.77 1004.83 1364.79 1073.82 1364.79 1152.63 1394.37 1162.45 1483 1118.16 1483 1029.48"/>
    <polygon class="cls-61" points="1571.68 926.02 1483 881.68 1394.37 926.02 1433.77 1004.83 1483 1029.48 1532.28 1004.83 1571.68 926.02"/>
    <polygon class="cls-5" points="1483 793 1433.77 768.36 1364.79 837.34 1364.79 916.15 1394.37 926.02 1483 881.68 1483 793"/>
    <polygon class="cls-84" points="1571.68 689.54 1483 645.2 1394.37 689.54 1433.77 768.36 1483 793 1532.28 768.36 1571.68 689.54"/>
    <polygon class="cls-142" points="1483 556.52 1433.77 531.93 1364.79 600.86 1364.79 679.73 1394.37 689.54 1483 645.2 1483 556.52"/>
    <polygon class="cls-124" points="1571.68 453.08 1483 408.73 1394.37 453.08 1433.77 531.93 1483 556.52 1532.28 531.93 1571.68 453.08"/>
    <polygon class="cls-115" points="1483 320.1 1433.77 295.45 1364.79 364.44 1364.79 443.25 1394.37 453.08 1483 408.73 1483 320.1"/>
    <polygon class="cls-50" points="1577.34 205.37 1532.28 295.45 1483 320.09 1433.77 295.45 1397.18 222.29 1364.78 157.54 1364.78 82.3 1577.34 205.37"/>
    <polygon class="cls-77" points="1577.66 2705.45 1483 2760.26 1483 2684.71 1532.28 2660.07 1577.66 2705.45"/>
    <polygon class="cls-165" points="1667.01 2653.72 1577.66 2705.45 1532.28 2660.07 1563.68 2597.25 1571.68 2581.26 1601.27 2571.39 1605.9 2572.93 1630.79 2581.26 1667.01 2653.72"/>
    <polygon class="cls-91" points="1532.28 2423.59 1483 2448.23 1483 2536.91 1571.68 2581.26 1601.27 2571.38 1601.27 2492.57 1532.28 2423.59"/>
    <polygon class="cls-5" points="1670.19 2423.59 1630.79 2344.79 1601.27 2334.9 1571.68 2344.79 1532.28 2423.59 1601.27 2492.57 1670.19 2423.59"/>
    <polygon class="cls-24" points="1532.28 2187.12 1483 2211.75 1483 2300.45 1571.68 2344.79 1601.27 2334.9 1601.27 2256.09 1532.28 2187.12"/>
    <polygon class="cls-140" points="1670.19 2187.12 1630.79 2108.31 1601.27 2098.48 1571.68 2108.31 1532.28 2187.12 1601.27 2256.09 1670.19 2187.12"/>
    <polygon class="cls-150" points="1532.28 1950.69 1483 1975.33 1483 2063.97 1571.68 2108.31 1601.27 2098.48 1601.27 2019.62 1532.28 1950.69"/>
    <polygon class="cls-133" points="1670.19 1950.69 1630.79 1871.88 1601.27 1862 1571.68 1871.88 1532.28 1950.69 1601.27 2019.62 1670.19 1950.69"/>
    <polygon class="cls-110" points="1532.28 1714.22 1483 1738.86 1483 1827.54 1571.68 1871.88 1601.27 1862 1601.27 1783.2 1532.28 1714.22"/>
    <polygon class="cls-43" points="1670.19 1714.22 1630.79 1635.41 1601.27 1625.52 1571.68 1635.41 1532.28 1714.22 1601.27 1783.2 1670.19 1714.22"/>
    <polygon class="cls-137" points="1532.28 1477.74 1483 1502.38 1483 1591.06 1571.68 1635.41 1601.27 1625.52 1601.27 1546.72 1532.28 1477.74"/>
    <polygon class="cls-114" points="1670.19 1477.74 1630.79 1398.93 1601.27 1389.1 1571.68 1398.93 1532.28 1477.74 1601.27 1546.72 1670.19 1477.74"/>
    <polygon class="cls-148" points="1532.28 1241.31 1483 1265.9 1483 1354.58 1571.68 1398.93 1601.27 1389.1 1601.27 1310.24 1532.28 1241.31"/>
    <polygon class="cls-156" points="1670.19 1241.31 1630.79 1162.45 1601.27 1152.63 1571.68 1162.45 1532.28 1241.31 1601.27 1310.24 1670.19 1241.31"/>
    <polygon class="cls-101" points="1532.28 1004.83 1483 1029.48 1483 1118.16 1571.68 1162.45 1601.27 1152.63 1601.27 1073.82 1532.28 1004.83"/>
    <polygon class="cls-77" points="1670.19 1004.83 1630.79 926.02 1601.27 916.15 1571.68 926.02 1532.28 1004.83 1601.27 1073.82 1670.19 1004.83"/>
    <polygon class="cls-8" points="1532.28 768.36 1483 793 1483 881.68 1571.68 926.02 1601.27 916.15 1601.27 837.34 1532.28 768.36"/>
    <polygon class="cls-93" points="1670.19 768.36 1630.79 689.54 1601.27 679.73 1571.68 689.54 1532.28 768.36 1601.27 837.34 1670.19 768.36"/>
    <polygon class="cls-133" points="1532.28 531.93 1483 556.52 1483 645.2 1571.68 689.54 1601.27 679.73 1601.27 600.86 1532.28 531.93"/>
    <polygon class="cls-155" points="1670.19 531.93 1630.79 453.08 1601.27 443.25 1571.68 453.08 1532.28 531.93 1601.27 600.86 1670.19 531.93"/>
    <polygon class="cls-80" points="1532.28 295.45 1483 320.1 1483 408.73 1571.68 453.08 1601.27 443.25 1601.27 364.44 1532.28 295.45"/>
    <polygon class="cls-135" points="1670.19 295.45 1616.89 348.8 1601.27 364.43 1542.63 305.81 1532.28 295.45 1577.34 205.37 1644.64 244.33 1644.65 244.33 1670.19 295.45"/>
    <polygon class="cls-3" points="1799.57 2576.96 1667.01 2653.72 1630.79 2581.26 1719.48 2536.91 1799.57 2576.96"/>
    <polygon class="cls-51" points="1719.48 2448.23 1670.19 2423.59 1601.27 2492.57 1601.27 2571.38 1630.79 2581.26 1719.48 2536.91 1719.48 2448.23"/>
    <polygon class="cls-16" points="1808.16 2344.79 1719.48 2300.45 1630.79 2344.79 1670.19 2423.59 1719.48 2448.23 1768.76 2423.59 1808.16 2344.79"/>
    <polygon class="cls-133" points="1719.48 2211.75 1670.19 2187.12 1601.27 2256.09 1601.27 2334.9 1630.79 2344.79 1719.48 2300.45 1719.48 2211.75"/>
    <polygon class="cls-121" points="1808.16 2108.31 1719.48 2063.97 1630.79 2108.31 1670.19 2187.12 1719.48 2211.75 1768.76 2187.12 1808.16 2108.31"/>
    <polygon class="cls-166" points="1719.48 1975.33 1670.19 1950.69 1601.27 2019.62 1601.27 2098.48 1630.79 2108.31 1719.48 2063.97 1719.48 1975.33"/>
    <polygon class="cls-61" points="1808.16 1871.88 1719.48 1827.54 1630.79 1871.88 1670.19 1950.69 1719.48 1975.33 1768.76 1950.69 1808.16 1871.88"/>
    <polygon class="cls-105" points="1719.48 1738.86 1670.19 1714.22 1601.27 1783.2 1601.27 1862 1630.79 1871.88 1719.48 1827.54 1719.48 1738.86"/>
    <polygon class="cls-94" points="1808.16 1635.41 1719.48 1591.06 1630.79 1635.41 1670.19 1714.22 1719.48 1738.86 1768.76 1714.22 1808.16 1635.41"/>
    <polygon class="cls-58" points="1719.48 1502.38 1670.19 1477.74 1601.27 1546.72 1601.27 1625.52 1630.79 1635.41 1719.48 1591.06 1719.48 1502.38"/>
    <polygon class="cls-114" points="1808.16 1398.93 1719.48 1354.58 1630.79 1398.93 1670.19 1477.74 1719.48 1502.38 1768.76 1477.74 1808.16 1398.93"/>
    <polygon class="cls-162" points="1719.48 1265.9 1670.19 1241.31 1601.27 1310.24 1601.27 1389.1 1630.79 1398.93 1719.48 1354.58 1719.48 1265.9"/>
    <polygon class="cls-53" points="1808.16 1162.45 1719.48 1118.16 1630.79 1162.45 1670.19 1241.31 1719.48 1265.9 1768.76 1241.31 1808.16 1162.45"/>
    <polygon class="cls-58" points="1719.48 1029.48 1670.19 1004.83 1601.27 1073.82 1601.27 1152.63 1630.79 1162.45 1719.48 1118.16 1719.48 1029.48"/>
    <polygon class="cls-120" points="1808.16 926.02 1719.48 881.68 1630.79 926.02 1670.19 1004.83 1719.48 1029.48 1768.76 1004.83 1808.16 926.02"/>
    <polygon class="cls-61" points="1719.48 793 1670.19 768.36 1601.27 837.34 1601.27 916.15 1630.79 926.02 1719.48 881.68 1719.48 793"/>
    <polygon class="cls-130" points="1808.16 689.54 1719.48 645.2 1630.79 689.54 1670.19 768.36 1719.48 793 1768.76 768.36 1808.16 689.54"/>
    <polygon class="cls-58" points="1719.48 556.52 1670.19 531.93 1601.27 600.86 1601.27 679.73 1630.79 689.54 1719.48 645.2 1719.48 556.52"/>
    <polygon class="cls-35" points="1808.16 453.08 1719.48 408.73 1630.79 453.08 1670.19 531.93 1719.48 556.52 1768.76 531.93 1808.16 453.08"/>
    <polygon class="cls-9" points="1719.48 320.1 1670.19 295.45 1601.27 364.44 1601.27 443.25 1630.79 453.08 1719.48 408.73 1719.48 320.1"/>
    <polygon class="cls-104" points="1749.54 305.06 1719.48 320.09 1670.19 295.45 1644.65 244.33 1749.54 305.06"/>
    <polygon class="cls-17" points="1837.69 2492.57 1837.69 2554.89 1799.57 2576.96 1719.48 2536.91 1719.48 2448.23 1768.76 2423.59 1803.94 2458.8 1837.69 2492.57"/>
    <polygon class="cls-38" points="1906.67 2423.59 1867.27 2344.79 1837.69 2334.9 1808.16 2344.79 1768.76 2423.59 1837.69 2492.57 1906.67 2423.59"/>
    <polygon class="cls-39" points="1768.76 2187.12 1719.48 2211.75 1719.48 2300.45 1808.16 2344.79 1837.69 2334.9 1837.69 2256.09 1768.76 2187.12"/>
    <polygon class="cls-59" points="1906.67 2187.12 1867.27 2108.31 1837.69 2098.48 1808.16 2108.31 1768.76 2187.12 1837.69 2256.09 1906.67 2187.12"/>
    <polygon class="cls-20" points="1768.76 1950.69 1719.48 1975.33 1719.48 2063.97 1808.16 2108.31 1837.69 2098.48 1837.69 2019.62 1768.76 1950.69"/>
    <polygon class="cls-44" points="1906.67 1950.69 1867.27 1871.88 1837.69 1862 1808.16 1871.88 1768.76 1950.69 1837.69 2019.62 1906.67 1950.69"/>
    <polygon class="cls-75" points="1768.76 1714.22 1719.48 1738.86 1719.48 1827.54 1808.16 1871.88 1837.69 1862 1837.69 1783.2 1768.76 1714.22"/>
    <polygon class="cls-156" points="1906.67 1714.22 1867.27 1635.41 1837.69 1625.52 1808.16 1635.41 1768.76 1714.22 1837.69 1783.2 1906.67 1714.22"/>
    <polygon class="cls-143" points="1768.76 1477.74 1719.48 1502.38 1719.48 1591.06 1808.16 1635.41 1837.69 1625.52 1837.69 1546.72 1768.76 1477.74"/>
    <polygon class="cls-126" points="1906.67 1477.74 1867.27 1398.93 1837.69 1389.1 1808.16 1398.93 1768.76 1477.74 1837.69 1546.72 1906.67 1477.74"/>
    <polygon class="cls-108" points="1768.76 1241.31 1719.48 1265.9 1719.48 1354.58 1808.16 1398.93 1837.69 1389.1 1837.69 1310.24 1768.76 1241.31"/>
    <polygon class="cls-107" points="1906.67 1241.31 1867.27 1162.45 1837.69 1152.63 1808.16 1162.45 1768.76 1241.31 1837.69 1310.24 1906.67 1241.31"/>
    <polygon class="cls-148" points="1768.76 1004.83 1719.48 1029.48 1719.48 1118.16 1808.16 1162.45 1837.69 1152.63 1837.69 1073.82 1768.76 1004.83"/>
    <polygon class="cls-15" points="1906.67 1004.83 1867.27 926.02 1837.69 916.15 1808.16 926.02 1768.76 1004.83 1837.69 1073.82 1906.67 1004.83"/>
    <polygon class="cls-53" points="1768.76 768.36 1719.48 793 1719.48 881.68 1808.16 926.02 1837.69 916.15 1837.69 837.34 1768.76 768.36"/>
    <polygon class="cls-52" points="1906.67 768.36 1867.27 689.54 1837.69 679.73 1808.16 689.54 1768.76 768.36 1837.69 837.34 1906.67 768.36"/>
    <polygon class="cls-158" points="1768.76 531.93 1719.48 556.52 1719.48 645.2 1808.16 689.54 1837.69 679.73 1837.69 600.86 1768.76 531.93"/>
    <polygon class="cls-5" points="1906.67 531.93 1867.27 453.08 1837.69 443.25 1808.16 453.08 1768.76 531.93 1837.69 600.86 1906.67 531.93"/>
    <path class="cls-112" d="M1837.69,364.43v78.81l-29.53,9.83-85.39-42.69-.07-.03-.07-.03s-.05-.02-.07-.03-.05-.02-.07-.03c-.02,0-.03-.02-.06-.03l-2.96-1.49v-88.63l30.06-15.03,68.32,39.52h0v.02l.02.02h0l.02.03h0v.02l19.74,19.76h.06Z"/>
    <polygon class="cls-40" points="1842.96 359.16 1837.69 364.43 1817.95 344.68 1842.96 359.16"/>
    <polygon class="cls-41" points="1955.96 2448.23 1955.96 2486.41 1837.69 2554.89 1837.69 2492.57 1906.67 2423.59 1955.96 2448.23"/>
    <polygon class="cls-52" points="2044.59 2344.79 1955.96 2300.45 1867.27 2344.79 1906.67 2423.59 1955.96 2448.23 2005.19 2423.59 2044.59 2344.79"/>
    <polygon class="cls-126" points="1955.96 2211.75 1906.67 2187.12 1837.69 2256.09 1837.69 2334.9 1867.27 2344.79 1955.96 2300.45 1955.96 2211.75"/>
    <polygon class="cls-141" points="2044.59 2108.31 1955.96 2063.97 1867.27 2108.31 1906.67 2187.12 1955.96 2211.75 2005.19 2187.12 2044.59 2108.31"/>
    <polygon class="cls-45" points="1955.96 1975.33 1906.67 1950.69 1837.69 2019.62 1837.69 2098.48 1867.27 2108.31 1955.96 2063.97 1955.96 1975.33"/>
    <polygon class="cls-131" points="2044.59 1871.88 1955.96 1827.54 1867.27 1871.88 1906.67 1950.69 1955.96 1975.33 2005.19 1950.69 2044.59 1871.88"/>
    <polygon class="cls-11" points="1955.96 1738.86 1906.67 1714.22 1837.69 1783.2 1837.69 1862 1867.27 1871.88 1955.96 1827.54 1955.96 1738.86"/>
    <polygon class="cls-117" points="2044.59 1635.41 1955.96 1591.06 1867.27 1635.41 1906.67 1714.22 1955.96 1738.86 2005.19 1714.22 2044.59 1635.41"/>
    <polygon class="cls-117" points="1955.96 1502.38 1906.67 1477.74 1837.69 1546.72 1837.69 1625.52 1867.27 1635.41 1955.96 1591.06 1955.96 1502.38"/>
    <polygon class="cls-80" points="2044.59 1398.93 1955.96 1354.58 1867.27 1398.93 1906.67 1477.74 1955.96 1502.38 2005.19 1477.74 2044.59 1398.93"/>
    <polygon class="cls-120" points="1955.96 1265.9 1906.67 1241.31 1837.69 1310.24 1837.69 1389.1 1867.27 1398.93 1955.96 1354.58 1955.96 1265.9"/>
    <polygon class="cls-77" points="2044.59 1162.45 1955.96 1118.16 1867.27 1162.45 1906.67 1241.31 1955.96 1265.9 2005.19 1241.31 2044.59 1162.45"/>
    <polygon class="cls-156" points="1955.96 1029.48 1906.67 1004.83 1837.69 1073.82 1837.69 1152.63 1867.27 1162.45 1955.96 1118.16 1955.96 1029.48"/>
    <polygon class="cls-18" points="2044.59 926.02 1955.96 881.68 1867.27 926.02 1906.67 1004.83 1955.96 1029.48 2005.19 1004.83 2044.59 926.02"/>
    <polygon class="cls-35" points="1955.96 793 1906.67 768.36 1837.69 837.34 1837.69 916.15 1867.27 926.02 1955.96 881.68 1955.96 793"/>
    <polygon class="cls-146" points="2044.59 689.54 1955.96 645.2 1867.27 689.54 1906.67 768.36 1955.96 793 2005.19 768.36 2044.59 689.54"/>
    <polygon class="cls-15" points="1955.96 556.52 1906.67 531.93 1837.69 600.86 1837.69 679.73 1867.27 689.54 1955.96 645.2 1955.96 556.52"/>
    <polygon class="cls-42" points="2035.74 470.78 2005.19 531.93 1965.28 551.86 1955.96 556.52 1906.67 531.93 1896.64 511.83 1896.62 511.83 1867.28 453.08 1941.26 416.07 2035.74 470.78"/>
    <polygon class="cls-116" points="1941.26 416.07 1867.28 453.08 1837.69 443.25 1837.69 364.43 1842.96 359.16 1941.26 416.07"/>
    <polygon class="cls-128" points="2026.91 2445.33 1955.96 2486.41 1955.96 2448.23 2005.19 2423.59 2026.91 2445.33"/>
    <polygon class="cls-58" points="2125.49 2388.26 2026.91 2445.33 2005.19 2423.59 2044.58 2344.78 2074.17 2334.9 2103.76 2344.78 2125.49 2388.26"/>
    <polygon class="cls-79" points="2005.19 2187.12 1955.96 2211.75 1955.96 2300.45 2044.59 2344.79 2074.17 2334.9 2074.17 2256.09 2005.19 2187.12"/>
    <polygon class="cls-11" points="2143.15 2187.12 2103.74 2108.31 2074.17 2098.48 2044.59 2108.31 2005.19 2187.12 2074.17 2256.09 2143.15 2187.12"/>
    <polygon class="cls-45" points="2005.19 1950.69 1955.96 1975.33 1955.96 2063.97 2044.59 2108.31 2074.17 2098.48 2074.17 2019.62 2005.19 1950.69"/>
    <polygon class="cls-63" points="2143.15 1950.69 2103.74 1871.88 2074.17 1862 2044.59 1871.88 2005.19 1950.69 2074.17 2019.62 2143.15 1950.69"/>
    <polygon class="cls-40" points="2005.19 1714.22 1955.96 1738.86 1955.96 1827.54 2044.59 1871.88 2074.17 1862 2074.17 1783.2 2005.19 1714.22"/>
    <polygon class="cls-58" points="2143.15 1714.22 2103.74 1635.41 2074.17 1625.52 2044.59 1635.41 2005.19 1714.22 2074.17 1783.2 2143.15 1714.22"/>
    <polygon class="cls-60" points="2005.19 1477.74 1955.96 1502.38 1955.96 1591.06 2044.59 1635.41 2074.17 1625.52 2074.17 1546.72 2005.19 1477.74"/>
    <polygon class="cls-109" points="2143.15 1477.74 2103.74 1398.93 2074.17 1389.1 2044.59 1398.93 2005.19 1477.74 2074.17 1546.72 2143.15 1477.74"/>
    <polygon class="cls-16" points="2005.19 1241.31 1955.96 1265.9 1955.96 1354.58 2044.59 1398.93 2074.17 1389.1 2074.17 1310.24 2005.19 1241.31"/>
    <polygon class="cls-19" points="2143.15 1241.31 2103.74 1162.45 2074.17 1152.63 2044.59 1162.45 2005.19 1241.31 2074.17 1310.24 2143.15 1241.31"/>
    <polygon class="cls-135" points="2005.19 1004.83 1955.96 1029.48 1955.96 1118.16 2044.59 1162.45 2074.17 1152.63 2074.17 1073.82 2005.19 1004.83"/>
    <polygon class="cls-80" points="2143.15 1004.83 2103.74 926.02 2074.17 916.15 2044.59 926.02 2005.19 1004.83 2074.17 1073.82 2143.15 1004.83"/>
    <polygon class="cls-155" points="2005.19 768.36 1955.96 793 1955.96 881.68 2044.59 926.02 2074.17 916.15 2074.17 837.34 2005.19 768.36"/>
    <polygon class="cls-161" points="2143.15 768.36 2103.74 689.54 2074.17 679.73 2044.59 689.54 2005.19 768.36 2074.17 837.34 2143.15 768.36"/>
    <polygon class="cls-5" points="2005.19 531.93 1955.96 556.52 1955.96 645.2 2044.59 689.54 2074.17 679.73 2074.17 600.86 2005.19 531.93"/>
    <polygon class="cls-9" points="2142.5 532.59 2074.17 600.86 2005.19 531.93 2035.74 470.78 2142.5 532.59"/>
    <polygon class="cls-33" points="2237.87 2323.18 2125.49 2388.26 2103.76 2344.78 2192.38 2300.43 2237.87 2323.18"/>
    <polygon class="cls-91" points="2192.38 2211.75 2143.15 2187.12 2074.17 2256.09 2074.17 2334.9 2103.74 2344.79 2192.38 2300.45 2192.38 2211.75"/>
    <polygon class="cls-62" points="2281.07 2108.31 2192.38 2063.97 2103.74 2108.31 2143.15 2187.12 2192.38 2211.75 2241.66 2187.12 2281.07 2108.31"/>
    <polygon class="cls-8" points="2192.38 1975.33 2143.15 1950.69 2074.17 2019.62 2074.17 2098.48 2103.74 2108.31 2192.38 2063.97 2192.38 1975.33"/>
    <polygon class="cls-103" points="2281.07 1871.88 2192.38 1827.54 2103.74 1871.88 2143.15 1950.69 2192.38 1975.33 2241.66 1950.69 2281.07 1871.88"/>
    <polygon class="cls-3" points="2192.38 1738.86 2143.15 1714.22 2074.17 1783.2 2074.17 1862 2103.74 1871.88 2192.38 1827.54 2192.38 1738.86"/>
    <polygon class="cls-9" points="2281.07 1635.41 2192.38 1591.06 2103.74 1635.41 2143.15 1714.22 2192.38 1738.86 2241.66 1714.22 2281.07 1635.41"/>
    <polygon class="cls-142" points="2192.38 1502.38 2143.15 1477.74 2074.17 1546.72 2074.17 1625.52 2103.74 1635.41 2192.38 1591.06 2192.38 1502.38"/>
    <polygon class="cls-146" points="2281.07 1398.93 2192.38 1354.58 2103.74 1398.93 2143.15 1477.74 2192.38 1502.38 2241.66 1477.74 2281.07 1398.93"/>
    <polygon class="cls-52" points="2192.38 1265.9 2143.15 1241.31 2074.17 1310.24 2074.17 1389.1 2103.74 1398.93 2192.38 1354.58 2192.38 1265.9"/>
    <polygon class="cls-58" points="2281.07 1162.45 2192.38 1118.16 2103.74 1162.45 2143.15 1241.31 2192.38 1265.9 2241.66 1241.31 2281.07 1162.45"/>
    <polygon class="cls-146" points="2192.38 1029.48 2143.15 1004.83 2074.17 1073.82 2074.17 1152.63 2103.74 1162.45 2192.38 1118.16 2192.38 1029.48"/>
    <polygon class="cls-155" points="2281.07 926.02 2192.38 881.68 2103.74 926.02 2143.15 1004.83 2192.38 1029.48 2241.66 1004.83 2281.07 926.02"/>
    <polygon class="cls-79" points="2192.38 793 2143.15 768.36 2074.17 837.34 2074.17 916.15 2103.74 926.02 2192.38 881.68 2192.38 793"/>
    <polygon class="cls-13" points="2281.07 689.54 2192.38 645.2 2103.74 689.54 2143.15 768.36 2192.38 793 2241.66 768.36 2281.07 689.54"/>
    <polygon class="cls-16" points="2192.38 556.52 2192.38 645.2 2156.83 663 2103.76 689.55 2074.17 679.73 2074.17 600.86 2142.5 532.59 2143.15 531.93 2192.38 556.52"/>
    <polygon class="cls-79" points="2310.65 2256.09 2310.65 2281.04 2237.87 2323.18 2192.38 2300.43 2192.38 2211.75 2241.67 2187.12 2310.65 2256.09"/>
    <polygon class="cls-11" points="2379.58 2187.12 2340.18 2108.31 2310.65 2098.48 2281.07 2108.31 2241.66 2187.12 2310.65 2256.09 2379.58 2187.12"/>
    <polygon class="cls-40" points="2241.66 1950.69 2192.38 1975.33 2192.38 2063.97 2281.07 2108.31 2310.65 2098.48 2310.65 2019.62 2241.66 1950.69"/>
    <polygon class="cls-49" points="2379.58 1950.69 2340.18 1871.88 2310.65 1862 2281.07 1871.88 2241.66 1950.69 2310.65 2019.62 2379.58 1950.69"/>
    <polygon class="cls-93" points="2241.66 1714.22 2192.38 1738.86 2192.38 1827.54 2281.07 1871.88 2310.65 1862 2310.65 1783.2 2241.66 1714.22"/>
    <polygon class="cls-107" points="2379.58 1714.22 2340.18 1635.41 2310.65 1625.52 2281.07 1635.41 2241.66 1714.22 2310.65 1783.2 2379.58 1714.22"/>
    <polygon class="cls-28" points="2241.66 1477.74 2192.38 1502.38 2192.38 1591.06 2281.07 1635.41 2310.65 1625.52 2310.65 1546.72 2241.66 1477.74"/>
    <polygon class="cls-44" points="2379.58 1477.74 2340.18 1398.93 2310.65 1389.1 2281.07 1398.93 2241.66 1477.74 2310.65 1546.72 2379.58 1477.74"/>
    <polygon class="cls-37" points="2241.66 1241.31 2192.38 1265.9 2192.38 1354.58 2281.07 1398.93 2310.65 1389.1 2310.65 1310.24 2241.66 1241.31"/>
    <polygon class="cls-73" points="2379.58 1241.31 2340.18 1162.45 2310.65 1152.63 2281.07 1162.45 2241.66 1241.31 2310.65 1310.24 2379.58 1241.31"/>
    <polygon class="cls-33" points="2241.66 1004.83 2192.38 1029.48 2192.38 1118.16 2281.07 1162.45 2310.65 1152.63 2310.65 1073.82 2241.66 1004.83"/>
    <polygon class="cls-37" points="2379.58 1004.83 2340.18 926.02 2310.65 916.15 2281.07 926.02 2241.66 1004.83 2310.65 1073.82 2379.58 1004.83"/>
    <polygon class="cls-138" points="2241.66 768.36 2192.38 793 2192.38 881.68 2281.07 926.02 2310.65 916.15 2310.65 837.34 2241.66 768.36"/>
    <polygon class="cls-116" points="2379.58 768.36 2340.18 689.54 2310.65 679.73 2281.07 689.54 2241.66 768.36 2310.65 837.34 2379.58 768.36"/>
    <polygon class="cls-29" points="2310.65 629.96 2310.65 679.73 2281.06 689.55 2192.38 645.2 2192.38 561.48 2310.65 629.96"/>
    <polygon class="cls-99" points="2428.86 2211.75 2428.86 2212.6 2310.65 2281.04 2310.65 2256.09 2379.58 2187.12 2428.86 2211.75"/>
    <polygon class="cls-157" points="2499.34 2099.21 2499.34 2144.71 2480.28 2182.83 2480.27 2182.83 2478.13 2187.12 2439.59 2206.38 2439.58 2206.39 2428.86 2211.75 2379.58 2187.12 2340.18 2108.31 2399.37 2078.71 2399.37 2078.7 2428.86 2063.97 2499.34 2099.21"/>
    <polygon class="cls-112" points="2428.86 1975.33 2379.58 1950.69 2310.65 2019.62 2310.65 2098.48 2340.18 2108.31 2428.86 2063.97 2428.86 1975.33"/>
    <polygon class="cls-80" points="2499.34 1862.79 2499.34 1908.29 2478.13 1950.68 2428.86 1975.33 2399.49 1960.65 2379.58 1950.68 2340.18 1871.89 2399.61 1842.16 2428.86 1827.55 2499.34 1862.79"/>
    <polygon class="cls-68" points="2428.86 1738.86 2379.58 1714.22 2310.65 1783.2 2310.65 1862 2340.18 1871.88 2428.86 1827.54 2428.86 1738.86"/>
    <polygon class="cls-8" points="2499.34 1626.31 2499.34 1671.81 2478.13 1714.21 2428.86 1738.84 2399.73 1724.28 2379.58 1714.21 2340.18 1635.41 2399.85 1605.57 2399.85 1605.56 2428.86 1591.07 2499.34 1626.31"/>
    <polygon class="cls-8" points="2428.86 1502.38 2379.58 1477.74 2310.65 1546.72 2310.65 1625.52 2340.18 1635.41 2428.86 1591.06 2428.86 1502.38"/>
    <polygon class="cls-34" points="2499.34 1389.82 2499.34 1435.34 2478.13 1477.74 2428.86 1502.38 2399.97 1487.93 2379.58 1477.74 2340.18 1398.93 2400.08 1368.97 2428.86 1354.58 2499.34 1389.82"/>
    <polygon class="cls-25" points="2428.86 1265.9 2379.58 1241.31 2310.65 1310.24 2310.65 1389.1 2340.18 1398.93 2428.86 1354.58 2428.86 1265.9"/>
    <polygon class="cls-2" points="2499.34 1153.36 2499.34 1198.89 2478.13 1241.32 2428.86 1265.9 2400.2 1251.6 2379.58 1241.32 2340.18 1162.44 2400.32 1132.41 2428.86 1118.16 2499.34 1153.36"/>
    <polygon class="cls-90" points="2428.86 1029.48 2379.58 1004.83 2310.65 1073.82 2310.65 1152.63 2340.18 1162.45 2428.86 1118.16 2428.86 1029.48"/>
    <polygon class="cls-6" points="2499.34 916.92 2499.34 962.43 2478.13 1004.84 2428.86 1029.48 2400.44 1015.27 2379.58 1004.84 2340.18 926.02 2400.56 895.83 2428.86 881.68 2499.34 916.92"/>
    <polygon class="cls-145" points="2428.86 793 2379.58 768.36 2310.65 837.34 2310.65 916.15 2340.18 926.02 2428.86 881.68 2428.86 793"/>
    <polygon class="cls-124" points="2494.19 736.24 2478.13 768.35 2428.86 793 2379.58 768.35 2340.18 689.55 2379.57 669.85 2494.19 736.24"/>
    <polygon class="cls-106" points="2379.57 669.85 2340.18 689.55 2310.65 679.73 2310.65 629.96 2379.57 669.85"/>
    <polygon class="cls-57" points="2439.58 2206.39 2428.86 2212.6 2428.86 2211.75 2439.58 2206.39"/>
    <polygon class="cls-7" points="2499.34 2144.71 2499.34 2171.79 2480.28 2182.83 2499.34 2144.71"/>
    <polygon class="cls-25" points="2499.34 1971.89 2499.34 2099.21 2428.86 2063.97 2428.86 1975.33 2478.13 1950.68 2499.34 1971.89"/>
    <polygon class="cls-49" points="2499.34 1908.29 2499.34 1971.89 2478.13 1950.68 2499.34 1908.29"/>
    <polygon class="cls-40" points="2499.34 1735.43 2499.34 1862.79 2428.86 1827.55 2428.86 1738.84 2478.13 1714.21 2499.34 1735.43"/>
    <polygon class="cls-52" points="2499.34 1671.81 2499.34 1735.43 2478.13 1714.21 2499.34 1671.81"/>
    <polygon class="cls-15" points="2499.34 1498.96 2499.34 1626.31 2428.86 1591.07 2428.86 1502.38 2478.13 1477.74 2499.34 1498.96"/>
    <polygon class="cls-140" points="152.93 2108.31 143.87 2126.44 113.52 2187.12 78.53 2204.6 21.66 2171.79 21.66 2085.26 64.24 2063.97 124.83 2094.26 152.93 2108.31"/>
    <polygon class="cls-8" points="2499.34 1435.34 2499.34 1498.96 2478.13 1477.74 2499.34 1435.34"/>
    <polygon class="cls-102" points="2499.34 1262.52 2499.34 1389.82 2428.86 1354.58 2428.86 1265.9 2478.13 1241.32 2499.34 1262.52"/>
    <polygon class="cls-40" points="2499.34 1198.89 2499.34 1262.52 2478.13 1241.32 2499.34 1198.89"/>
    <polygon class="cls-8" points="2499.34 1026.05 2499.34 1153.36 2428.86 1118.16 2428.86 1029.48 2478.13 1004.84 2499.34 1026.05"/>
    <polygon class="cls-16" points="2499.34 962.43 2499.34 1026.05 2478.13 1004.84 2499.34 962.43"/>
    <polygon class="cls-64" points="2499.34 789.57 2499.34 916.92 2428.86 881.68 2428.86 793 2478.13 768.35 2499.34 789.57"/>
    <polygon class="cls-96" points="2499.34 739.21 2499.34 789.57 2478.13 768.35 2494.19 736.24 2499.34 739.21"/>
    <polygon class="cls-64" points="64.24 1975.33 64.24 2063.97 21.66 2085.26 21.66 1954.04 64.24 1975.33"/>
    <polygon class="cls-133" points="152.93 1871.89 124.18 1929.39 124.18 1929.4 113.52 1950.68 64.24 1975.33 21.66 1954.04 21.66 1848.84 64.24 1827.55 123.94 1857.39 123.94 1857.4 152.93 1871.89"/>
    <polygon class="cls-80" points="64.24 1738.84 64.24 1827.55 21.66 1848.84 21.66 1717.57 64.24 1738.84"/>
    <polygon class="cls-106" points="152.93 1635.41 123.56 1694.14 123.56 1694.15 113.52 1714.21 64.24 1738.84 21.66 1717.57 21.66 1612.36 64.24 1591.07 123.46 1620.67 152.93 1635.41"/>
    <polygon class="cls-62" points="64.24 1502.38 64.24 1591.07 21.66 1612.36 21.66 1481.1 64.24 1502.38"/>
    <polygon class="cls-89" points="152.93 1398.93 123.4 1457.99 113.52 1477.74 64.24 1502.38 21.66 1481.1 21.66 1375.88 64.24 1354.58 123.47 1384.19 152.93 1398.93"/>
    <polygon class="cls-73" points="64.24 1265.9 64.24 1354.58 21.66 1375.88 21.66 1244.67 64.24 1265.9"/>
    <polygon class="cls-143" points="152.93 1162.44 123.79 1220.76 113.52 1241.32 64.24 1265.9 21.66 1244.67 21.66 1139.43 64.24 1118.16 124.05 1148.02 152.93 1162.44"/>
    <polygon class="cls-99" points="64.24 1029.48 64.24 1118.16 21.66 1139.43 21.66 1008.19 64.24 1029.48"/>
    <polygon class="cls-143" points="152.93 926.02 124.85 982.19 124.85 982.2 113.52 1004.84 64.24 1029.48 21.66 1008.19 21.66 902.97 64.24 881.68 125.3 912.21 152.93 926.02"/>
    <polygon class="cls-64" points="64.24 793 64.24 881.68 21.66 902.97 21.66 771.71 64.24 793"/>
    <polygon class="cls-145" points="152.93 689.55 113.52 768.35 64.24 793 21.66 771.71 21.66 739.21 128.61 677.4 152.93 689.55"/>
    <polygon class="cls-93" points="182.45 2256.09 182.45 2264.55 78.53 2204.6 113.52 2187.12 182.45 2256.09"/>
    <polygon class="cls-35" points="251.44 2187.12 212.03 2108.31 182.46 2098.48 152.93 2108.31 113.52 2187.12 182.46 2256.09 251.44 2187.12"/>
    <polygon class="cls-20" points="113.52 1950.69 64.25 1975.33 64.25 2063.97 152.93 2108.31 182.46 2098.48 182.46 2019.62 113.52 1950.69"/>
    <polygon class="cls-120" points="251.44 1950.69 212.03 1871.88 182.46 1862 152.93 1871.88 113.52 1950.69 182.46 2019.62 251.44 1950.69"/>
    <polygon class="cls-10" points="113.52 1714.22 64.25 1738.86 64.25 1827.54 152.93 1871.88 182.46 1862 182.46 1783.2 113.52 1714.22"/>
    <polygon class="cls-143" points="251.44 1714.22 212.03 1635.41 182.46 1625.52 152.93 1635.41 113.52 1714.22 182.46 1783.2 251.44 1714.22"/>
    <polygon class="cls-7" points="113.52 1477.74 64.25 1502.38 64.25 1591.06 152.93 1635.41 182.46 1625.52 182.46 1546.72 113.52 1477.74"/>
    <polygon class="cls-16" points="251.44 1477.74 212.03 1398.93 182.46 1389.1 152.93 1398.93 113.52 1477.74 182.46 1546.72 251.44 1477.74"/>
    <polygon class="cls-61" points="113.52 1241.31 64.25 1265.9 64.25 1354.58 152.93 1398.93 182.46 1389.1 182.46 1310.24 113.52 1241.31"/>
    <polygon class="cls-13" points="251.44 1241.31 212.03 1162.45 182.46 1152.63 152.93 1162.45 113.52 1241.31 182.46 1310.24 251.44 1241.31"/>
    <polygon class="cls-34" points="113.52 1004.83 64.25 1029.48 64.25 1118.16 152.93 1162.45 182.46 1152.63 182.46 1073.82 113.52 1004.83"/>
    <polygon class="cls-127" points="251.44 1004.83 212.03 926.02 182.46 916.15 152.93 926.02 113.52 1004.83 182.46 1073.82 251.44 1004.83"/>
    <polygon class="cls-71" points="113.52 768.36 64.25 793 64.25 881.68 152.93 926.02 182.46 916.15 182.46 837.34 113.52 768.36"/>
    <polygon class="cls-69" points="251.44 768.36 212.03 689.54 182.46 679.73 152.93 689.54 113.52 768.36 182.46 837.34 251.44 768.36"/>
    <polygon class="cls-65" points="182.45 646.28 182.45 679.73 152.93 689.55 128.61 677.4 182.45 646.28"/>
  </g>
  <g>
    <path id="prismatic" class="cls-168" d="M2171.17,1605.21c-24.8,0-46.99-4.8-66.6-14.4-19.6-9.6-34.94-23.06-46-40.4-11.06-17.34-16.6-36.93-16.6-58.8s5.53-41.39,16.6-58.6c11.06-17.2,26.4-30.6,46-40.2,19.6-9.6,41.79-14.4,66.6-14.4,26.66,0,49.46,5.74,68.4,17.2,18.94,11.46,32,27.34,39.2,47.6l-70,34.4c-8.54-19.2-21.2-28.8-38-28.8-10.66,0-19.53,3.74-26.59,11.2-7.06,7.46-10.61,18-10.61,31.6s3.53,24.54,10.61,32c7.06,7.46,15.93,11.2,26.59,11.2,16.8,0,29.46-9.6,38-28.8l70,34.4c-7.2,20.26-20.26,36.14-39.2,47.6-18.94,11.46-41.73,17.2-68.4,17.2h0Z"/>
    <path id="Shape" class="cls-168" d="M1923.18,1382.42h90.39v218.79h-90.39v-218.79ZM1968.37,1364.82c-16.26,0-29.39-4.33-39.39-13s-14.99-19.67-14.99-33,5.01-24.33,14.99-33c9.99-8.67,23.13-13,39.39-13s29.74,4.14,39.6,12.4c9.86,8.26,14.8,18.94,14.8,32,0,13.86-4.94,25.27-14.8,34.2-9.86,8.94-23.06,13.39-39.6,13.39v.02Z"/>
    <path id="path1" class="cls-168" d="M1900.37,1593.61c-13.6,7.74-32.14,11.6-55.6,11.6-30.66,0-54.26-7.39-70.8-22.19-16.54-14.8-24.8-36.99-24.8-66.6v-56h-30v-66h30v-61.2h90.39v61.2h44.8v66h-44.8v55.2c0,6.66,1.74,11.86,5.2,15.6,3.46,3.74,8,5.6,13.6,5.6,7.74,0,14.54-2,20.4-6l21.6,62.8h0Z"/>
    <path id="path2" class="cls-168" d="M1581.59,1378.42c38.4,0,67.73,8.59,88,25.79,20.26,17.2,30.4,43.67,30.4,79.4v117.59h-84v-28.8c-10.4,21.86-31.06,32.8-62,32.8-17.34,0-32.07-2.99-44.2-9.01-12.14-6-21.34-14.14-27.6-24.4s-9.41-21.79-9.41-34.6c0-21.6,8.26-38,24.8-49.2,16.54-11.2,41.6-16.8,75.2-16.8h36.4c-2.94-17.06-16.66-25.6-41.2-25.6-9.86,0-19.86,1.53-30,4.59s-18.8,7.27-26,12.61l-28.8-59.6c12.54-7.74,27.67-13.79,45.39-18.19,17.72-4.4,35.39-6.61,53-6.61h.01ZM1581.19,1550.81c6.4,0,12.14-1.74,17.2-5.2s8.8-8.66,11.2-15.6v-15.2h-22.4c-18.4,0-27.6,6.14-27.6,18.4,0,5.06,1.93,9.27,5.79,12.61s9.13,5.01,15.8,5.01h0Z"/>
    <path id="path3" class="cls-168" d="M1357.2,1378.42c26.4,0,47.53,8.14,63.39,24.4s23.79,40.8,23.79,73.6v124.79h-90.39v-109.19c0-25.06-8.14-37.6-24.4-37.6-8.54,0-15.39,3.2-20.6,9.6-5.2,6.4-7.79,16.54-7.79,30.4v106.79h-90.39v-109.19c0-25.06-8.14-37.6-24.4-37.6-8.54,0-15.39,3.2-20.6,9.6-5.2,6.4-7.79,16.54-7.79,30.4v106.79h-90.39v-218.79h86v20.4c16.26-16.26,36.94-24.4,62-24.4,14.66,0,27.86,2.73,39.6,8.21,11.74,5.46,21.34,13.79,28.8,25,8.8-10.66,19.46-18.87,32-24.6,12.54-5.74,26.26-8.61,41.2-8.61h.01Z"/>
    <path id="path4" class="cls-168" d="M927.23,1605.21c-18.66,0-37.06-2-55.2-6-18.14-4-32.8-9.2-44-15.6l24.8-59.6c10.14,6.14,22.14,10.94,36,14.4,13.86,3.46,27.34,5.2,40.4,5.2,10.4,0,17.67-.87,21.8-2.61s6.19-4.33,6.19-7.81-2.59-5.86-7.79-7.2c-5.2-1.34-13.67-2.66-25.39-4-17.86-2.14-33.06-4.87-45.6-8.21-12.54-3.34-23.53-9.79-33-19.39-9.46-9.6-14.2-23.34-14.2-41.2,0-14.14,4.26-26.8,12.8-38,8.54-11.2,21.27-20.14,38.19-26.8,16.94-6.66,37.27-10,61-10,16.54,0,32.73,1.53,48.6,4.61,15.87,3.07,29.39,7.53,40.6,13.39l-24.8,59.6c-19.2-10.66-40.26-16-63.2-16-19.74,0-29.6,3.46-29.6,10.4,0,3.46,2.66,5.93,8,7.39,5.34,1.46,13.74,2.87,25.2,4.21,17.86,2.14,32.99,4.94,45.39,8.4,12.4,3.46,23.34,10,32.8,19.6s14.2,23.34,14.2,41.2c0,13.6-4.26,26-12.8,37.2-8.54,11.2-21.34,20.14-38.4,26.8s-37.74,10-62,10h-.01Z"/>
    <path id="path5" class="cls-168" d="M711.24,1382.42h90.39v218.79h-90.39v-218.79ZM756.44,1364.82c-16.26,0-29.39-4.33-39.39-13-10-8.67-14.99-19.67-14.99-33s5.01-24.33,14.99-33c9.99-8.67,23.13-13,39.39-13s29.74,4.14,39.6,12.4c9.86,8.26,14.8,18.94,14.8,32,0,13.86-4.94,25.27-14.8,34.2-9.86,8.94-23.06,13.39-39.6,13.39v.02Z"/>
    <path id="path6" class="cls-168" d="M614.85,1406.02c16-18.4,39.6-27.6,70.8-27.6v80c-7.2-1.06-13.86-1.6-20-1.6-30.94,0-46.4,15.74-46.4,47.2v97.19h-90.39v-218.79h86v23.6h0Z"/>
    <path id="path7" class="cls-168" d="M394.86,1378.42c19.2,0,36.87,4.61,53,13.79,16.14,9.2,28.94,22.47,38.4,39.8,9.46,17.34,14.2,37.34,14.2,60s-4.73,42.59-14.2,59.79c-9.46,17.2-22.26,30.4-38.4,39.6s-33.79,13.79-53,13.79c-24.26,0-42.8-6.26-55.6-18.8v92.39h-90.39v-296.38h86v18c13.06-14.66,33.06-22,60-22h0ZM373.26,1534.81c10.4,0,18.94-3.74,25.6-11.2s10-18,10-31.6-3.34-24.19-10-31.8c-6.66-7.6-15.2-11.39-25.6-11.39s-18.94,3.79-25.6,11.39-10,18.2-10,31.8,3.34,24.14,10,31.6,15.2,11.2,25.6,11.2Z"/>
  </g>
  <path class="cls-169" d="M2515.77,723.66l-116.63-67.54-70.12-40.59-120.34-69.68-50.76-29.39-108.62-62.9-96.12-55.65-100.03-57.91-25.44-14.74h-.01v-.02s-.03-.02-.03-.02h-.01l-.02-.03h-.01v-.02s-69.53-40.2-69.53-40.2l-106.71-61.79h-.01l-68.48-39.65-216.27-125.22L1266.21.15h-9.14l-131.07,75.76-209.5,121.08-87.41,50.52-78.59,45.41-105.67,61.07-89.59,51.78-105.37,60.9-104.52,60.42h-.01l-61.4,35.48-120.34,69.55-54.79,31.66L0,726.68v1457.63l57.87,33.38,105.73,61,89.78,51.79,105.31,60.76,104.63,60.35,61.23,35.34,120.28,69.38,55.38,31.95,125.32,72.3,95.53,55.11,84.67,48.84,117.63,67.86,39.6,22.84,96.41,55.62h6.86l50.17-29.05,73.5-42.56,97-56.17,96.31-55.77,90.92-52.64,134.87-78.1,38.79-22.46,120.34-69.68,72.2-41.8,100.29-58.07,114.35-66.21,74.05-42.88,120.28-69.64,10.9-6.31h.01l41.39-23.98h.01l19.39-11.23V726.68l-5.23-3.03ZM2208.67,2248.58l-120.28,69.32-53.4,30.78-126.5,72.9-95.06,54.77-85.94,49.53-115.57,66.6-42.95,24.74-120.8,69.62-40.32,23.23-52.34,30.17-93.14,53.67-16.06-9.25-97.51-56.15-90.58-52.15-136.46-78.57-36.33-20.91-120.34-69.29-74.36-42.81-99.58-57.33-116.71-67.2-70.24-40.44-120.28-69.24-51.29-29.53-87.9-50.61c-4.57-4.32-12.68-8.08-20.41-12.25-9.43-5.1-18.26-10.8-19.31-18.87-.02-4.63-.05-9.26-.06-13.88-.21-45.05-.39-90.09-.55-135.14-.05-10.87-.08-21.74-.11-32.6h0c-.09-24.43-.17-48.84-.24-73.26h0c-.14-45.15-.25-90.28-.33-135.42-.02-10.23-.05-20.46-.06-30.68h0c-.05-24.94-.08-49.85-.1-74.76-.05-45.13-.07-90.26-.07-135.39,0-10.05,0-20.09.01-30.14.01-25.03.03-50.05.07-75.09.05-45,.13-90.01.25-135.01.02-10.42.06-20.84.08-31.28.08-24.66.16-49.33.26-74.01.16-44.79.37-89.56.62-134.36h0c.06-11.46.13-22.91.19-34.36h0c.14-23.75.29-47.48.46-71.22.25-37.35.54-74.69.85-112.04l13.61-7.87,98.6-57.04,118.15-68.36,67.56-39.08,120.34-69.62,52.58-30.42,107.9-62.42,97.78-56.57,99.18-57.38,16.35-9.46,79.64-46.08,101.67-58.82,71.9-41.6,107.24-62.04c3.35-.83,4.35-.22,7.27.8,10.37,3.63,33.66,19.38,45.09,25.84,12.36,6.98,24.73,13.98,37.08,20.99,17.12,9.7,34.22,19.43,51.31,29.19,44.51,25.38,88.94,50.89,133.33,76.51,4.89,2.81,9.78,5.65,14.67,8.47,25.2,14.55,50.39,29.14,75.55,43.75,34.82,20.19,69.61,40.44,104.38,60.71.99.59,2.01,1.19,3.02,1.78.02.01.03.02.06.03s.05.02.07.03c.02,0,.05.02.07.03l.07.03.07.03c28.03,16.33,56.05,32.68,84.09,49.05,30.94,18.04,61.87,36.11,92.81,54.17h.01c23.28,13.59,46.56,27.16,69.85,40.73,36.91,21.51,73.84,42.99,110.79,64.43,28.01,16.25,56.04,32.47,84.1,48.65,36.19,20.89,72.43,41.71,108.71,62.44,34.52,19.75,69.1,39.41,103.73,58.98,6.73,3.81,13.46,7.61,20.19,11.41,7.12,4.86,16.57,8.56,15.44,18.83l-.08,85.25-.13,121.52-.11,119.19-.13,121.27-.11,119.42-.13,121.04-.11,119.68h0l-.13,120.79-.11,119.95-.13,120.55-.11,120.12h0l-.03,35.28-7.21,6.5-36.62,21.1-104.06,59.97-62.69,36.12h0Z"/>
</svg>